<svg viewBox="0 0 92 80" fill="none" xmlns="http://www.w3.org/2000/svg"><path d="M42.6191 1.70917L52.646 11.0891H80.7921C86.9164 11.0891 91.8812 16.0539 91.8812 22.1782V68.9109C91.8812 75.0352 86.9164 80 80.7921 80H11.0891C4.96476 80 0 75.0352 0 68.9109V11.0891C0 4.96476 4.96476 0 11.0891 0H38.2902C39.8977 0 41.4452 0.610974 42.6191 1.70917Z" fill="#D291FF"/><rect x="3.16832" y="13.4653" width="85.5446" height="63.3663" rx="12" fill="#1F0040"/><path d="M48.9295 58.6138H42.9517L40.5755 52.4319H29.6968L27.4505 58.6138H21.6213L32.2215 31.3985H38.0322L48.9295 58.6138ZM38.8119 47.8465L35.0619 37.7475L31.3861 47.8465H38.8119Z" fill="#DDD4F5"/><path d="M63.2426 52.3391L68.4406 53.2116C67.7723 55.1176 66.7141 56.5718 65.2661 57.5742C63.8305 58.5643 62.0297 59.0594 59.8639 59.0594C56.4356 59.0594 53.8985 57.9393 52.2525 55.6992C50.953 53.9047 50.3032 51.6398 50.3032 48.9047C50.3032 45.6374 51.1572 43.0817 52.8651 41.2376C54.573 39.3812 56.7327 38.453 59.3441 38.453C62.2772 38.453 64.5916 39.4245 66.2871 41.3676C67.9827 43.2983 68.7933 46.2624 68.7191 50.2599H55.6498C55.6869 51.8069 56.1077 53.0136 56.9121 53.8799C57.7166 54.7339 58.7191 55.1609 59.9196 55.1609C60.7364 55.1609 61.4233 54.9381 61.9802 54.4926C62.5371 54.047 62.9579 53.3292 63.2426 52.3391ZM63.5396 47.0668C63.5025 45.5569 63.1126 44.4121 62.3701 43.6324C61.6275 42.8403 60.724 42.4443 59.6597 42.4443C58.521 42.4443 57.5805 42.8589 56.8379 43.6881C56.0953 44.5173 55.7302 45.6435 55.7426 47.0668H63.5396Z" fill="#DDD4F5"/></svg>