<svg viewBox="0 0 60 60" fill="none" xmlns="http://www.w3.org/2000/svg"><path d="M30 0V8.75M0 30H8.75M30 60V51.25M60 30H51.25M42.25 42.5V38.875C42.25 35.625 39.875 32.875 36.875 32L36 31.75L30 37.75L24 31.75L23.125 32C20.125 32.875 17.875 35.75 17.875 38.875V42.5M42.3739 17.6258C49.208 24.4599 49.208 35.5401 42.3739 42.3742C35.5398 49.2084 24.4595 49.2084 17.6254 42.3742C10.7913 35.5401 10.7913 24.4599 17.6254 17.6258C24.4595 10.7916 35.5398 10.7916 42.3739 17.6258ZM34.875 23.75C34.875 26.4424 32.6924 28.625 30 28.625C27.3076 28.625 25.125 26.4424 25.125 23.75C25.125 21.0576 27.3076 18.875 30 18.875C32.6924 18.875 34.875 21.0576 34.875 23.75ZM55 30C55 43.8071 43.8071 55 30 55C16.1929 55 5 43.8071 5 30C5 16.1929 16.1929 5 30 5C43.8071 5 55 16.1929 55 30Z" stroke="#0069FF" stroke-width="2" stroke-miterlimit="10"></path></svg>