<svg viewBox="0 0 60 60" stroke="#0069FF" stroke-width="2" xmlns="http://www.w3.org/2000/svg"><path d="M44.3027 20.2969V43.4531C44.3027 44.8242 43.1836 45.9434 41.8066 45.9434H38.9531V52.9981C38.9531 54.791 37.5234 56.2442 35.7539 56.2442C33.9902 56.2442 32.5547 54.7852 32.5547 52.9981V45.9434H27.5742V53.0039C27.5742 54.7969 26.1445 56.25 24.375 56.25C22.6113 56.25 21.1758 54.791 21.1758 53.0039V45.9492H18.3223C16.9453 45.9492 15.8262 44.8301 15.8262 43.459V20.2969M44.3027 20.2969H15.8262M44.3027 20.2969C43.916 15.9844 40.9277 10.2422 36.75 8.29689L39.3809 4.4883C39.5332 4.26564 39.498 3.96681 39.293 3.82033C39.0879 3.6797 38.7949 3.75002 38.6426 3.97267L35.9121 7.93361C34.1133 7.22463 32.1094 6.83205 30.0059 6.83205C27.9023 6.83205 25.8984 7.22463 24.0996 7.93361L21.3691 3.97853C21.2168 3.75588 20.9238 3.6797 20.7187 3.82619C20.5137 3.96681 20.4785 4.25978 20.6309 4.49416L23.2617 8.30275C19.0781 10.2481 16.2012 15.9903 15.8262 20.2969M24.055 15.5779C23.7432 15.5779 23.4385 15.4855 23.1793 15.3123C22.9201 15.1391 22.7181 14.8929 22.5988 14.6049C22.4795 14.3169 22.4483 14 22.5091 13.6943C22.5699 13.3885 22.72 13.1077 22.9404 12.8872C23.1609 12.6668 23.4417 12.5167 23.7475 12.4559C24.0532 12.395 24.3701 12.4263 24.6581 12.5456C24.9461 12.6649 25.1923 12.8669 25.3655 13.1261C25.5387 13.3853 25.6311 13.69 25.6311 14.0017C25.63 14.4194 25.4636 14.8197 25.1683 15.1151C24.8729 15.4104 24.4726 15.5768 24.055 15.5779ZM36.2659 15.5779C35.9542 15.5779 35.6494 15.4855 35.3902 15.3123C35.131 15.1391 34.929 14.8929 34.8097 14.6049C34.6904 14.3169 34.6592 14 34.72 13.6943C34.7808 13.3885 34.9309 13.1077 35.1514 12.8872C35.3718 12.6668 35.6527 12.5167 35.9584 12.4559C36.2641 12.395 36.5811 12.4263 36.8691 12.5456C37.1571 12.6649 37.4032 12.8669 37.5764 13.1261C37.7496 13.3853 37.8421 13.69 37.8421 14.0017C37.841 14.4194 37.6746 14.8197 37.3792 15.1151C37.0839 15.4104 36.6836 15.5768 36.2659 15.5779ZM47.502 20.1973C45.7324 20.1973 44.3027 21.6504 44.3027 23.4434V36.1231C44.3027 37.9102 45.7383 39.3692 47.502 39.3692C49.2715 39.3692 50.7012 37.916 50.7012 36.1231V23.4375C50.707 21.6445 49.2773 20.1973 47.502 20.1973ZM12.627 20.2031C10.8574 20.2031 9.42773 21.6563 9.42773 23.4492V36.1289C9.42773 37.916 10.8633 39.375 12.627 39.375C14.3965 39.375 15.8262 37.9219 15.8262 36.1289V23.4434C15.8262 21.6504 14.3906 20.2031 12.627 20.2031Z" fill="none"></path></svg>