<svg viewBox="0 0 43 43" fill="none" xmlns="http://www.w3.org/2000/svg"><path d="M25.4261 17.6217L28.8043 21L25.4261 24.3783M17.5739 17.6217L14.1957 21L17.5739 24.3783M19.4913 26.9348L23.4174 16.1609M42.5 23.7391V18.2609L37.5696 17.4391C37.113 15.5217 36.3826 13.787 35.3783 12.2348L38.3 8.12609L34.4652 4.2913L30.3565 7.21304C28.8043 6.2087 26.9783 5.47826 25.1522 5.02174L24.2391 0H18.7609L17.9391 4.93043C16.0217 5.38696 14.287 6.11739 12.7348 7.12174L8.62609 4.2L4.7913 8.03478L7.71304 12.1435C6.7087 13.6957 5.97826 15.5217 5.52174 17.3478L0.5 18.2609V23.7391L5.43043 24.5609C5.88696 26.4783 6.61739 28.213 7.62174 29.7652L4.7 33.8739L8.53478 37.7087L12.6435 34.787C14.1957 35.7913 16.0217 36.5217 17.8478 36.9783L18.7609 42H24.2391L25.0609 37.0696C26.9783 36.613 28.713 35.8826 30.2652 34.8783L34.3739 37.8L38.2087 33.9652L35.287 29.8565C36.2913 28.3043 37.0217 26.4783 37.4783 24.6522L42.5 23.7391ZM32.4565 21C32.4565 27.0511 27.5511 31.9565 21.5 31.9565C15.4489 31.9565 10.5435 27.0511 10.5435 21C10.5435 14.9489 15.4489 10.0435 21.5 10.0435C27.5511 10.0435 32.4565 14.9489 32.4565 21Z" stroke="#0069FF" stroke-miterlimit="10"></path></svg>