<svg viewBox="0 0 53 56" fill="currentColor" xmlns="http://www.w3.org/2000/svg"><path d="M36.5929 10.3747L36.0924 11.2405H36.0924L36.5929 10.3747ZM36.5929 45.0771L37.0934 45.9428L36.5929 45.0771ZM16.5575 45.0771L16.057 45.9428L16.5575 45.0771ZM16.5575 10.3747L16.057 9.50902L16.057 9.50902L16.5575 10.3747ZM21.566 19.0507L22.0665 19.9164H22.0665L21.566 19.0507ZM31.5837 19.0507L31.0832 19.9164L31.5837 19.0507ZM21.566 36.4019L22.0665 35.5361H22.0665L21.566 36.4019ZM31.5837 36.4019L31.0832 35.5361L31.5837 36.4019ZM31.578 1.47796L31.3906 2.46024L31.578 1.47796ZM2.12093 21.1255L1.55321 21.9487L2.12093 21.1255ZM1.37188 18.9357L0.427422 18.6071L1.37188 18.9357ZM6.66874 25.6432L5.67414 25.5394L6.66874 25.6432ZM5.7921 23.6572L6.35982 22.834L5.7921 23.6572ZM5.79224 31.7959L5.22452 30.9727L5.79224 31.7959ZM1.37404 36.5166L0.429663 36.8455L1.37404 36.5166ZM2.12294 34.3263L2.69066 35.1496L2.12294 34.3263ZM8.6441 45.6301L8.21396 44.7273L8.6441 45.6301ZM6.36976 45.1831L5.61199 45.8356L6.36976 45.1831ZM14.8222 43.95L15.4096 43.1408L14.8222 43.95ZM12.6603 43.7165L13.0905 44.6192L12.6603 43.7165ZM19.6973 47.7799L18.7004 47.8592L19.6973 47.7799ZM18.4161 46.0263L18.0083 46.9393L18.4161 46.0263ZM21.5731 53.969L21.3859 54.9513L21.5731 53.969ZM20.0508 52.2241L19.0539 52.3034L20.0508 52.2241ZM40.4904 43.7162L40.0603 44.619L40.4904 43.7162ZM38.3286 43.9498L37.7411 43.1405L38.3286 43.9498ZM46.7781 45.1813L46.0203 44.5288L46.7781 45.1813ZM44.5036 45.6284L44.9338 44.7256L44.5036 45.6284ZM51.0243 34.3236L51.592 33.5003L51.0243 34.3236ZM51.7733 36.5136L52.7177 36.8423L51.7733 36.5136ZM46.4816 29.8093L45.487 29.7055L46.4816 29.8093ZM20.0514 3.22188L19.0545 3.14258L20.0514 3.22188ZM21.5737 1.47692L21.3865 0.4946L21.5737 1.47692ZM46.4817 25.6437L45.4871 25.7475L46.4817 25.6437ZM19.6974 7.67192L20.6942 7.75122L19.6974 7.67192ZM51.7754 18.9387L50.8309 19.2672L51.7754 18.9387ZM51.0263 21.1283L51.594 21.9515L51.0263 21.1283ZM44.508 9.82278L44.0779 8.92001L44.508 9.82278ZM46.7828 10.2703L47.5408 9.61801L46.7828 10.2703ZM31.5786 53.968L31.3912 52.9857L31.5786 53.968ZM14.8212 11.5026L14.2336 10.6934L14.8212 11.5026ZM38.3296 11.5028L38.9171 10.6936L38.3296 11.5028ZM40.4916 11.7365L40.9217 12.6392L40.4916 11.7365ZM34.7351 46.0259L34.3273 45.1129L34.7351 46.0259ZM33.4541 47.7795L34.4509 47.8588L33.4541 47.7795ZM8.63973 9.82109L9.06986 8.91832L8.63973 9.82109ZM33.4539 7.67231L32.4571 7.75161L33.4539 7.67231ZM37.0934 9.50902C36.4569 9.14099 35.8057 8.80892 35.1429 8.51284L34.3272 10.339C34.9269 10.6068 35.5162 10.9073 36.0924 11.2405L37.0934 9.50902ZM38.9171 10.6936C38.3337 10.27 37.7254 9.87436 37.0934 9.50902L36.0924 11.2405C36.6641 11.571 37.2144 11.9289 37.7421 12.312L38.9171 10.6936ZM44.0779 8.92001L40.0614 10.8337L40.9217 12.6392L44.9381 10.7255L44.0779 8.92001ZM52.7199 18.6102C51.5738 15.3152 49.8159 12.2619 47.5408 9.61801L46.0248 10.9225C48.1357 13.3757 49.7673 16.2093 50.8309 19.2672L52.7199 18.6102ZM47.9261 24.481L51.594 21.9515L50.4586 20.3051L46.7907 22.8346L47.9261 24.481ZM47.59 27.7259C47.59 26.9913 47.5517 26.2618 47.4763 25.5399L45.4871 25.7475C45.5553 26.4007 45.59 27.0609 45.59 27.7259H47.59ZM47.4762 29.9131C47.5516 29.1909 47.59 28.461 47.59 27.7259H45.59C45.59 28.3913 45.5553 29.0519 45.487 29.7055L47.4762 29.9131ZM51.592 33.5003L47.926 30.9721L46.7905 32.6186L50.4566 35.1468L51.592 33.5003ZM47.5359 45.8337C49.8119 43.1902 51.5707 40.1372 52.7177 36.8423L50.8289 36.1848C49.7644 39.2427 48.132 42.076 46.0203 44.5288L47.5359 45.8337ZM40.0603 44.619L44.0735 46.5311L44.9338 44.7256L40.9206 42.8135L40.0603 44.619ZM37.0934 45.9428C37.725 45.5777 38.333 45.1823 38.916 44.759L37.7411 43.1405C37.2137 43.5234 36.6638 43.8811 36.0924 44.2114L37.0934 45.9428ZM35.143 46.939C35.8058 46.6429 36.4569 46.3108 37.0934 45.9428L36.0924 44.2114C35.5162 44.5445 34.927 44.845 34.3273 45.1129L35.143 46.939ZM34.0974 52.3024L34.4509 47.8588L32.4572 47.7002L32.1037 52.1438L34.0974 52.3024ZM21.3859 54.9513C24.8142 55.6048 28.3379 55.6045 31.7661 54.9503L31.3912 52.9857C28.2105 53.5927 24.9411 53.593 21.7604 52.9867L21.3859 54.9513ZM18.7004 47.8592L19.0539 52.3034L21.0476 52.1448L20.6941 47.7006L18.7004 47.8592ZM16.057 45.9428C16.6938 46.311 17.3452 46.6432 18.0083 46.9393L18.8239 45.1132C18.2239 44.8452 17.6345 44.5447 17.058 44.2114L16.057 45.9428ZM14.2347 44.7593C14.8177 45.1825 15.4256 45.5778 16.057 45.9428L17.058 44.2114C16.4868 43.8811 15.9369 43.5235 15.4096 43.1408L14.2347 44.7593ZM9.07423 46.5328L13.0905 44.6192L12.2302 42.8137L8.21396 44.7273L9.07423 46.5328ZM0.429663 36.8455C1.57693 40.1399 3.33595 43.1925 5.61199 45.8356L7.12752 44.5306C5.01568 42.0781 3.38316 39.2452 2.31841 36.1877L0.429663 36.8455ZM5.22452 30.9727L1.55522 33.5031L2.69066 35.1496L6.35995 32.6191L5.22452 30.9727ZM5.56041 27.7259C5.56041 28.4612 5.59883 29.1913 5.67427 29.9136L7.66345 29.7059C7.59519 29.0522 7.56041 28.3915 7.56041 27.7259H5.56041ZM5.67414 25.5394C5.59879 26.2614 5.56041 26.9911 5.56041 27.7259H7.56041C7.56041 27.0608 7.59515 26.4004 7.66334 25.747L5.67414 25.5394ZM1.55321 21.9487L5.22438 24.4805L6.35982 22.834L2.68864 20.3023L1.55321 21.9487ZM5.60711 9.61612C3.33196 12.2597 1.57382 15.3125 0.427422 18.6071L2.31633 19.2643C3.38027 16.2068 5.01197 13.3736 7.123 10.9208L5.60711 9.61612ZM13.0893 10.8335L9.06986 8.91832L8.20959 10.7239L12.2291 12.639L13.0893 10.8335ZM16.057 9.50902C15.4252 9.87429 14.8169 10.2699 14.2336 10.6934L15.4087 12.3118C15.9362 11.9288 16.4864 11.5709 17.058 11.2405L16.057 9.50902ZM18.0084 8.51247C17.3452 8.80864 16.6938 9.14084 16.057 9.50902L17.058 11.2405C17.6345 10.9072 18.224 10.6066 18.824 10.3386L18.0084 8.51247ZM19.0545 3.14258L18.7005 7.59262L20.6942 7.75122L21.0482 3.30118L19.0545 3.14258ZM31.7654 0.495681C28.3377 -0.158356 24.8144 -0.158716 21.3865 0.4946L21.761 2.45924C24.9413 1.8531 28.2103 1.85343 31.3906 2.46024L31.7654 0.495681ZM34.4508 7.59302L34.0969 3.14355L32.1031 3.30214L32.4571 7.75161L34.4508 7.59302ZM22.0665 19.9164C24.8558 18.3038 28.294 18.3038 31.0832 19.9164L32.0842 18.1849C28.6757 16.2143 24.4741 16.2143 21.0655 18.1849L22.0665 19.9164ZM17.5675 27.7263C17.5675 24.5088 19.2834 21.5255 22.0665 19.9164L21.0655 18.1849C17.6618 20.1527 15.5675 23.7974 15.5675 27.7263H17.5675ZM22.0665 35.5361C19.2834 33.9271 17.5675 30.9437 17.5675 27.7263H15.5675C15.5675 31.6552 17.6618 35.2998 21.0655 37.2676L22.0665 35.5361ZM31.0832 35.5361C28.294 37.1487 24.8558 37.1487 22.0665 35.5361L21.0655 37.2676C24.4741 39.2382 28.6757 39.2382 32.0842 37.2676L31.0832 35.5361ZM35.5823 27.7263C35.5823 30.9437 33.8664 33.9271 31.0832 35.5361L32.0842 37.2676C35.4879 35.2998 37.5823 31.6552 37.5823 27.7263H35.5823ZM31.0832 19.9164C33.8664 21.5255 35.5823 24.5088 35.5823 27.7263H37.5823C37.5823 23.7974 35.4879 20.1527 32.0842 18.1849L31.0832 19.9164ZM31.3906 2.46024C31.7624 2.53119 32.068 2.86053 32.1031 3.30214L34.0969 3.14355C33.9955 1.86918 33.0845 0.747365 31.7654 0.495681L31.3906 2.46024ZM2.68864 20.3023C2.32422 20.051 2.19194 19.6218 2.31633 19.2643L0.427422 18.6071C-0.0135586 19.8744 0.501404 21.2234 1.55321 21.9487L2.68864 20.3023ZM7.66334 25.747C7.77825 24.646 7.3296 23.5028 6.35982 22.834L5.22438 24.4805C5.53456 24.6944 5.72062 25.0941 5.67414 25.5394L7.66334 25.747ZM6.35995 32.6191C7.32979 31.9503 7.77843 30.807 7.66345 29.7059L5.67427 29.9136C5.72078 30.359 5.53471 30.7588 5.22452 30.9727L6.35995 32.6191ZM2.31841 36.1877C2.19391 35.8302 2.32616 35.4009 2.69066 35.1496L1.55522 33.5031C0.503212 34.2286 -0.011719 35.578 0.429663 36.8455L2.31841 36.1877ZM8.21396 44.7273C7.81348 44.9181 7.37485 44.8178 7.12752 44.5306L5.61199 45.8356C6.48944 46.8546 7.9186 47.0835 9.07423 46.5328L8.21396 44.7273ZM15.4096 43.1408C14.5124 42.4894 13.2957 42.306 12.2302 42.8137L13.0905 44.6192C13.4312 44.4569 13.8714 44.4955 14.2347 44.7593L15.4096 43.1408ZM20.6941 47.7006C20.6006 46.5257 19.835 45.5648 18.8239 45.1132L18.0083 46.9393C18.4175 47.1221 18.6705 47.4834 18.7004 47.8592L20.6941 47.7006ZM21.7604 52.9867C21.3885 52.9158 21.0828 52.5865 21.0476 52.1448L19.0539 52.3034C19.1553 53.5779 20.0666 54.6999 21.3859 54.9513L21.7604 52.9867ZM40.9206 42.8135C39.855 42.3058 38.6383 42.4892 37.7411 43.1405L38.916 44.759C39.2794 44.4953 39.7196 44.4567 40.0603 44.619L40.9206 42.8135ZM46.0203 44.5288C45.7729 44.8161 45.3343 44.9164 44.9338 44.7256L44.0735 46.5311C45.2292 47.0818 46.6585 46.8528 47.5359 45.8337L46.0203 44.5288ZM50.4566 35.1468C50.8211 35.3981 50.9533 35.8273 50.8289 36.1848L52.7177 36.8423C53.1589 35.575 52.6439 34.2258 51.592 33.5003L50.4566 35.1468ZM45.487 29.7055C45.3721 30.8065 45.8207 31.9498 46.7905 32.6186L47.926 30.9721C47.6158 30.7582 47.4297 30.3585 47.4762 29.9131L45.487 29.7055ZM21.0482 3.30118C21.0834 2.85949 21.3891 2.53012 21.761 2.45924L21.3865 0.4946C20.0672 0.746052 19.1559 1.868 19.0545 3.14258L21.0482 3.30118ZM46.7907 22.8346C45.8209 23.5033 45.3723 24.6465 45.4871 25.7475L47.4763 25.5399C47.4299 25.0946 47.6159 24.6949 47.9261 24.481L46.7907 22.8346ZM18.824 10.3386C19.8351 9.88703 20.6008 8.9261 20.6942 7.75122L18.7005 7.59262C18.6706 7.96837 18.4176 8.32972 18.0084 8.51247L18.824 10.3386ZM50.8309 19.2672C50.9553 19.6247 50.823 20.0538 50.4586 20.3051L51.594 21.9515C52.6457 21.2262 53.1607 19.8774 52.7199 18.6102L50.8309 19.2672ZM44.9381 10.7255C45.3387 10.5347 45.7775 10.6351 46.0248 10.9225L47.5408 9.61801C46.6635 8.59843 45.2338 8.36924 44.0779 8.92001L44.9381 10.7255ZM32.1037 52.1438C32.0686 52.5854 31.763 52.9148 31.3912 52.9857L31.7661 54.9503C33.0851 54.6986 33.9961 53.5768 34.0974 52.3024L32.1037 52.1438ZM12.2291 12.639C13.2946 13.1467 14.5114 12.9632 15.4087 12.3118L14.2336 10.6934C13.8703 10.9572 13.4301 10.9958 13.0893 10.8335L12.2291 12.639ZM37.7421 12.312C38.6393 12.9635 39.8561 13.1469 40.9217 12.6392L40.0614 10.8337C39.7207 10.9961 39.2804 10.9574 38.9171 10.6936L37.7421 12.312ZM34.3273 45.1129C33.3162 45.5645 32.5507 46.5254 32.4572 47.7002L34.4509 47.8588C34.4808 47.4831 34.7338 47.1217 35.143 46.939L34.3273 45.1129ZM7.123 10.9208C7.3703 10.6334 7.80902 10.533 8.20959 10.7239L9.06986 8.91832C7.91398 8.36759 6.48448 8.5967 5.60711 9.61612L7.123 10.9208ZM35.1429 8.51284C34.7337 8.33009 34.4807 7.96875 34.4508 7.59302L32.4571 7.75161C32.5506 8.92644 33.3161 9.88734 34.3272 10.339L35.1429 8.51284Z" fill="currentColor"></path></svg>