<svg width="18" height="12" viewBox="0 0 18 12" fill="none" xmlns="http://www.w3.org/2000/svg">
<path d="M5.2055 0C5.7322 0 6.21089 0.0450175 6.64606 0.141054C7.07897 0.238592 7.44886 0.38865 7.76023 0.59873C8.06785 0.808811 8.3102 1.08642 8.48051 1.43905C8.64933 1.79169 8.73561 2.22686 8.73561 2.73705C8.73561 3.29227 8.60806 3.75744 8.35521 4.13259C8.10162 4.50773 7.72722 4.80785 7.22828 5.04794C7.90804 5.24302 8.41074 5.58815 8.74536 6.07584C9.08149 6.57103 9.24431 7.16375 9.24431 7.84652C9.24431 8.40923 9.14677 8.88942 8.93669 9.29457C8.72661 9.70723 8.43399 10.0449 8.06635 10.3075C7.70621 10.5686 7.27855 10.7576 6.81337 10.8829C6.34618 11.0094 5.86432 11.0734 5.38032 11.0735H0V0.00525235H5.2055V0ZM12.7099 9.12501C13.04 9.44613 13.5149 9.60744 14.1309 9.60744C14.5736 9.60744 14.9563 9.4964 15.2789 9.27207C15.597 9.05448 15.7891 8.81439 15.8641 8.56679H17.8058C17.5035 9.52716 17.0195 10.2174 16.3803 10.6301C15.7426 11.0502 14.9668 11.2528 14.0694 11.2528C13.4414 11.2528 12.881 11.1553 12.3648 10.9527C11.8793 10.7615 11.4395 10.47 11.0743 10.0974C10.7169 9.71467 10.4418 9.26267 10.2662 8.76937C10.0764 8.25167 9.98634 7.68145 9.98634 7.06622C9.98634 6.46373 10.0876 5.91077 10.2887 5.39307C10.4913 4.86787 10.7719 4.4327 11.129 4.05006C11.5004 3.66741 11.9266 3.37855 12.4315 3.15421C12.9365 2.92988 13.4819 2.82934 14.0972 2.82934C14.7799 2.82934 15.3652 2.95239 15.8829 3.22174C16.3728 3.47213 16.7989 3.83146 17.1283 4.27214C17.4585 4.71181 17.6911 5.21751 17.8336 5.78773C17.9762 6.35044 18.0212 6.94317 17.9912 7.57341H12.2214C12.2214 8.20365 12.4315 8.79788 12.7542 9.12276L12.6941 9.14527L12.7099 9.12501ZM5.02693 9.16252C5.26477 9.16252 5.49211 9.14001 5.70669 9.09275C5.92428 9.04773 6.11785 8.96895 6.27917 8.86766C6.43673 8.76637 6.57178 8.62156 6.66931 8.43024C6.76685 8.25017 6.81187 8.00258 6.81187 7.70997C6.81187 7.14725 6.64681 6.74209 6.33169 6.4945C6.00906 6.25441 5.5889 6.13436 5.0637 6.13436H2.43093V9.17303H5.02693V9.15052V9.16252ZM15.2361 4.92339C14.972 4.63453 14.5308 4.47922 13.9929 4.47922C13.6417 4.47922 13.3514 4.53474 13.118 4.65779C12.8915 4.77033 12.7054 4.92039 12.5628 5.10046C12.4203 5.28053 12.325 5.4606 12.2687 5.66318C12.2124 5.85825 12.1787 6.03832 12.1674 6.19588H15.7403C15.6878 5.63317 15.4927 5.22051 15.2301 4.9279V4.9354L15.2361 4.92339ZM4.89188 4.46197C5.32255 4.46197 5.67968 4.36143 5.96104 4.15285C6.24165 3.95027 6.3767 3.61264 6.3767 3.14896C6.3767 2.89086 6.32418 2.68003 6.24165 2.51422C6.14411 2.34915 6.01656 2.2216 5.86651 2.13007C5.70895 2.03703 5.52888 1.97251 5.3263 1.93725C5.11846 1.89872 4.90742 1.88013 4.69606 1.88172H2.42343V4.46272H4.89188V4.46197ZM11.718 0.742036H16.1957V1.83296H11.718V0.733032V0.742036Z" fill="#1F232E"/>
</svg>
