<svg viewBox="0 0 99 99" fill="currentColor" xmlns="http://www.w3.org/2000/svg"><g filter="url(#filter0_di)"><path fill-rule="evenodd" clip-rule="evenodd" d="M33.9132 11.2461L14.5963 35.3904C8.76828 42.6749 9.95817 53.4017 17.2444 59.2312L41.387 78.5467C48.6715 84.3747 59.4014 83.1845 65.2294 75.9L84.5463 51.7556C90.3744 44.4711 89.1824 33.7399 81.8979 27.9118L57.7553 8.59631C50.4691 2.76689 39.7412 3.96161 33.9132 11.2461ZM52.5987 48.4184C50.7939 53.7447 48.7363 57.6475 48.1544 58.7014C52.243 58.9935 56.3891 57.6589 59.5521 54.8165C59.2089 54.3119 57.6807 52.1862 55.1666 50.1747C54.3995 49.561 53.5424 48.9604 52.5987 48.4184ZM34.3085 46.9933C35.0876 50.1867 36.888 53.1578 39.648 55.366C41.2947 56.6835 43.1298 57.6092 45.0404 58.1496C45.7435 56.8804 47.9337 52.7087 49.723 47.086L49.705 47.0801C41.2789 44.0987 35.192 46.5955 34.3085 46.9933ZM37.4688 33.4311L37.2271 33.7262C34.7861 36.7771 33.7003 40.4806 33.8875 44.112C35.0698 43.6778 42.4866 41.1801 50.0545 44.0485L50.5501 44.249C50.7797 43.3763 50.9851 42.4843 51.167 41.5932C44.5594 38.9052 39.2769 34.8805 37.7843 33.6863L37.4688 33.4311ZM51.691 38.741C52.4888 33.7932 52.731 29.27 52.7709 28.3647C48.1919 27.2941 43.2732 28.3627 39.5398 31.3963L39.6558 31.489C40.7657 32.377 45.427 35.9643 51.691 38.741ZM64.4121 40.6631C63.7792 37.1096 61.9057 33.7648 58.8721 31.3377C57.9388 30.591 56.9453 29.9694 55.9123 29.4751C55.8745 30.5269 55.6523 35.0179 54.7857 39.956C60.0735 41.6704 63.7105 40.8515 64.4121 40.6631ZM61.4486 52.7726C63.6201 49.9661 64.6664 46.6315 64.6551 43.3197C63.798 43.5285 59.8413 44.3104 54.2422 42.6762C54.0676 43.4482 53.8757 44.2204 53.6637 44.9823C53.6193 45.1402 53.5742 45.2963 53.5291 45.4521C53.5007 45.5503 53.4723 45.6484 53.4442 45.7466C54.4654 46.3763 55.4313 47.0752 56.3143 47.7817C59.0501 49.9705 61.0002 52.2292 61.4486 52.7726ZM35.0311 31.9381C41.3052 24.096 52.8026 22.8268 60.655 29.1093C68.5075 35.3917 69.7888 46.8845 63.5147 54.7266C57.2392 62.5704 45.748 63.8388 37.8956 57.5564C30.0432 51.274 28.7556 39.7818 35.0311 31.9381Z" fill="currentColor"/></g><defs><filter id="filter0_di" x="0.89756" y="0.898193" width="97.3468" height="97.3472" filterUnits="userSpaceOnUse" color-interpolation-filters="sRGB"><feFlood flood-opacity="0" result="BackgroundImageFix"/><feColorMatrix in="SourceAlpha" type="matrix" values="0 0 0 0 0 0 0 0 0 0 0 0 0 0 0 0 0 0 127 0"/><feOffset dy="6"/><feGaussianBlur stdDeviation="5"/><feColorMatrix type="matrix" values="0 0 0 0 0 0 0 0 0 0 0 0 0 0 0 0 0 0 0.25 0"/><feBlend mode="normal" in2="BackgroundImageFix" result="effect1_dropShadow"/><feBlend mode="normal" in="SourceGraphic" in2="effect1_dropShadow" result="shape"/><feColorMatrix in="SourceAlpha" type="matrix" values="0 0 0 0 0 0 0 0 0 0 0 0 0 0 0 0 0 0 127 0" result="hardAlpha"/><feOffset dy="4"/><feGaussianBlur stdDeviation="2"/><feComposite in2="hardAlpha" operator="arithmetic" k2="-1" k3="1"/><feColorMatrix type="matrix" values="0 0 0 0 1 0 0 0 0 0.958333 0 0 0 0 0.958333 0 0 0 0.03 0"/><feBlend mode="normal" in2="shape" result="effect2_innerShadow"/></filter></defs></svg>