<svg viewBox="0 0 251 251" fill="currentColor" xmlns="http://www.w3.org/2000/svg"><g filter="url(#filter0_di)"><path fill-rule="evenodd" clip-rule="evenodd" d="M47.2299 39.7906L14.1466 130.564C4.1659 157.95 18.412 188.523 45.7971 198.504L136.565 231.585C163.95 241.566 194.521 227.326 204.502 199.941L237.585 109.167C247.566 81.7819 233.326 51.2105 205.934 41.2274L115.174 8.14893C87.7884 -1.8318 57.2106 12.4054 47.2299 39.7906ZM176.218 125.959C177.201 126.318 178.197 126.621 179.206 126.886L179.213 126.888L186.439 107.061C171.505 100.349 163.525 83.9023 167.488 68.0103L150.427 61.7922L119.939 144.899C116.219 155.106 104.273 159.859 94.0732 156.142C83.8664 152.422 78.6125 141.142 82.3324 130.935C86.05 120.735 97.3322 115.474 107.539 119.194C108.107 119.401 108.628 119.677 109.153 119.955C109.333 120.05 109.513 120.145 109.695 120.238L116.196 102.402C115.998 102.316 115.802 102.229 115.607 102.141C115.077 101.905 114.55 101.67 113.999 101.469C94.0086 94.1833 71.8928 104.484 64.6071 124.475C57.3215 144.465 67.625 166.575 87.6155 173.86C107.599 181.144 129.713 170.849 136.998 150.858L154.848 101.882C157.455 113 165.489 122.056 176.218 125.959Z" fill="currentColor"/></g><defs><filter id="filter0_di" x="0.958313" y="0.959473" width="249.816" height="249.814" filterUnits="userSpaceOnUse" color-interpolation-filters="sRGB"><feFlood flood-opacity="0" result="BackgroundImageFix"/><feColorMatrix in="SourceAlpha" type="matrix" values="0 0 0 0 0 0 0 0 0 0 0 0 0 0 0 0 0 0 127 0"/><feOffset dy="6"/><feGaussianBlur stdDeviation="5"/><feColorMatrix type="matrix" values="0 0 0 0 0 0 0 0 0 0 0 0 0 0 0 0 0 0 0.25 0"/><feBlend mode="normal" in2="BackgroundImageFix" result="effect1_dropShadow"/><feBlend mode="normal" in="SourceGraphic" in2="effect1_dropShadow" result="shape"/><feColorMatrix in="SourceAlpha" type="matrix" values="0 0 0 0 0 0 0 0 0 0 0 0 0 0 0 0 0 0 127 0" result="hardAlpha"/><feOffset dy="4"/><feGaussianBlur stdDeviation="2"/><feComposite in2="hardAlpha" operator="arithmetic" k2="-1" k3="1"/><feColorMatrix type="matrix" values="0 0 0 0 1 0 0 0 0 0.958333 0 0 0 0 0.958333 0 0 0 0.03 0"/><feBlend mode="normal" in2="shape" result="effect2_innerShadow"/></filter></defs></svg>