<svg viewBox="0 0 139 121" fill="currentColor" xmlns="http://www.w3.org/2000/svg"><g filter="url(#filter0_di)"><path fill-rule="evenodd" clip-rule="evenodd" d="M88.0199 49.3621L67.4953 73.0813C66.7111 74.0628 62.9521 74.7804 62.4646 73.6217L51.3914 47.2999C50.9012 46.1348 54.066 43.9321 55.3295 44.09L85.8173 47.1521C87.1066 47.2991 88.8346 48.3451 88.0199 49.3621ZM115.501 19.5949C110.253 7.11956 95.8765 1.25724 83.3947 6.50816L25.6011 30.8211C13.1129 36.0747 7.25707 50.4485 12.5053 62.9238L23.8195 89.8186C29.0732 102.307 43.4431 108.172 55.9314 102.918L113.725 78.6052C126.207 73.3543 132.069 58.978 126.815 46.4897L115.501 19.5949Z" fill="currentColor"/></g><defs><filter id="filter0_di" x="0.581223" y="0.583252" width="138.16" height="120.261" filterUnits="userSpaceOnUse" color-interpolation-filters="sRGB"><feFlood flood-opacity="0" result="BackgroundImageFix"/><feColorMatrix in="SourceAlpha" type="matrix" values="0 0 0 0 0 0 0 0 0 0 0 0 0 0 0 0 0 0 127 0"/><feOffset dy="6"/><feGaussianBlur stdDeviation="5"/><feColorMatrix type="matrix" values="0 0 0 0 0 0 0 0 0 0 0 0 0 0 0 0 0 0 0.25 0"/><feBlend mode="normal" in2="BackgroundImageFix" result="effect1_dropShadow"/><feBlend mode="normal" in="SourceGraphic" in2="effect1_dropShadow" result="shape"/><feColorMatrix in="SourceAlpha" type="matrix" values="0 0 0 0 0 0 0 0 0 0 0 0 0 0 0 0 0 0 127 0" result="hardAlpha"/><feOffset dy="4"/><feGaussianBlur stdDeviation="2"/><feComposite in2="hardAlpha" operator="arithmetic" k2="-1" k3="1"/><feColorMatrix type="matrix" values="0 0 0 0 1 0 0 0 0 0.958333 0 0 0 0 0.958333 0 0 0 0.03 0"/><feBlend mode="normal" in2="shape" result="effect2_innerShadow"/></filter></defs></svg>