<svg viewBox="0 0 92 80" fill="none" xmlns="http://www.w3.org/2000/svg"><path d="M42.6191 1.70917L52.646 11.0891H80.7921C86.9164 11.0891 91.8812 16.0539 91.8812 22.1782V68.9109C91.8812 75.0352 86.9164 80 80.7921 80H11.0891C4.96476 80 0 75.0352 0 68.9109V11.0891C0 4.96476 4.96476 0 11.0891 0H38.2902C39.8977 0 41.4452 0.610974 42.6191 1.70917Z" fill="#3465A4"/><rect x="3.16833" y="13.4653" width="85.5446" height="63.3663" rx="12" fill="#3A3D42"/><path d="M30.0928 31.3985H40.9715C43.125 31.3985 44.7277 31.4913 45.7797 31.677C46.8441 31.8502 47.7909 32.2215 48.6201 32.7908C49.4616 33.3601 50.1609 34.1213 50.7178 35.0742C51.2748 36.0148 51.5532 37.073 51.5532 38.2487C51.5532 39.5235 51.2067 40.6931 50.5136 41.7574C49.8329 42.8218 48.9047 43.62 47.729 44.1522C49.3874 44.6349 50.6621 45.4579 51.5532 46.6213C52.4443 47.7846 52.8899 49.1522 52.8899 50.724C52.8899 51.9616 52.599 53.1683 52.0173 54.344C51.448 55.5074 50.6621 56.4418 49.6597 57.1473C48.6696 57.8403 47.4443 58.2673 45.9839 58.4282C45.0681 58.5272 42.8589 58.5891 39.3564 58.6138H30.0928V31.3985ZM35.5879 35.9282V42.2215H39.1894C41.3305 42.2215 42.6609 42.1906 43.1807 42.1287C44.1213 42.0173 44.8577 41.6955 45.3899 41.1634C45.9344 40.6188 46.2067 39.9072 46.2067 39.0284C46.2067 38.1869 45.9715 37.5062 45.5013 36.9864C45.0433 36.4542 44.3564 36.1324 43.4406 36.021C42.8961 35.9591 41.3305 35.9282 38.7438 35.9282H35.5879ZM35.5879 46.7512V54.0285H40.6745C42.6547 54.0285 43.9109 53.9728 44.4431 53.8614C45.2599 53.7129 45.922 53.3539 46.4295 52.7846C46.9493 52.203 47.2092 51.4294 47.2092 50.4641C47.2092 49.6473 47.0112 48.9542 46.6151 48.3849C46.2191 47.8156 45.6436 47.401 44.8886 47.1411C44.1461 46.8812 42.5248 46.7512 40.0248 46.7512H35.5879Z" fill="#F77D06"/><path d="M57.5124 58.6138V31.3985H62.729V58.6138H57.5124Z" fill="#F77D06"/></svg>