<svg viewBox="0 0 62 55" fill="none" xmlns="http://www.w3.org/2000/svg"><path d="M45.3478 24.4783L49 20.8261L39.087 18.2174L41.6957 28.1304L45.3478 24.4783ZM45.3478 24.4783L50.4348 29.5652M20.5652 44.0435V53.1739M41.4348 44.0435V53.1739M14.0435 53.1739H47.9565M61 36.2174H1M19.2609 10.1304C16.3913 10.1304 14.0435 11.8261 14.0435 14.0435C14.0435 16.2609 16.3913 17.9565 19.2609 17.9565C22.1304 17.9565 24.4783 19.6522 24.4783 21.8696C24.4783 24.087 22.1304 25.7826 19.2609 25.7826M19.2609 10.1304C22.1304 10.1304 24.4783 11.8261 24.4783 14.0435M19.2609 10.1304V7.52174M19.2609 25.7826C16.3913 25.7826 14.0435 24.087 14.0435 21.8696M19.2609 25.7826V28.3913M1 1H61V44.0435H1V1Z" stroke="#0069FF" stroke-width="2" stroke-miterlimit="10"></path></svg>