<svg viewBox="0 0 60 60" xmlns="http://www.w3.org/2000/svg"><path d="M0 0V13.5472V15.4843V60H60V15.4843V13.5472V0H0ZM58.063 58.063H1.93701V15.4843H58.063V58.063ZM58.063 13.5472H1.93701V1.93701H58.063V13.5472Z" stroke="none"></path><path d="M4.84253 4.84251V10.6417H10.6536V4.84251H4.84253ZM8.71655 8.71653H6.77954V6.77952H8.71655V8.71653Z" stroke="none"></path><path d="M13.5471 4.84251V10.6417H36.7676V4.84251H13.5471ZM34.8424 8.71653H15.4841V6.77952H34.8424V8.71653Z" stroke="none"></path><path d="M47.4211 6.77951H45.4841V8.71652H47.4211V6.77951Z" stroke="none"></path><path d="M51.2954 6.77951H49.3584V8.71652H51.2954V6.77951Z" stroke="none"></path><path d="M55.1575 6.77951H53.2205V8.71652H55.1575V6.77951Z" stroke="none"></path><path d="M39.6732 32.9055V23.2323H38.7047C32.8346 23.2323 28.063 28.0039 28.063 33.874C28.063 39.7441 32.8346 44.5157 38.7047 44.5157C44.5748 44.5157 49.3465 39.7441 49.3465 33.874V32.9055H39.6732ZM38.7047 42.5787C33.8976 42.5787 30 38.6693 30 33.874C30 29.3976 33.3898 25.7008 37.7362 25.2165V34.8425H47.3622C46.8779 39.189 43.1811 42.5787 38.7047 42.5787Z" stroke="none"></path><path d="M42.5789 19.3582H41.6104V30.9685H53.2206V30C53.2206 24.1299 48.4489 19.3582 42.5789 19.3582ZM43.5474 29.0315V21.3425C47.5749 21.7913 50.7875 25.0039 51.2363 29.0315H43.5474Z" stroke="none"></path><path d="M22.2635 43.5472H5.81079V45.4842H22.2635V43.5472Z" stroke="none"></path><path d="M35.8108 51.2953H5.81079V53.2323H35.8108V51.2953Z" stroke="none"></path></svg>