<svg viewBox="0 0 49 48" fill="none" xmlns="http://www.w3.org/2000/svg"><path d="M24.4648 33.7998C26.9501 33.7998 28.9648 31.7851 28.9648 29.2998C28.9648 26.8145 26.9501 24.7998 24.4648 24.7998C21.9796 24.7998 19.9648 26.8145 19.9648 29.2998C19.9648 31.7851 21.9796 33.7998 24.4648 33.7998Z" stroke="#0069FF" stroke-width="2" stroke-miterlimit="10"></path><path d="M35.9648 46.9996V42.3996C35.9648 39.3996 33.7648 36.7996 30.8648 35.8996L30.0648 35.6996L24.4648 41.2996L18.7648 35.5996L17.9648 35.7996C15.0648 36.6996 12.9648 39.2996 12.9648 42.2996V46.9996H35.9648Z" stroke="#0069FF" stroke-width="2" stroke-miterlimit="10"></path><path d="M24.4648 9C26.674 9 28.4648 7.20914 28.4648 5C28.4648 2.79086 26.674 1 24.4648 1C22.2557 1 20.4648 2.79086 20.4648 5C20.4648 7.20914 22.2557 9 24.4648 9Z" stroke="#0069FF" stroke-width="2" stroke-miterlimit="10"></path><path d="M10.928 16.4999C12.0326 14.5868 11.3771 12.1404 9.464 11.0359C7.55089 9.9313 5.10457 10.5868 4 12.4999C2.89543 14.413 3.55089 16.8593 5.464 17.9639C7.37711 19.0684 9.82343 18.413 10.928 16.4999Z" stroke="#0069FF" stroke-width="2" stroke-miterlimit="10"></path><path d="M9.464 36.9632C11.3771 35.8586 12.0326 33.4123 10.928 31.4992C9.82343 29.586 7.37711 28.9306 5.464 30.0352C3.55089 31.1397 2.89543 33.586 4 35.4992C5.10457 37.4123 7.55089 38.0677 9.464 36.9632Z" stroke="#0069FF" stroke-width="2" stroke-miterlimit="10"></path><path d="M44.928 35.5008C46.0326 33.5877 45.3771 31.1414 43.464 30.0368C41.5509 28.9323 39.1046 29.5877 38 31.5008C36.8954 33.414 37.5509 35.8603 39.464 36.9648C41.3771 38.0694 43.8234 37.414 44.928 35.5008Z" stroke="#0069FF" stroke-width="2" stroke-miterlimit="10"></path><path d="M43.464 17.9632C45.3771 16.8586 46.0326 14.4123 44.928 12.4992C43.8234 10.586 41.3771 9.93059 39.464 11.0352C37.5509 12.1397 36.8954 14.586 38 16.4992C39.1046 18.4123 41.5509 19.0677 43.464 17.9632Z" stroke="#0069FF" stroke-width="2" stroke-miterlimit="10"></path><path d="M41.4648 29.5V18.5" stroke="#0069FF" stroke-width="2" stroke-miterlimit="10"></path><path d="M34.2637 38L38.2637 36" stroke="#0069FF" stroke-width="2" stroke-miterlimit="10"></path><path d="M10.6641 36L14.6641 38" stroke="#0069FF" stroke-width="2" stroke-miterlimit="10"></path><path d="M7.46484 18.4004V29.5004" stroke="#0069FF" stroke-width="2" stroke-miterlimit="10"></path><path d="M20.7641 6.5L10.6641 12" stroke="#0069FF" stroke-width="2" stroke-miterlimit="10"></path><path d="M38.2641 12L28.1641 6.5" stroke="#0069FF" stroke-width="2" stroke-miterlimit="10"></path></svg>