<svg viewBox="0 0 37 32" fill="currentColor" xmlns="http://www.w3.org/2000/svg"><path d="M2.75 2.75V18.5H19.5723C19.3496 18.8516 19.1562 19.2148 18.9922 19.5898C18.8281 19.9648 18.6758 20.3516 18.5352 20.75H18.5V20.873C18.4766 21.0137 18.4414 21.1543 18.3945 21.2949C18.3477 21.4355 18.3008 21.5762 18.2539 21.7168C18.1602 22.1152 18.084 22.5137 18.0254 22.9121C17.9668 23.3105 17.9375 23.7148 17.9375 24.125C17.9375 24.3125 17.9492 24.5 17.9727 24.6875C17.9961 24.875 18.0195 25.0625 18.043 25.25H11.75V23H16.25V20.75H0.5V0.5H34.25V15.0723C33.8984 14.8496 33.5352 14.6562 33.1602 14.4922C32.7852 14.3281 32.3984 14.1758 32 14.0352V2.75H2.75ZM28.625 16.25C29.7148 16.25 30.7344 16.4551 31.6836 16.8652C32.6328 17.2754 33.4707 17.8379 34.1973 18.5527C34.9238 19.2676 35.4863 20.0996 35.8848 21.0488C36.2832 21.998 36.4883 23.0234 36.5 24.125C36.5 25.2148 36.2949 26.2344 35.8848 27.1836C35.4746 28.1328 34.9121 28.9707 34.1973 29.6973C33.4824 30.4238 32.6504 30.9863 31.7012 31.3848C30.752 31.7832 29.7266 31.9883 28.625 32C27.5352 32 26.5156 31.7949 25.5664 31.3848C24.6172 30.9746 23.7793 30.4121 23.0527 29.6973C22.3262 28.9824 21.7637 28.1504 21.3652 27.2012C20.9668 26.252 20.7617 25.2266 20.75 24.125C20.75 23.0352 20.9551 22.0156 21.3652 21.0664C21.7754 20.1172 22.3379 19.2793 23.0527 18.5527C23.7676 17.8262 24.5996 17.2637 25.5488 16.8652C26.498 16.4668 27.5234 16.2617 28.625 16.25ZM23 24.125C23 24.8984 23.1465 25.625 23.4395 26.3047C23.7324 26.9844 24.1309 27.582 24.6348 28.0977C25.1387 28.6133 25.7363 29.0176 26.4277 29.3105C27.1191 29.6035 27.8516 29.75 28.625 29.75C29.1758 29.75 29.7148 29.6738 30.2422 29.5215C30.7695 29.3691 31.2617 29.1348 31.7188 28.8184L23.9316 21.0312C23.627 21.4883 23.3984 21.9805 23.2461 22.5078C23.0938 23.0352 23.0117 23.5742 23 24.125ZM33.3184 27.2188C33.623 26.7617 33.8516 26.2695 34.0039 25.7422C34.1562 25.2148 34.2383 24.6758 34.25 24.125C34.25 23.3516 34.1035 22.625 33.8105 21.9453C33.5176 21.2656 33.1133 20.6738 32.5977 20.1699C32.082 19.666 31.4844 19.2617 30.8047 18.957C30.125 18.6523 29.3984 18.5 28.625 18.5C28.0742 18.5 27.5352 18.5762 27.0078 18.7285C26.4805 18.8809 25.9883 19.1152 25.5312 19.4316L33.3184 27.2188Z" fill="currentColor"></path></svg>