<svg viewBox="0 0 52 52" fill="currentColor" xmlns="http://www.w3.org/2000/svg"><path d="M11.7143 40.0854H12.7143C12.7143 39.6005 12.3664 39.1855 11.8889 39.1008L11.7143 40.0854ZM11.7143 51H10.7143C10.7143 51.3788 10.9283 51.725 11.2671 51.8944C11.6059 52.0638 12.0113 52.0273 12.3143 51.8L11.7143 51ZM26 40.2857V39.2857C25.7836 39.2857 25.5731 39.3559 25.4 39.4857L26 40.2857ZM2 14C2 7.37258 7.37258 2 14 2V0C6.26801 0 0 6.268 0 14H2ZM2 27.2857V14H0V27.2857H2ZM11.8889 39.1008C6.26834 38.1039 2 33.1922 2 27.2857H0C0 34.1789 4.98082 39.9067 11.5396 41.0701L11.8889 39.1008ZM10.7143 40.0854V51H12.7143V40.0854H10.7143ZM12.3143 51.8L26.6 41.0857L25.4 39.4857L11.1143 50.2L12.3143 51.8ZM38 39.2857H26V41.2857H38V39.2857ZM50 27.2857C50 33.9131 44.6274 39.2857 38 39.2857V41.2857C45.732 41.2857 52 35.0177 52 27.2857H50ZM50 14V27.2857H52V14H50ZM38 2C44.6274 2 50 7.37258 50 14H52C52 6.26801 45.732 0 38 0V2ZM14 2H38V0H14V2Z" fill="currentColor"></path></svg>