<svg viewBox="0 0 18 18" fill="currentColor" xmlns="http://www.w3.org/2000/svg"><path d="M17.6013 0.412101C17.475 0.285534 17.325 0.18512 17.1598 0.116608C16.9946 0.0480959 16.8176 0.0128303 16.6388 0.0128303C16.46 0.0128303 16.2829 0.0480959 16.1178 0.116608C15.9526 0.18512 15.8026 0.285534 15.6763 0.412101L9 7.0747L2.32375 0.398447C2.19735 0.272047 2.04729 0.17178 1.88214 0.103372C1.71698 0.0349645 1.53998 -0.000244139 1.36122 -0.000244141C1.18246 -0.000244142 1.00545 0.0349645 0.840303 0.103372C0.675152 0.17178 0.525092 0.272047 0.398692 0.398447C0.272291 0.524848 0.172024 0.674908 0.103616 0.840059C0.0352086 1.00521 -1.33185e-09 1.18222 0 1.36098C1.33185e-09 1.53973 0.0352086 1.71674 0.103616 1.88189C0.172024 2.04704 0.272291 2.1971 0.398692 2.3235L7.07495 8.99976L0.398692 15.676C0.272291 15.8024 0.172024 15.9525 0.103616 16.1176C0.0352086 16.2828 0 16.4598 0 16.6385C0 16.8173 0.0352086 16.9943 0.103616 17.1595C0.172024 17.3246 0.272291 17.4747 0.398692 17.6011C0.525092 17.7275 0.675152 17.8277 0.840303 17.8961C1.00545 17.9645 1.18246 17.9998 1.36122 17.9998C1.53998 17.9998 1.71698 17.9645 1.88214 17.8961C2.04729 17.8277 2.19735 17.7275 2.32375 17.6011L9 10.9248L15.6763 17.6011C15.8027 17.7275 15.9527 17.8277 16.1179 17.8961C16.283 17.9645 16.46 17.9998 16.6388 17.9998C16.8175 17.9998 16.9945 17.9645 17.1597 17.8961C17.3248 17.8277 17.4749 17.7275 17.6013 17.6011C17.7277 17.4747 17.828 17.3246 17.8964 17.1595C17.9648 16.9943 18 16.8173 18 16.6385C18 16.4598 17.9648 16.2828 17.8964 16.1176C17.828 15.9525 17.7277 15.8024 17.6013 15.676L10.9251 8.99976L17.6013 2.3235C18.1201 1.80469 18.1201 0.93091 17.6013 0.412101Z" fill="currentColor"></path></svg>