<svg viewBox="0 0 62 62" fill="none" xmlns="http://www.w3.org/2000/svg"><path d="M1 11.4348H61M57.087 6.21739H54.4783M51.8696 6.21739H49.2609M46.6522 6.21739H44.0435M37.5217 6.21739H6.21739M4.91304 16.6522H8.82609M12.7391 16.6522H24.4783M27.087 16.6522H33.6087M12.7391 36.2174H24.4783M27.087 36.2174H33.6087M12.7391 23.1739H20.5652M41.4348 23.1739H45.3478M23.1739 23.1739H38.8261M12.7391 55.7826H20.5652M41.4348 55.7826H45.3478M23.1739 55.7826H38.8261M29.6957 29.6957H34.913M16.6522 29.6957H27.087M37.5217 29.6957H57.087M40.1304 42.7391H34.913M53.1739 42.7391H42.7391M32.3043 42.7391H12.7391M46.6522 49.2609H37.5217M34.913 49.2609H20.5652M4.91304 23.1739H8.82609M4.91304 29.6957H8.82609M4.91304 36.2174H8.82609M4.91304 42.7391H8.82609M4.91304 49.2609H8.82609M4.91304 55.7826H8.82609M1 1H61V61H1V1Z" stroke="#0069FF" stroke-width="2" stroke-miterlimit="10"></path></svg>