<svg viewBox="0 0 62 60" fill="none" xmlns="http://www.w3.org/2000/svg"><path d="M25.913 24.8698L18.8696 20.8263L61 4.00024L38.5652 32.0437L32.1739 28.522M53.3043 13.522C56.4348 18.0872 58.2609 23.6959 58.2609 29.6959M58.2609 29.6959C58.2609 37.522 55.1304 44.5655 50.0435 49.7829C44.8261 55.1307 37.6522 58.3916 29.5652 58.3916C21.4783 58.3916 14.3043 55.1307 9.08696 49.7829C4.13043 44.5655 1 37.522 1 29.6959M58.2609 29.6959H40.3913M1 29.6959C1 21.8698 4.13044 14.8263 9.21739 9.60894M1 29.6959H25.913M9.21739 9.60894C14.4348 4.26111 21.6087 1.00024 29.6957 1.00024M9.21739 9.60894C13.6522 14.0437 19.5217 17.1742 26.0435 17.9568M29.6957 1.00024C37.1304 1.00024 44.0435 3.86981 49.1304 8.6959M29.6957 1.00024C21.2174 1.00024 14.4348 13.7829 14.4348 29.6959C14.4348 45.6089 21.2174 58.3916 29.6957 58.3916M29.6957 1.00024C34.5217 1.00024 38.8261 5.17416 41.5652 11.6959M29.6957 1.00024V16.522M9.21739 49.7829C14.4348 44.435 21.6087 41.1742 29.6957 41.1742C37.7826 41.1742 44.9565 44.435 50.1739 49.7829M44.6957 24.4785C44.8261 26.1742 44.9565 28.0002 44.9565 29.6959C44.9565 45.6089 38.1739 58.3916 29.6957 58.3916M29.6957 58.3916V31.7829M25.7826 36.3481V24.8698L40.3913 18.4785L25.7826 36.3481Z" stroke="#0069FF" stroke-width="2" stroke-miterlimit="10" stroke-linejoin="round"></path></svg>