<svg viewBox="0 0 62 62" fill="none" xmlns="http://www.w3.org/2000/svg"><path d="M40.2258 40.6134C45.3195 35.5197 45.3195 27.2611 40.2258 22.1673C35.132 17.0736 26.8734 17.0736 21.7797 22.1673C16.6859 27.2611 16.6859 35.5197 21.7797 40.6134C26.8734 45.7072 35.132 45.7072 40.2258 40.6134Z" stroke="#0069FF" stroke-width="2" stroke-miterlimit="10"></path><path d="M30.9998 29.9566C33.0169 29.9566 34.652 28.3214 34.652 26.3044C34.652 24.2874 33.0169 22.6522 30.9998 22.6522C28.9828 22.6522 27.3477 24.2874 27.3477 26.3044C27.3477 28.3214 28.9828 29.9566 30.9998 29.9566Z" stroke="#0069FF" stroke-width="2" stroke-miterlimit="10"></path><path d="M40.13 40.261V37.0001C40.13 34.6523 38.4344 32.5653 36.0865 31.9132L35.4344 31.7827L30.9996 36.2175L26.5648 31.7827L25.9126 31.9132C23.6952 32.5653 21.8691 34.6523 21.8691 37.1305V40.7827" stroke="#0069FF" stroke-width="2" stroke-miterlimit="10"></path><path d="M31.0006 11.4349C33.8821 11.4349 36.218 9.099 36.218 6.21751C36.218 3.33603 33.8821 1.00012 31.0006 1.00012C28.1191 1.00012 25.7832 3.33603 25.7832 6.21751C25.7832 9.099 28.1191 11.4349 31.0006 11.4349Z" stroke="#0069FF" stroke-width="2" stroke-miterlimit="10"></path><path d="M31.0006 61.0001C33.8821 61.0001 36.218 58.6642 36.218 55.7827C36.218 52.9012 33.8821 50.5653 31.0006 50.5653C28.1191 50.5653 25.7832 52.9012 25.7832 55.7827C25.7832 58.6642 28.1191 61.0001 31.0006 61.0001Z" stroke="#0069FF" stroke-width="2" stroke-miterlimit="10"></path><path d="M55.7818 36.2175C58.6633 36.2175 60.9992 33.8816 60.9992 31.0001C60.9992 28.1186 58.6633 25.7827 55.7818 25.7827C52.9004 25.7827 50.5645 28.1186 50.5645 31.0001C50.5645 33.8816 52.9004 36.2175 55.7818 36.2175Z" stroke="#0069FF" stroke-width="2" stroke-miterlimit="10"></path><path d="M6.21739 36.2175C9.09888 36.2175 11.4348 33.8816 11.4348 31.0001C11.4348 28.1186 9.09888 25.7827 6.21739 25.7827C3.33591 25.7827 1 28.1186 1 31.0001C1 33.8816 3.33591 36.2175 6.21739 36.2175Z" stroke="#0069FF" stroke-width="2" stroke-miterlimit="10"></path><path d="M55.2603 36.2175C53.1733 45.7393 45.7385 53.174 36.2168 55.261" stroke="#0069FF" stroke-width="2" stroke-miterlimit="10" stroke-dasharray="2 2"></path><path d="M36.2168 6.73926C45.7385 8.82621 53.1733 16.261 55.2603 25.7827" stroke="#0069FF" stroke-width="2" stroke-miterlimit="10" stroke-dasharray="2 2"></path><path d="M6.73828 25.7827C8.82524 16.261 16.26 8.82621 25.7818 6.73926" stroke="#0069FF" stroke-width="2" stroke-miterlimit="10" stroke-dasharray="2 2"></path><path d="M25.7818 55.261C16.26 53.174 8.82524 45.7393 6.73828 36.2175" stroke="#0069FF" stroke-width="2" stroke-miterlimit="10" stroke-dasharray="2 2"></path></svg>