<svg viewBox="0 0 49 50" fill="none" xmlns="http://www.w3.org/2000/svg"><path d="M34.5 5H41.5C44.8 5 47.5 7.8 47.5 11.3V19.7" stroke="#0069FF" stroke-width="2" stroke-miterlimit="10"></path><path d="M38.5 1L34.5 5L38.5 9" stroke="#0069FF" stroke-width="2" stroke-miterlimit="10"></path><path d="M14.5 43H7.5C4.2 43 1.5 40.3 1.5 37V29" stroke="#0069FF" stroke-width="2" stroke-miterlimit="10"></path><path d="M10.5 47L14.5 43L10.5 39" stroke="#0069FF" stroke-width="2" stroke-miterlimit="10"></path><path d="M47.5 29V44.6471H31.1823L25.147 48V44.6471H22.9117V29H47.5Z" stroke="#0069FF" stroke-width="2" stroke-miterlimit="10"></path><path d="M44.147 34.5882H26.2646" stroke="#0069FF" stroke-width="2" stroke-miterlimit="10"></path><path d="M40.7941 39.0588H29.6177" stroke="#0069FF" stroke-width="2" stroke-miterlimit="10"></path><path d="M26.0882 1V16.6471H9.77059L3.73529 20V16.6471H1.5V1H26.0882Z" stroke="#0069FF" stroke-width="2" stroke-miterlimit="10"></path><path d="M22.7353 6.58823H4.85291" stroke="#0069FF" stroke-width="2" stroke-miterlimit="10"></path><path d="M19.3824 11.0588H8.20593" stroke="#0069FF" stroke-width="2" stroke-miterlimit="10"></path></svg>