<svg viewBox="0 0 33 36" fill="currentColor" xmlns="http://www.w3.org/2000/svg"><path d="M2.96154 10.75V15.5385H0.5V8.01923L7.23077 4.63462L8.32692 6.84615L4.48077 8.76923L8.34615 10.6923L7.23077 12.9038L2.96154 10.75ZM15.2692 3.36538L11 5.51923L9.90385 3.30769L16.5 0L23.0962 3.30769L22 5.51923L17.7308 3.36538V9.38462H15.2692V3.36538ZM17.7308 32.6346L22 30.4808L23.1154 32.6923L16.5 36L9.90385 32.6923L11 30.4808L15.2692 32.6346V26.6154H17.7308V32.6346ZM7.84615 22.7885L8.98077 24.9808L4.48077 27.2308L8.32692 29.1538L7.23077 31.3654L0.5 27.9808V20.4615H2.96154V25.25L7.84615 22.7885ZM16.5 14.7692L22 12.0192L23.1154 14.2308L17.7308 16.9231V22.9231H15.2692V16.9231L9.90385 14.2308L11 12.0192L16.5 14.7692ZM25.7692 4.63462L32.5 8.01923V15.5385H30.0385V10.75L25.7692 12.9038L24.6731 10.6923L28.5192 8.76923L24.6731 6.84615L25.7692 4.63462ZM30.0385 25.25V20.4615H32.5V27.9808L25.7692 31.3654L24.6731 29.1538L28.5192 27.2308L24.0192 24.9808L25.1538 22.7885L30.0385 25.25Z" fill="currentColor"></path></svg>