<svg viewBox="0 0 31 48" fill="none" xmlns="http://www.w3.org/2000/svg"><path d="M29.0883 1.03906H18.0977V46.9999H29.0883V1.03906Z" stroke="#0069FF" stroke-width="2" stroke-miterlimit="10"></path><path d="M18.0977 40.0059H23.0934" stroke="#0069FF" stroke-width="2" stroke-miterlimit="10"></path><path d="M18.0977 32.0127H22.0942" stroke="#0069FF" stroke-width="2" stroke-miterlimit="10"></path><path d="M18.0977 24.0195H23.0934" stroke="#0069FF" stroke-width="2" stroke-miterlimit="10"></path><path d="M18.0977 16.0264H22.0942" stroke="#0069FF" stroke-width="2" stroke-miterlimit="10"></path><path d="M18.0977 8.0332H23.0934" stroke="#0069FF" stroke-width="2" stroke-miterlimit="10"></path><path d="M6.50806 1.0392C6.60798 0.939282 6.70789 1.0392 6.70789 1.23903C6.40815 2.13826 5.70875 4.83596 7.80696 7.53366C7.80696 7.53366 10.3048 10.7309 8.30653 13.4286C7.30738 14.7275 5.50892 15.1272 3.91028 14.5277H3.81036C2.51147 13.9282 1.71215 12.7292 1.41241 11.4303C0.912835 8.83255 0.912835 4.33639 6.50806 1.0392Z" stroke="#0069FF" stroke-width="2" stroke-miterlimit="10"></path><path d="M9.20607 25.5183C9.20607 34.4108 7.40761 47 5.20948 47C3.01136 47 1.21289 34.4108 1.21289 25.5183C1.21289 16.6259 3.01136 14.7275 5.20948 14.7275C7.40761 14.7275 9.20607 16.6259 9.20607 25.5183Z" stroke="#0069FF" stroke-width="2" stroke-miterlimit="10"></path><path d="M1.41211 20.0225H8.8058" stroke="#0069FF" stroke-width="2" stroke-miterlimit="10"></path></svg>