<svg viewBox="0 0 43 48" fill="none" xmlns="http://www.w3.org/2000/svg"><path d="M38.1484 26H34.1484V30H38.1484V26Z" stroke="#0069FF" stroke-width="2" stroke-miterlimit="10"></path><path d="M23.1484 43H19.1484V47H23.1484V43Z" stroke="#0069FF" stroke-width="2" stroke-miterlimit="10"></path><path d="M8.14844 26H4.14844V30H8.14844V26Z" stroke="#0069FF" stroke-width="2" stroke-miterlimit="10"></path><path d="M19.1484 44.9C11.8484 43.9 6.14844 37.6 6.14844 30" stroke="#0069FF" stroke-width="2" stroke-miterlimit="10"></path><path d="M36.1484 30C36.1484 37.6 30.4484 43.9 23.1484 44.9" stroke="#0069FF" stroke-width="2" stroke-miterlimit="10"></path><path d="M23.1484 45H37.1484" stroke="#0069FF" stroke-width="2" stroke-miterlimit="10"></path><path d="M41.1484 43H37.1484V47H41.1484V43Z" stroke="#0069FF" stroke-width="2" stroke-miterlimit="10"></path><path d="M19.1484 45H5.14844" stroke="#0069FF" stroke-width="2" stroke-miterlimit="10"></path><path d="M1.14844 47L5.14844 47L5.14844 43L1.14844 43L1.14844 47Z" stroke="#0069FF" stroke-width="2" stroke-miterlimit="10"></path><path d="M14.6484 24H27.6484" stroke="#0069FF" stroke-width="2" stroke-miterlimit="10"></path><path d="M33.1484 17C33.1484 14.8 31.3484 13 29.1484 13C26.9484 13 25.1484 14.8 25.1484 17" stroke="#0069FF" stroke-width="2" stroke-miterlimit="10"></path><path d="M25.1484 17C25.1484 14.8 23.3484 13 21.1484 13C18.9484 13 17.1484 14.8 17.1484 17" stroke="#0069FF" stroke-width="2" stroke-miterlimit="10"></path><path d="M17.1484 17C17.1484 14.8 15.3484 13 13.1484 13C10.9484 13 9.14844 14.8 9.14844 17" stroke="#0069FF" stroke-width="2" stroke-miterlimit="10"></path><path d="M9.14844 19V1H33.1484V19L21.1484 30L9.14844 19Z" stroke="#0069FF" stroke-width="2" stroke-miterlimit="10"></path></svg>