<svg viewBox="0 0 61 61" fill="currentColor" xmlns="http://www.w3.org/2000/svg"><path d="M9.93617 1L10.778 0.460334C10.5942 0.173485 10.2769 0 9.93617 0C9.59545 0 9.27817 0.173485 9.09429 0.460334L9.93617 1ZM13.1277 5.97872L12.2858 6.51839C12.4205 6.7285 12.6289 6.88065 12.87 6.94496L13.1277 5.97872ZM18.8723 7.51064L19.6511 8.13797C19.8634 7.87445 19.928 7.52146 19.8228 7.19984C19.7176 6.87821 19.457 6.63159 19.13 6.5444L18.8723 7.51064ZM15.1702 12.1064L14.3915 11.4791C14.2389 11.6684 14.1606 11.9069 14.1712 12.1498L15.1702 12.1064ZM15.4255 17.9787L15.0768 18.9159C15.391 19.0328 15.7428 18.9846 16.0139 18.7873C16.2849 18.5901 16.4391 18.2702 16.4246 17.9353L15.4255 17.9787ZM9.93617 15.9362L10.2849 14.9989C10.0599 14.9152 9.81239 14.9152 9.58744 14.9989L9.93617 15.9362ZM4.44681 17.9787L3.44775 17.9353C3.43319 18.2702 3.5874 18.5901 3.85846 18.7873C4.12952 18.9846 4.48137 19.0328 4.79554 18.9159L4.44681 17.9787ZM4.70213 12.1064L5.70118 12.1498C5.71175 11.9069 5.63343 11.6684 5.48088 11.4791L4.70213 12.1064ZM1 7.51064L0.742337 6.5444C0.415381 6.63159 0.154695 6.87821 0.0495255 7.19984C-0.0556445 7.52146 0.00896913 7.87445 0.221246 8.13797L1 7.51064ZM6.74468 5.97872L7.00234 6.94496C7.24349 6.88065 7.45187 6.7285 7.58656 6.51839L6.74468 5.97872ZM9.93617 21.8085L10.778 21.2688C10.5942 20.982 10.2769 20.8085 9.93617 20.8085C9.59545 20.8085 9.27817 20.982 9.09429 21.2688L9.93617 21.8085ZM13.1277 26.7872L12.2858 27.3269C12.4205 27.537 12.6289 27.6892 12.87 27.7535L13.1277 26.7872ZM18.8723 28.3191L19.6511 28.9465C19.8634 28.683 19.928 28.33 19.8228 28.0083C19.7176 27.6867 19.457 27.4401 19.13 27.3529L18.8723 28.3191ZM15.1702 32.9149L14.3915 32.2876C14.2391 32.4767 14.1608 32.7148 14.1711 32.9574L15.1702 32.9149ZM15.4255 38.9149L15.0579 39.8449C15.3728 39.9694 15.7293 39.926 16.0053 39.7297C16.2812 39.5334 16.439 39.2107 16.4246 38.8724L15.4255 38.9149ZM9.93617 36.7447L10.3038 35.8147C10.0676 35.7213 9.80472 35.7213 9.56851 35.8147L9.93617 36.7447ZM4.44681 38.9149L3.44771 38.8724C3.43331 39.2107 3.59113 39.5334 3.86706 39.7297C4.14299 39.926 4.49954 39.9694 4.81447 39.8449L4.44681 38.9149ZM4.70213 32.9149L5.70122 32.9574C5.71155 32.7148 5.63323 32.4767 5.48088 32.2876L4.70213 32.9149ZM1 28.3191L0.742338 27.3529C0.415381 27.4401 0.154696 27.6867 0.0495256 28.0083C-0.0556445 28.33 0.00896913 28.683 0.221246 28.9465L1 28.3191ZM6.74468 26.7872L7.00234 27.7535C7.24349 27.6892 7.45187 27.537 7.58656 27.3269L6.74468 26.7872ZM9.93617 42.7447L10.778 42.205C10.5942 41.9182 10.2769 41.7447 9.93617 41.7447C9.59545 41.7447 9.27817 41.9182 9.09429 42.205L9.93617 42.7447ZM13.1277 47.7234L12.2858 48.2631C12.4205 48.4732 12.6289 48.6253 12.87 48.6896L13.1277 47.7234ZM18.8723 49.2553L19.6511 49.8826C19.8634 49.6191 19.928 49.2661 19.8228 48.9445C19.7176 48.6229 19.457 48.3763 19.13 48.2891L18.8723 49.2553ZM15.1702 53.8511L14.3915 53.2237C14.2389 53.4131 14.1606 53.6516 14.1712 53.8945L15.1702 53.8511ZM15.4255 59.7234L15.0768 60.6606C15.391 60.7775 15.7428 60.7292 16.0139 60.532C16.2849 60.3348 16.4391 60.0149 16.4246 59.68L15.4255 59.7234ZM9.93617 57.6809L10.2849 56.7436C10.0599 56.6599 9.81239 56.6599 9.58744 56.7436L9.93617 57.6809ZM4.44681 59.7234L3.44775 59.68C3.43319 60.0149 3.5874 60.3348 3.85846 60.532C4.12952 60.7292 4.48137 60.7775 4.79554 60.6606L4.44681 59.7234ZM4.70213 53.8511L5.70118 53.8945C5.71175 53.6516 5.63343 53.4131 5.48088 53.2237L4.70213 53.8511ZM1 49.2553L0.742337 48.2891C0.415381 48.3763 0.154696 48.6229 0.0495256 48.9445C-0.0556444 49.2661 0.00896907 49.6191 0.221246 49.8826L1 49.2553ZM6.74468 47.7234L7.00234 48.6896C7.24349 48.6253 7.45187 48.4732 7.58656 48.2631L6.74468 47.7234ZM9.09429 1.53967L12.2858 6.51839L13.9695 5.43906L10.778 0.460334L9.09429 1.53967ZM12.87 6.94496L18.6147 8.47687L19.13 6.5444L13.3853 5.01249L12.87 6.94496ZM18.0936 6.88331L14.3915 11.4791L15.949 12.7337L19.6511 8.13797L18.0936 6.88331ZM14.1712 12.1498L14.4265 18.0222L16.4246 17.9353L16.1693 12.0629L14.1712 12.1498ZM15.7743 17.0415L10.2849 14.9989L9.58744 16.8734L15.0768 18.9159L15.7743 17.0415ZM9.58744 14.9989L4.09807 17.0415L4.79554 18.9159L10.2849 16.8734L9.58744 14.9989ZM5.44586 18.0222L5.70118 12.1498L3.70307 12.0629L3.44775 17.9353L5.44586 18.0222ZM5.48088 11.4791L1.77875 6.88331L0.221246 8.13797L3.92337 12.7337L5.48088 11.4791ZM1.25766 8.47687L7.00234 6.94496L6.48702 5.01249L0.742337 6.5444L1.25766 8.47687ZM7.58656 6.51839L10.778 1.53967L9.09429 0.460334L5.9028 5.43906L7.58656 6.51839ZM25.2553 8.38298H46.9574V6.38298H25.2553V8.38298ZM25.2553 14.766H61V12.766H25.2553V14.766ZM9.09429 22.3482L12.2858 27.3269L13.9695 26.2476L10.778 21.2688L9.09429 22.3482ZM12.87 27.7535L18.6147 29.2854L19.13 27.3529L13.3853 25.821L12.87 27.7535ZM18.0936 27.6918L14.3915 32.2876L15.949 33.5422L19.6511 28.9465L18.0936 27.6918ZM14.1711 32.9574L14.4264 38.9574L16.4246 38.8724L16.1693 32.8724L14.1711 32.9574ZM15.7932 37.9849L10.3038 35.8147L9.56851 37.6746L15.0579 39.8449L15.7932 37.9849ZM9.56851 35.8147L4.07915 37.9849L4.81447 39.8449L10.3038 37.6746L9.56851 35.8147ZM5.4459 38.9574L5.70122 32.9574L3.70303 32.8724L3.44771 38.8724L5.4459 38.9574ZM5.48088 32.2876L1.77875 27.6918L0.221246 28.9465L3.92337 33.5422L5.48088 32.2876ZM1.25766 29.2854L7.00234 27.7535L6.48702 25.821L0.742338 27.3529L1.25766 29.2854ZM7.58656 27.3269L10.778 22.3482L9.09429 21.2688L5.9028 26.2476L7.58656 27.3269ZM25.2553 28.8085H46.9574V26.8085H25.2553V28.8085ZM25.2553 35.1915H61V33.1915H25.2553V35.1915ZM9.09429 43.2843L12.2858 48.2631L13.9695 47.1837L10.778 42.205L9.09429 43.2843ZM12.87 48.6896L18.6147 50.2215L19.13 48.2891L13.3853 46.7572L12.87 48.6896ZM18.0936 48.628L14.3915 53.2237L15.949 54.4784L19.6511 49.8826L18.0936 48.628ZM14.1712 53.8945L14.4265 59.7668L16.4246 59.68L16.1693 53.8076L14.1712 53.8945ZM15.7743 58.7862L10.2849 56.7436L9.58744 58.6181L15.0768 60.6606L15.7743 58.7862ZM9.58744 56.7436L4.09807 58.7862L4.79554 60.6606L10.2849 58.6181L9.58744 56.7436ZM5.44586 59.7668L5.70118 53.8945L3.70307 53.8076L3.44775 59.68L5.44586 59.7668ZM5.48088 53.2237L1.77875 48.628L0.221246 49.8826L3.92337 54.4784L5.48088 53.2237ZM1.25766 50.2215L7.00234 48.6896L6.48702 46.7572L0.742337 48.2891L1.25766 50.2215ZM7.58656 48.2631L10.778 43.2843L9.09429 42.205L5.9028 47.1837L7.58656 48.2631ZM25.2553 50.5106H46.9574V48.5106H25.2553V50.5106ZM25.2553 56.8936H61V54.8936H25.2553V56.8936Z" fill="currentColor"></path></svg>