<svg viewBox="0 0 44 60" fill="currentColor" xmlns="http://www.w3.org/2000/svg"><path d="M30.9016 0H0.5V60H43.0787V12.1772L30.9016 0ZM31.4685 3.30709L39.7717 11.6102H31.4685V3.30709ZM41.1417 58.063H2.43701V1.93701H29.5315V13.5472H41.1417V58.063Z" fill="currentColor"></path><path d="M38.248 20.3268H36.311V22.2638H38.248V20.3268Z" fill="currentColor"></path><path d="M34.374 20.3268H32.437V22.2638H34.374V20.3268Z" fill="currentColor"></path><path d="M30.5118 20.3268H28.5748V22.2638H30.5118V20.3268Z" fill="currentColor"></path><path d="M5.34252 4.84252V22.2638H18.8898V4.84252H5.34252ZM16.9528 20.3268H7.27953V6.77953H16.9528V20.3268Z" fill="currentColor"></path><path d="M38.3425 30.9685H28.1968C26.3661 29.752 24.1575 29.0315 21.7953 29.0315C19.4331 29.0315 17.2244 29.752 15.3937 30.9685H5.24803V32.9055H13.1732C11.5315 34.7362 10.4567 37.0866 10.2441 39.685H5.24803V41.622H10.2441C10.4567 44.2205 11.5315 46.5591 13.1732 48.4016H5.24803V50.3386H15.3937C17.2362 51.5551 19.4331 52.2756 21.7953 52.2756C24.1575 52.2756 26.3661 51.5551 28.1968 50.3386H38.3425V48.4016H30.4173C32.0591 46.5709 33.1339 44.2205 33.3465 41.622H38.3425V39.685H33.3465C33.1339 37.0866 32.0591 34.7362 30.4173 32.9055H38.3425V30.9685ZM31.4685 40.6535C31.4685 45.9803 27.1339 50.3268 21.7953 50.3268C16.4567 50.3268 12.122 45.9803 12.122 40.6535C12.122 35.315 16.4685 30.9803 21.7953 30.9803C27.1339 30.9803 31.4685 35.3268 31.4685 40.6535Z" fill="currentColor"></path><path d="M26.874 35.1614L19.8228 43.1102L16.6693 39.9567L15.2992 41.3268L19.9055 45.9213L28.3268 36.4488L26.874 35.1614Z" fill="currentColor"></path></svg>