<svg viewBox="0 0 37 36" fill="currentColor" xmlns="http://www.w3.org/2000/svg"><path d="M24.125 11.25C25.2617 11.25 26.3574 11.3965 27.4121 11.6895C28.4668 11.9824 29.4512 12.3984 30.3652 12.9375C31.2793 13.4766 32.1172 14.1211 32.8789 14.8711C33.6406 15.6211 34.2852 16.4531 34.8125 17.3672C35.3398 18.2812 35.7559 19.2715 36.0605 20.3379C36.3652 21.4043 36.5117 22.5 36.5 23.625C36.5 24.7617 36.3535 25.8574 36.0605 26.9121C35.7676 27.9668 35.3516 28.9512 34.8125 29.8652C34.2734 30.7793 33.6289 31.6172 32.8789 32.3789C32.1289 33.1406 31.2969 33.7852 30.3828 34.3125C29.4688 34.8398 28.4785 35.2559 27.4121 35.5605C26.3457 35.8652 25.25 36.0117 24.125 36C22.9883 36 21.8926 35.8535 20.8379 35.5605C19.7832 35.2676 18.7988 34.8516 17.8848 34.3125C16.9707 33.7734 16.1328 33.1289 15.3711 32.3789C14.6094 31.6289 13.9648 30.7969 13.4375 29.8828C12.9102 28.9688 12.4941 27.9785 12.1895 26.9121C11.8848 25.8457 11.7383 24.75 11.75 23.625C11.75 23.25 11.7676 22.875 11.8027 22.5C10.2441 22.5 8.7793 22.207 7.4082 21.6211C6.03711 21.0352 4.8418 20.2383 3.82227 19.2305C2.80273 18.2227 1.99414 17.0332 1.39648 15.6621C0.798828 14.291 0.5 12.8203 0.5 11.25C0.5 10.2188 0.634766 9.22266 0.904297 8.26172C1.17383 7.30078 1.54883 6.4043 2.0293 5.57227C2.50977 4.74023 3.0957 3.98438 3.78711 3.30469C4.47852 2.625 5.24023 2.03906 6.07227 1.54688C6.9043 1.05469 7.80078 0.673828 8.76172 0.404297C9.72266 0.134766 10.7188 0 11.75 0C12.793 0 13.7949 0.134766 14.7559 0.404297C15.7168 0.673828 16.6133 1.05469 17.4453 1.54688C18.2773 2.03906 19.0332 2.625 19.7129 3.30469C20.3926 3.98438 20.9785 4.74609 21.4707 5.58984C21.9629 6.43359 22.3379 7.33594 22.5957 8.29688C22.8535 9.25781 22.9883 10.2598 23 11.3027C23.3633 11.2676 23.7383 11.25 24.125 11.25ZM11.75 20.25C11.832 20.25 11.9141 20.2441 11.9961 20.2324C12.0781 20.2207 12.1602 20.209 12.2422 20.1973C12.4531 19.459 12.7285 18.7559 13.0684 18.0879C13.4082 17.4199 13.8125 16.7754 14.2812 16.1543C13.8711 16.0254 13.4551 15.9258 13.0332 15.8555C12.6113 15.7852 12.1836 15.75 11.75 15.75C11.0352 15.75 10.3379 15.8379 9.6582 16.0137C8.97852 16.1895 8.31641 16.4414 7.67188 16.7695L6.65234 14.7656C7.44922 14.3672 8.27539 14.0566 9.13086 13.834C9.98633 13.6113 10.8594 13.5 11.75 13.5C12.4766 13.5 13.1855 13.5762 13.877 13.7285C14.5684 13.8809 15.2539 14.0918 15.9336 14.3613C16.625 13.752 17.3691 13.2246 18.166 12.7793C18.9629 12.334 19.8066 11.9883 20.6973 11.7422L20.7324 11.4961C20.7441 11.4141 20.75 11.332 20.75 11.25C20.75 10.0078 20.5156 8.8418 20.0469 7.75195C19.5781 6.66211 18.9336 5.71289 18.1133 4.9043C17.293 4.0957 16.3379 3.45117 15.248 2.9707C14.1582 2.49023 12.9922 2.25 11.75 2.25C10.5078 2.25 9.3418 2.48438 8.25195 2.95312C7.16211 3.42188 6.21289 4.06641 5.4043 4.88672C4.5957 5.70703 3.95117 6.66211 3.4707 7.75195C2.99023 8.8418 2.75 10.0078 2.75 11.25C2.75 12.4922 2.98438 13.6582 3.45312 14.748C3.92188 15.8379 4.56641 16.7871 5.38672 17.5957C6.20703 18.4043 7.16211 19.0488 8.25195 19.5293C9.3418 20.0098 10.5078 20.25 11.75 20.25ZM24.125 33.75C25.5195 33.75 26.832 33.4863 28.0625 32.959C29.293 32.4316 30.3652 31.7051 31.2793 30.7793C32.1934 29.8535 32.9141 28.7812 33.4414 27.5625C33.9688 26.3438 34.2383 25.0312 34.25 23.625C34.25 22.2305 33.9863 20.918 33.459 19.6875C32.9316 18.457 32.2051 17.3848 31.2793 16.4707C30.3535 15.5566 29.2812 14.8359 28.0625 14.3086C26.8438 13.7812 25.5312 13.5117 24.125 13.5C22.7305 13.5 21.418 13.7637 20.1875 14.291C18.957 14.8184 17.8848 15.5449 16.9707 16.4707C16.0566 17.3965 15.3359 18.4688 14.8086 19.6875C14.2812 20.9062 14.0117 22.2188 14 23.625C14 25.0195 14.2637 26.332 14.791 27.5625C15.3184 28.793 16.0449 29.8652 16.9707 30.7793C17.8965 31.6934 18.9688 32.4141 20.1875 32.9414C21.4062 33.4688 22.7188 33.7383 24.125 33.75ZM28.625 23.0625C28.1562 23.0625 27.7578 22.8984 27.4297 22.5703C27.1016 22.2422 26.9375 21.8438 26.9375 21.375C26.9375 20.9062 27.1016 20.5078 27.4297 20.1797C27.7578 19.8516 28.1562 19.6875 28.625 19.6875C29.0938 19.6875 29.4922 19.8516 29.8203 20.1797C30.1484 20.5078 30.3125 20.9062 30.3125 21.375C30.3125 21.8438 30.1484 22.2422 29.8203 22.5703C29.4922 22.8984 29.0938 23.0625 28.625 23.0625ZM19.625 23.0625C19.1562 23.0625 18.7578 22.8984 18.4297 22.5703C18.1016 22.2422 17.9375 21.8438 17.9375 21.375C17.9375 20.9062 18.1016 20.5078 18.4297 20.1797C18.7578 19.8516 19.1562 19.6875 19.625 19.6875C20.0938 19.6875 20.4922 19.8516 20.8203 20.1797C21.1484 20.5078 21.3125 20.9062 21.3125 21.375C21.3125 21.8438 21.1484 22.2422 20.8203 22.5703C20.4922 22.8984 20.0938 23.0625 19.625 23.0625ZM24.125 29.25C24.6289 29.25 25.1211 29.1855 25.6016 29.0566C26.082 28.9277 26.5332 28.7344 26.9551 28.4766C27.377 28.2188 27.7637 27.9141 28.1152 27.5625C28.4668 27.2109 28.7656 26.8125 29.0117 26.3672L30.9629 27.4746C30.6113 28.0957 30.1895 28.6523 29.6973 29.1445C29.2051 29.6367 28.666 30.0586 28.0801 30.4102C27.4941 30.7617 26.8672 31.0312 26.1992 31.2188C25.5312 31.4062 24.8398 31.5 24.125 31.5C23.4102 31.5 22.7188 31.4062 22.0508 31.2188C21.3828 31.0312 20.7559 30.7676 20.1699 30.4277C19.584 30.0879 19.0449 29.666 18.5527 29.1621C18.0605 28.6582 17.6387 28.0957 17.2871 27.4746L19.2383 26.3672C19.4844 26.8125 19.7832 27.2109 20.1348 27.5625C20.4863 27.9141 20.873 28.2129 21.2949 28.459C21.7168 28.7051 22.1621 28.8984 22.6309 29.0391C23.0996 29.1797 23.5977 29.25 24.125 29.25ZM8.375 9.28125C7.98828 9.28125 7.66016 9.14648 7.39062 8.87695C7.12109 8.60742 6.98047 8.27344 6.96875 7.875C6.96875 7.48828 7.10352 7.16016 7.37305 6.89062C7.64258 6.62109 7.97656 6.48047 8.375 6.46875C8.76172 6.46875 9.08984 6.60352 9.35938 6.87305C9.62891 7.14258 9.76953 7.47656 9.78125 7.875C9.78125 8.26172 9.64648 8.58984 9.37695 8.85938C9.10742 9.12891 8.77344 9.26953 8.375 9.28125ZM15.125 9.28125C14.7383 9.28125 14.4102 9.14648 14.1406 8.87695C13.8711 8.60742 13.7305 8.27344 13.7188 7.875C13.7188 7.48828 13.8535 7.16016 14.123 6.89062C14.3926 6.62109 14.7266 6.48047 15.125 6.46875C15.5117 6.46875 15.8398 6.60352 16.1094 6.87305C16.3789 7.14258 16.5195 7.47656 16.5312 7.875C16.5312 8.26172 16.3965 8.58984 16.127 8.85938C15.8574 9.12891 15.5234 9.26953 15.125 9.28125Z" fill="currentColor"></path></svg>