<svg width="16" height="16" viewBox="0 0 16 16" fill="none" xmlns="http://www.w3.org/2000/svg">
<path d="M8 0C3.5816 0 0 3.5816 0 8C0 12.4184 3.5816 16 8 16C12.4184 16 16 12.4184 16 8C16 3.5816 12.4184 0 8 0ZM8 1.1592C9.7428 1.1592 11.3336 1.8112 12.5416 2.884C11.654 4.0548 10.3056 4.8344 8.9544 5.362C8.1895 3.96894 7.33225 2.62861 6.3884 1.35C6.91628 1.22276 7.45701 1.15871 8 1.1592ZM5.0896 1.8072C5.9816 3.1416 6.8456 4.3788 7.6348 5.7792C5.6388 6.2964 3.3832 6.6068 1.2996 6.612C1.7388 4.4808 3.1704 2.7108 5.0896 1.8072ZM13.3004 3.6752C14.2889 4.88318 14.8327 6.39394 14.8408 7.9548C13.2584 7.6428 11.6848 7.5612 10.0824 7.7228C9.9024 7.2736 9.684 6.8468 9.4748 6.3868C10.856 5.8296 12.3328 4.8764 13.3004 3.6752ZM8.1904 6.8376C8.3616 7.2016 8.56 7.588 8.7464 7.9828C6.5184 8.9652 4.1484 10.278 2.9184 12.5796C1.7376 11.2729 1.10832 9.55994 1.1624 7.7996C3.5484 7.7884 5.8904 7.49 8.1904 6.8376ZM11.8056 8.7028C12.8011 8.70301 13.7925 8.83072 14.7556 9.0828C14.6071 10.0093 14.2696 10.8953 13.764 11.6858C13.2584 12.4763 12.5956 13.1543 11.8168 13.6776C11.4496 12.0076 11.0996 10.4096 10.4808 8.7984C10.9194 8.73449 11.362 8.70241 11.8052 8.7024L11.8056 8.7028ZM14.7912 8.8268C14.7864 8.866 14.782 8.9044 14.7764 8.9428C14.782 8.904 14.7868 8.8656 14.7912 8.8268ZM9.2152 9.1108C9.8456 10.74 10.3404 12.544 10.6724 14.2996C9.82728 14.6582 8.91845 14.8424 8.0004 14.8412C6.47954 14.8434 5.00171 14.3364 3.8024 13.4012C5.0412 11.3916 6.96 9.8708 9.2148 9.1112L9.2152 9.1108Z" fill="#1F232E"/>
</svg>
