<svg viewBox="0 0 43 43" fill="none" xmlns="http://www.w3.org/2000/svg"><path d="M37.0217 29.7174V32.4565M37.0217 26.0652V24.6957C37.0217 21.9565 34.7391 19.6739 32 19.6739C29.2609 19.6739 26.9783 21.9565 26.9783 24.6957V35.1957C26.9783 39.213 23.6913 42.5 19.6739 42.5C15.6565 42.5 12.3696 39.213 12.3696 35.1957V27.8913M12.3696 4.42609V0.5M8.71739 0.5H16.0217M12.3696 6.8913V8.71739M3.14783 16.0217H4.97391M12.3696 25.1522V23.3261M21.4087 16.0217H19.5826M18.6696 9.63043L13.5565 14.7435M37.0217 42.5C34.0087 42.5 31.5435 40.0348 31.5435 37.0217V32.4565C31.5435 29.4435 34.0087 26.9783 37.0217 26.9783C40.0348 26.9783 42.5 29.4435 42.5 32.4565V37.0217C42.5 40.0348 40.0348 42.5 37.0217 42.5ZM24.0565 16.113C24.0565 22.618 18.7832 27.8913 12.2783 27.8913C5.77331 27.8913 0.5 22.618 0.5 16.113C0.5 9.60809 5.77331 4.33478 12.2783 4.33478C18.7832 4.33478 24.0565 9.60809 24.0565 16.113ZM14.1043 16.0217C14.1043 17.0303 13.2868 17.8478 12.2783 17.8478C11.2697 17.8478 10.4522 17.0303 10.4522 16.0217C10.4522 15.0132 11.2697 14.1957 12.2783 14.1957C13.2868 14.1957 14.1043 15.0132 14.1043 16.0217Z" stroke="#0069FF" stroke-miterlimit="10"></path></svg>