<svg viewBox="0 0 49 48" fill="none" xmlns="http://www.w3.org/2000/svg"><path d="M39.9 24.4L42 22.2L39.1 21.4L36.1 20.6L36.9 23.6L37.7 26.5L39.9 24.4ZM39.9 24.4L42.9 27.4M16.5 39V47M32.5 39V47M11.5 47H37.5M47.5 34H1.5M5.5 6L8.5 7L12.5 20M12.5 20H28.5L31.5 11H9.5M12.5 20L10.5 24H28.5M1.5 1H47.5V39H1.5V1ZM26.5 26C26.5 27.1046 25.6046 28 24.5 28C23.3954 28 22.5 27.1046 22.5 26C22.5 24.8954 23.3954 24 24.5 24C25.6046 24 26.5 24.8954 26.5 26ZM16.5 26C16.5 27.1046 15.6046 28 14.5 28C13.3954 28 12.5 27.1046 12.5 26C12.5 24.8954 13.3954 24 14.5 24C15.6046 24 16.5 24.8954 16.5 26Z" stroke="#0069FF" stroke-width="2" stroke-miterlimit="10"></path></svg>