<svg viewBox="0 0 31 30" fill="currentColor" xmlns="http://www.w3.org/2000/svg"><path d="M29.7106 17.1728C28.0769 15.5658 23.4166 16.0077 21.0865 16.3024C18.7831 14.8962 17.2431 12.9545 16.1583 10.1021C16.6806 7.94601 17.5109 4.66507 16.8815 2.60277C16.319 -0.905827 11.8195 -0.557645 11.1767 1.81266C10.5875 3.96871 11.1231 6.96842 12.1141 10.7984C10.7749 13.999 8.77959 18.2977 7.37347 20.7618C4.69516 22.1411 1.07943 24.2703 0.543768 26.9487C0.101846 29.0645 4.02558 34.3408 10.7348 22.7705C13.7345 21.7795 17.002 20.5609 19.8946 20.0788C22.4256 21.4447 25.3851 22.3553 27.3671 22.3553C30.782 22.3553 31.1167 18.5789 29.7106 17.1728ZM3.18191 27.5915C3.86488 25.7568 6.46285 23.6409 7.25295 22.9044C4.70855 26.9621 3.18191 27.6852 3.18191 27.5915ZM14.1094 2.0671C15.1004 2.0671 15.0067 6.3658 14.3505 7.53087C13.7613 5.66944 13.7746 2.0671 14.1094 2.0671ZM10.8419 20.36C12.1409 18.0968 13.2524 15.4051 14.1496 13.0348C15.2611 15.0569 16.6806 16.6773 18.1805 17.7888C15.395 18.3647 12.9712 19.5431 10.8419 20.36ZM28.4652 19.6904C28.4652 19.6904 27.7956 20.4939 23.4702 18.6459C28.1706 18.2977 28.9473 19.369 28.4652 19.6904Z" fill="currentColor"></path></svg>