<svg viewBox="0 0 18 38" fill="none" xmlns="http://www.w3.org/2000/svg"><path d="M8.32125 19.0072C8.41162 19.1579 8.57437 19.25 8.75 19.25C8.92563 19.25 9.08838 19.1579 9.17875 19.0072L12.7831 13H15.625C15.9897 13 16.3394 13.1449 16.5973 13.4027C16.8551 13.6606 17 14.0103 17 14.375V24.375C17 24.7397 16.8551 25.0894 16.5973 25.3473C16.3394 25.6051 15.9897 25.75 15.625 25.75H13.75C13.4739 25.75 13.25 25.9739 13.25 26.25V35.625C13.25 35.9897 13.1051 36.3394 12.8473 36.5973C12.5894 36.8551 12.2397 37 11.875 37H5.625C5.26033 37 4.91059 36.8551 4.65273 36.5973C4.39487 36.3394 4.25 35.9897 4.25 35.625V26.25C4.25 25.9739 4.02614 25.75 3.75 25.75H1.875C1.51033 25.75 1.16059 25.6051 0.902728 25.3473C0.644865 25.0894 0.5 24.7397 0.5 24.375V14.375C0.5 14.0103 0.644866 13.6606 0.902728 13.4027C1.16059 13.1449 1.51033 13 1.875 13H4.7169L8.32125 19.0072ZM12.625 4.375C12.625 6.5151 10.8901 8.25 8.75 8.25C6.6099 8.25 4.875 6.5151 4.875 4.375C4.875 2.2349 6.6099 0.5 8.75 0.5C10.8901 0.5 12.625 2.2349 12.625 4.375Z" stroke-miterlimit="10" stroke-linecap="round" stroke-linejoin="round"/></svg>