<svg viewBox="0 0 64 63" fill="none" xmlns="http://www.w3.org/2000/svg"><path d="M47.6667 38.3333C47.4 32.4667 43.4 27.4 37.6667 25.8L35.9333 25.2667L24.2 36.8667L12.4667 25.2667L10.7333 25.8C5 27.5333 1 33 1 39.1333V51.6667H33M37 45H58.3333M41 50.3333H54.3333M34.3333 11C34.3333 16.5228 29.8562 21 24.3333 21C18.8105 21 14.3333 16.5228 14.3333 11C14.3333 5.47715 18.8105 1 24.3333 1C29.8562 1 34.3333 5.47715 34.3333 11ZM33 38.3333V57H52.4667L59.6667 61V57H62.3333V38.3333H33Z" stroke="#0069FF" stroke-width="2" stroke-miterlimit="10"></path></svg>