<svg viewBox="0 0 24 24" fill="none" xmlns="http://www.w3.org/2000/svg"><circle cx="12" cy="12" r="12" fill="#FF4C00"></circle><path d="M11.2852 4.99999C13.3992 7.44466 14.2445 9.55532 13.8219 11.3333C14.0005 11.6667 14.6685 10.6667 15.0899 9.33332C15.1559 9.13866 15.3585 8.99999 15.5665 8.99999C15.7045 8.99999 15.8625 9.11132 16.0419 9.33332C17.5172 11.7867 17.7285 14.12 16.6759 16.3333C16.2525 17.2227 15.0899 18.6667 14.6145 18.6667C14.4072 18.6667 14.1392 18.6667 14.1392 18.3333C13.9279 17.2227 13.5052 16.444 12.8712 16C11.9192 15.3333 10.3339 14.6667 10.6665 13.3333C10.4085 13 9.06521 14.3333 10.0165 16.3333C10.1979 16.7147 10.5345 17.1773 11.0272 17.722C11.1192 17.772 11.1939 17.8527 11.2385 17.9513C11.2539 17.9673 11.2852 18.116 11.2852 18.1667C11.2852 18.4427 11.0725 18.6667 10.8099 18.6667C10.7779 18.6667 10.7252 18.6667 10.6512 18.6667C7.43188 17.5367 6.16388 15.5367 6.84588 12.6667C7.47988 9.99999 8.74855 8.99999 9.38255 7.66666C9.96655 6.43799 10.2845 5.54932 10.3339 4.99999C10.3339 4.77799 10.4445 4.66666 10.6665 4.66666C11.0272 4.66666 11.2852 4.99999 11.2852 4.99999Z" fill="white"></path></svg>