<svg viewBox="0 0 35 38" fill="none" xmlns="http://www.w3.org/2000/svg"><path d="M33.8696 17.3565C33.8696 26.3565 26.513 33.713 17.4348 33.713C15.9478 33.713 14.4609 33.4783 13.0522 33.087L6.47826 37V29.3304C2.95652 26.3565 1 22.1304 1 17.3565C1 8.35652 8.35652 1 17.4348 1C26.513 1 33.8696 8.35652 33.8696 17.3565Z" stroke="#0069FF" stroke-width="2" stroke-miterlimit="10" stroke-linejoin="round"></path><path d="M28.3911 18.8435V15.9478L25.8085 15.4783C25.5737 14.4609 25.1824 13.6 24.6345 12.7391L26.1998 10.6261L24.165 8.59131L22.0519 10.1565C21.1911 9.60871 20.3302 9.2174 19.3128 8.98262L18.8432 6.47827H15.9476L15.478 9.06088C14.4606 9.29566 13.5998 9.68697 12.7389 10.2348L10.6259 8.66958L8.59107 10.7044L10.1563 12.8174C9.60846 13.6783 9.21716 14.5391 8.98237 15.5565L6.47803 16.0261V18.9217L9.06064 19.3913C9.29542 20.4087 9.68672 21.2696 10.2345 22.1304L8.66933 24.2435L10.7041 26.2783L12.8172 24.7131C13.678 25.2609 14.5389 25.6522 15.5563 25.887L16.0259 28.4696H18.9215L19.3911 25.887C20.4085 25.6522 21.2693 25.2609 22.1302 24.7131L24.2432 26.2783L26.278 24.2435L24.7128 22.1304C25.2606 21.2696 25.6519 20.4087 25.8867 19.3913L28.3911 18.8435Z" stroke="#0069FF" stroke-width="2" stroke-miterlimit="10"></path><path d="M17.4346 20.8C19.2931 20.8 20.7998 19.2934 20.7998 17.4348C20.7998 15.5762 19.2931 14.0696 17.4346 14.0696C15.576 14.0696 14.0693 15.5762 14.0693 17.4348C14.0693 19.2934 15.576 20.8 17.4346 20.8Z" stroke="#0069FF" stroke-width="2" stroke-miterlimit="10"></path></svg>