<svg viewBox="0 0 26 30" fill="currentColor" xmlns="http://www.w3.org/2000/svg"><path d="M7.58547 30C7.94545 30 8.21844 29.988 8.39843 29.964C8.60959 29.9213 8.79997 29.8081 8.93841 29.643C9.1184 29.454 9.2084 29.181 9.2084 28.8211L9.1964 27.1501C9.1874 26.0852 9.1844 25.2392 9.1844 24.6182L8.62042 24.7172C8.16912 24.7883 7.71209 24.8164 7.25548 24.8012C6.68179 24.7911 6.1099 24.7339 5.54556 24.6302C4.94666 24.5186 4.38307 24.2656 3.90163 23.8923C3.39694 23.5105 3.02029 22.9842 2.82168 22.3833L2.57569 21.8164C2.36878 21.3699 2.10893 20.9499 1.80172 20.5654C1.52591 20.1712 1.15836 19.85 0.730768 19.6295L0.559775 19.5095C0.442023 19.4227 0.335245 19.322 0.241789 19.2095C0.151088 19.1072 0.0762566 18.992 0.0197987 18.8675C-0.0281992 18.7535 0.010799 18.6575 0.139793 18.5855C0.366196 18.4945 0.610421 18.4565 0.853762 18.4745L1.34574 18.5495C1.67573 18.6125 2.08071 18.8105 2.56369 19.1375C3.04367 19.4675 3.44265 19.8904 3.75464 20.4154C4.13262 21.0874 4.5856 21.6004 5.11958 21.9514C5.59091 22.2837 6.15087 22.4676 6.72751 22.4793C7.26748 22.4793 7.73546 22.4403 8.12845 22.3593C8.51096 22.28 8.8826 22.1551 9.2354 21.9874C9.38239 20.8924 9.78137 20.0464 10.4353 19.4585C9.58634 19.3745 8.74495 19.2261 7.91846 19.0145C7.11147 18.7921 6.33548 18.4696 5.60855 18.0545C4.84728 17.6415 4.17457 17.083 3.62864 16.4106C3.10666 15.7536 2.67768 14.8957 2.3387 13.8307C1.98525 12.6344 1.81632 11.3911 1.83772 10.1439C1.83772 8.16395 2.48569 6.47503 3.77864 5.08309C3.17266 3.59215 3.22966 1.92123 3.94963 0.0703096C4.42661 -0.0796838 5.13158 0.0313103 6.06454 0.400294C6.9975 0.769278 7.68447 1.08426 8.11645 1.34825C8.55143 1.60924 8.89641 1.82823 9.1604 2.00822C10.6969 1.58152 12.2846 1.36753 13.8792 1.37225C15.4991 1.37225 17.0741 1.58224 18.598 2.01122L19.5279 1.42025C20.1699 1.03027 20.9229 0.667283 21.7898 0.340297C22.6598 0.0103113 23.3228 -0.0796838 23.7818 0.0703096C24.5197 1.92123 24.5857 3.59216 23.9768 5.08009C25.2727 6.47503 25.9207 8.16096 25.9207 10.1439C25.9207 11.5358 25.7527 12.7688 25.4167 13.8427C25.0807 14.9167 24.6457 15.7746 24.1147 16.4226C23.5598 17.0883 22.884 17.6431 22.1228 18.0575C21.396 18.4727 20.62 18.7952 19.8129 19.0175C18.9854 19.2283 18.143 19.3757 17.293 19.4585C18.145 20.1934 18.571 21.3574 18.571 22.9473V28.8181C18.571 29.097 18.613 29.322 18.694 29.496C18.7321 29.5789 18.7866 29.6532 18.8541 29.7146C18.9216 29.7759 19.0008 29.823 19.087 29.853C19.267 29.916 19.429 29.958 19.5669 29.973C19.7079 29.991 19.9059 30 20.1669 30H7.58847H7.58547Z" fill="currentColor"/></svg>