<svg viewBox="0 0 62 62" fill="none" xmlns="http://www.w3.org/2000/svg"><path d="M1 11.4348H61M57.087 6.21739H54.4783M51.8696 6.21739H49.2609M46.6522 6.21739H44.0435M6.21739 42.7391L11.4348 37.5217L16.6522 42.7391L28.3913 31L34.913 37.5217L54.4783 17.9565M54.4783 17.9565H46.6522M54.4783 17.9565V25.7826M54.4783 33.6087V55.7826M47.9565 36.2174V55.7826M41.4348 38.8261V55.7826M34.913 45.3478V55.7826M28.3913 40.1304V55.7826M21.8696 44.0435V55.7826M15.3478 47.9565V55.7826M8.82609 46.6522V55.7826M1 1H61V61H1V1Z" stroke="#0069FF" stroke-width="2" stroke-miterlimit="10"></path></svg>