<svg viewBox="0 0 62 62" fill="none" xmlns="http://www.w3.org/2000/svg"><path d="M20.5652 51.8696V61M41.4348 51.8696V61M14.0435 61H47.9565M61 44.0435H1M37.5217 21.8696C37.5217 23.3103 38.6897 24.4783 40.1304 24.4783C41.5712 24.4783 42.7391 23.3103 42.7391 21.8696C42.7391 20.4288 41.5712 19.2609 40.1304 19.2609C38.6897 19.2609 37.5217 20.4288 37.5217 21.8696ZM37.5217 21.8696H25.7826M25.7826 21.8696C25.7826 23.3103 24.6147 24.4783 23.1739 24.4783C21.7332 24.4783 20.5652 23.3103 20.5652 21.8696C20.5652 20.4288 21.7332 19.2609 23.1739 19.2609C24.6147 19.2609 25.7826 20.4288 25.7826 21.8696ZM41.9565 20.0435L50.0435 11.9565M11.9565 33.087L21.3478 23.6957M1 1H61V51.8696H1V1ZM54.4783 10.1304C54.4783 11.5712 53.3103 12.7391 51.8696 12.7391C50.4288 12.7391 49.2609 11.5712 49.2609 10.1304C49.2609 8.68969 50.4288 7.52174 51.8696 7.52174C53.3103 7.52174 54.4783 8.68969 54.4783 10.1304ZM12.7391 34.913C12.7391 36.3538 11.5712 37.5217 10.1304 37.5217C8.68969 37.5217 7.52174 36.3538 7.52174 34.913C7.52174 33.4723 8.68969 32.3043 10.1304 32.3043C11.5712 32.3043 12.7391 33.4723 12.7391 34.913Z" stroke="#0069FF" stroke-width="2" stroke-miterlimit="10"></path></svg>