<svg viewBox="0 0 50 50" fill="none" xmlns="http://www.w3.org/2000/svg"><path d="M19.5 18C23.6421 18 27 14.6421 27 10.5C27 6.35786 23.6421 3 19.5 3C15.3579 3 12 6.35786 12 10.5C12 14.6421 15.3579 18 19.5 18Z" stroke="#0069FF" stroke-width="2" stroke-miterlimit="10"></path><path d="M37 31C36.8 26.6 33.8 22.8 29.5 21.6L28.2 21.2L19.4 29.9L10.6 21.2L9.3 21.6C5 22.9 2 27 2 31.6V41H26" stroke="#0069FF" stroke-width="2" stroke-miterlimit="10"></path><path d="M26 31V45H40.6L46 48V45H48V31H26Z" stroke="#0069FF" stroke-width="2" stroke-miterlimit="10"></path><path d="M29 36H45" stroke="#0069FF" stroke-width="2" stroke-miterlimit="10"></path><path d="M32 40H42" stroke="#0069FF" stroke-width="2" stroke-miterlimit="10"></path></svg>