<svg viewBox="0 0 68 72" fill="currentColor" xmlns="http://www.w3.org/2000/svg"><g filter="url(#filter0_dd)"><path d="M29 13.8868C32.094 12.1004 35.906 12.1004 39 13.8868L50.6506 20.6132C53.7446 22.3996 55.6506 25.7008 55.6506 29.2735V42.7265C55.6506 46.2992 53.7446 49.6004 50.6506 51.3867L39 58.1132C35.906 59.8996 32.094 59.8996 29 58.1133L17.3494 51.3868C14.2554 49.6004 12.3494 46.2992 12.3494 42.7265V29.2735C12.3494 25.7008 14.2554 22.3996 17.3494 20.6132L29 13.8868Z" fill="currentColor"/></g><path d="M31.3202 51.4021C31.4547 51.4522 31.5939 51.476 31.7316 51.476C32.087 51.476 32.4329 51.3154 32.6683 51.0221L42.8483 38.3429C43.1483 37.9691 43.2116 37.451 43.0113 37.0124C42.8107 36.5742 42.3825 36.2943 41.9119 36.2943H39.839C38.5382 36.2943 37.4836 35.2579 37.4836 33.9795V24.9498C37.4836 24.4219 37.1621 23.951 36.6798 23.7721C36.1978 23.5936 35.6586 23.7457 35.3317 24.1524L25.1517 36.8316C24.8517 37.205 24.7884 37.7235 24.9887 38.1617C25.1893 38.6003 25.6178 38.8802 26.0884 38.8802H28.1613C29.4622 38.8802 30.5167 39.9166 30.5167 41.195V50.2247C30.5164 50.7526 30.8379 51.2235 31.3202 51.4021Z"/><defs><filter id="filter0_dd" x="0.349365" y="0.546997" width="67.3013" height="70.906" filterUnits="userSpaceOnUse" color-interpolation-filters="sRGB"><feFlood flood-opacity="0" result="BackgroundImageFix"/><feColorMatrix in="SourceAlpha" type="matrix" values="0 0 0 0 0 0 0 0 0 0 0 0 0 0 0 0 0 0 127 0"/><feOffset dx="4" dy="4"/><feGaussianBlur stdDeviation="4"/><feColorMatrix type="matrix" values="0 0 0 0 0 0 0 0 0 0 0 0 0 0 0 0 0 0 0.65 0"/><feBlend mode="normal" in2="BackgroundImageFix" result="effect1_dropShadow"/><feColorMatrix in="SourceAlpha" type="matrix" values="0 0 0 0 0 0 0 0 0 0 0 0 0 0 0 0 0 0 127 0"/><feOffset dx="-4" dy="-4"/><feGaussianBlur stdDeviation="4"/><feColorMatrix type="matrix" values="0 0 0 0 1 0 0 0 0 1 0 0 0 0 1 0 0 0 0.14 0"/><feBlend mode="normal" in2="effect1_dropShadow" result="effect2_dropShadow"/><feBlend mode="normal" in="SourceGraphic" in2="effect2_dropShadow" result="shape"/></filter></defs></svg>