<svg viewBox="0 0 62 62" fill="none" xmlns="http://www.w3.org/2000/svg"><path d="M1 11.4348H61M57.087 6.21739H54.4783M51.8696 6.21739H49.2609M46.6522 6.21739H44.0435M37.5217 6.21739H6.21739M19.2609 41.4348C17.8261 41.4348 16.6522 42.6087 16.6522 44.0435V53.1739C16.6522 54.6087 17.8261 55.7826 19.2609 55.7826C20.6957 55.7826 21.8696 54.6087 21.8696 53.1739V44.0435C21.8696 42.6087 20.6957 41.4348 19.2609 41.4348ZM19.2609 41.4348V37.5217M19.2609 37.5217C25.0238 37.5217 29.6957 32.8499 29.6957 27.087C29.6957 21.324 25.0238 16.6522 19.2609 16.6522C13.4979 16.6522 8.82609 21.324 8.82609 27.087C8.82609 32.8499 13.4979 37.5217 19.2609 37.5217ZM55.7826 28.3913H44.0435M55.7826 36.2174H34.913M55.7826 44.0435H40.1304M55.7826 51.8696H28.3913M1 1H61V61H1V1Z" stroke="#0069FF" stroke-width="2" stroke-miterlimit="10"></path></svg>