<svg viewBox="0 0 60 60" xmlns="http://www.w3.org/2000/svg"><path d="M59.0079 7.24157C57.6969 5.93054 55.5591 5.93054 54.248 7.24157L48.4488 13.0408H2.90551C1.29921 13.0408 0 14.3518 0 15.9463V50.8242C0 52.4305 1.29921 53.7416 2.90551 53.7416H51.3543C52.9606 53.7416 54.2598 52.4424 54.2598 50.8361V16.7731L59.0197 12.0132C59.6457 11.3754 60 10.5368 60 9.6274C60 8.72988 59.6457 7.87948 59.0079 7.24157ZM51.3543 51.8046H2.90551C2.37402 51.8046 1.93701 51.3675 1.93701 50.8361V15.9463C1.93701 15.4148 2.37402 14.9778 2.90551 14.9778H46.5118L42.626 18.8636V18.8518H11.622V47.9187H48.437V22.5841L52.311 18.7101V50.8361H52.3228C52.3228 51.3675 51.8858 51.8046 51.3543 51.8046ZM36.6969 24.7927L32.6811 33.5683L41.4567 29.5526L46.5 24.5093V45.9817H13.5591V20.8006H40.7008L36.6969 24.7927ZM37.8071 27.0252L39.2244 28.4425L36.6142 29.6472L37.8071 27.0252ZM40.9016 27.3795L38.8819 25.3598L53.7402 10.4896L55.7598 12.5093L40.9016 27.3795ZM57.6378 10.6431L57.1299 11.151L55.1102 9.13133L55.6181 8.62346C56.1732 8.06834 57.0827 8.06834 57.6378 8.62346C57.9095 8.89511 58.0512 9.24944 58.0512 9.63921C58.063 10.0172 57.9095 10.3715 57.6378 10.6431Z" stroke="none"></path><path d="M6.77953 29.5172C4.64174 29.5172 2.90552 31.2534 2.90552 33.3912C2.90552 35.529 4.64174 37.2652 6.77953 37.2652C8.91733 37.2652 10.6535 35.529 10.6535 33.3912C10.6535 31.2534 8.91733 29.5172 6.77953 29.5172ZM6.77953 35.3282C5.71654 35.3282 4.84253 34.4542 4.84253 33.3912C4.84253 32.3282 5.71654 31.4542 6.77953 31.4542C7.84253 31.4542 8.71654 32.3282 8.71654 33.3912C8.71654 34.4542 7.85434 35.3282 6.77953 35.3282Z" stroke="none"></path><path d="M8.71655 20.8007H4.84253V22.7377H8.71655V20.8007Z" stroke="none"></path><path d="M8.71655 24.6747H4.84253V26.6117H8.71655V24.6747Z" stroke="none"></path><path d="M8.71655 40.1707H4.84253V42.1077H8.71655V40.1707Z" stroke="none"></path><path d="M8.71655 44.0447H4.84253V45.9818H8.71655V44.0447Z" stroke="none"></path><path d="M15.5078 22.7377V26.6117H17.4448V24.6746H19.3818V22.7377H15.5078Z" stroke="none"></path><path d="M42.626 40.1707V42.1078H40.689V44.0447H44.5748V40.1707H42.626Z" stroke="none"></path><path d="M17.4448 42.1078V40.1707H15.5078V44.0447H19.3818V42.1078H17.4448Z" stroke="none"></path></svg>