<svg viewBox="0 0 49 48" fill="none" xmlns="http://www.w3.org/2000/svg"><path d="M39.5 24C39.5 32.2843 32.7843 39 24.5 39M39.5 24C39.5 15.7157 32.7843 9 24.5 9M39.5 24H9.5M39.5 24H47.5M24.5 39C16.2157 39 9.5 32.2843 9.5 24M24.5 39C28.8078 39 32.3 32.2843 32.3 24C32.3 15.7157 28.8078 9 24.5 9M24.5 39C20.1922 39 16.7 32.2843 16.7 24C16.7 15.7157 20.1922 9 24.5 9M24.5 39V9M24.5 39V47M9.5 24C9.5 15.7157 16.2157 9 24.5 9M9.5 24H1.5M24.5 9V1M24.5 1L20.5 5M24.5 1L28.5 5M8.2 7.7L13.9 13.4C16.6 16.1 20.4 17.8 24.5 17.8C28.6 17.8 32.4 16.1 35.1 13.4L40.8 7.7M8.2 7.7V13.4M8.2 7.7H13.9M1.5 24L5.5 28M1.5 24L5.5 20M8.2 40.3L13.9 34.6C16.6 31.9 20.4 30.2 24.5 30.2C28.6 30.2 32.4 31.9 35.1 34.6L40.8 40.3M8.2 40.3H13.9M8.2 40.3V34.6M24.5 47L28.5 43M24.5 47L20.5 43M40.8 40.3V34.6M40.8 40.3H35.1M47.5 24L43.5 20M47.5 24L43.5 28M40.8 7.7H35.1M40.8 7.7V13.4" stroke="#0069FF" stroke-width="2" stroke-miterlimit="10" stroke-linejoin="round"/></svg>