<svg viewBox="0 0 60 60" xmlns="http://www.w3.org/2000/svg"><path d="M53.0176 24.9674C51.7751 21.7799 49.7926 19.3124 47.2851 17.8099C46.6601 19.0024 45.9751 20.0299 45.1976 20.9774L45.2226 20.9449C45.227 20.9469 45.2313 20.9494 45.2351 20.9524C48.9701 23.0999 51.1451 28.5874 50.5201 34.2974C49.4851 43.7574 46.6126 50.2399 42.4301 52.5524C39.7126 54.0549 36.3201 53.8424 32.3526 51.9174L31.9651 51.7299H29.1076L28.7201 51.9174C24.7501 53.8424 21.3601 54.0574 18.6426 52.5524C14.4601 50.2399 11.5876 43.7574 10.5526 34.2974C9.92757 28.5874 12.1001 23.0999 15.8376 20.9524C17.0153 20.2746 18.3512 19.9201 19.7101 19.9249H19.7951H19.7901C22.6201 19.9249 25.8801 21.2499 29.4226 23.8699L29.5501 23.9624C29.5501 23.9624 34.6576 23.3424 36.6801 22.4224C42.7776 19.6549 44.1201 15.2549 44.3601 14.6574C45.0497 12.9627 45.4013 11.1496 45.3951 9.31994C45.3951 7.28744 44.9701 5.35244 44.2051 3.60244L44.2401 3.69494L43.7626 2.50244L42.4801 2.51494C40.4448 2.53739 38.4374 2.99136 36.5905 3.84685C34.7437 4.70235 33.0993 5.93992 31.766 7.47784C30.4327 9.01575 29.4408 10.819 28.8558 12.7686C28.2709 14.7181 28.1062 16.7695 28.3726 18.7874L28.3651 18.7149C26.1501 17.4749 23.9976 16.6824 21.9326 16.3549C19.0101 15.8899 16.3301 16.3424 13.9676 17.6999C11.3726 19.1899 9.33007 21.7024 8.05757 24.9649C6.90007 27.9299 6.46257 31.3899 6.82507 34.7024C8.01257 45.5624 11.4726 52.8699 16.8276 55.8324C18.4651 56.7574 20.4226 57.3024 22.5076 57.3024H22.5851H22.5801C24.8751 57.3024 27.3401 56.6924 29.9601 55.4774H31.1126C36.0801 57.7849 40.4976 57.9049 44.2451 55.8324C49.6001 52.8699 53.0601 45.5649 54.2476 34.7024C54.6101 31.3899 54.1726 27.9299 53.0151 24.9649L53.0176 24.9674ZM38.4401 7.12744C39.3072 6.74884 40.2225 6.49223 41.1601 6.36494L41.2151 6.35744C41.6386 7.82182 41.7425 9.36012 41.5198 10.8682C41.297 12.3762 40.7529 13.8188 39.9241 15.0982C39.0953 16.3776 38.0013 17.464 36.7161 18.2838C35.431 19.1037 33.9846 19.6377 32.4751 19.8499L32.4201 19.8574C31.7049 17.3783 31.9139 14.7238 33.0083 12.3872C34.1026 10.0505 36.0078 8.19039 38.3701 7.15244L38.4376 7.12494L38.4401 7.12744Z" stroke="none"></path></svg>