<svg viewBox="0 0 30 30" fill="currentColor" xmlns="http://www.w3.org/2000/svg"><path d="M14.295 0C14.295 3.6 17.25 6.525 20.82 6.525H23.49V9.075C23.49 12.675 26.4 15.585 30 15.6V1.26C30 0.925827 29.8673 0.605341 29.631 0.369045C29.3947 0.13275 29.0742 0 28.74 0H14.295ZM7.155 7.2C7.16367 8.92389 7.85233 10.5747 9.07132 11.7937C10.2903 13.0127 11.9411 13.7013 13.665 13.71H16.365V16.29C16.3737 18.0139 17.0623 19.6647 18.2813 20.8837C19.5003 22.1027 21.1511 22.7913 22.875 22.8V8.445C22.8707 8.11614 22.7382 7.80194 22.5056 7.56938C22.2731 7.33682 21.9589 7.20427 21.63 7.2H7.155ZM0 14.4C0 18 2.925 20.91 6.525 20.91H9.195V23.49C9.21 27.075 12.12 30 15.705 30V15.645C15.705 15.3108 15.5723 14.9903 15.336 14.754C15.0997 14.5177 14.7792 14.385 14.445 14.385L0 14.4Z" fill="currentColor"/></svg>