<svg viewBox="0 0 57 61" fill="none" xmlns="http://www.w3.org/2000/svg"><path d="M28.0859 5.10638V0" stroke="#0069FF" stroke-width="2" stroke-miterlimit="10"></path><path d="M16.5962 8.17023L14.043 3.70215" stroke="#0069FF" stroke-width="2" stroke-miterlimit="10"></path><path d="M8.17121 16.5958L3.70312 14.0426" stroke="#0069FF" stroke-width="2" stroke-miterlimit="10"></path><path d="M5.10638 28.0851H0" stroke="#0069FF" stroke-width="2" stroke-miterlimit="10"></path><path d="M8.17121 39.5745L3.70312 42.1277" stroke="#0069FF" stroke-width="2" stroke-miterlimit="10"></path><path d="M48 39.5745L52.4681 42.1277" stroke="#0069FF" stroke-width="2" stroke-miterlimit="10"></path><path d="M51.0645 28.0851H56.1708" stroke="#0069FF" stroke-width="2" stroke-miterlimit="10"></path><path d="M48 16.5958L52.4681 14.0426" stroke="#0069FF" stroke-width="2" stroke-miterlimit="10"></path><path d="M39.5742 8.17023L42.1274 3.70215" stroke="#0069FF" stroke-width="2" stroke-miterlimit="10"></path><path d="M45.9575 26.8084C45.9575 16.2127 36.766 7.78716 26.0426 9.06376C17.8723 9.95738 11.234 16.468 10.3404 24.6382C9.82979 28.9787 10.8511 33.0638 13.0213 36.3829C17.234 43.0212 19.1489 50.8084 19.1489 58.5957V59.9999H30.6383H37.0213V58.085C37.0213 50.1701 39.4468 42.6382 43.5319 35.8723C45.0638 33.1914 45.9575 30.1276 45.9575 26.8084Z" stroke="#0069FF" stroke-width="2" stroke-miterlimit="10"></path><path d="M14.043 54.8936H42.1281" stroke="#0069FF" stroke-width="2" stroke-miterlimit="10"></path><path d="M12.7656 49.7872H43.4039" stroke="#0069FF" stroke-width="2" stroke-miterlimit="10"></path><path d="M34.2129 22.0852L39.5746 27.4469L34.2129 32.8086" stroke="#0069FF" stroke-width="2" stroke-miterlimit="10"></path><path d="M21.9574 22.0852L16.5957 27.4469L21.9574 32.8086" stroke="#0069FF" stroke-width="2" stroke-miterlimit="10"></path><path d="M24.8945 36.0001L31.1498 18.8937" stroke="#0069FF" stroke-width="2" stroke-miterlimit="10"></path></svg>