<svg viewBox="0 0 49 61" fill="currentColor" xmlns="http://www.w3.org/2000/svg"><path d="M17.8723 43.9043V42.9043H16.8723V43.9043H17.8723ZM30.6383 43.9043H31.6383V42.9043H30.6383V43.9043ZM37.2979 24.883C37.2979 32.0862 31.4585 37.9255 24.2553 37.9255V39.9255C32.5631 39.9255 39.2979 33.1908 39.2979 24.883H37.2979ZM24.2553 37.9255C17.0521 37.9255 11.2128 32.0862 11.2128 24.883H9.21277C9.21277 33.1908 15.9475 39.9255 24.2553 39.9255V37.9255ZM11.2128 24.883C11.2128 17.6798 17.0521 11.8404 24.2553 11.8404V9.84043C15.9475 9.84043 9.21277 16.5752 9.21277 24.883H11.2128ZM24.2553 11.8404C31.4585 11.8404 37.2979 17.6798 37.2979 24.883H39.2979C39.2979 16.5752 32.5631 9.84043 24.2553 9.84043V11.8404ZM16.3191 24.883C16.3191 20.4565 19.8289 16.9468 24.2553 16.9468V14.9468C18.7243 14.9468 14.3191 19.352 14.3191 24.883H16.3191ZM17.8723 44.9043H30.6383V42.9043H17.8723V44.9043ZM29.6383 43.9043V54.117H31.6383V43.9043H29.6383ZM29.6383 54.117C29.6383 57.1392 27.2775 59.5 24.2553 59.5V61.5C28.3821 61.5 31.6383 58.2438 31.6383 54.117H29.6383ZM24.2553 59.5C21.2331 59.5 18.8723 57.1392 18.8723 54.117H16.8723C16.8723 58.2438 20.1286 61.5 24.2553 61.5V59.5ZM18.8723 54.117V43.9043H16.8723V54.117H18.8723ZM27.8085 43.9043V38.6702H25.8085V43.9043H27.8085ZM22.7021 43.9043V38.6702H20.7021V43.9043H22.7021ZM23.2553 47.734V55.3936H25.2553V47.734H23.2553ZM18.2925 7.92158L16.8882 4.34711L15.0267 5.07842L16.431 8.65289L18.2925 7.92158ZM8.15289 16.931L4.57842 15.5267L3.84711 17.3882L7.42158 18.7925L8.15289 16.931ZM7.42158 30.7182L3.84711 32.1224L4.57842 33.9839L8.15289 32.5797L7.42158 30.7182ZM40.3578 32.5797L43.9322 33.9839L44.6635 32.1224L41.0891 30.7182L40.3578 32.5797ZM41.0891 18.7925L44.6635 17.3882L43.9322 15.5267L40.3578 16.931L41.0891 18.7925ZM32.0797 8.65289L33.4839 5.07842L31.6224 4.34711L30.2182 7.92158L32.0797 8.65289ZM25.2553 6.88298V0.5H23.2553V6.88298H25.2553ZM12.3241 11.4099L7.85604 6.94183L6.44183 8.35604L10.9099 12.8241L12.3241 11.4099ZM6.38298 23.7553H0V25.7553H6.38298V23.7553ZM10.9099 36.6865L6.44183 41.1546L7.85604 42.5688L12.3241 38.1007L10.9099 36.6865ZM36.1865 38.1007L40.6546 42.5688L42.0688 41.1546L37.6007 36.6865L36.1865 38.1007ZM42.1277 25.7553H48.5106V23.7553H42.1277V25.7553ZM37.6007 12.8241L42.0688 8.35604L40.6546 6.94183L36.1865 11.4099L37.6007 12.8241Z" fill="currentColor"></path></svg>