<svg width="17" height="16" viewBox="0 0 17 16" fill="none" xmlns="http://www.w3.org/2000/svg">
<path d="M3.7998 16V5.20483H0.211697V16H3.7998ZM2.00621 3.73004C3.25745 3.73004 4.03628 2.9011 4.03628 1.8652C4.01297 0.805935 3.2575 0 2.02996 0C0.802611 0 0 0.805951 0 1.8652C0 2.90115 0.778642 3.73004 1.98279 3.73004H2.00621ZM5.78581 16H9.37392V9.97145C9.37392 9.64881 9.39723 9.3265 9.49198 9.09586C9.75138 8.45124 10.3418 7.78359 11.3329 7.78359C12.6313 7.78359 13.1508 8.77354 13.1508 10.2247V15.9999H16.7386V9.81007C16.7386 6.49422 14.9685 4.95139 12.6077 4.95139C10.6721 4.95139 9.82219 6.03334 9.35005 6.77025H9.374V5.2046H5.78589C5.83298 6.21756 5.78581 16 5.78581 16Z" fill="#1F232E"/>
</svg>
