<svg viewBox="0 0 24 24" fill="none" xmlns="http://www.w3.org/2000/svg"><circle cx="12" cy="12" r="12" fill="#006087"></circle><path d="M8.8376 17V8.90362H6.15809V17H8.8376ZM7.49819 7.79753C8.43258 7.79753 9.0142 7.17583 9.0142 6.3989C8.99679 5.60445 8.43262 5 7.51592 5C6.59937 5 6 5.60446 6 6.3989C6 7.17586 6.58147 7.79753 7.4807 7.79753H7.49819ZM10.3207 17H13.0002V12.4786C13.0002 12.2366 13.0176 11.9949 13.0884 11.8219C13.2821 11.3384 13.723 10.8377 14.4632 10.8377C15.4328 10.8377 15.8207 11.5802 15.8207 12.6686V16.9999H18.5V12.3576C18.5 9.87066 17.1781 8.71354 15.4151 8.71354C13.9696 8.71354 13.335 9.525 12.9824 10.0777H13.0003V8.90345H10.3208C10.3559 9.66317 10.3208 16.9998 10.3208 16.9998L10.3207 17Z" fill="white"></path></svg>