<svg viewBox="0 0 62 62" fill="none" xmlns="http://www.w3.org/2000/svg"><path d="M1 11.4348H61M57.087 6.21739H54.4783M51.8696 6.21739H49.2609M46.6522 6.21739H44.0435M6.21739 6.21739H38.8261M1 1H61V61H1V1ZM6.21739 17.9565H19.2609V38.8261H6.21739V17.9565ZM24.4783 17.9565H37.5217V38.8261H24.4783V17.9565ZM42.7391 17.9565H55.7826V38.8261H42.7391V17.9565ZM9.08696 49.2609C9.08696 49.1304 9.08696 49 9.21739 49C10.1304 49.3913 12.7391 50.0435 15.3478 47.9565C15.3478 47.9565 18.4783 45.6087 21.087 47.4348C22.3913 48.3478 22.7826 50.1739 22.1304 51.7391C21.6087 52.913 20.4348 53.6957 19.1304 54.087C16.6522 54.6087 12.2174 54.6087 9.08696 49.2609ZM32.8261 46.6522C41.4348 46.6522 53.6957 48.3478 53.6957 50.5652C53.6957 52.7826 41.4348 54.4783 32.8261 54.4783C24.2174 54.4783 22.3913 52.7826 22.3913 50.5652C22.3913 48.3478 24.2174 46.6522 32.8261 46.6522Z" stroke="#0069FF" stroke-width="2" stroke-miterlimit="10"></path></svg>