<svg viewBox="0 0 92 80" fill="none" xmlns="http://www.w3.org/2000/svg"><path d="M42.6191 1.70917L52.646 11.0891H80.7921C86.9164 11.0891 91.8812 16.0539 91.8812 22.1782V68.9109C91.8812 75.0352 86.9164 80 80.7921 80H11.0891C4.96476 80 0 75.0352 0 68.9109V11.0891C0 4.96476 4.96476 0 11.0891 0H38.2902C39.8977 0 41.4452 0.610974 42.6191 1.70917Z" fill="#A1CFEF"/><rect x="3.16833" y="13.4653" width="85.5446" height="63.3663" rx="12" fill="#21323C"/><path d="M30.2228 58.6139V31.6213H35.7178V54.0285H49.3812V58.6139H30.2228Z" fill="#A1CFEF"/><path d="M58.2735 58.6139H53.0569V38.8985H57.9022V41.7017C58.7314 40.3775 59.474 39.5049 60.13 39.0841C60.7983 38.6634 61.5532 38.453 62.3948 38.453C63.5829 38.453 64.7277 38.7809 65.8292 39.4369L64.2141 43.9851C63.3354 43.4158 62.5186 43.1312 61.7636 43.1312C61.0334 43.1312 60.4146 43.3354 59.9072 43.7438C59.3998 44.1398 58.9975 44.8639 58.7005 45.9158C58.4158 46.9678 58.2735 49.1708 58.2735 52.5247V58.6139Z" fill="#A1CFEF"/></svg>