<svg viewBox="0 0 62 62" fill="currentColor" xmlns="http://www.w3.org/2000/svg"><path d="M38.5044 46.8385L39.1044 47.6385C39.1422 47.6101 39.178 47.5791 39.2115 47.5456L38.5044 46.8385ZM48.5315 38.6345L49.2387 37.9273L48.5315 38.6345ZM58.6889 48.7918L57.9818 49.499L58.6889 48.7918ZM58.6889 58.9492L59.396 59.6563C59.4015 59.6509 59.4069 59.6453 59.4123 59.6397L58.6889 58.9492ZM48.5315 58.9492L47.8244 59.6563C47.8299 59.6618 47.8355 59.6672 47.8411 59.6726L48.5315 58.9492ZM38.3742 48.7918L37.5167 49.3063C37.5587 49.3765 37.6092 49.4411 37.667 49.499L38.3742 48.7918ZM38.0843 8.19133C46.3391 16.4461 46.3391 29.8298 38.0843 38.0845L39.4985 39.4987C48.5343 30.4629 48.5343 15.8129 39.4985 6.77711L38.0843 8.19133ZM38.0843 38.0845C29.8295 46.3393 16.4459 46.3393 8.19108 38.0845L6.77687 39.4987C15.8127 48.5346 30.4627 48.5346 39.4985 39.4987L38.0843 38.0845ZM8.19108 38.0845C-0.0636942 29.8298 -0.0636942 16.4461 8.19108 8.19133L6.77687 6.77711C-2.25896 15.8129 -2.25896 30.4629 6.77687 39.4987L8.19108 38.0845ZM8.19108 8.19133C16.4459 -0.0634502 29.8295 -0.0634507 38.0843 8.19133L39.4985 6.77711C30.4627 -2.25871 15.8127 -2.25871 6.77687 6.77711L8.19108 8.19133ZM39.2115 47.5456L47.4155 39.3416L46.0013 37.9273L37.7973 46.1314L39.2115 47.5456ZM47.4155 39.3416C47.4944 39.2627 47.568 39.2438 47.62 39.2438C47.672 39.2438 47.7455 39.2627 47.8244 39.3416L49.2387 37.9273C48.3272 37.0159 46.9127 37.0159 46.0013 37.9273L47.4155 39.3416ZM47.8244 39.3416L57.9818 49.499L59.396 48.0847L49.2387 37.9273L47.8244 39.3416ZM57.9818 49.499C60.3172 51.8343 60.3402 55.771 57.9656 58.2588L59.4123 59.6397C62.507 56.3976 62.5301 51.2188 59.396 48.0847L57.9818 49.499ZM57.9818 58.2421C55.6465 60.5775 51.7098 60.6005 49.222 58.2259L47.8411 59.6726C51.0832 62.7673 56.262 62.7904 59.396 59.6563L57.9818 58.2421ZM49.2387 58.2421L39.0813 48.0847L37.667 49.499L47.8244 59.6563L49.2387 58.2421ZM39.2317 48.2774C39.1356 48.1172 39.0892 47.9208 39.0964 47.7629C39.1039 47.5979 39.1562 47.5996 39.1044 47.6385L37.9044 46.0385C37.3316 46.4681 37.1235 47.1209 37.0985 47.6721C37.0731 48.2304 37.2221 48.8154 37.5167 49.3063L39.2317 48.2774ZM45.332 39.8807L41.4253 35.974L40.0111 37.3882L43.9178 41.2949L45.332 39.8807ZM41.2951 43.9176L37.3884 40.0109L35.9742 41.4251L39.8808 45.3318L41.2951 43.9176ZM47.0431 48.4572L53.0334 54.4474L54.4476 53.0332L48.4573 47.043L47.0431 48.4572ZM35.551 23.1379C35.551 29.9934 29.9936 35.5509 23.1381 35.5509V37.5509C31.0981 37.5509 37.551 31.098 37.551 23.1379H35.551ZM23.1381 35.5509C16.2826 35.5509 10.7251 29.9934 10.7251 23.1379H8.72511C8.72511 31.098 15.178 37.5509 23.1381 37.5509V35.5509ZM10.7251 23.1379C10.7251 16.2824 16.2826 10.725 23.1381 10.725V8.72497C15.178 8.72497 8.72511 15.1779 8.72511 23.1379H10.7251ZM23.1381 10.725C29.9936 10.725 35.551 16.2824 35.551 23.1379H37.551C37.551 15.1779 31.0981 8.72497 23.1381 8.72497V10.725ZM22.1381 4.90672V12.8503H24.1381V4.90672H22.1381ZM22.1381 33.4255V41.3691H24.1381V33.4255H22.1381ZM41.3693 22.1379H33.4257V24.1379H41.3693V22.1379ZM12.8505 22.1379H4.90687V24.1379H12.8505V22.1379Z" fill="currentColor"></path></svg>