<svg viewBox="0 0 205 260" fill="currentColor" xmlns="http://www.w3.org/2000/svg"><path d="M195.813 46.975C195.744 46.8805 195.656 46.8049 195.587 46.7104C194.711 45.5893 193.792 44.5185 192.815 43.4855C192.645 43.3029 192.481 43.1076 192.305 42.925C191.19 41.7849 190.025 40.689 188.79 39.6749C188.444 39.3852 188.066 39.1458 187.713 38.8687C186.863 38.2073 186.006 37.5586 185.106 36.9602C184.463 36.5319 183.796 36.154 183.128 35.7572C182.467 35.3666 181.805 34.9761 181.119 34.6171C180.413 34.2455 179.689 33.9054 178.965 33.5779C178.253 33.2566 177.535 32.948 176.804 32.6583C176.099 32.3811 175.393 32.1166 174.669 31.8772C173.838 31.6001 172.994 31.3607 172.137 31.134C171.488 30.9576 170.839 30.775 170.178 30.6301C169.126 30.3971 168.055 30.2333 166.978 30.0758C166.481 30.0065 165.996 29.9058 165.492 29.8491C163.898 29.6727 162.28 29.5719 160.636 29.5719C160.629 29.5719 160.617 29.5719 160.61 29.5719C160.604 29.5719 160.592 29.5719 160.585 29.5719C160.579 29.5719 160.573 29.5719 160.566 29.5719L144.788 29.742V1.57465C144.788 0.705443 144.083 0 143.214 0H116.105C111.538 0 107.828 3.71618 107.828 8.27636C107.828 12.8366 111.544 16.5464 116.105 16.5464C116.111 16.5464 116.117 16.5464 116.123 16.5464L128.236 16.389V29.9121L44.8233 30.8002C20.3847 30.8128 0.5 50.6974 0.5 75.1423V141.876C0.5 142.292 0.663763 142.695 0.959798 142.991C1.25583 143.287 1.65894 143.451 2.07465 143.451H2.08095L79.7553 143.035V258.419C79.7553 259.288 80.4608 259.994 81.33 259.994C82.1992 259.994 82.9046 259.288 82.9046 258.419V143.022L93.1587 142.966V258.425C93.1587 259.295 93.8642 260 94.7334 260C95.6026 260 96.308 259.295 96.308 258.425V142.953L117.824 142.84H203.409C204.279 142.84 204.984 142.134 204.984 141.265V73.9141C204.984 63.8048 201.545 54.5018 195.832 47.0317C195.813 47.0128 195.826 46.9939 195.813 46.975ZM130.925 13.6806C130.623 13.3845 130.283 13.2019 129.798 13.2271L116.111 13.4034C113.283 13.4034 110.984 11.1044 110.984 8.28266C110.984 5.45459 113.283 3.1556 116.111 3.1556H141.645V29.7735L131.391 29.8806V14.7954C131.391 14.3797 131.228 13.9703 130.925 13.6806ZM3.6493 75.1423C3.6493 52.4296 22.1294 33.9495 44.8422 33.9495C44.8485 33.9495 44.8548 33.9495 44.8611 33.9495L143.787 32.8913C143.27 33.1055 142.779 33.3385 142.275 33.5715C141.545 33.9054 140.82 34.2455 140.109 34.6171C139.435 34.9698 138.78 35.3604 138.124 35.7446C137.451 36.1414 136.777 36.5256 136.122 36.9602C135.259 37.5334 134.433 38.1632 133.615 38.7931C133.224 39.0954 132.815 39.3663 132.431 39.6812C131.209 40.689 130.056 41.7723 128.947 42.8998C128.733 43.1139 128.538 43.3533 128.336 43.5737C127.411 44.5626 126.522 45.583 125.691 46.6537C125.603 46.7671 125.502 46.8616 125.414 46.975C125.395 47.0002 125.408 47.0254 125.395 47.0506C119.682 54.5144 116.249 63.8111 116.249 73.9141V139.697L3.6493 140.295V75.1423ZM188.86 131.143L152.076 104.979L188.86 78.8207V131.143ZM119.399 100.129L126.22 104.979L119.399 109.829V100.129ZM119.399 113.696L128.935 106.912L138.238 113.526C138.509 113.715 138.83 113.816 139.151 113.816C139.472 113.816 139.794 113.715 140.064 113.526L149.367 106.912L185.509 132.623H119.399V113.696ZM139.151 110.307L119.399 96.2615V77.3405H185.503L139.151 110.307ZM201.835 139.684H119.399V135.766H190.434C190.825 135.766 191.165 135.596 191.448 135.344C191.537 135.269 191.574 135.174 191.644 135.08C191.744 134.941 191.883 134.84 191.94 134.67C191.971 134.57 191.927 134.475 191.94 134.374C191.946 134.305 192.015 134.261 192.015 134.192V75.7659C192.015 75.6966 191.946 75.6525 191.94 75.5832C191.927 75.4824 191.971 75.388 191.94 75.2872C191.883 75.1171 191.744 75.0164 191.644 74.8778C191.574 74.7833 191.537 74.6888 191.448 74.6132C191.165 74.3676 190.825 74.1912 190.434 74.1912H119.399V73.9141C119.399 64.378 122.687 55.6104 128.147 48.6189C128.947 47.5922 129.791 46.6223 130.667 45.6838C130.843 45.5011 131.001 45.2995 131.183 45.1169C132.223 44.0524 133.306 43.0447 134.44 42.1062C134.767 41.8353 135.126 41.6023 135.46 41.344C136.247 40.7331 137.041 40.1347 137.866 39.5867C138.458 39.1899 139.082 38.8372 139.699 38.4719C140.316 38.1065 140.934 37.7412 141.57 37.4074C142.225 37.0673 142.893 36.7523 143.566 36.4437C144.228 36.1414 144.902 35.8579 145.582 35.5871C146.231 35.3289 146.892 35.0832 147.553 34.8628C148.335 34.6045 149.128 34.3778 149.928 34.1636C150.526 34.0062 151.118 33.8361 151.723 33.7038C152.712 33.4897 153.726 33.3259 154.734 33.181C155.181 33.118 155.622 33.0236 156.075 32.9732C157.575 32.8094 159.086 32.7149 160.617 32.7149C162.147 32.7149 163.659 32.8094 165.158 32.9732C165.612 33.0236 166.052 33.1117 166.5 33.181C167.514 33.3259 168.522 33.4834 169.51 33.7038C170.115 33.8361 170.707 34.0062 171.306 34.1636C172.105 34.3778 172.899 34.6045 173.68 34.8628C174.348 35.0832 175.003 35.3289 175.652 35.5871C176.332 35.8516 177.006 36.1414 177.673 36.4437C178.341 36.7523 179.009 37.061 179.657 37.4011C180.3 37.7412 180.93 38.1065 181.553 38.4782C182.158 38.8372 182.775 39.1899 183.361 39.5741C184.224 40.1473 185.062 40.7772 185.88 41.4196C186.176 41.6527 186.491 41.8542 186.781 42.0936C187.928 43.0446 189.023 44.0587 190.069 45.1358C190.214 45.287 190.346 45.4444 190.485 45.5956C191.404 46.5719 192.286 47.5922 193.124 48.663C198.56 55.6481 201.835 64.3906 201.835 73.9078V139.684Z" fill="currentColor"></path></svg>