<svg viewBox="0 0 98 121" fill="none" xmlns="http://www.w3.org/2000/svg"><mask id="path-1-outside-1" maskUnits="userSpaceOnUse" x="0.811279" y="-1" width="97" height="122" fill="black"><rect fill="white" x="0.811279" y="-1" width="97" height="122"></rect><path d="M91.9559 21.6808C91.9239 21.6372 91.8832 21.6023 91.8512 21.5587C91.4472 21.0412 91.0227 20.547 90.5721 20.0703C90.4937 19.986 90.4181 19.8958 90.3367 19.8115C89.8221 19.2854 89.2843 18.7795 88.7145 18.3115C88.5547 18.1778 88.3802 18.0673 88.2174 17.9394C87.825 17.6341 87.4296 17.3347 87.0139 17.0586C86.7174 16.8609 86.4093 16.6865 86.1011 16.5033C85.7959 16.3231 85.4906 16.1428 85.1738 15.9771C84.8482 15.8056 84.5139 15.6486 84.1796 15.4975C83.8511 15.3492 83.5196 15.2068 83.1824 15.073C82.8568 14.9451 82.5313 14.823 82.197 14.7126C81.8132 14.5847 81.4237 14.4742 81.0283 14.3695C80.7289 14.2881 80.4295 14.2038 80.1242 14.137C79.6387 14.0294 79.1445 13.9538 78.6474 13.8811C78.4178 13.8492 78.1939 13.8027 77.9614 13.7765C77.2259 13.6951 76.4788 13.6486 75.72 13.6486C75.7171 13.6486 75.7113 13.6486 75.7084 13.6486C75.7055 13.6486 75.6997 13.6486 75.6968 13.6486C75.6939 13.6486 75.691 13.6486 75.6881 13.6486L68.4059 13.7271V0.726762C68.4059 0.325589 68.0803 0 67.6792 0H55.1672C53.0596 0 51.3474 1.71516 51.3474 3.81986C51.3474 5.92456 53.0625 7.63681 55.1672 7.63681C55.1701 7.63681 55.173 7.63681 55.1759 7.63681L60.7662 7.56414V13.8056L22.2682 14.2155C10.9888 14.2213 1.81128 23.3988 1.81128 34.6811V65.4812C1.81128 65.6731 1.88686 65.8592 2.02349 65.9958C2.16012 66.1324 2.34618 66.208 2.53804 66.208H2.54095L38.3907 66.0161V119.27C38.3907 119.672 38.7162 119.997 39.1174 119.997C39.5186 119.997 39.8442 119.672 39.8442 119.27V66.0103L44.5769 65.9842V119.273C44.5769 119.674 44.9024 120 45.3036 120C45.7048 120 46.0304 119.674 46.0304 119.273V65.9783L55.9608 65.926H95.4618C95.863 65.926 96.1886 65.6004 96.1886 65.1993V34.1142C96.1886 29.4484 94.6013 25.1547 91.9646 21.7069C91.9559 21.6982 91.9617 21.6895 91.9559 21.6808ZM62.0075 6.31411C61.868 6.17748 61.711 6.09317 61.4871 6.1048L55.1701 6.1862C53.8649 6.1862 52.8038 5.12512 52.8038 3.82277C52.8038 2.5175 53.8649 1.45643 55.1701 1.45643H66.9553V13.7416L62.2226 13.791V6.82865C62.2226 6.63679 62.147 6.44783 62.0075 6.31411ZM3.2648 34.6811C3.2648 24.1983 11.7941 15.669 22.2769 15.669C22.2798 15.669 22.2827 15.669 22.2856 15.669L67.9437 15.1806C67.7053 15.2794 67.4786 15.387 67.246 15.4946C66.9088 15.6486 66.5745 15.8056 66.246 15.9771C65.9349 16.1399 65.6326 16.3202 65.3303 16.4975C65.0192 16.6806 64.7082 16.858 64.4058 17.0586C64.0076 17.3231 63.6267 17.6138 63.2488 17.9045C63.0686 18.044 62.8796 18.169 62.7023 18.3144C62.1383 18.7795 61.6063 19.2795 61.0947 19.7999C60.9959 19.8987 60.9057 20.0092 60.8127 20.111C60.3854 20.5674 59.9755 21.0383 59.5918 21.5325C59.5511 21.5848 59.5045 21.6284 59.4638 21.6808C59.4551 21.6924 59.4609 21.704 59.4551 21.7156C56.8184 25.1605 55.2341 29.4513 55.2341 34.1142V64.4754L3.2648 64.7516V34.6811ZM88.7465 60.5276L71.7694 48.4518L88.7465 36.3788V60.5276ZM56.6876 46.2133L59.8359 48.4518L56.6876 50.6902V46.2133ZM56.6876 52.4751L61.0889 49.3442L65.3826 52.3966C65.5076 52.4838 65.6559 52.5303 65.8041 52.5303C65.9524 52.5303 66.1006 52.4838 66.2256 52.3966L70.5193 49.3442L87.2 61.2108H56.6876V52.4751ZM65.8041 50.9111L56.6876 44.4284V35.6956H87.1971L65.8041 50.9111ZM94.735 64.4696H56.6876V62.6614H89.4733C89.6535 62.6614 89.8105 62.5829 89.9413 62.4666C89.982 62.4318 89.9995 62.3881 90.0314 62.3445C90.078 62.2806 90.1419 62.2341 90.1681 62.1556C90.1826 62.1091 90.1623 62.0655 90.1681 62.0189C90.171 61.987 90.203 61.9666 90.203 61.9346V34.9689C90.203 34.9369 90.171 34.9165 90.1681 34.8846C90.1623 34.8381 90.1826 34.7944 90.1681 34.7479C90.1419 34.6694 90.078 34.6229 90.0314 34.559C89.9995 34.5154 89.982 34.4718 89.9413 34.4369C89.8105 34.3235 89.6535 34.2421 89.4733 34.2421H56.6876V34.1142C56.6876 29.7129 58.2051 25.6663 60.7255 22.4395C61.0947 21.9656 61.4842 21.518 61.8883 21.0848C61.9697 21.0005 62.0424 20.9075 62.1267 20.8232C62.6064 20.3319 63.1064 19.8668 63.6296 19.4336C63.7808 19.3086 63.9465 19.201 64.1006 19.0819C64.464 18.7999 64.8302 18.5237 65.2111 18.2708C65.4843 18.0876 65.7721 17.9249 66.057 17.7562C66.3419 17.5876 66.6268 17.419 66.9204 17.265C67.2227 17.108 67.5309 16.9626 67.8419 16.8202C68.1472 16.6806 68.4582 16.5498 68.7722 16.4248C69.0716 16.3056 69.3769 16.1923 69.6821 16.0905C70.0426 15.9713 70.4089 15.8667 70.7781 15.7678C71.0542 15.6951 71.3275 15.6167 71.6066 15.5556C72.063 15.4568 72.531 15.3812 72.9961 15.3143C73.2025 15.2853 73.406 15.2416 73.6153 15.2184C74.3072 15.1428 75.0049 15.0992 75.7113 15.0992C76.4177 15.0992 77.1154 15.1428 77.8073 15.2184C78.0166 15.2416 78.2201 15.2823 78.4265 15.3143C78.8945 15.3812 79.3597 15.4539 79.8161 15.5556C80.0952 15.6167 80.3684 15.6951 80.6446 15.7678C81.0138 15.8667 81.3801 15.9713 81.7405 16.0905C82.0487 16.1923 82.351 16.3056 82.6504 16.4248C82.9644 16.5469 83.2755 16.6806 83.5836 16.8202C83.8918 16.9626 84.1999 17.1051 84.4993 17.262C84.7959 17.419 85.0866 17.5876 85.3744 17.7592C85.6534 17.9249 85.9383 18.0876 86.2087 18.265C86.6069 18.5295 86.9936 18.8202 87.3715 19.1167C87.5081 19.2243 87.6535 19.3173 87.7872 19.4278C88.3163 19.8668 88.8221 20.3348 89.3047 20.8319C89.3715 20.9017 89.4326 20.9743 89.4965 21.0441C89.921 21.4947 90.328 21.9656 90.7146 22.4598C93.2234 25.6838 94.735 29.7187 94.735 34.1113V64.4696Z"></path></mask><path d="M91.9559 21.6808C91.9239 21.6372 91.8832 21.6023 91.8512 21.5587C91.4472 21.0412 91.0227 20.547 90.5721 20.0703C90.4937 19.986 90.4181 19.8958 90.3367 19.8115C89.8221 19.2854 89.2843 18.7795 88.7145 18.3115C88.5547 18.1778 88.3802 18.0673 88.2174 17.9394C87.825 17.6341 87.4296 17.3347 87.0139 17.0586C86.7174 16.8609 86.4093 16.6865 86.1011 16.5033C85.7959 16.3231 85.4906 16.1428 85.1738 15.9771C84.8482 15.8056 84.5139 15.6486 84.1796 15.4975C83.8511 15.3492 83.5196 15.2068 83.1824 15.073C82.8568 14.9451 82.5313 14.823 82.197 14.7126C81.8132 14.5847 81.4237 14.4742 81.0283 14.3695C80.7289 14.2881 80.4295 14.2038 80.1242 14.137C79.6387 14.0294 79.1445 13.9538 78.6474 13.8811C78.4178 13.8492 78.1939 13.8027 77.9614 13.7765C77.2259 13.6951 76.4788 13.6486 75.72 13.6486C75.7171 13.6486 75.7113 13.6486 75.7084 13.6486C75.7055 13.6486 75.6997 13.6486 75.6968 13.6486C75.6939 13.6486 75.691 13.6486 75.6881 13.6486L68.4059 13.7271V0.726762C68.4059 0.325589 68.0803 0 67.6792 0H55.1672C53.0596 0 51.3474 1.71516 51.3474 3.81986C51.3474 5.92456 53.0625 7.63681 55.1672 7.63681C55.1701 7.63681 55.173 7.63681 55.1759 7.63681L60.7662 7.56414V13.8056L22.2682 14.2155C10.9888 14.2213 1.81128 23.3988 1.81128 34.6811V65.4812C1.81128 65.6731 1.88686 65.8592 2.02349 65.9958C2.16012 66.1324 2.34618 66.208 2.53804 66.208H2.54095L38.3907 66.0161V119.27C38.3907 119.672 38.7162 119.997 39.1174 119.997C39.5186 119.997 39.8442 119.672 39.8442 119.27V66.0103L44.5769 65.9842V119.273C44.5769 119.674 44.9024 120 45.3036 120C45.7048 120 46.0304 119.674 46.0304 119.273V65.9783L55.9608 65.926H95.4618C95.863 65.926 96.1886 65.6004 96.1886 65.1993V34.1142C96.1886 29.4484 94.6013 25.1547 91.9646 21.7069C91.9559 21.6982 91.9617 21.6895 91.9559 21.6808ZM62.0075 6.31411C61.868 6.17748 61.711 6.09317 61.4871 6.1048L55.1701 6.1862C53.8649 6.1862 52.8038 5.12512 52.8038 3.82277C52.8038 2.5175 53.8649 1.45643 55.1701 1.45643H66.9553V13.7416L62.2226 13.791V6.82865C62.2226 6.63679 62.147 6.44783 62.0075 6.31411ZM3.2648 34.6811C3.2648 24.1983 11.7941 15.669 22.2769 15.669C22.2798 15.669 22.2827 15.669 22.2856 15.669L67.9437 15.1806C67.7053 15.2794 67.4786 15.387 67.246 15.4946C66.9088 15.6486 66.5745 15.8056 66.246 15.9771C65.9349 16.1399 65.6326 16.3202 65.3303 16.4975C65.0192 16.6806 64.7082 16.858 64.4058 17.0586C64.0076 17.3231 63.6267 17.6138 63.2488 17.9045C63.0686 18.044 62.8796 18.169 62.7023 18.3144C62.1383 18.7795 61.6063 19.2795 61.0947 19.7999C60.9959 19.8987 60.9057 20.0092 60.8127 20.111C60.3854 20.5674 59.9755 21.0383 59.5918 21.5325C59.5511 21.5848 59.5045 21.6284 59.4638 21.6808C59.4551 21.6924 59.4609 21.704 59.4551 21.7156C56.8184 25.1605 55.2341 29.4513 55.2341 34.1142V64.4754L3.2648 64.7516V34.6811ZM88.7465 60.5276L71.7694 48.4518L88.7465 36.3788V60.5276ZM56.6876 46.2133L59.8359 48.4518L56.6876 50.6902V46.2133ZM56.6876 52.4751L61.0889 49.3442L65.3826 52.3966C65.5076 52.4838 65.6559 52.5303 65.8041 52.5303C65.9524 52.5303 66.1006 52.4838 66.2256 52.3966L70.5193 49.3442L87.2 61.2108H56.6876V52.4751ZM65.8041 50.9111L56.6876 44.4284V35.6956H87.1971L65.8041 50.9111ZM94.735 64.4696H56.6876V62.6614H89.4733C89.6535 62.6614 89.8105 62.5829 89.9413 62.4666C89.982 62.4318 89.9995 62.3881 90.0314 62.3445C90.078 62.2806 90.1419 62.2341 90.1681 62.1556C90.1826 62.1091 90.1623 62.0655 90.1681 62.0189C90.171 61.987 90.203 61.9666 90.203 61.9346V34.9689C90.203 34.9369 90.171 34.9165 90.1681 34.8846C90.1623 34.8381 90.1826 34.7944 90.1681 34.7479C90.1419 34.6694 90.078 34.6229 90.0314 34.559C89.9995 34.5154 89.982 34.4718 89.9413 34.4369C89.8105 34.3235 89.6535 34.2421 89.4733 34.2421H56.6876V34.1142C56.6876 29.7129 58.2051 25.6663 60.7255 22.4395C61.0947 21.9656 61.4842 21.518 61.8883 21.0848C61.9697 21.0005 62.0424 20.9075 62.1267 20.8232C62.6064 20.3319 63.1064 19.8668 63.6296 19.4336C63.7808 19.3086 63.9465 19.201 64.1006 19.0819C64.464 18.7999 64.8302 18.5237 65.2111 18.2708C65.4843 18.0876 65.7721 17.9249 66.057 17.7562C66.3419 17.5876 66.6268 17.419 66.9204 17.265C67.2227 17.108 67.5309 16.9626 67.8419 16.8202C68.1472 16.6806 68.4582 16.5498 68.7722 16.4248C69.0716 16.3056 69.3769 16.1923 69.6821 16.0905C70.0426 15.9713 70.4089 15.8667 70.7781 15.7678C71.0542 15.6951 71.3275 15.6167 71.6066 15.5556C72.063 15.4568 72.531 15.3812 72.9961 15.3143C73.2025 15.2853 73.406 15.2416 73.6153 15.2184C74.3072 15.1428 75.0049 15.0992 75.7113 15.0992C76.4177 15.0992 77.1154 15.1428 77.8073 15.2184C78.0166 15.2416 78.2201 15.2823 78.4265 15.3143C78.8945 15.3812 79.3597 15.4539 79.8161 15.5556C80.0952 15.6167 80.3684 15.6951 80.6446 15.7678C81.0138 15.8667 81.3801 15.9713 81.7405 16.0905C82.0487 16.1923 82.351 16.3056 82.6504 16.4248C82.9644 16.5469 83.2755 16.6806 83.5836 16.8202C83.8918 16.9626 84.1999 17.1051 84.4993 17.262C84.7959 17.419 85.0866 17.5876 85.3744 17.7592C85.6534 17.9249 85.9383 18.0876 86.2087 18.265C86.6069 18.5295 86.9936 18.8202 87.3715 19.1167C87.5081 19.2243 87.6535 19.3173 87.7872 19.4278C88.3163 19.8668 88.8221 20.3348 89.3047 20.8319C89.3715 20.9017 89.4326 20.9743 89.4965 21.0441C89.921 21.4947 90.328 21.9656 90.7146 22.4598C93.2234 25.6838 94.735 29.7187 94.735 34.1113V64.4696Z" fill="#0069FF"></path><path d="M91.9559 21.6808C91.9239 21.6372 91.8832 21.6023 91.8512 21.5587C91.4472 21.0412 91.0227 20.547 90.5721 20.0703C90.4937 19.986 90.4181 19.8958 90.3367 19.8115C89.8221 19.2854 89.2843 18.7795 88.7145 18.3115C88.5547 18.1778 88.3802 18.0673 88.2174 17.9394C87.825 17.6341 87.4296 17.3347 87.0139 17.0586C86.7174 16.8609 86.4093 16.6865 86.1011 16.5033C85.7959 16.3231 85.4906 16.1428 85.1738 15.9771C84.8482 15.8056 84.5139 15.6486 84.1796 15.4975C83.8511 15.3492 83.5196 15.2068 83.1824 15.073C82.8568 14.9451 82.5313 14.823 82.197 14.7126C81.8132 14.5847 81.4237 14.4742 81.0283 14.3695C80.7289 14.2881 80.4295 14.2038 80.1242 14.137C79.6387 14.0294 79.1445 13.9538 78.6474 13.8811C78.4178 13.8492 78.1939 13.8027 77.9614 13.7765C77.2259 13.6951 76.4788 13.6486 75.72 13.6486C75.7171 13.6486 75.7113 13.6486 75.7084 13.6486C75.7055 13.6486 75.6997 13.6486 75.6968 13.6486C75.6939 13.6486 75.691 13.6486 75.6881 13.6486L68.4059 13.7271V0.726762C68.4059 0.325589 68.0803 0 67.6792 0H55.1672C53.0596 0 51.3474 1.71516 51.3474 3.81986C51.3474 5.92456 53.0625 7.63681 55.1672 7.63681C55.1701 7.63681 55.173 7.63681 55.1759 7.63681L60.7662 7.56414V13.8056L22.2682 14.2155C10.9888 14.2213 1.81128 23.3988 1.81128 34.6811V65.4812C1.81128 65.6731 1.88686 65.8592 2.02349 65.9958C2.16012 66.1324 2.34618 66.208 2.53804 66.208H2.54095L38.3907 66.0161V119.27C38.3907 119.672 38.7162 119.997 39.1174 119.997C39.5186 119.997 39.8442 119.672 39.8442 119.27V66.0103L44.5769 65.9842V119.273C44.5769 119.674 44.9024 120 45.3036 120C45.7048 120 46.0304 119.674 46.0304 119.273V65.9783L55.9608 65.926H95.4618C95.863 65.926 96.1886 65.6004 96.1886 65.1993V34.1142C96.1886 29.4484 94.6013 25.1547 91.9646 21.7069C91.9559 21.6982 91.9617 21.6895 91.9559 21.6808ZM62.0075 6.31411C61.868 6.17748 61.711 6.09317 61.4871 6.1048L55.1701 6.1862C53.8649 6.1862 52.8038 5.12512 52.8038 3.82277C52.8038 2.5175 53.8649 1.45643 55.1701 1.45643H66.9553V13.7416L62.2226 13.791V6.82865C62.2226 6.63679 62.147 6.44783 62.0075 6.31411ZM3.2648 34.6811C3.2648 24.1983 11.7941 15.669 22.2769 15.669C22.2798 15.669 22.2827 15.669 22.2856 15.669L67.9437 15.1806C67.7053 15.2794 67.4786 15.387 67.246 15.4946C66.9088 15.6486 66.5745 15.8056 66.246 15.9771C65.9349 16.1399 65.6326 16.3202 65.3303 16.4975C65.0192 16.6806 64.7082 16.858 64.4058 17.0586C64.0076 17.3231 63.6267 17.6138 63.2488 17.9045C63.0686 18.044 62.8796 18.169 62.7023 18.3144C62.1383 18.7795 61.6063 19.2795 61.0947 19.7999C60.9959 19.8987 60.9057 20.0092 60.8127 20.111C60.3854 20.5674 59.9755 21.0383 59.5918 21.5325C59.5511 21.5848 59.5045 21.6284 59.4638 21.6808C59.4551 21.6924 59.4609 21.704 59.4551 21.7156C56.8184 25.1605 55.2341 29.4513 55.2341 34.1142V64.4754L3.2648 64.7516V34.6811ZM88.7465 60.5276L71.7694 48.4518L88.7465 36.3788V60.5276ZM56.6876 46.2133L59.8359 48.4518L56.6876 50.6902V46.2133ZM56.6876 52.4751L61.0889 49.3442L65.3826 52.3966C65.5076 52.4838 65.6559 52.5303 65.8041 52.5303C65.9524 52.5303 66.1006 52.4838 66.2256 52.3966L70.5193 49.3442L87.2 61.2108H56.6876V52.4751ZM65.8041 50.9111L56.6876 44.4284V35.6956H87.1971L65.8041 50.9111ZM94.735 64.4696H56.6876V62.6614H89.4733C89.6535 62.6614 89.8105 62.5829 89.9413 62.4666C89.982 62.4318 89.9995 62.3881 90.0314 62.3445C90.078 62.2806 90.1419 62.2341 90.1681 62.1556C90.1826 62.1091 90.1623 62.0655 90.1681 62.0189C90.171 61.987 90.203 61.9666 90.203 61.9346V34.9689C90.203 34.9369 90.171 34.9165 90.1681 34.8846C90.1623 34.8381 90.1826 34.7944 90.1681 34.7479C90.1419 34.6694 90.078 34.6229 90.0314 34.559C89.9995 34.5154 89.982 34.4718 89.9413 34.4369C89.8105 34.3235 89.6535 34.2421 89.4733 34.2421H56.6876V34.1142C56.6876 29.7129 58.2051 25.6663 60.7255 22.4395C61.0947 21.9656 61.4842 21.518 61.8883 21.0848C61.9697 21.0005 62.0424 20.9075 62.1267 20.8232C62.6064 20.3319 63.1064 19.8668 63.6296 19.4336C63.7808 19.3086 63.9465 19.201 64.1006 19.0819C64.464 18.7999 64.8302 18.5237 65.2111 18.2708C65.4843 18.0876 65.7721 17.9249 66.057 17.7562C66.3419 17.5876 66.6268 17.419 66.9204 17.265C67.2227 17.108 67.5309 16.9626 67.8419 16.8202C68.1472 16.6806 68.4582 16.5498 68.7722 16.4248C69.0716 16.3056 69.3769 16.1923 69.6821 16.0905C70.0426 15.9713 70.4089 15.8667 70.7781 15.7678C71.0542 15.6951 71.3275 15.6167 71.6066 15.5556C72.063 15.4568 72.531 15.3812 72.9961 15.3143C73.2025 15.2853 73.406 15.2416 73.6153 15.2184C74.3072 15.1428 75.0049 15.0992 75.7113 15.0992C76.4177 15.0992 77.1154 15.1428 77.8073 15.2184C78.0166 15.2416 78.2201 15.2823 78.4265 15.3143C78.8945 15.3812 79.3597 15.4539 79.8161 15.5556C80.0952 15.6167 80.3684 15.6951 80.6446 15.7678C81.0138 15.8667 81.3801 15.9713 81.7405 16.0905C82.0487 16.1923 82.351 16.3056 82.6504 16.4248C82.9644 16.5469 83.2755 16.6806 83.5836 16.8202C83.8918 16.9626 84.1999 17.1051 84.4993 17.262C84.7959 17.419 85.0866 17.5876 85.3744 17.7592C85.6534 17.9249 85.9383 18.0876 86.2087 18.265C86.6069 18.5295 86.9936 18.8202 87.3715 19.1167C87.5081 19.2243 87.6535 19.3173 87.7872 19.4278C88.3163 19.8668 88.8221 20.3348 89.3047 20.8319C89.3715 20.9017 89.4326 20.9743 89.4965 21.0441C89.921 21.4947 90.328 21.9656 90.7146 22.4598C93.2234 25.6838 94.735 29.7187 94.735 34.1113V64.4696Z" stroke="#0069FF" stroke-width="2" mask="url(#path-1-outside-1)"></path></svg>