<svg viewBox="0 0 227 260" fill="currentColor" xmlns="http://www.w3.org/2000/svg"><path d="M87.8815 148.821C88.7505 148.821 89.4557 148.116 89.4557 147.247C89.4557 146.378 88.7505 145.672 87.8815 145.672C81.4712 145.672 76.2573 150.319 76.2573 156.037C76.2573 161.755 81.4712 166.402 87.8815 166.402C88.7505 166.402 89.4557 165.697 89.4557 164.828C89.4557 163.959 88.7505 163.253 87.8815 163.253C83.2092 163.253 79.4058 160.01 79.4058 156.037C79.4058 152.064 83.2092 148.821 87.8815 148.821Z" fill="currentColor"></path><path d="M139.025 145.672C138.156 145.672 137.451 146.378 137.451 147.247C137.451 148.116 138.156 148.821 139.025 148.821C143.698 148.821 147.501 152.064 147.501 156.037C147.501 160.01 143.698 163.253 139.025 163.253C138.156 163.253 137.451 163.959 137.451 164.828C137.451 165.697 138.156 166.402 139.025 166.402C145.436 166.402 150.65 161.755 150.65 156.037C150.65 150.319 145.429 145.672 139.025 145.672Z" fill="currentColor"></path><path d="M129.743 145.672H97.1626C96.2936 145.672 95.5884 146.378 95.5884 147.247C95.5884 148.116 96.2936 148.821 97.1626 148.821H129.743C130.612 148.821 131.317 148.116 131.317 147.247C131.317 146.378 130.612 145.672 129.743 145.672Z" fill="currentColor"></path><path d="M129.743 163.26H97.1626C96.2936 163.26 95.5884 163.965 95.5884 164.834C95.5884 165.703 96.2936 166.408 97.1626 166.408H129.743C130.612 166.408 131.317 165.703 131.317 164.834C131.317 163.965 130.612 163.26 129.743 163.26Z" fill="currentColor"></path><path d="M226.602 124.848L187.076 71.5888C186.774 71.1921 186.308 70.9528 185.811 70.9528H153.507L177.07 61.6333C177.436 61.4885 177.687 61.2051 177.857 60.8714C177.914 60.7643 177.908 60.6573 177.939 60.544C177.983 60.3865 178.072 60.2417 178.059 60.0654C178.053 59.9646 177.977 59.8891 177.952 59.7946C177.933 59.7253 177.983 59.6561 177.952 59.5868L154.767 0.98736C154.741 0.918093 154.66 0.905498 154.628 0.842528C154.578 0.754371 154.584 0.647325 154.521 0.565464C154.414 0.433228 154.25 0.389148 154.112 0.300991C154.005 0.231724 153.935 0.156162 153.816 0.112084C153.463 -0.0138555 153.085 -0.0516388 152.726 0.0931911L49.8467 40.7967C49.4815 40.9415 49.2296 41.2249 49.0596 41.5586C49.0029 41.6657 49.0092 41.7727 48.9777 41.8861C48.9336 42.0435 48.8455 42.1883 48.8581 42.3646C48.8644 42.4654 48.9399 42.541 48.9651 42.6354C48.984 42.7047 48.9336 42.774 48.9651 42.8432L60.0792 70.9465H41.1002C40.6028 70.9465 40.1368 71.1795 39.8345 71.5825L0.302256 124.848C0.10705 125.113 0.0251895 125.421 0.0188925 125.736C0.0188925 125.755 0 125.768 0 125.787V258.426C0 259.295 0.705259 260 1.57424 260H225.337C226.206 260 226.911 259.295 226.911 258.426V125.787C226.911 125.768 226.892 125.755 226.892 125.736C226.873 125.421 226.791 125.107 226.602 124.848ZM146.278 74.1013H185.011L222.201 124.212H204.708V110.926C204.708 110.863 204.645 110.825 204.638 110.762C204.632 110.687 204.676 110.611 204.657 110.535C204.607 110.34 204.462 110.221 204.349 110.069C204.28 109.969 204.248 109.862 204.16 109.78C203.876 109.528 203.53 109.352 203.133 109.352H196.352V97.2363C196.352 97.1733 196.289 97.1356 196.282 97.0726C196.276 96.997 196.32 96.9277 196.301 96.8459C196.251 96.6507 196.106 96.531 195.993 96.3799C195.923 96.2792 195.892 96.1721 195.804 96.0903C195.52 95.8384 195.174 95.6621 194.777 95.6621H186.667V85.398C186.667 85.3351 186.604 85.2973 186.598 85.2343C186.591 85.1587 186.635 85.0895 186.617 85.0076C186.566 84.8124 186.421 84.6928 186.308 84.5416C186.239 84.4409 186.207 84.3338 186.119 84.252C185.836 84.0001 185.489 83.8238 185.093 83.8238H120.971L145.919 73.9502C146.045 73.9879 146.14 74.1013 146.278 74.1013ZM182.045 124.212L201.559 113.577V124.212H182.045ZM51.4461 124.212L29.9483 112.5H196.95L175.452 124.212H51.4461ZM25.3452 113.577L44.8595 124.212H25.3452V113.577ZM33.7013 99.8873L51.0683 109.352H33.7013V99.8873ZM43.386 88.049L57.3653 95.6621H43.386V88.049ZM53.0078 44.5308L100.682 56.2746L82.7924 83.8238H68.5486L53.0078 44.5308ZM178.915 86.9723L162.965 95.6621H63.9456L47.9954 86.9723H178.915ZM183.518 95.6621H169.539L183.518 88.049V95.6621ZM188.6 98.8105L169.262 109.352H57.6486L38.3107 98.8105H188.6ZM193.203 109.352H175.836L193.203 99.8873V109.352ZM112.413 83.8238H86.5453L103.919 57.0743L115.958 60.0402C116.084 60.0717 116.21 60.0843 116.336 60.0843C116.859 60.0843 117.363 59.8198 117.659 59.3664L124.409 48.9701L171.321 60.5251L112.413 83.8238ZM173.897 57.9055L126.229 46.1617L152.959 4.98592L173.897 57.9055ZM149.294 4.84739L115.618 56.7091L55.5832 41.9176L149.294 4.84739ZM41.8936 74.1013H61.3197L65.1672 83.8238H41.8118C41.4088 83.8238 41.0624 83.9938 40.7854 84.252C40.6909 84.3338 40.6657 84.4409 40.5965 84.5416C40.4894 84.6928 40.3383 84.8187 40.2879 85.0076C40.269 85.0832 40.3131 85.1524 40.3068 85.2343C40.3005 85.2973 40.2375 85.3351 40.2375 85.398V95.6621H32.1271C31.7241 95.6621 31.3777 95.8321 31.1007 96.0903C31.0062 96.1721 30.981 96.2792 30.9118 96.3799C30.8047 96.531 30.6536 96.657 30.6032 96.8459C30.5843 96.9215 30.6284 96.9907 30.6221 97.0726C30.6158 97.1356 30.5528 97.1733 30.5528 97.2363V109.352H23.771C23.368 109.352 23.0217 109.522 22.7446 109.78C22.6501 109.862 22.625 109.969 22.5557 110.069C22.4486 110.221 22.2975 110.347 22.2471 110.535C22.2283 110.611 22.2723 110.68 22.266 110.762C22.2597 110.825 22.1968 110.863 22.1968 110.926V124.212H4.69753L41.8936 74.1013ZM223.762 256.852H3.14218V127.361H223.756V256.852H223.762Z" fill="currentColor"></path></svg>