<svg viewBox="0 0 48 48" fill="none" xmlns="http://www.w3.org/2000/svg"><path d="M7 26H22M7 26V35M7 26L22 35M22 26V35M22 26L7 35M22 35H7M19 43H29M11 14H3V39H45V14H37M26 26H41V35H26V26ZM34 12.3V9.7L31.6 9.3C31.4 8.4 31 7.6 30.6 6.8L32 4.8L30.1 3L28.1 4.4C27.3 3.9 26.5 3.6 25.6 3.4L25.3 1H22.7L22.3 3.4C21.4 3.6 20.6 4 19.8 4.4L17.8 3L16 4.9L17.4 6.9C16.9 7.7 16.6 8.5 16.4 9.4L14 9.7V12.3L16.4 12.7C16.6 13.6 17 14.4 17.4 15.2L16 17.2L17.8 19L19.8 17.6C20.6 18.1 21.4 18.4 22.3 18.6L22.7 21H25.3L25.7 18.6C26.6 18.4 27.4 18 28.2 17.6L30.2 19L32 17.2L30.6 15.2C31.1 14.4 31.4 13.6 31.6 12.7L34 12.3ZM27 11C27 12.6569 25.6569 14 24 14C22.3431 14 21 12.6569 21 11C21 9.34315 22.3431 8 24 8C25.6569 8 27 9.34315 27 11ZM43 47H5L1 43V39H47V43L43 47Z" stroke="#0069FF" stroke-width="2" stroke-miterlimit="10"></path></svg>