<svg viewBox="0 0 49 48" fill="none" xmlns="http://www.w3.org/2000/svg"><path d="M16.5 39V47M32.5 39V47M11.5 47H37.5M47.5 34H1.5M1.5 1H47.5V39H1.5V1Z" stroke="#0069FF" stroke-width="2" stroke-miterlimit="10"></path><mask id="path-2-inside-1" fill="white"><path fill-rule="evenodd" clip-rule="evenodd" d="M28.9444 8H20.0556V13.5556L14.5 13.5556V22.4444H20.0556V28H28.9444V22.4444H34.5V13.5556L28.9444 13.5556V8Z"></path></mask><path d="M20.0556 8V6H18.0556V8H20.0556ZM28.9444 8H30.9444V6H28.9444V8ZM20.0556 13.5556V15.5556H22.0556V13.5556H20.0556ZM14.5 13.5556L14.5 11.5556L12.5 11.5556V13.5556H14.5ZM14.5 22.4444H12.5V24.4444H14.5V22.4444ZM20.0556 22.4444H22.0556V20.4444H20.0556V22.4444ZM20.0556 28H18.0556V30H20.0556V28ZM28.9444 28V30H30.9444V28H28.9444ZM28.9444 22.4444V20.4444H26.9444V22.4444H28.9444ZM34.5 22.4444V24.4444H36.5V22.4444H34.5ZM34.5 13.5556H36.5V11.5556L34.5 11.5556V13.5556ZM28.9444 13.5556H26.9444V15.5556H28.9444V13.5556ZM20.0556 10H28.9444V6H20.0556V10ZM22.0556 13.5556V8H18.0556V13.5556H22.0556ZM14.5 15.5556L20.0556 15.5556V11.5556L14.5 11.5556L14.5 15.5556ZM16.5 22.4444V13.5556H12.5V22.4444H16.5ZM20.0556 20.4444H14.5V24.4444H20.0556V20.4444ZM22.0556 28V22.4444H18.0556V28H22.0556ZM28.9444 26H20.0556V30H28.9444V26ZM26.9444 22.4444V28H30.9444V22.4444H26.9444ZM34.5 20.4444H28.9444V24.4444H34.5V20.4444ZM32.5 13.5556V22.4444H36.5V13.5556H32.5ZM28.9444 15.5556L34.5 15.5556V11.5556L28.9444 11.5556V15.5556ZM26.9444 8V13.5556H30.9444V8H26.9444Z" fill="#0069FF" mask="url(#path-2-inside-1)"></path></svg>