<svg width="16" height="13" viewBox="0 0 16 13" fill="none" xmlns="http://www.w3.org/2000/svg">
<path d="M14.7229 1.49583L16 0.26875V0H11.5771L8.425 7.88333L4.83958 0H0.202083V0.26875L1.69375 2.07292C1.83958 2.20625 1.91458 2.40208 1.89583 2.59792V9.6875C1.94167 9.94375 1.86042 10.2042 1.68125 10.3896L0 12.4375V12.7021H4.7625V12.4333L3.08333 10.3917C2.99336 10.3003 2.92569 10.1895 2.88558 10.0677C2.84547 9.9459 2.83401 9.81651 2.85208 9.68958V3.55625L7.03333 12.7063H7.51875L11.1146 3.55625V10.8458C11.1146 11.0375 11.1146 11.0771 10.9896 11.2042L9.69583 12.4604V12.7292H15.9708V12.4604L14.7229 11.2333C14.6146 11.15 14.5583 11.0104 14.5813 10.875V1.85417C14.5705 1.78722 14.5779 1.7186 14.6029 1.65554C14.6278 1.59248 14.6693 1.5373 14.7229 1.49583Z" fill="#1F232E"/>
</svg>
