<svg viewBox="0 0 62 57" fill="none" xmlns="http://www.w3.org/2000/svg"><path d="M8.82609 23.8558C8.04348 23.4644 7.13043 23.2036 6.21739 23.2036C3.34783 23.2036 1 25.5514 1 28.421C1 31.2905 3.34783 33.6384 6.21739 33.6384C7.13043 33.6384 8.04348 33.3775 8.82609 32.9862M8.82609 23.8558C10.3913 24.7688 11.4348 26.4644 11.4348 28.421C11.4348 30.3775 10.3913 32.0731 8.82609 32.9862M8.82609 23.8558L15.8696 10.5514C17.4348 11.5949 19.5217 11.7253 21.3478 10.6818C23.1739 9.63836 24.087 7.5514 23.8261 5.59488H38.3043C38.0435 7.68184 38.9565 9.76879 40.913 10.8123C42.6087 11.8558 44.8261 11.7253 46.3913 10.6818L53.1739 23.8558M8.82609 32.9862L15.7391 46.2905C17.3043 45.2471 19.5217 45.1166 21.2174 46.1601C23.1739 47.2036 24.087 49.2905 23.8261 51.3775H38.0435C37.7826 49.2905 38.6957 47.2036 40.6522 46.1601C42.4783 45.1166 44.5652 45.2471 46.1304 46.2905L53.1739 32.9862M53.1739 32.9862C53.9565 33.3775 54.8696 33.6384 55.7826 33.6384C58.6522 33.6384 61 31.2905 61 28.421C61 25.5514 58.6522 23.2036 55.7826 23.2036C54.8696 23.2036 53.9565 23.4644 53.1739 23.8558M53.1739 32.9862C51.6087 32.0731 50.5652 30.3775 50.5652 28.421C50.5652 26.4644 51.6087 24.7688 53.1739 23.8558M21.2174 46.0297C23.1739 47.0731 24.087 49.1601 23.8261 51.2471C23.6957 51.8992 23.5652 52.5514 23.1739 53.0731C21.7391 55.5514 18.6087 56.4645 16 55.0297C13.5217 53.5949 12.6087 50.4645 14.0435 47.8558C14.4348 47.0731 15.087 46.5514 15.7391 46.1601C17.3043 45.2471 19.5217 45.1166 21.2174 46.0297ZM46.2609 46.2905C46.913 46.6818 47.5652 47.334 47.9565 47.9862C49.3913 50.4644 48.6087 53.7253 46 55.1601C43.5217 56.5949 40.2609 55.8123 38.8261 53.2036C38.4348 52.5514 38.3043 52.0297 38.1739 51.3775C37.913 49.2905 38.8261 47.2036 40.7826 46.1601C42.4783 45.1166 44.6957 45.2471 46.2609 46.2905ZM46 1.68184C48.4783 3.11662 49.3913 6.24706 47.9565 8.85575C47.5652 9.63836 46.913 10.1601 46.2609 10.5514C44.6957 11.5949 42.6087 11.7253 40.7826 10.6818C38.8261 9.63836 37.913 7.5514 38.1739 5.46445C38.3043 4.94271 38.5652 4.29053 38.8261 3.63836C40.2609 1.1601 43.5217 0.247055 46 1.68184ZM23.1739 3.63836C23.5652 4.29053 23.6957 4.81227 23.8261 5.46445C24.087 7.5514 23.1739 9.63836 21.2174 10.6818C19.5217 11.7253 17.3043 11.5949 15.7391 10.5514C15.087 10.1601 14.4348 9.50793 14.0435 8.85575C12.6087 6.37749 13.3913 3.11662 16 1.68184C18.4783 0.247055 21.7391 1.1601 23.1739 3.63836ZM45.3478 30.2471V26.4644L41.9565 25.9427C41.6957 24.6384 41.1739 23.4644 40.5217 22.421L42.4783 19.6818L39.8696 17.0731L37.1304 19.0297C36.087 18.3775 34.7826 17.8558 33.6087 17.5949L32.8261 14.0731H29.0435L28.5217 17.4644C27.2174 17.7253 26.0435 18.2471 25 18.8992L22.2609 16.9427L19.6522 19.5514L21.6087 22.2905C20.9565 23.334 20.4348 24.6384 20.1739 25.8123L16.6522 26.5949V30.3775L20.0435 30.8992C20.3043 32.2036 20.8261 33.3775 21.4783 34.421L19.5217 37.1601L22.1304 39.7688L24.8696 37.8123C25.913 38.4645 27.2174 38.9862 28.3913 39.2471L28.913 42.6384H32.6957L33.2174 39.2471C34.5217 38.9862 35.6957 38.4645 36.7391 37.8123L39.4783 39.7688L42.087 37.1601L40.1304 34.421C40.7826 33.3775 41.3043 32.0731 41.5652 30.8992L45.3478 30.2471ZM35.4348 28.421C35.4348 30.8702 33.4493 32.8558 31 32.8558C28.5507 32.8558 26.5652 30.8702 26.5652 28.421C26.5652 25.9717 28.5507 23.9862 31 23.9862C33.4493 23.9862 35.4348 25.9717 35.4348 28.421Z" stroke="#0069FF" stroke-width="2" stroke-miterlimit="10"></path></svg>