<svg viewBox="0 0 22 32" xmlns="http://www.w3.org/2000/svg"><path d="M0.5 1V0.5H0V1H0.5ZM20.9 1H21.4V0.5H20.9V1ZM20.9 31V31.5H21.4V31H20.9ZM0.5 31H0V31.5H0.5V31ZM7.7 27.8913C7.42386 27.8913 7.2 28.1152 7.2 28.3913C7.2 28.6674 7.42386 28.8913 7.7 28.8913V27.8913ZM13.7 28.8913C13.9761 28.8913 14.2 28.6674 14.2 28.3913C14.2 28.1152 13.9761 27.8913 13.7 27.8913V28.8913ZM0.5 1.5H20.9V0.5H0.5V1.5ZM20.4 1V31H21.4V1H20.4ZM20.9 30.5H0.5V31.5H20.9V30.5ZM1 31V1H0V31H1ZM20.9 5.71739H0.5V6.71739H20.9V5.71739ZM20.9 25.2826H0.5V26.2826H20.9V25.2826ZM7.7 28.8913H13.7V27.8913H7.7V28.8913ZM7.7 4.1087H11.3V3.1087H7.7V4.1087ZM12.5 4.1087H13.7V3.1087H12.5V4.1087Z"></path></svg>