<svg viewBox="0 0 22 22" fill="none" xmlns="http://www.w3.org/2000/svg"><path d="M9.64044 1H2.68392V10.5652H12.6839V4.04348M9.64044 1L12.6839 4.04348M9.64044 1V4.04348H12.6839M10.9448 10.5652V12.7391H0.51001V2.73913H2.68392M3.98827 4.04348H7.46653M3.98827 6.21739H11.3796M3.98827 8.3913H11.3796M17.9013 15.3478V16.6522M17.9013 13.1739V12.087C17.9013 11 17.0317 10.1304 15.9448 10.1304C14.8578 10.1304 13.9883 11 13.9883 12.087V15.5652C13.9883 17.8261 12.1187 19.6957 9.85784 19.6957C7.59697 19.6957 5.7274 17.8261 5.7274 15.5652V12.7391M17.9013 21C16.4665 21 15.2926 19.8261 15.2926 18.3913V16.2174C15.2926 14.7826 16.4665 13.6087 17.9013 13.6087C19.3361 13.6087 20.51 14.7826 20.51 16.2174V18.3913C20.51 19.8261 19.3361 21 17.9013 21Z" stroke="#0069FF" stroke-miterlimit="10"></path></svg>