<svg viewBox="0 0 31 31" fill="currentColor" xmlns="http://www.w3.org/2000/svg"><path d="M29.5453 17.3498C27.9116 15.7428 23.2513 16.1847 20.9212 16.4794C18.6178 15.0732 17.0778 13.1315 15.9931 10.2791C16.5153 8.12301 17.3456 4.84207 16.7162 2.77977C16.1538 -0.728825 11.6542 -0.380643 11.0114 1.98967C10.4222 4.14571 10.9578 7.14543 11.9488 10.9754C10.6097 14.176 8.61431 18.4747 7.20819 20.9388C4.52987 22.3181 0.914148 24.4473 0.378485 27.1257C-0.063437 29.2415 3.8603 34.5178 10.5695 22.9475C13.5692 21.9565 16.8367 20.7379 19.7293 20.2558C22.2603 21.6217 25.2199 22.5324 27.2018 22.5324C30.6167 22.5324 30.9515 18.7559 29.5453 17.3498ZM3.01663 27.7685C3.6996 25.9338 6.29756 23.8179 7.08767 23.0814C4.54327 27.1391 3.01663 27.8622 3.01663 27.7685ZM13.9442 2.24411C14.9351 2.24411 14.8414 6.5428 14.1852 7.70787C13.596 5.84644 13.6094 2.24411 13.9442 2.24411ZM10.6766 20.537C11.9756 18.2738 13.0871 15.5821 13.9843 13.2118C15.0958 15.2339 16.5153 16.8543 18.0152 17.9658C15.2297 18.5417 12.8059 19.7201 10.6766 20.537ZM28.2999 19.8674C28.2999 19.8674 27.6304 20.6709 23.3049 18.8229C28.0053 18.4747 28.782 19.546 28.2999 19.8674Z" fill="currentColor"/></svg>