<svg viewBox="0 0 28 21" fill="none" xmlns="http://www.w3.org/2000/svg"><path d="M15.6471 2.02941C16.2353 1.08824 17.2941 0.5 18.4706 0.5C20.3529 0.5 21.8824 2.02941 21.8824 3.91176C21.8824 5.79412 20.3529 7.32353 18.4706 7.32353C17.7647 7.32353 17.1176 7.14706 16.5882 6.73529M22.5294 18.7353H27.0588V14.6176C27.0588 12.3235 25.5882 10.3235 23.4118 9.67647L22.7647 9.5L20.4118 11.8529M11.4118 2.02941C10.8235 1.08824 9.76471 0.5 8.58824 0.5C6.70588 0.5 5.17647 2.02941 5.17647 3.91176C5.17647 5.79412 6.70588 7.32353 8.58824 7.32353C9.29412 7.32353 9.94118 7.14706 10.4706 6.73529M4.52941 18.7353H0V14.6176C0 12.3235 1.47059 10.3235 3.64706 9.67647L4.29412 9.5L6.64706 11.8529M17.1176 4.91176C17.1176 6.89349 15.5111 8.5 13.5294 8.5C11.5477 8.5 9.94118 6.89349 9.94118 4.91176C9.94118 2.93004 11.5477 1.32353 13.5294 1.32353C15.5111 1.32353 17.1176 2.93004 17.1176 4.91176ZM18.0588 10.7941L13.5294 15.3235L9 10.7941L8.35294 10.9706C6.05882 11.6765 4.47059 13.7353 4.47059 16.1471V20.5H22.5294V16.1471C22.5294 13.7353 20.9412 11.6765 18.6471 10.9706L18.0588 10.7941Z" stroke="#0069FF" stroke-miterlimit="10"></path></svg>