<svg viewBox="0 0 30 30" fill="currentColor" xmlns="http://www.w3.org/2000/svg"><path d="M22.5721 16.0318C22.3507 16.0318 22.1192 15.9614 21.8977 15.9111C21.4493 15.8122 21.0086 15.6811 20.5792 15.5185C20.1122 15.3486 19.599 15.3575 19.1381 15.5433C18.6773 15.7291 18.3015 16.0788 18.083 16.525L17.8616 16.978C16.8812 16.4326 15.9803 15.7553 15.1842 14.9649C14.3938 14.1688 13.7165 13.2679 13.1711 12.2876L13.5939 12.0057C14.0401 11.7872 14.3898 11.4114 14.5756 10.9506C14.7615 10.4898 14.7703 9.9765 14.6004 9.50956C14.4406 9.07919 14.3095 8.63871 14.2079 8.19101C14.1575 7.96957 14.1173 7.73807 14.0871 7.50657C13.9649 6.79759 13.5935 6.15555 13.0399 5.69607C12.4863 5.23659 11.7869 4.98986 11.0675 5.00032H8.04793C7.61415 4.99625 7.18458 5.08569 6.78847 5.26255C6.39236 5.43941 6.03901 5.69955 5.75248 6.02525C5.46594 6.35094 5.25294 6.73456 5.12799 7.14997C5.00303 7.56539 4.96905 8.00285 5.02835 8.43257C5.56457 12.6493 7.49034 16.5672 10.5015 19.5674C13.5126 22.5676 17.4375 24.4791 21.6562 25H22.0386C22.7809 25.0011 23.4975 24.7288 24.0517 24.235C24.3701 23.9502 24.6245 23.6011 24.798 23.2107C24.9715 22.8203 25.0602 22.3976 25.0582 21.9704V18.9508C25.0459 18.2516 24.7913 17.5784 24.3379 17.0461C23.8845 16.5138 23.2604 16.1553 22.5721 16.0318ZM23.0754 22.071C23.0752 22.2139 23.0446 22.3552 22.9856 22.4853C22.9266 22.6155 22.8405 22.7316 22.7331 22.8259C22.621 22.9235 22.4895 22.9964 22.3473 23.0398C22.2051 23.0831 22.0553 23.096 21.9078 23.0775C18.1383 22.5942 14.6369 20.8697 11.956 18.176C9.27508 15.4824 7.56722 11.9729 7.1018 8.20107C7.08578 8.05363 7.09981 7.90448 7.14306 7.76262C7.18631 7.62076 7.25788 7.48914 7.35343 7.37572C7.44775 7.26836 7.56385 7.18231 7.69401 7.1233C7.82418 7.0643 7.96541 7.03368 8.10832 7.0335H11.1279C11.362 7.02829 11.5905 7.10484 11.7742 7.24998C11.9579 7.39511 12.0853 7.59974 12.1344 7.82866C12.1747 8.10378 12.225 8.37554 12.2854 8.64394C12.4017 9.17453 12.5564 9.69594 12.7484 10.2041L11.3393 10.8583C11.2188 10.9136 11.1104 10.9921 11.0204 11.0894C10.9303 11.1867 10.8604 11.3008 10.8145 11.4252C10.7687 11.5496 10.7479 11.6818 10.7533 11.8142C10.7587 11.9467 10.7903 12.0767 10.8461 12.197C12.2947 15.2999 14.7889 17.7941 17.8918 19.2427C18.1368 19.3433 18.4117 19.3433 18.6567 19.2427C18.7822 19.1978 18.8976 19.1284 18.9961 19.0385C19.0946 18.9487 19.1742 18.8402 19.2304 18.7193L19.8545 17.3101C20.3748 17.4962 20.9059 17.6508 21.4448 17.7731C21.7132 17.8335 21.985 17.8839 22.2601 17.9241C22.489 17.9732 22.6936 18.1006 22.8388 18.2843C22.9839 18.468 23.0604 18.6966 23.0552 18.9306L23.0754 22.071Z" fill="currentColor"></path></svg>