<svg viewBox="0 0 41 32" fill="currentColor" xmlns="http://www.w3.org/2000/svg"><path fill-rule="evenodd" clip-rule="evenodd" d="M39.6113 14.5607L16.0322 0.244768C15.5117 -0.0710246 14.8616 -0.081972 14.3319 0.216136C13.8022 0.514244 13.4738 1.07509 13.4738 1.68394V15.9999C13.4738 16.9296 14.2283 17.6841 15.158 17.6841C16.0877 17.6841 16.8423 16.9296 16.8423 15.9999V4.67681L35.4917 15.9999L16.8423 27.3229V22.7368C16.8423 21.8071 16.0877 21.0525 15.158 21.0525C14.2283 21.0525 13.4738 21.8071 13.4738 22.7368V30.3158C13.4738 30.9246 13.8022 31.4855 14.3319 31.7836C14.5888 31.9284 14.8734 32 15.158 32C15.4612 32 15.7635 31.9183 16.0322 31.7549L39.6113 17.439C40.1141 17.1342 40.4214 16.5885 40.4214 15.9999C40.4214 15.4112 40.1141 14.8655 39.6113 14.5607ZM1.68423 28.6315H9.26324C10.1929 28.6315 10.9475 27.8769 10.9475 26.9472C10.9475 26.0176 10.1929 25.263 9.26324 25.263H1.68423C0.754533 25.263 0 26.0176 0 26.9472C0 27.8769 0.754533 28.6315 1.68423 28.6315ZM5.89479 6.73662H1.68423C0.754533 6.73662 0 5.98208 0 5.05239C0 4.1227 0.754533 3.36816 1.68423 3.36816H5.89479C6.82448 3.36816 7.57902 4.1227 7.57902 5.05239C7.57902 5.98208 6.82448 6.73662 5.89479 6.73662ZM10.9475 11.7894C10.9475 10.8597 10.1929 10.1051 9.26325 10.1051H8.42113C7.49144 10.1051 6.73691 10.8597 6.73691 11.7894C6.73691 12.7191 7.49144 13.4736 8.42113 13.4736H9.26325C10.1929 13.4736 10.9475 12.7191 10.9475 11.7894ZM3.36846 19.3681C3.36846 18.4385 4.12299 17.6839 5.05268 17.6839H7.57902C8.50872 17.6839 9.26325 18.4385 9.26325 19.3681C9.26325 20.2978 8.50872 21.0524 7.57902 21.0524H5.05268C4.12299 21.0524 3.36846 20.2978 3.36846 19.3681Z" fill="currentColor" fill-opacity="0.6"/></svg>