<svg viewBox="0 0 92 80" fill="none" xmlns="http://www.w3.org/2000/svg"><path d="M42.6191 1.70917L52.646 11.0891H80.7921C86.9164 11.0891 91.8812 16.0539 91.8812 22.1782V68.9109C91.8812 75.0352 86.9164 80 80.7921 80H11.0891C4.96476 80 0 75.0352 0 68.9109V11.0891C0 4.96476 4.96476 0 11.0891 0H38.2902C39.8977 0 41.4452 0.610974 42.6191 1.70917Z" fill="#C279C0"/><rect x="3.16832" y="13.4653" width="85.5446" height="63.3663" rx="12" fill="#271430"/><path d="M29.0161 58.6138V31.3985H37.8342C41.1757 31.3985 43.354 31.5346 44.3688 31.8069C45.9282 32.2153 47.2339 33.1064 48.2859 34.4802C49.3379 35.8416 49.8639 37.6052 49.8639 39.771C49.8639 41.4418 49.5606 42.8465 48.9542 43.9851C48.3478 45.1237 47.5743 46.021 46.6337 46.677C45.7054 47.3205 44.7587 47.7475 43.7933 47.9579C42.4814 48.2178 40.5817 48.3478 38.0941 48.3478H34.5111V58.6138H29.0161ZM34.5111 36.0025V43.7252H37.5186C39.6844 43.7252 41.1324 43.5829 41.8626 43.2983C42.5928 43.0136 43.1621 42.5681 43.5705 41.9616C43.9913 41.3552 44.2017 40.6497 44.2017 39.8453C44.2017 38.8552 43.9109 38.0384 43.3292 37.3948C42.7475 36.7512 42.0111 36.349 41.1201 36.1881C40.4641 36.0643 39.146 36.0025 37.1658 36.0025H34.5111Z" fill="#C279C1"/><path d="M59.3317 58.6138H54.1151V38.8985H58.9604V41.7017C59.7896 40.3775 60.5322 39.5049 61.1881 39.0841C61.8564 38.6634 62.6114 38.453 63.453 38.453C64.6411 38.453 65.7859 38.7809 66.8874 39.4369L65.2723 43.9851C64.3936 43.4158 63.5767 43.1312 62.8218 43.1312C62.0916 43.1312 61.4728 43.3354 60.9653 43.7438C60.4579 44.1398 60.0557 44.8638 59.7587 45.9158C59.474 46.9678 59.3317 49.1708 59.3317 52.5247V58.6138Z" fill="#C279C1"/></svg>