<svg viewBox="0 0 60 52" fill="currentColor" xmlns="http://www.w3.org/2000/svg"><path d="M2 16.0002H42V20.0002H44V0.000244141H0V30.0002H14V28.0002H2V16.0002ZM2 14.0002V10.0002H42V14.0002H2ZM42 2.00024V8.00024H2V2.00024H42Z" fill="currentColor"></path><path d="M16 22.0002V52.0002H60V22.0002H16ZM58 50.0002H18V24.0002H58V50.0002Z" fill="currentColor"></path><path d="M20 18.0002H4V20.0002H20V18.0002Z" fill="currentColor"></path><path d="M26 47.0002V48.0002H50V47.0002C50 44.2002 52.2 42.0002 55 42.0002H56V32.0002H55C52.2 32.0002 50 29.8002 50 27.0002V26.0002H26V27.0002C26 29.8002 23.8 32.0002 21 32.0002H20V42.0002H21C23.8 42.0002 26 44.2002 26 47.0002ZM22 34.0002C25 33.6002 27.5 31.2003 27.9 28.1003H48C48.4 31.1003 50.8 33.6002 53.9 34.0002V40.1003C50.9 40.5003 48.4 42.9002 48 46.0002H27.9C27.5 42.9002 25.1 40.5003 22 40.1003V34.0002Z" fill="currentColor"></path><path d="M38 44.0002C41.9 44.0002 45 40.9002 45 37.0002C45 33.1002 41.9 30.0002 38 30.0002C34.1 30.0002 31 33.1002 31 37.0002C31 40.9002 34.1 44.0002 38 44.0002ZM38 32.0002C40.8 32.0002 43 34.2002 43 37.0002C43 39.8002 40.8 42.0002 38 42.0002C35.2 42.0002 33 39.8002 33 37.0002C33 34.2002 35.2 32.0002 38 32.0002Z" fill="currentColor"></path></svg>