<svg viewBox="0 0 62 63" fill="none" xmlns="http://www.w3.org/2000/svg"><path d="M20.5652 52.3696V61.5M41.4348 52.3696V61.5M14.0435 61.5H47.9565M61 44.5435H1M1 1.5H61V52.3696H1V1.5ZM31 39.3261C13.3913 31.7609 15.4783 14.5435 15.4783 14.5435C26.8261 11.1522 31 6.71739 31 6.71739C31 6.71739 35.1739 11.1522 46.5217 14.5435C46.5217 14.5435 48.6087 31.7609 31 39.3261ZM31 32.0217C24.6087 28.3696 22.6522 22.8913 22 19.1087C25.913 17.6739 28.7826 16.1087 31 14.8043C33.087 16.1087 36.087 17.6739 40 19.1087C39.3478 22.8913 37.3913 28.3696 31 32.0217Z" stroke="#0069FF" stroke-width="2" stroke-miterlimit="10"></path></svg>