<svg viewBox="0 0 77 70" fill="none" xmlns="http://www.w3.org/2000/svg"><path d="M35.3873 1.96404L40.4588 7.8842L13.8035 25.0303L12.4961 25.8714L13.8035 26.7124L40.4588 43.8585L35.3873 49.7787L2.70573 28.7572C2.70568 28.7571 2.70563 28.7571 2.70558 28.7571C1.59614 28.0429 0.999512 26.9601 0.999512 25.8714C0.999512 24.7827 1.59611 23.6999 2.70549 22.9857C2.70557 22.9857 2.70565 22.9856 2.70573 22.9856L35.3873 1.96404Z" stroke="#F9F9F9" stroke-width="2"></path><path d="M41.3116 68.0355L36.24 62.1153L62.8954 44.9692L64.2028 44.1282L62.8954 43.2871L36.24 26.141L41.3116 20.2209L73.9932 41.2424C73.9932 41.2424 73.9933 41.2425 73.9934 41.2425C75.1028 41.9567 75.6994 43.0395 75.6994 44.1282C75.6994 45.2169 75.1027 46.2998 73.9932 47.014L41.3116 68.0355Z" stroke="#F9F9F9" stroke-width="2"></path></svg>