<svg viewBox="0 0 49 48" fill="none" xmlns="http://www.w3.org/2000/svg"><path d="M12.1484 36H1.14844V1H47.1484V36H36.1484" stroke="#0069FF" stroke-width="2" stroke-miterlimit="10"></path><path d="M1.14844 9H47.1484" stroke="#0069FF" stroke-width="2" stroke-miterlimit="10"></path><path d="M44.1484 5H34.1484" stroke="#0069FF" stroke-width="2" stroke-miterlimit="10" stroke-dasharray="2 2"></path><path d="M29.1484 5H5.14844" stroke="#0069FF" stroke-width="2" stroke-miterlimit="10"></path><path d="M30.6484 24H17.6484" stroke="#0069FF" stroke-width="2" stroke-miterlimit="10"></path><path d="M12.1484 31C12.1484 33.2 13.9484 35 16.1484 35C18.3484 35 20.1484 33.2 20.1484 31" stroke="#0069FF" stroke-width="2" stroke-miterlimit="10"></path><path d="M20.1484 31C20.1484 33.2 21.9484 35 24.1484 35C26.3484 35 28.1484 33.2 28.1484 31" stroke="#0069FF" stroke-width="2" stroke-miterlimit="10"></path><path d="M28.1484 31C28.1484 33.2 29.9484 35 32.1484 35C34.3484 35 36.1484 33.2 36.1484 31" stroke="#0069FF" stroke-width="2" stroke-miterlimit="10"></path><path d="M36.1484 29V47H12.1484V29L24.1484 18L36.1484 29Z" stroke="#0069FF" stroke-width="2" stroke-miterlimit="10"></path><path d="M24.1484 12V15" stroke="#0069FF" stroke-width="2" stroke-miterlimit="10"></path><path d="M15.6484 15.5L17.7484 17.6" stroke="#0069FF" stroke-width="2" stroke-miterlimit="10"></path><path d="M32.6488 15.5L30.5488 17.6" stroke="#0069FF" stroke-width="2" stroke-miterlimit="10"></path></svg>