<svg viewBox="0 0 92 80" fill="none" xmlns="http://www.w3.org/2000/svg"><path d="M42.6191 1.70917L52.646 11.0891H80.7921C86.9164 11.0891 91.8812 16.0539 91.8812 22.1782V68.9109C91.8812 75.0352 86.9164 80 80.7921 80H11.0891C4.96476 80 0 75.0352 0 68.9109V11.0891C0 4.96476 4.96476 0 11.0891 0H38.2902C39.8977 0 41.4452 0.610974 42.6191 1.70917Z" fill="#1FCEFF"/><rect x="3.1683" y="13.4653" width="85.5446" height="63.3663" rx="12" fill="#242541"/><path d="M25.8416 58.6138V31.3985H34.6597C38.0012 31.3985 40.1795 31.5346 41.1943 31.8069C42.7537 32.2153 44.0594 33.1064 45.1114 34.4802C46.1634 35.8416 46.6894 37.6052 46.6894 39.771C46.6894 41.4418 46.3861 42.8465 45.7797 43.9851C45.1733 45.1237 44.3998 46.021 43.4592 46.677C42.5309 47.3205 41.5842 47.7475 40.6188 47.9579C39.3069 48.2178 37.4072 48.3478 34.9196 48.3478H31.3366V58.6138H25.8416ZM31.3366 36.0025V43.7252H34.3441C36.5099 43.7252 37.9579 43.5829 38.6881 43.2983C39.4183 43.0136 39.9876 42.5681 40.396 41.9616C40.8168 41.3552 41.0272 40.6497 41.0272 39.8453C41.0272 38.8552 40.7364 38.0384 40.1547 37.3948C39.573 36.7512 38.8366 36.349 37.9455 36.1881C37.2896 36.0643 35.9715 36.0025 33.9913 36.0025H31.3366Z" fill="#23CDFE"/><path d="M49.3255 52.9888L54.5606 52.1906C54.7834 53.2054 55.2351 53.9789 55.9158 54.5111C56.5965 55.0309 57.5495 55.2908 58.7748 55.2908C60.1238 55.2908 61.1386 55.0433 61.8193 54.5483C62.2772 54.2017 62.5062 53.7376 62.5062 53.1559C62.5062 52.7599 62.3824 52.4319 62.1349 52.172C61.875 51.9245 61.2933 51.6955 60.3899 51.4851C56.1819 50.5569 53.5149 49.7091 52.3886 48.9418C50.8292 47.8775 50.0495 46.3985 50.0495 44.5049C50.0495 42.797 50.724 41.3614 52.073 40.198C53.422 39.0346 55.5136 38.453 58.3478 38.453C61.0458 38.453 63.0507 38.8923 64.3626 39.771C65.6745 40.6497 66.578 41.9492 67.073 43.6695L62.1535 44.5792C61.9431 43.8119 61.5408 43.224 60.9468 42.8156C60.3651 42.4072 59.5297 42.203 58.4406 42.203C57.0668 42.203 56.0829 42.3948 55.4889 42.7784C55.0928 43.0507 54.8948 43.4034 54.8948 43.8366C54.8948 44.2079 55.0681 44.5235 55.4146 44.7834C55.8849 45.1299 57.5062 45.6188 60.2785 46.25C63.0631 46.8812 65.0062 47.6547 66.1077 48.5705C67.1968 49.4987 67.7413 50.7921 67.7413 52.4505C67.7413 54.2574 66.9864 55.8106 65.4765 57.1101C63.9666 58.4096 61.7327 59.0594 58.7748 59.0594C56.0891 59.0594 53.9604 58.5148 52.3886 57.4257C50.8292 56.3366 49.8082 54.8577 49.3255 52.9888Z" fill="#23CDFE"/></svg>