<svg fill="currentColor" viewBox="0 0 20 21" xmlns="http://www.w3.org/2000/svg"><g clip-path="url(#a)" stroke="#0069FF" stroke-linecap="round" stroke-linejoin="round" stroke-miterlimit="10" stroke-width="2"><path d="m17.107 9.437c0.1862 1.4864-0.0967 2.9939-0.8091 4.3116-0.7124 1.3178-1.8187 2.3801-3.1643 3.0385-1.3456 0.6583-2.8633 0.8798-4.3409 0.6335-1.4776-0.2463-2.8414-0.9481-3.9007-2.0073"></path><path d="m2.8329 11.15c-0.11499-1.0064-0.01605-2.0257 0.29032-2.9911 0.30638-0.96545 0.81329-1.8553 1.4875-2.6112 0.67423-0.75589 1.5006-1.3608 2.4248-1.7751 0.92429-0.41429 1.9257-0.62861 2.9386-0.62893 0.94389-0.00126 1.8787 0.18395 2.7508 0.54497s1.6643 0.89075 2.3311 1.5588"></path><path d="m0.625 8.1433 2.2078 3.0059 2.7922-2.3809"></path><path d="m19.375 12.518-2.2684-3.0813-2.7316 2.4563"></path></g><defs><clipPath id="a"><rect transform="translate(0 .64331)" width="20" height="20" fill="currentColor"></rect></clipPath></defs></svg>