<svg viewBox="0 0 62 62" fill="none" xmlns="http://www.w3.org/2000/svg"><path d="M45.3478 41.4348H50.5652C56.5652 41.4348 61 37.3913 61 31.3913C61 25.913 56.9565 21.3478 51.6087 20.8261C52.3913 18.8696 52.913 16.6522 52.7826 14.3043C52.3913 7 46.2609 1 39.087 1C32.4348 1 26.8261 5.69565 25.3913 12.087C23.3043 9.47826 20.0435 8.04348 16.5217 8.30435C12.6087 8.69565 9.34783 11.4348 8.04348 15.2174C7.26087 17.4348 7.26087 19.5217 7.78261 21.3478C3.86957 22.7826 1 26.6957 1 31.2609C1 37.3913 5.43478 41.3044 11.4348 41.3044H16.6522M37.5217 27.087H16.6522V61H45.3478V34.913M37.5217 27.087L45.3478 34.913M37.5217 27.087V34.913H45.3478M20.5652 38.8261H32.3043M20.5652 46.6522H41.4348M20.5652 54.4783H41.4348" stroke="#0069FF" stroke-width="2" stroke-miterlimit="10"></path></svg>