<svg viewBox="0 0 37 36" fill="currentColor" xmlns="http://www.w3.org/2000/svg"><path d="M36.5 0V1.125C36.5 3.25781 36.3125 5.25 35.9375 7.10156C35.5625 8.95312 34.9824 10.7051 34.1973 12.3574C33.4121 14.0098 32.4395 15.5801 31.2793 17.0684C30.1191 18.5566 28.748 20.0156 27.166 21.4453L23.8086 31.5H18.5V27.5098C16.8828 28.459 15.248 29.373 13.5957 30.252L6.24805 22.9043C7.12695 21.252 8.04102 19.6172 8.99023 18H5V12.6914L15.0547 9.35156C16.4727 7.76953 17.9258 6.39258 19.4141 5.2207C20.9023 4.04883 22.4785 3.07617 24.1426 2.30273C25.8066 1.5293 27.5586 0.955078 29.3984 0.580078C31.2383 0.205078 33.2305 0.0117188 35.375 0H36.5ZM10.3086 15.75C10.6484 15.2109 10.9883 14.6777 11.3281 14.1504C11.668 13.623 12.0312 13.1016 12.418 12.5859L7.25 14.3086V15.75H10.3086ZM14.0176 27.457C14.6152 27.1172 15.2129 26.7832 15.8105 26.4551C16.4082 26.127 17.0059 25.7871 17.6035 25.4355L11.0645 18.8965C10.7246 19.4941 10.3906 20.0918 10.0625 20.6895C9.73438 21.2871 9.39453 21.8906 9.04297 22.5L14.0176 27.457ZM23.9141 24.082C23.3984 24.457 22.877 24.8145 22.3496 25.1543C21.8223 25.4941 21.2891 25.8398 20.75 26.1914V29.25H22.1914L23.9141 24.082ZM27.1309 18.334C28.291 17.1738 29.2988 15.9961 30.1543 14.8008C31.0098 13.6055 31.7363 12.3516 32.334 11.0391C32.9316 9.72656 33.377 8.34961 33.6699 6.9082C33.9629 5.4668 34.1504 3.91992 34.2324 2.26758C32.5918 2.32617 31.0508 2.50781 29.6094 2.8125C28.168 3.11719 26.791 3.56836 25.4785 4.16602C24.166 4.76367 22.9062 5.48438 21.6992 6.32812C20.4922 7.17188 19.3027 8.17969 18.1309 9.35156C16.9707 10.4883 15.9102 11.6836 14.9492 12.9375C13.9883 14.1914 13.0859 15.5156 12.2422 16.9102L19.5898 24.2578C20.9727 23.4141 22.291 22.5117 23.5449 21.5508C24.7988 20.5898 25.9941 19.5176 27.1309 18.334ZM23 18C22.3789 18 21.7988 17.8828 21.2598 17.6484C20.7207 17.4141 20.2402 17.0918 19.8184 16.6816C19.3965 16.2715 19.0742 15.7969 18.8516 15.2578C18.6289 14.7188 18.5117 14.1328 18.5 13.5C18.5 12.8789 18.6172 12.2988 18.8516 11.7598C19.0859 11.2207 19.4082 10.7402 19.8184 10.3184C20.2285 9.89648 20.7031 9.57422 21.2422 9.35156C21.7812 9.12891 22.3672 9.01172 23 9C23.6211 9 24.2012 9.11719 24.7402 9.35156C25.2793 9.58594 25.7598 9.9082 26.1816 10.3184C26.6035 10.7285 26.9258 11.2031 27.1484 11.7422C27.3711 12.2812 27.4883 12.8672 27.5 13.5C27.5 14.1211 27.3828 14.7012 27.1484 15.2402C26.9141 15.7793 26.5918 16.2598 26.1816 16.6816C25.7715 17.1035 25.2969 17.4258 24.7578 17.6484C24.2188 17.8711 23.6328 17.9883 23 18ZM23 11.25C22.6836 11.25 22.3906 11.3086 22.1211 11.4258C21.8516 11.543 21.6172 11.7012 21.418 11.9004C21.2188 12.0996 21.0547 12.3398 20.9258 12.6211C20.7969 12.9023 20.7383 13.1953 20.75 13.5C20.75 13.8164 20.8086 14.1094 20.9258 14.3789C21.043 14.6484 21.2012 14.8828 21.4004 15.082C21.5996 15.2812 21.8398 15.4453 22.1211 15.5742C22.4023 15.7031 22.6953 15.7617 23 15.75C23.3164 15.75 23.6094 15.6914 23.8789 15.5742C24.1484 15.457 24.3828 15.2988 24.582 15.0996C24.7812 14.9004 24.9453 14.6602 25.0742 14.3789C25.2031 14.0977 25.2617 13.8047 25.25 13.5C25.25 13.1836 25.1914 12.8906 25.0742 12.6211C24.957 12.3516 24.7988 12.1172 24.5996 11.918C24.4004 11.7188 24.1602 11.5547 23.8789 11.4258C23.5977 11.2969 23.3047 11.2383 23 11.25ZM5 27C5.62109 27 6.20117 27.1172 6.74023 27.3516C7.2793 27.5859 7.75977 27.9082 8.18164 28.3184C8.60352 28.7285 8.92578 29.2031 9.14844 29.7422C9.37109 30.2812 9.48828 30.8672 9.5 31.5C9.5 32.1211 9.38281 32.7012 9.14844 33.2402C8.91406 33.7793 8.5918 34.2598 8.18164 34.6816C7.77148 35.1035 7.29688 35.4258 6.75781 35.6484C6.21875 35.8711 5.63281 35.9883 5 36H0.5V31.5C0.5 30.8789 0.617188 30.2988 0.851562 29.7598C1.08594 29.2207 1.4082 28.7402 1.81836 28.3184C2.22852 27.8965 2.70312 27.5742 3.24219 27.3516C3.78125 27.1289 4.36719 27.0117 5 27ZM5 33.75C5.31641 33.75 5.60938 33.6914 5.87891 33.5742C6.14844 33.457 6.38281 33.2988 6.58203 33.0996C6.78125 32.9004 6.94531 32.6602 7.07422 32.3789C7.20312 32.0977 7.26172 31.8047 7.25 31.5C7.25 31.1836 7.19141 30.8906 7.07422 30.6211C6.95703 30.3516 6.79883 30.1172 6.59961 29.918C6.40039 29.7188 6.16016 29.5547 5.87891 29.4258C5.59766 29.2969 5.30469 29.2383 5 29.25C4.68359 29.25 4.39062 29.3086 4.12109 29.4258C3.85156 29.543 3.61719 29.7012 3.41797 29.9004C3.21875 30.0996 3.05469 30.3398 2.92578 30.6211C2.79688 30.9023 2.73828 31.1953 2.75 31.5V33.75H5Z" fill="currentColor"></path></svg>