<svg viewBox="0 0 37 36" fill="currentColor" xmlns="http://www.w3.org/2000/svg"><path d="M9.5 2.25H4.34961L10.291 8.20898L8.70898 9.79102L2.75 3.84961V9H0.5V0H9.5V2.25ZM27.5 0H36.5V9H34.25V3.84961L28.291 9.79102L26.709 8.20898L32.6504 2.25H27.5V0ZM8.70898 26.209L10.291 27.791L4.34961 33.75H9.5V36H0.5V27H2.75V32.1504L8.70898 26.209ZM34.25 32.1504V27H36.5V36H27.5V33.75H32.6504L26.709 27.791L28.291 26.209L34.25 32.1504ZM11.75 24.75V11.25H25.25V24.75H11.75ZM14 13.5V22.5H23V13.5H14Z" fill="currentColor"></path></svg>