<svg viewBox="0 0 60 60" xmlns="http://www.w3.org/2000/svg"><path d="M0.968506 0V38.7047H26.126V50.315H13.5472V60H21.2835V58.063H38.7047V60H46.4409V50.3268H33.874V38.7165H59.0315V38.7047V0H0.968506ZM44.5157 52.252V52.2638V58.0748H40.6417V56.1378H19.3583V58.0748H15.4843V52.2638H28.063V38.7047H31.937V52.252H44.5157ZM57.0945 36.7795H33.874H26.1378H2.90551V1.93701H57.0945V36.7795Z" stroke="none"></path><path d="M4.84253 3.87402V34.8425H55.1575V3.87402H4.84253ZM53.2323 32.9055H53.2205H6.77954V5.81103H53.2323V32.9055Z" stroke="none"></path><path d="M48.4488 9.60229C46.8425 9.60229 45.5433 10.9015 45.5433 12.5078C45.5433 12.9802 45.6614 13.4173 45.8622 13.807L41.7992 18.6377C41.7874 18.6377 41.7756 18.6377 41.7637 18.6259C41.4094 18.4724 41.0196 18.3897 40.6181 18.3897C40.4055 18.3897 40.1929 18.4133 39.9803 18.4606C39.9212 18.4724 39.8622 18.496 39.8031 18.5196C39.6732 18.5551 39.5433 18.5905 39.4252 18.6495C39.4015 18.6613 39.3779 18.6614 39.3543 18.6732L37.8307 17.1495L36.437 15.7558C36.6141 15.3779 36.7322 14.9645 36.7322 14.5157C36.7322 12.9094 35.433 11.6102 33.8267 11.6102C32.2204 11.6102 30.9212 12.9094 30.9212 14.5157C30.9212 14.9645 31.0275 15.3779 31.2165 15.7558L26.9527 20.0196L26.374 20.5984C26.3622 20.5865 26.3385 20.5865 26.3267 20.5865C26.1732 20.5157 26.0078 20.4566 25.8307 20.4212C25.807 20.4212 25.7834 20.3976 25.7598 20.3976C25.559 20.3503 25.3464 20.3267 25.122 20.3267C24.6732 20.3267 24.2598 20.433 23.8818 20.622L21.9685 18.6614C22.1456 18.2834 22.2637 17.87 22.2637 17.4212C22.2637 15.8149 20.9645 14.5157 19.3582 14.5157C17.7519 14.5157 16.4527 15.8149 16.4527 17.4212C16.4527 17.8936 16.5708 18.3306 16.7716 18.7322L12.7795 23.4921C12.4133 23.3267 12.0236 23.2322 11.5984 23.2322C9.99208 23.2322 8.69287 24.5314 8.69287 26.1377C8.70468 27.7322 10.0157 29.0314 11.6102 29.0314C13.2165 29.0314 14.5157 27.7322 14.5157 26.1259C14.5157 25.6535 14.3858 25.2165 14.185 24.8149L18.1653 20.0669C18.1771 20.0669 18.1889 20.0669 18.2007 20.0787C18.5551 20.2322 18.9448 20.3149 19.3464 20.3149C19.5708 20.3149 19.7716 20.2913 19.9842 20.244C20.0433 20.2322 20.1023 20.2086 20.1614 20.185C20.2913 20.1495 20.4094 20.1141 20.5275 20.0551C20.5511 20.0432 20.5748 20.0432 20.5984 20.0314L22.5354 21.9684C22.3582 22.3464 22.2401 22.7598 22.2401 23.2086C22.2401 24.8149 23.5393 26.1141 25.1456 26.1141C26.7519 26.1141 28.0511 24.8149 28.0511 23.2086C28.0511 22.7598 27.9448 22.3464 27.7559 21.9684L28.3464 21.3779L32.5984 17.1259C32.622 17.1377 32.6456 17.1377 32.6574 17.1495C32.7992 17.2086 32.9527 17.2558 33.1063 17.3031C33.1417 17.3149 33.1771 17.3267 33.2244 17.3385C33.4252 17.3858 33.6378 17.4094 33.8504 17.4094C34.063 17.4094 34.2755 17.3858 34.4763 17.3385C34.5236 17.3267 34.559 17.3149 34.6063 17.3031C34.748 17.2676 34.9015 17.2204 35.0315 17.1614C35.0551 17.1495 35.0787 17.1495 35.0905 17.1377L36.4724 18.5196L38.0078 20.0551C37.8307 20.433 37.7126 20.8464 37.7126 21.2952C37.7126 22.9015 39.0118 24.2007 40.6181 24.2007C42.2244 24.2007 43.5236 22.9015 43.5236 21.2952C43.5236 20.8228 43.4055 20.3858 43.2047 19.996L47.2677 15.1535C47.6338 15.3188 48.0236 15.4133 48.4488 15.4133C50.0551 15.4133 51.3543 14.1141 51.3543 12.5078C51.3543 10.9015 50.0551 9.60229 48.4488 9.60229ZM11.6102 27.0944C11.0787 27.0944 10.6417 26.6574 10.6417 26.1259C10.6417 25.5944 11.0787 25.1574 11.6102 25.1574C12.1417 25.1574 12.5787 25.5944 12.5787 26.1259C12.5787 26.6574 12.1417 27.0944 11.6102 27.0944ZM20.0196 18.118C19.6535 18.4606 19.0393 18.4606 18.685 18.1062C18.5078 17.9291 18.3897 17.6928 18.3897 17.4212C18.3897 16.8897 18.8149 16.4527 19.3582 16.4527C19.8897 16.4527 20.3267 16.8897 20.3267 17.4212C20.3267 17.6928 20.2086 17.9409 20.0196 18.118ZM25.1574 24.1889C24.6259 24.1889 24.1889 23.7519 24.1889 23.2204C24.1889 22.9488 24.2952 22.7125 24.4724 22.5354L24.4842 22.5236C24.6614 22.3582 24.8976 22.2519 25.1574 22.2519C25.2755 22.2637 25.37 22.2873 25.4645 22.3228C25.5 22.3346 25.5354 22.3464 25.5708 22.3582C25.8897 22.5117 26.1259 22.8425 26.1259 23.2204C26.1259 23.7519 25.6889 24.1889 25.1574 24.1889ZM34.5354 15.2125C34.1692 15.5551 33.5551 15.5551 33.2007 15.2007C33.0236 15.0236 32.9055 14.7873 32.9055 14.5157C32.9055 13.9842 33.3425 13.5472 33.874 13.5472C34.4055 13.5472 34.8425 13.9842 34.8425 14.5157C34.8425 14.7873 34.7244 15.0354 34.5354 15.2125ZM40.6417 22.2637C40.1102 22.2637 39.6732 21.8267 39.6732 21.2952C39.6732 21.0236 39.7795 20.7873 39.9566 20.6102C40.3228 20.244 40.9488 20.244 41.3149 20.6102C41.4921 20.7873 41.6102 21.0236 41.6102 21.2952C41.6102 21.8267 41.1732 22.2637 40.6417 22.2637ZM48.4724 13.4645C47.9409 13.4645 47.5039 13.0275 47.5039 12.496C47.5039 11.9645 47.9409 11.5275 48.4724 11.5275C49.0039 11.5275 49.4409 11.9645 49.4409 12.496C49.4409 13.0275 49.0039 13.4645 48.4724 13.4645Z" stroke="none"></path></svg>