<svg viewBox="0 0 30 30" fill="currentColor" xmlns="http://www.w3.org/2000/svg"><path d="M26.5455 6.81818H22V5.22727C22 5.10227 21.8977 5 21.7727 5H20.1818C20.0568 5 19.9545 5.10227 19.9545 5.22727V6.81818H15.75V5.22727C15.75 5.10227 15.6477 5 15.5227 5H13.9318C13.8068 5 13.7045 5.10227 13.7045 5.22727V6.81818H9.5V5.22727C9.5 5.10227 9.39773 5 9.27273 5H7.68182C7.55682 5 7.45455 5.10227 7.45455 5.22727V6.81818H2.90909C2.40625 6.81818 2 7.22443 2 7.72727V24.0909C2 24.5938 2.40625 25 2.90909 25H26.5455C27.0483 25 27.4545 24.5938 27.4545 24.0909V7.72727C27.4545 7.22443 27.0483 6.81818 26.5455 6.81818ZM25.4091 22.9545H4.04545V8.86364H7.45455V10.4545C7.45455 10.5795 7.55682 10.6818 7.68182 10.6818H9.27273C9.39773 10.6818 9.5 10.5795 9.5 10.4545V8.86364H13.7045V10.4545C13.7045 10.5795 13.8068 10.6818 13.9318 10.6818H15.5227C15.6477 10.6818 15.75 10.5795 15.75 10.4545V8.86364H19.9545V10.4545C19.9545 10.5795 20.0568 10.6818 20.1818 10.6818H21.7727C21.8977 10.6818 22 10.5795 22 10.4545V8.86364H25.4091V22.9545ZM12 14.5455H6.77273C6.64773 14.5455 6.54545 14.6477 6.54545 14.7727V16.1364C6.54545 16.2614 6.64773 16.3636 6.77273 16.3636H12C12.125 16.3636 12.2273 16.2614 12.2273 16.1364V14.7727C12.2273 14.6477 12.125 14.5455 12 14.5455ZM12 18.4091H6.77273C6.64773 18.4091 6.54545 18.5114 6.54545 18.6364V20C6.54545 20.125 6.64773 20.2273 6.77273 20.2273H12C12.125 20.2273 12.2273 20.125 12.2273 20V18.6364C12.2273 18.5114 12.125 18.4091 12 18.4091ZM20.7557 13.3693L17.8125 17.4517L16.3125 15.375C16.2273 15.2557 16.0909 15.1875 15.946 15.1875H14.3864C14.2017 15.1875 14.0938 15.3977 14.2017 15.5483L17.4432 20.0426C17.485 20.1007 17.5401 20.148 17.6038 20.1806C17.6675 20.2132 17.7381 20.2303 17.8097 20.2303C17.8812 20.2303 17.9518 20.2132 18.0155 20.1806C18.0792 20.148 18.1343 20.1007 18.1761 20.0426L22.8636 13.5455C22.9716 13.3949 22.8636 13.1847 22.679 13.1847H21.1193C20.9773 13.1818 20.8409 13.2528 20.7557 13.3693Z" fill="currentColor"></path></svg>