<svg viewBox="0 0 47 48" fill="none" xmlns="http://www.w3.org/2000/svg"><path d="M24.4894 1H1V16.6596H24.4894V1Z" stroke="#0069FF" stroke-width="2" stroke-miterlimit="10"></path><path d="M24.3913 1.09766L12.7445 9.90617L1.09766 1.09766" stroke="#0069FF" stroke-width="2" stroke-miterlimit="10"></path><path d="M24.4895 16.6593L15.9746 7.75293" stroke="#0069FF" stroke-width="2" stroke-miterlimit="10"></path><path d="M1 16.6593L9.51489 7.75293" stroke="#0069FF" stroke-width="2" stroke-miterlimit="10"></path><path d="M33.2988 13.1357V41.9102" stroke="#0069FF" stroke-width="2" stroke-miterlimit="10"></path><path d="M14.7021 33.2974H6.87234C3.64255 33.2974 1 30.6549 1 27.4251C1 24.1953 3.64255 21.5527 6.87234 21.5527H14.7021V33.2974Z" stroke="#0069FF" stroke-width="2" stroke-miterlimit="10"></path><path d="M14.7012 33.2002C14.7012 33.2002 23.999 30.4597 33.2969 39.7576" stroke="#0069FF" stroke-width="2" stroke-miterlimit="10"></path><path d="M14.7012 22.1401C14.7012 22.1401 23.999 24.5869 33.2969 15.2891" stroke="#0069FF" stroke-width="2" stroke-miterlimit="10"></path><path d="M12.7441 33.2979C12.4505 35.3532 12.6462 37.8 14.7994 41.4213C15.876 43.0851 15.1909 45.3362 13.3313 45.9234C11.8632 46.4127 10.1994 45.5319 9.71004 44.0638L6.57812 33.2979" stroke="#0069FF" stroke-width="2" stroke-miterlimit="10"></path><path d="M33.2988 22.3359C36.1371 22.3359 38.4861 24.6849 38.4861 27.5232C38.4861 30.3615 36.1371 32.7104 33.2988 32.7104" stroke="#0069FF" stroke-width="2" stroke-miterlimit="10"></path><path d="M42.1055 27.4258H46.9991" stroke="#0069FF" stroke-width="2" stroke-miterlimit="10"></path><path d="M40.0508 22.6298L43.5742 19.1064" stroke="#0069FF" stroke-width="2" stroke-miterlimit="10"></path><path d="M40.0508 32.2207L43.5742 35.7441" stroke="#0069FF" stroke-width="2" stroke-miterlimit="10"></path></svg>