<svg viewBox="0 0 42 41" fill="currentColor" xmlns="http://www.w3.org/2000/svg"><path d="M39.6364 23.8413C39.842 22.7133 39.9522 21.5603 39.9522 20.4073C39.9522 17.8505 39.4509 15.369 38.4633 13.0379C37.5108 10.782 36.1422 8.75667 34.4027 7.01711C32.6776 5.28768 30.6328 3.91023 28.3819 2.96146C26.0457 1.97387 23.5692 1.47255 21.0125 1.47255C19.8094 1.47255 18.6012 1.58786 17.4281 1.81345C15.8049 0.953306 13.9963 0.502437 12.1593 0.5C9.16643 0.5 6.34903 1.66807 4.23348 3.78362C3.18955 4.82219 2.36185 6.05739 1.79824 7.41781C1.23462 8.77823 0.946275 10.2369 0.949862 11.7094C0.949862 13.6144 1.44115 15.4893 2.35856 17.1437C2.17307 18.2165 2.07281 19.3144 2.07281 20.4073C2.07281 22.964 2.57413 25.4455 3.56172 27.7766C4.51422 30.0325 5.8778 32.0578 7.61736 33.7974C9.35693 35.537 11.3822 36.9005 13.6382 37.8531C15.9743 38.8406 18.4508 39.342 21.0075 39.342C22.1204 39.342 23.2334 39.2417 24.3262 39.0462C26.0056 39.9937 27.9006 40.5 29.8407 40.5C32.8336 40.5 35.651 39.3369 37.7665 37.2164C39.8871 35.1008 41.0501 32.2834 41.0501 29.2906C41.0551 27.3856 40.5638 25.5056 39.6364 23.8413ZM35.2198 34.6697C33.781 36.1135 31.8811 36.8955 29.8457 36.8955C28.5373 36.8955 27.2489 36.5546 26.1059 35.9079L24.9779 35.2713L23.6996 35.4969C22.8072 35.6573 21.9049 35.7375 21.0125 35.7375C18.9371 35.7375 16.9368 35.3314 15.0419 34.5293C13.2221 33.7623 11.5828 32.6594 10.1691 31.2457C8.76962 29.8511 7.65443 28.1979 6.88544 26.3779C6.08334 24.488 5.68228 22.4877 5.68228 20.4123C5.68228 19.54 5.7625 18.6476 5.91289 17.7653L6.13347 16.507L5.51184 15.3891C4.88485 14.264 4.55529 12.9975 4.55432 11.7094C4.55432 9.67408 5.34139 7.77409 6.78017 6.33532C8.22396 4.89654 10.1239 4.10947 12.1593 4.10947C13.4077 4.11285 14.6364 4.42088 15.7387 5.00683L16.8616 5.59838L18.1049 5.35775C19.0524 5.17728 20.0299 5.08203 21.0125 5.08203C23.088 5.08203 25.0882 5.48809 26.9782 6.28519C28.808 7.05721 30.4423 8.16011 31.851 9.5688C33.2647 10.9775 34.3676 12.6168 35.1396 14.4416C35.9417 16.3316 36.3428 18.3318 36.3428 20.4073C36.3428 21.3297 36.2575 22.2621 36.0871 23.1896L35.8515 24.4679L36.4831 25.6009C37.1148 26.7288 37.4457 28.0072 37.4457 29.2956C37.4457 31.3359 36.6586 33.2309 35.2198 34.6697ZM24.5819 18.2065L20.1503 17.2239C18.4658 16.8379 16.5257 16.3316 16.5257 14.7424C16.5257 13.1532 17.8843 12.0403 20.3408 12.0403C25.2887 12.0403 24.8376 15.4392 27.294 15.4392C28.5874 15.4392 29.7204 14.6772 29.7204 13.3738C29.7204 10.3258 24.8376 8.03478 20.6967 8.03478C16.1999 8.03478 11.4123 9.94479 11.4123 15.0281C11.4123 17.4746 12.2846 20.0814 17.1073 21.2896L23.093 22.7835C24.9027 23.2297 25.3589 24.2473 25.3589 25.1698C25.3589 26.6988 23.8399 28.1927 21.0877 28.1927C15.7136 28.1927 16.4606 24.0568 13.583 24.0568C12.2896 24.0568 11.3522 24.9492 11.3522 26.2175C11.3522 28.694 14.3601 32.0027 21.0877 32.0027C27.4895 32.0027 30.6629 28.9196 30.6629 24.7837C30.6629 22.1218 29.4346 19.2893 24.5819 18.2065Z" fill="currentColor"/></svg>