<svg viewBox="0 0 60 60" fill="currentColor" xmlns="http://www.w3.org/2000/svg"><path d="M55.1575 10.6417C52.8189 10.6417 50.8701 12.3071 50.4213 14.5157H48.3898V4.84252C48.3898 2.17323 46.2165 0 43.5472 0H16.4528C13.7835 0 11.6102 2.17323 11.6102 4.84252V43.3228H9.57874C9.12992 41.1142 7.1811 39.4488 4.84252 39.4488C2.17323 39.4488 0 41.622 0 44.2913C0 46.9606 2.17323 49.1339 4.84252 49.1339C7.1811 49.1339 9.12992 47.4685 9.57874 45.2598H11.6102V55.1575C11.6102 57.8268 13.7835 60 16.4528 60H43.5472C46.2165 60 48.3898 57.8268 48.3898 55.1575V16.4528H50.4213C50.8701 18.6614 52.8307 20.3268 55.1575 20.3268C57.8268 20.3268 60 18.1535 60 15.4843C60 12.815 57.8268 10.6417 55.1575 10.6417ZM4.84252 47.1969C3.23622 47.1969 1.93701 45.8976 1.93701 44.2913C1.93701 42.685 3.23622 41.3858 4.84252 41.3858C6.44882 41.3858 7.74803 42.685 7.74803 44.2913C7.74803 45.8976 6.43701 47.1969 4.84252 47.1969ZM30 31.937C33.1181 31.937 35.6693 34.4055 35.7992 37.5C34.1811 38.7165 32.185 39.4488 30 39.4488C27.8268 39.437 25.8189 38.7165 24.2008 37.5C24.3307 34.4173 26.8819 31.937 30 31.937ZM27.0945 27.0945C27.0945 25.4882 28.3937 24.189 30 24.189C31.6063 24.189 32.9055 25.4882 32.9055 27.0945C32.9055 28.7008 31.6063 30 30 30C28.3937 30 27.0945 28.7008 27.0945 27.0945ZM33.2008 30.7087C34.2047 29.8228 34.8425 28.5472 34.8425 27.1063C34.8425 24.437 32.6693 22.2638 30 22.2638C27.3307 22.2638 25.1575 24.437 25.1575 27.1063C25.1575 28.5472 25.7953 29.8228 26.7992 30.7087C24.6732 31.6772 23.0669 33.5669 22.5 35.8701C21.1417 34.2047 20.3268 32.0787 20.3268 29.7638C20.3268 24.4252 24.6732 20.0906 30 20.0906C35.3386 20.0906 39.6732 24.437 39.6732 29.7638C39.6732 32.0787 38.8583 34.1929 37.5 35.8701C36.9213 33.5669 35.315 31.6772 33.2008 30.7087ZM34.8425 19.2165C33.3661 18.5315 31.7362 18.1417 30 18.1417C23.5984 18.1417 18.3898 23.3504 18.3898 29.752C18.3898 33.626 20.3032 37.0512 23.2323 39.1654V43.311H13.5591V11.6102H46.4528V14.5157H34.8425V19.2165ZM13.5472 45.2598H25.1575V40.311C26.6339 40.9961 28.2638 41.3858 30 41.3858C36.4016 41.3858 41.6102 36.1772 41.6102 29.7756C41.6102 25.9016 39.6968 22.4764 36.7677 20.3622V16.4646H46.4409V48.3898H13.5472V45.2598ZM46.4528 55.1575C46.4528 56.7638 45.1535 58.063 43.5472 58.063H16.4528C14.8465 58.063 13.5472 56.7638 13.5472 55.1575V50.315H46.4528V55.1575ZM46.4528 9.68504H13.5472V4.84252C13.5472 3.23622 14.8465 1.93701 16.4528 1.93701H43.5472C45.1535 1.93701 46.4528 3.23622 46.4528 4.84252V9.68504ZM55.1575 18.3898C53.5512 18.3898 52.252 17.0906 52.252 15.4843C52.252 13.878 53.5512 12.5787 55.1575 12.5787C56.7638 12.5787 58.063 13.878 58.063 15.4843C58.063 17.0906 56.7638 18.3898 55.1575 18.3898Z" fill="currentColor"/></svg>