<svg viewBox="0 0 61 60" fill="none" xmlns="http://www.w3.org/2000/svg"><path d="M25 20C29.1421 20 32.5 16.6421 32.5 12.5C32.5 8.35786 29.1421 5 25 5C20.8579 5 17.5 8.35786 17.5 12.5C17.5 16.6421 20.8579 20 25 20Z" stroke="#0069FF" stroke-width="2" stroke-miterlimit="10"></path><path d="M42.5 33.0002C42.3 28.6002 39.3 24.8002 35 23.6002L33.7 23.2002L24.9 31.9002L16.1 23.2002L14.8 23.6002C10.5 24.9002 7.5 29.0002 7.5 33.6002V43.0002H31.5" stroke="#0069FF" stroke-width="2" stroke-miterlimit="10"></path><path d="M53.0718 38.25L39.929 44L26.7861 38.25L39.929 32.5L53.0718 38.25Z" stroke="#0069FF" stroke-width="2" stroke-miterlimit="10"></path><path d="M30.8936 40.0576V48.1076C30.8936 48.1076 36.6436 47.2862 39.9293 52.2148C43.215 47.2862 48.965 48.1076 48.965 48.1076V40.0576" stroke="#0069FF" stroke-width="2" stroke-miterlimit="10"></path><path d="M52.25 38.5791V51.3934" stroke="#0069FF" stroke-width="2" stroke-miterlimit="10"></path><path d="M52.2503 55.4997C51.3467 55.4997 50.6074 54.7604 50.6074 53.8569V53.0354C50.6074 52.1319 51.3467 51.3926 52.2503 51.3926C53.1539 51.3926 53.8931 52.1319 53.8931 53.0354V53.8569C53.8931 54.7604 53.1539 55.4997 52.2503 55.4997Z" stroke="#0069FF" stroke-width="2" stroke-miterlimit="10"></path></svg>