<svg viewBox="0 0 57 62" fill="currentColor" xmlns="http://www.w3.org/2000/svg"><path d="M21.087 54.4784L21.3546 53.5149C21.0916 53.4418 20.8101 53.4795 20.5755 53.6191L21.087 54.4784ZM10.1304 61.0001H9.13043C9.13043 61.3598 9.32356 61.6917 9.63621 61.8695C9.94886 62.0472 10.3329 62.0434 10.6419 61.8594L10.1304 61.0001ZM10.1304 48.2175H11.1304C11.1304 47.923 11.0006 47.6435 10.7756 47.4535L10.1304 48.2175ZM28.3913 21.3479L29.2234 20.7932L28.3913 19.5452L27.5593 20.7932L28.3913 21.3479ZM32.0435 26.8262L31.2114 27.3809L31.4197 27.6933L31.7821 27.7914L32.0435 26.8262ZM38.3043 28.5219L39.0948 29.1344L40.0136 27.9488L38.5658 27.5566L38.3043 28.5219ZM34.2609 33.7393L33.4705 33.1267L33.2471 33.4149L33.2617 33.7792L34.2609 33.7393ZM34.5217 40.261L34.1641 41.1948L35.5816 41.7377L35.5209 40.221L34.5217 40.261ZM28.3913 37.9132L28.7489 36.9793L28.3913 36.8423L28.0337 36.9793L28.3913 37.9132ZM22.2609 40.261L21.2617 40.221L21.201 41.7377L22.6185 41.1948L22.2609 40.261ZM22.5217 33.7393L23.5209 33.7792L23.5355 33.4149L23.3122 33.1267L22.5217 33.7393ZM18.4783 28.5219L18.2168 27.5566L16.769 27.9488L17.6878 29.1344L18.4783 28.5219ZM24.7391 26.8262L25.0005 27.7914L25.3629 27.6933L25.5712 27.3809L24.7391 26.8262ZM37.2609 17.9566L38.102 17.4159L37.2854 16.1455L36.4346 17.3933L37.2609 17.9566ZM40.7826 23.4349L39.9414 23.9757L40.1512 24.302L40.5262 24.4015L40.7826 23.4349ZM47.1739 25.1306L47.9643 25.7431L48.8884 24.5508L47.4303 24.164L47.1739 25.1306ZM43.1304 30.3479L42.34 29.7354L42.1167 30.0236L42.1312 30.3879L43.1304 30.3479ZM43.3913 36.8697L43.0337 37.8035L44.4512 38.3464L44.3905 36.8297L43.3913 36.8697ZM19.5217 17.9566L20.348 17.3933L19.4972 16.1455L18.6806 17.4159L19.5217 17.9566ZM16 23.4349L16.2564 24.4015L16.6314 24.302L16.8412 23.9757L16 23.4349ZM9.6087 25.1306L9.35226 24.164L7.89424 24.5508L8.81828 25.7431L9.6087 25.1306ZM13.6522 30.3479L14.6514 30.3879L14.6659 30.0236L14.4426 29.7354L13.6522 30.3479ZM13.3913 36.8697L12.3921 36.8297L12.3314 38.3464L13.749 37.8035L13.3913 36.8697ZM54.7826 28.261C54.7826 42.7056 42.9726 54.5219 28.3913 54.5219V56.5219C44.0709 56.5219 56.7826 43.8164 56.7826 28.261H54.7826ZM28.3913 54.5219C26.0167 54.5219 23.6289 54.1466 21.3546 53.5149L20.8193 55.4419C23.2406 56.1145 25.8094 56.5219 28.3913 56.5219V54.5219ZM20.5755 53.6191L9.61895 60.1408L10.6419 61.8594L21.5984 55.3377L20.5755 53.6191ZM11.1304 61.0001V48.2175H9.13043V61.0001H11.1304ZM10.7756 47.4535C5.13609 42.6912 2 35.9297 2 28.261H0C0 36.5054 3.38564 43.8308 9.48525 48.9815L10.7756 47.4535ZM2 28.261C2 13.8164 13.81 2.00012 28.3913 2.00012V0.00012207C12.7117 0.00012207 0 12.7056 0 28.261H2ZM28.3913 2.00012C42.9726 2.00012 54.7826 13.8164 54.7826 28.261H56.7826C56.7826 12.7056 44.0709 0.00012207 28.3913 0.00012207V2.00012ZM27.5593 21.9027L31.2114 27.3809L32.8755 26.2715L29.2234 20.7932L27.5593 21.9027ZM31.7821 27.7914L38.0429 29.4871L38.5658 27.5566L32.3049 25.861L31.7821 27.7914ZM37.5139 27.9093L33.4705 33.1267L35.0513 34.3518L39.0948 29.1344L37.5139 27.9093ZM33.2617 33.7792L33.5225 40.301L35.5209 40.221L35.2601 33.6993L33.2617 33.7792ZM34.8794 39.3271L28.7489 36.9793L28.0337 38.847L34.1641 41.1948L34.8794 39.3271ZM28.0337 36.9793L21.9032 39.3271L22.6185 41.1948L28.7489 38.847L28.0337 36.9793ZM23.2601 40.301L23.5209 33.7792L21.5225 33.6993L21.2617 40.221L23.2601 40.301ZM23.3122 33.1267L19.2687 27.9093L17.6878 29.1344L21.7313 34.3518L23.3122 33.1267ZM18.7397 29.4871L25.0005 27.7914L24.4777 25.861L18.2168 27.5566L18.7397 29.4871ZM25.5712 27.3809L29.2234 21.9027L27.5593 20.7932L23.9071 26.2715L25.5712 27.3809ZM34.1741 24.2591L38.0871 18.52L36.4346 17.3933L32.5216 23.1324L34.1741 24.2591ZM36.4197 18.4974L39.9414 23.9757L41.6238 22.8941L38.102 17.4159L36.4197 18.4974ZM40.5262 24.4015L46.9175 26.0971L47.4303 24.164L41.039 22.4683L40.5262 24.4015ZM46.3835 24.518L42.34 29.7354L43.9208 30.9605L47.9643 25.7431L46.3835 24.518ZM42.1312 30.3879L42.3921 36.9097L44.3905 36.8297L44.1296 30.308L42.1312 30.3879ZM43.7489 35.9358L37.6185 33.588L36.9032 35.4557L43.0337 37.8035L43.7489 35.9358ZM24.261 23.1324L20.348 17.3933L18.6955 18.52L22.6086 24.2591L24.261 23.1324ZM18.6806 17.4159L15.1588 22.8941L16.8412 23.9757L20.3629 18.4974L18.6806 17.4159ZM15.7436 22.4683L9.35226 24.164L9.86513 26.0971L16.2564 24.4015L15.7436 22.4683ZM8.81828 25.7431L12.8618 30.9605L14.4426 29.7354L10.3991 24.518L8.81828 25.7431ZM12.653 30.308L12.3921 36.8297L14.3905 36.9097L14.6514 30.3879L12.653 30.308ZM13.749 37.8035L19.8794 35.4557L19.1641 33.588L13.0337 35.9358L13.749 37.8035Z" fill="#0069FF"></path></svg>