<svg viewBox="0 0 62 52" fill="none" xmlns="http://www.w3.org/2000/svg"><path d="M24.4783 45.3478H37.5217M37.5217 14.8261L40.6522 10.1304L44.3044 15.6087L50.5652 17.3043L46.5217 22.5217L46.7826 29.0435L41.8261 27.2174M24.4783 14.8261L21.3478 10.1304L17.6957 15.6087L11.4348 17.3043L15.4783 22.5217L15.2174 29.0435L20.1739 27.2174M55.7826 50.5652L61 45.3478V40.1304H1V45.3478L6.21739 50.5652H55.7826ZM3.6087 1H58.3913V40.1304H3.6087V1ZM31 13.5217L34.6522 19L40.913 20.6957L36.8696 25.7826L37.1304 32.3043L31 30.087L24.8696 32.3043L25.1304 25.7826L21.087 20.6957L27.3478 19L31 13.5217Z" stroke="#0069FF" stroke-width="2" stroke-miterlimit="10"></path></svg>