<svg width="18" height="16" viewBox="0 0 18 16" fill="none" xmlns="http://www.w3.org/2000/svg">
<path d="M18 1.76885C17.8796 2.02508 17.6555 2.34873 17.3278 2.73979C17 3.13084 16.5953 3.47473 16.1137 3.7714C16.1271 3.8793 16.1371 3.98042 16.1438 4.07482C16.1958 5.52819 15.8504 7.03609 15.3712 8.29233C14.4425 10.628 13.0193 12.5078 10.9866 13.7842C8.8669 15.0098 6.39823 15.2705 4.12374 15.0484C2.61375 14.8736 1.1255 14.3766 0 13.4403C2.0585 13.6884 3.97957 12.9825 5.49832 11.8423C3.81124 11.8853 2.58546 10.6551 2.0067 9.23291C2.2676 9.30184 2.54052 9.29353 2.78931 9.27339C3.09555 9.24439 3.38625 9.21543 3.67226 9.15203C2.5965 8.80216 1.65522 8.159 1.1639 7.18991C0.8757 6.57587 0.745575 5.99114 0.7425 5.32895C1.24657 5.59647 1.85292 5.85721 2.40806 5.83463C1.56968 5.11873 0.897555 4.2038 0.772605 3.15443C0.69372 2.27948 0.91092 1.48079 1.22412 0.737206C2.47823 2.12654 3.88534 3.26989 5.50839 3.97367C6.61836 4.43184 7.72518 4.67687 8.86961 4.68163C8.7375 3.65126 8.84022 2.65475 9.32112 1.80927C9.88707 0.900263 10.7128 0.372866 11.6389 0.11012C12.9639 -0.232386 14.2563 0.251419 15.0703 1.1822C15.9481 1.08662 16.789 0.694067 17.4583 0.292169C17.1739 1.16023 16.6202 2.02333 15.8128 2.43632C16.5815 2.29286 17.315 2.06347 18 1.76885Z" fill="#1F232E"/>
</svg>
