<svg viewBox="0 0 62 44" fill="none" xmlns="http://www.w3.org/2000/svg"><mask id="path-1-outside-1" maskUnits="userSpaceOnUse" x="-1" y="0" width="63" height="44" fill="black"><rect fill="white" x="-1" width="63" height="44"></rect><path d="M38.7564 39.9095C39.0423 40.6983 39.43 41.0814 39.9438 41.0814C40.5746 41.0814 41.249 40.486 42.0271 39.7991L42.0326 39.7943C42.531 39.3532 43.0474 38.8967 43.5882 38.5638C43.8529 38.3996 44.0531 38.3828 44.2643 38.3654L44.2673 38.3652C44.5344 38.3421 44.8368 38.3159 45.1928 37.9778C45.5869 37.6031 45.6738 37.3835 45.7299 37.1897C45.7543 37.0995 45.7653 37.0616 46.2488 36.9096C46.715 36.7628 47.1999 36.9051 47.6429 37.0628L47.6462 37.064C47.9394 37.1686 48.2422 37.2766 48.5527 37.2766C48.9101 37.2766 49.2282 37.1343 49.525 36.8426C49.7549 36.6185 49.6081 36.302 49.5007 36.0704L49.4999 36.0687L49.495 36.0583C49.4534 35.9693 49.389 35.8313 49.3846 35.8053C49.5929 35.6564 49.7676 35.6413 49.9087 35.6292L49.912 35.6289L49.9145 35.6286C50.0325 35.6177 50.1804 35.6041 50.259 35.4685C50.3453 35.3224 50.2932 35.1537 50.1354 34.8079C49.9828 34.4724 49.5488 34.4724 49.4065 34.4724C49.1071 34.4724 48.7433 34.5342 48.3904 34.5954L48.3717 34.5986C48.0601 34.6517 47.7407 34.7062 47.5115 34.7062C47.3589 34.7062 47.2945 34.6823 47.2694 34.6682C47.2173 34.6392 47.1658 34.6244 47.1142 34.6244C46.8936 34.6244 46.8448 34.8403 46.8151 34.9714L46.8142 34.9753C46.7678 35.1897 46.7189 35.3468 46.5173 35.4254C46.3113 35.5059 46.16 35.5458 46.0563 35.5458C45.9462 35.5458 45.8998 35.5033 45.7736 35.3681C45.6442 35.2297 45.4659 35.0404 45.124 34.8845C44.8999 34.7854 44.5683 34.8948 44.4202 35.1073C44.4124 35.1202 44.4047 35.1324 44.3976 35.1453C44.296 34.5303 43.7598 34.2874 43.3151 34.086L43.314 34.0854C43.0937 33.9863 42.8652 33.8833 42.69 33.7448C42.0223 33.2196 41.9595 33.0133 41.926 32.9029L41.9257 32.902C41.8278 32.5729 41.7512 32.5356 39.8897 31.9413C39.9219 31.9174 39.9541 31.8949 39.9876 31.8724C40.5188 31.4963 40.8813 31.2607 41.5033 31.4049C42.9727 31.7481 43.9688 31.6573 45.0422 31.0978C45.4697 30.8743 47.7614 29.7849 48.3003 29.7849C52.1856 29.8834 53.9936 27.4275 54.6639 26.5106L54.6735 26.4975C54.7624 26.3754 54.8588 26.243 54.8533 26.2325C55.0567 26.1777 55.1739 25.924 55.6349 24.5358C55.8011 24.0355 56.049 23.2898 56.1623 23.1276C56.4855 23.0336 56.9981 23.0973 57.4771 23.1727C57.7785 23.2203 58.0901 23.2692 58.3715 23.2692C58.8828 23.2692 59.2273 23.0993 59.4249 22.7496C60.3476 21.1193 60.0675 18.9867 59.2376 18.0929C58.8956 17.7234 58.9253 17.6744 59.1616 17.2907L59.1626 17.2889C59.3416 16.996 59.6114 16.5544 59.8042 15.7762C59.9594 15.1465 60.0392 13.898 59.2318 13.6745C58.7359 13.5375 58.2473 13.3906 57.7752 13.2486L57.6671 13.2161C56.2627 12.7911 55.0503 12.4247 54.1224 12.4247C54.0091 12.4247 53.899 12.4299 53.787 12.4421C53.7329 12.4421 53.653 12.3622 53.5821 12.2913L53.5796 12.2888C53.4676 12.1749 53.3414 12.0467 53.1566 12.0467C53.0928 12.0467 53.031 12.0628 52.9718 12.0944C52.5294 12.3262 52.4947 12.6082 52.5391 12.8226C52.5243 12.8201 52.5088 12.8168 52.4921 12.813C52.3167 12.7746 52.1158 12.3454 51.9376 11.9646L51.9345 11.9579C51.619 11.2818 51.2609 10.5156 50.5552 10.4608C49.3278 10.3691 48.803 10.6424 48.3871 10.859L48.3827 10.8613C48.1168 11.0004 47.9082 11.1092 47.5637 11.1092C47.2907 11.1092 46.9494 11.039 46.5206 10.8955C46.2076 10.7899 45.9005 10.9721 45.6642 11.1363C45.527 11.2322 45.397 11.323 45.2946 11.323C45.2708 11.323 45.2328 11.3191 45.178 11.2818C44.7013 10.9563 44.5775 10.2631 44.4463 9.52845L44.4459 9.52653L44.4457 9.52533C44.2842 8.61845 44.1172 7.68096 43.2406 7.33534C42.7261 7.13122 42.3352 7.03206 42.0468 7.03206C41.6785 7.03206 41.5233 7.19046 41.4209 7.29542C41.3623 7.35466 41.3584 7.35466 41.3468 7.35466C41.3192 7.35466 41.2322 7.34114 41.0165 7.21429C40.41 6.85886 40.3681 6.42036 40.4982 5.78548C40.5368 5.5981 40.6064 5.5981 40.6727 5.5981C40.7363 5.5981 40.8017 5.61098 40.8635 5.62317L40.8768 5.62579C41.1556 5.67923 41.3114 5.61034 41.3726 5.52985C41.4776 5.39012 41.4396 5.19438 41.3938 5.0392C40.73 2.73855 39.9895 2 38.3476 2C37.8967 2 37.3825 2.05047 36.7886 2.10878L36.7461 2.11294C36.2146 2.1649 35.6145 2.22356 34.9368 2.2582C34.5518 2.27816 34.4752 2.71024 34.4133 3.05857C34.3895 3.19894 34.338 3.49062 34.273 3.52346C31.8519 3.62134 30.5455 3.92783 30.0355 4.51635C29.6839 4.92201 29.7316 5.39206 29.7786 5.84665C29.8333 6.37658 29.8848 6.87688 29.3529 7.35788C29.23 7.46927 29.1508 7.48279 29.1018 7.48279C28.9732 7.48279 28.8098 7.37677 28.6028 7.2424L28.6022 7.24197C28.1978 6.97862 27.6421 6.61675 26.7007 6.61675C26.4986 6.61675 26.2854 6.63349 26.0665 6.66697C25.7838 6.70947 25.6892 6.62061 25.5514 6.46737L25.5499 6.46572C25.4225 6.32485 25.2487 6.13254 24.8985 6.13254C24.6557 6.13254 24.3576 6.22204 23.9603 6.41457C23.6396 6.57039 23.2436 6.65345 22.8161 6.65345C22.0608 6.65345 21.4439 6.39525 21.3635 6.16345C20.7196 4.31868 16.0616 3.09527 13.2639 3.09527C12.5272 3.09527 11.5241 3.17833 10.9278 3.5724C10.1358 4.09589 9.6722 4.15835 9.36571 4.19956C8.75336 4.28262 8.65999 4.45132 8.53508 5.70757C8.44244 6.641 8.79264 7.3932 9.1015 8.05661L9.10235 8.05844C9.57304 9.06936 9.88404 9.73772 8.56341 10.6018C8.31808 10.7622 4.11278 16.3776 4.08831 16.422C3.59519 17.325 3.1097 17.9191 2.71929 18.3968L2.71295 18.4046C2.2487 18.9719 1.9422 19.3466 2.00917 19.8128C2.09803 20.4316 2.84688 21.0433 4.91186 22.456C5.52228 22.8726 10.1287 23.8185 13.195 23.8191H13.1956C14.5703 23.8191 15.4293 23.6324 15.8201 23.248C16.9553 22.1341 19.106 21.3215 20.0093 21.3182C20.7344 21.3182 21.518 21.7542 22.4259 22.2603L22.4334 22.2645C22.8118 22.4751 23.215 22.6995 23.6519 22.9151C24.1389 23.1557 24.2055 23.7537 24.2827 24.4464L24.2829 24.4482C24.3376 24.9415 24.3949 25.4508 24.6132 25.8951L24.6142 25.8972C24.9592 26.5966 25.052 26.7849 25.3608 26.7849C25.4065 26.7849 25.4587 26.7791 25.5218 26.7714C25.6299 26.7579 25.78 26.7392 26.0098 26.7579C26.0053 26.763 26.0008 26.7688 25.9963 26.774L25.9954 26.775C25.8095 26.9957 25.5793 27.2689 25.7304 27.5306C25.977 27.9581 26.2841 28.3148 26.581 28.6593C27.2184 29.3998 27.722 29.9851 27.2963 30.9046C27.2641 30.9741 27.2403 30.998 27.2403 31.0025C27.1959 30.9947 27.0851 30.9097 27.0182 30.8582L27.0152 30.856C26.864 30.7406 26.6929 30.6101 26.4831 30.582C26.1315 30.5324 25.9551 30.4081 25.7677 30.2761L25.7615 30.2718C25.5317 30.1109 25.2984 29.9476 24.8115 29.9973C23.8896 30.0997 23.9358 30.6194 23.9848 31.1692C23.9989 31.3231 24.0144 31.4957 24.0157 31.6895C24.0228 32.5916 22.9713 33.9773 22.4658 34.6431L22.4001 34.7294C22.2772 34.8903 22.1741 34.909 22.1072 34.909C22.0075 34.909 21.8984 34.862 21.8021 34.8206L21.7981 34.8189C21.6159 34.7397 21.4182 34.7049 21.3016 34.8292C21.2025 34.9348 21.1993 35.0938 21.2089 35.2361C21.2707 36.1517 21.668 36.6166 22.3885 36.6166C22.8364 36.6166 23.3598 36.4437 23.9153 36.2603L23.942 36.2515C24.5243 36.0599 25.126 35.862 25.6518 35.862C25.693 35.862 25.7342 35.8639 25.7877 35.8684C25.8313 35.8998 25.8512 36.1169 25.861 36.2224L25.8611 36.2238C25.8856 36.493 25.9268 36.9444 26.353 36.9444L26.4206 36.9398C27.25 36.84 27.3904 36.2618 27.5256 35.7029L27.5262 35.7002C27.6445 35.2128 27.7784 34.6615 28.3395 34.1743C29.6549 33.0307 30.5319 32.0044 31.123 30.1396C31.1365 30.0984 31.1417 30.0984 31.1758 30.0984C31.4166 30.0984 31.944 30.4719 32.293 30.7192C32.707 31.0108 32.9131 31.1525 33.0824 31.1544C33.179 31.1557 33.2885 31.1622 33.4005 31.1712C33.1771 31.2806 33.0708 31.4287 33.0837 31.6161C33.1236 32.2233 34.6065 32.6933 35.855 32.6933C36.5813 32.6933 37.5646 32.5427 38.2001 31.8402C38.2387 31.8917 38.2858 31.9612 38.3199 32.0134L38.3207 32.0147C38.4782 32.2499 38.641 32.4931 38.8884 32.4931C38.9425 32.4931 38.996 32.4802 39.0462 32.4557C39.1615 32.3984 39.2703 32.3392 39.3714 32.278C39.4179 32.4054 39.5242 32.5505 39.6568 32.7313L39.6624 32.7389C39.7411 32.8459 39.8726 33.0249 39.927 33.1331C39.786 33.1924 39.5085 33.2947 39.2381 33.3939C36.7153 34.3211 35.2498 34.9914 35.2227 35.6772C35.2118 35.9212 35.3728 36.1208 35.6973 36.2708C36.6496 36.7093 37.2401 36.916 37.5916 37.0384C38.0604 37.2026 38.0604 37.2026 38.1209 37.5715L38.1211 37.5726C38.1817 37.9418 38.2946 38.63 38.7564 39.9095Z"></path></mask><path d="M38.7564 39.9095C39.0423 40.6983 39.43 41.0814 39.9438 41.0814C40.5746 41.0814 41.249 40.486 42.0271 39.7991L42.0326 39.7943C42.531 39.3532 43.0474 38.8967 43.5882 38.5638C43.8529 38.3996 44.0531 38.3828 44.2643 38.3654L44.2673 38.3652C44.5344 38.3421 44.8368 38.3159 45.1928 37.9778C45.5869 37.6031 45.6738 37.3835 45.7299 37.1897C45.7543 37.0995 45.7653 37.0616 46.2488 36.9096C46.715 36.7628 47.1999 36.9051 47.6429 37.0628L47.6462 37.064C47.9394 37.1686 48.2422 37.2766 48.5527 37.2766C48.9101 37.2766 49.2282 37.1343 49.525 36.8426C49.7549 36.6185 49.6081 36.302 49.5007 36.0704L49.4999 36.0687L49.495 36.0583C49.4534 35.9693 49.389 35.8313 49.3846 35.8053C49.5929 35.6564 49.7676 35.6413 49.9087 35.6292L49.912 35.6289L49.9145 35.6286C50.0325 35.6177 50.1804 35.6041 50.259 35.4685C50.3453 35.3224 50.2932 35.1537 50.1354 34.8079C49.9828 34.4724 49.5488 34.4724 49.4065 34.4724C49.1071 34.4724 48.7433 34.5342 48.3904 34.5954L48.3717 34.5986C48.0601 34.6517 47.7407 34.7062 47.5115 34.7062C47.3589 34.7062 47.2945 34.6823 47.2694 34.6682C47.2173 34.6392 47.1658 34.6244 47.1142 34.6244C46.8936 34.6244 46.8448 34.8403 46.8151 34.9714L46.8142 34.9753C46.7678 35.1897 46.7189 35.3468 46.5173 35.4254C46.3113 35.5059 46.16 35.5458 46.0563 35.5458C45.9462 35.5458 45.8998 35.5033 45.7736 35.3681C45.6442 35.2297 45.4659 35.0404 45.124 34.8845C44.8999 34.7854 44.5683 34.8948 44.4202 35.1073C44.4124 35.1202 44.4047 35.1324 44.3976 35.1453C44.296 34.5303 43.7598 34.2874 43.3151 34.086L43.314 34.0854C43.0937 33.9863 42.8652 33.8833 42.69 33.7448C42.0223 33.2196 41.9595 33.0133 41.926 32.9029L41.9257 32.902C41.8278 32.5729 41.7512 32.5356 39.8897 31.9413C39.9219 31.9174 39.9541 31.8949 39.9876 31.8724C40.5188 31.4963 40.8813 31.2607 41.5033 31.4049C42.9727 31.7481 43.9688 31.6573 45.0422 31.0978C45.4697 30.8743 47.7614 29.7849 48.3003 29.7849C52.1856 29.8834 53.9936 27.4275 54.6639 26.5106L54.6735 26.4975C54.7624 26.3754 54.8588 26.243 54.8533 26.2325C55.0567 26.1777 55.1739 25.924 55.6349 24.5358C55.8011 24.0355 56.049 23.2898 56.1623 23.1276C56.4855 23.0336 56.9981 23.0973 57.4771 23.1727C57.7785 23.2203 58.0901 23.2692 58.3715 23.2692C58.8828 23.2692 59.2273 23.0993 59.4249 22.7496C60.3476 21.1193 60.0675 18.9867 59.2376 18.0929C58.8956 17.7234 58.9253 17.6744 59.1616 17.2907L59.1626 17.2889C59.3416 16.996 59.6114 16.5544 59.8042 15.7762C59.9594 15.1465 60.0392 13.898 59.2318 13.6745C58.7359 13.5375 58.2473 13.3906 57.7752 13.2486L57.6671 13.2161C56.2627 12.7911 55.0503 12.4247 54.1224 12.4247C54.0091 12.4247 53.899 12.4299 53.787 12.4421C53.7329 12.4421 53.653 12.3622 53.5821 12.2913L53.5796 12.2888C53.4676 12.1749 53.3414 12.0467 53.1566 12.0467C53.0928 12.0467 53.031 12.0628 52.9718 12.0944C52.5294 12.3262 52.4947 12.6082 52.5391 12.8226C52.5243 12.8201 52.5088 12.8168 52.4921 12.813C52.3167 12.7746 52.1158 12.3454 51.9376 11.9646L51.9345 11.9579C51.619 11.2818 51.2609 10.5156 50.5552 10.4608C49.3278 10.3691 48.803 10.6424 48.3871 10.859L48.3827 10.8613C48.1168 11.0004 47.9082 11.1092 47.5637 11.1092C47.2907 11.1092 46.9494 11.039 46.5206 10.8955C46.2076 10.7899 45.9005 10.9721 45.6642 11.1363C45.527 11.2322 45.397 11.323 45.2946 11.323C45.2708 11.323 45.2328 11.3191 45.178 11.2818C44.7013 10.9563 44.5775 10.2631 44.4463 9.52845L44.4459 9.52653L44.4457 9.52533C44.2842 8.61845 44.1172 7.68096 43.2406 7.33534C42.7261 7.13122 42.3352 7.03206 42.0468 7.03206C41.6785 7.03206 41.5233 7.19046 41.4209 7.29542C41.3623 7.35466 41.3584 7.35466 41.3468 7.35466C41.3192 7.35466 41.2322 7.34114 41.0165 7.21429C40.41 6.85886 40.3681 6.42036 40.4982 5.78548C40.5368 5.5981 40.6064 5.5981 40.6727 5.5981C40.7363 5.5981 40.8017 5.61098 40.8635 5.62317L40.8768 5.62579C41.1556 5.67923 41.3114 5.61034 41.3726 5.52985C41.4776 5.39012 41.4396 5.19438 41.3938 5.0392C40.73 2.73855 39.9895 2 38.3476 2C37.8967 2 37.3825 2.05047 36.7886 2.10878L36.7461 2.11294C36.2146 2.1649 35.6145 2.22356 34.9368 2.2582C34.5518 2.27816 34.4752 2.71024 34.4133 3.05857C34.3895 3.19894 34.338 3.49062 34.273 3.52346C31.8519 3.62134 30.5455 3.92783 30.0355 4.51635C29.6839 4.92201 29.7316 5.39206 29.7786 5.84665C29.8333 6.37658 29.8848 6.87688 29.3529 7.35788C29.23 7.46927 29.1508 7.48279 29.1018 7.48279C28.9732 7.48279 28.8098 7.37677 28.6028 7.2424L28.6022 7.24197C28.1978 6.97862 27.6421 6.61675 26.7007 6.61675C26.4986 6.61675 26.2854 6.63349 26.0665 6.66697C25.7838 6.70947 25.6892 6.62061 25.5514 6.46737L25.5499 6.46572C25.4225 6.32485 25.2487 6.13254 24.8985 6.13254C24.6557 6.13254 24.3576 6.22204 23.9603 6.41457C23.6396 6.57039 23.2436 6.65345 22.8161 6.65345C22.0608 6.65345 21.4439 6.39525 21.3635 6.16345C20.7196 4.31868 16.0616 3.09527 13.2639 3.09527C12.5272 3.09527 11.5241 3.17833 10.9278 3.5724C10.1358 4.09589 9.6722 4.15835 9.36571 4.19956C8.75336 4.28262 8.65999 4.45132 8.53508 5.70757C8.44244 6.641 8.79264 7.3932 9.1015 8.05661L9.10235 8.05844C9.57304 9.06936 9.88404 9.73772 8.56341 10.6018C8.31808 10.7622 4.11278 16.3776 4.08831 16.422C3.59519 17.325 3.1097 17.9191 2.71929 18.3968L2.71295 18.4046C2.2487 18.9719 1.9422 19.3466 2.00917 19.8128C2.09803 20.4316 2.84688 21.0433 4.91186 22.456C5.52228 22.8726 10.1287 23.8185 13.195 23.8191H13.1956C14.5703 23.8191 15.4293 23.6324 15.8201 23.248C16.9553 22.1341 19.106 21.3215 20.0093 21.3182C20.7344 21.3182 21.518 21.7542 22.4259 22.2603L22.4334 22.2645C22.8118 22.4751 23.215 22.6995 23.6519 22.9151C24.1389 23.1557 24.2055 23.7537 24.2827 24.4464L24.2829 24.4482C24.3376 24.9415 24.3949 25.4508 24.6132 25.8951L24.6142 25.8972C24.9592 26.5966 25.052 26.7849 25.3608 26.7849C25.4065 26.7849 25.4587 26.7791 25.5218 26.7714C25.6299 26.7579 25.78 26.7392 26.0098 26.7579C26.0053 26.763 26.0008 26.7688 25.9963 26.774L25.9954 26.775C25.8095 26.9957 25.5793 27.2689 25.7304 27.5306C25.977 27.9581 26.2841 28.3148 26.581 28.6593C27.2184 29.3998 27.722 29.9851 27.2963 30.9046C27.2641 30.9741 27.2403 30.998 27.2403 31.0025C27.1959 30.9947 27.0851 30.9097 27.0182 30.8582L27.0152 30.856C26.864 30.7406 26.6929 30.6101 26.4831 30.582C26.1315 30.5324 25.9551 30.4081 25.7677 30.2761L25.7615 30.2718C25.5317 30.1109 25.2984 29.9476 24.8115 29.9973C23.8896 30.0997 23.9358 30.6194 23.9848 31.1692C23.9989 31.3231 24.0144 31.4957 24.0157 31.6895C24.0228 32.5916 22.9713 33.9773 22.4658 34.6431L22.4001 34.7294C22.2772 34.8903 22.1741 34.909 22.1072 34.909C22.0075 34.909 21.8984 34.862 21.8021 34.8206L21.7981 34.8189C21.6159 34.7397 21.4182 34.7049 21.3016 34.8292C21.2025 34.9348 21.1993 35.0938 21.2089 35.2361C21.2707 36.1517 21.668 36.6166 22.3885 36.6166C22.8364 36.6166 23.3598 36.4437 23.9153 36.2603L23.942 36.2515C24.5243 36.0599 25.126 35.862 25.6518 35.862C25.693 35.862 25.7342 35.8639 25.7877 35.8684C25.8313 35.8998 25.8512 36.1169 25.861 36.2224L25.8611 36.2238C25.8856 36.493 25.9268 36.9444 26.353 36.9444L26.4206 36.9398C27.25 36.84 27.3904 36.2618 27.5256 35.7029L27.5262 35.7002C27.6445 35.2128 27.7784 34.6615 28.3395 34.1743C29.6549 33.0307 30.5319 32.0044 31.123 30.1396C31.1365 30.0984 31.1417 30.0984 31.1758 30.0984C31.4166 30.0984 31.944 30.4719 32.293 30.7192C32.707 31.0108 32.9131 31.1525 33.0824 31.1544C33.179 31.1557 33.2885 31.1622 33.4005 31.1712C33.1771 31.2806 33.0708 31.4287 33.0837 31.6161C33.1236 32.2233 34.6065 32.6933 35.855 32.6933C36.5813 32.6933 37.5646 32.5427 38.2001 31.8402C38.2387 31.8917 38.2858 31.9612 38.3199 32.0134L38.3207 32.0147C38.4782 32.2499 38.641 32.4931 38.8884 32.4931C38.9425 32.4931 38.996 32.4802 39.0462 32.4557C39.1615 32.3984 39.2703 32.3392 39.3714 32.278C39.4179 32.4054 39.5242 32.5505 39.6568 32.7313L39.6624 32.7389C39.7411 32.8459 39.8726 33.0249 39.927 33.1331C39.786 33.1924 39.5085 33.2947 39.2381 33.3939C36.7153 34.3211 35.2498 34.9914 35.2227 35.6772C35.2118 35.9212 35.3728 36.1208 35.6973 36.2708C36.6496 36.7093 37.2401 36.916 37.5916 37.0384C38.0604 37.2026 38.0604 37.2026 38.1209 37.5715L38.1211 37.5726C38.1817 37.9418 38.2946 38.63 38.7564 39.9095Z" stroke="#0069FF" stroke-width="4" mask="url(#path-1-outside-1)"></path></svg>