<svg viewBox="0 0 61 60" fill="currentColor" xmlns="http://www.w3.org/2000/svg"><path d="M16.319 32.7259L15.8508 31.8423L16.319 32.7259ZM18.7467 29.4922L19.7259 29.6952V29.6952L18.7467 29.4922ZM11.8685 32.7259L11.4002 33.6095H11.4002L11.8685 32.7259ZM9.44078 29.4922L10.4199 29.2891L9.44078 29.4922ZM9.32383 28.9283L10.303 28.7252L9.32383 28.9283ZM10.2053 24.8186L11.015 25.4054L11.015 25.4054L10.2053 24.8186ZM10.3959 24.5555L9.58615 23.9688V23.9688L10.3959 24.5555ZM17.7916 24.5555L18.6014 23.9688L18.6014 23.9688L17.7916 24.5555ZM17.9822 24.8186L17.1725 25.4054L17.1725 25.4054L17.9822 24.8186ZM18.8637 28.9283L19.8428 29.1313L18.8637 28.9283ZM15.901 44.2497V45.2497C16.3691 45.2497 16.7745 44.9251 16.8768 44.4683L15.901 44.2497ZM20.2494 37.9794L20.7961 38.8167C21.0714 38.637 21.2407 38.3336 21.2491 38.005C21.2575 37.6764 21.1039 37.3646 20.8382 37.1711L20.2494 37.9794ZM18.8971 37.2423L18.5365 38.175V38.175L18.8971 37.2423ZM18.6496 37.1466L18.2889 38.0793L18.6496 37.1466ZM9.53788 37.1466L9.17721 36.2139H9.17721L9.53788 37.1466ZM9.29036 37.2423L9.65103 38.175H9.65103L9.29036 37.2423ZM45.099 44.2499L44.1232 44.4685C44.2255 44.9252 44.631 45.2499 45.099 45.2499L45.099 44.2499ZM40.7507 37.9795L40.1619 37.1712C39.8962 37.3647 39.7426 37.6764 39.751 38.005C39.7594 38.3336 39.9287 38.6371 40.204 38.8168L40.7507 37.9795ZM42.1029 37.2425L41.7422 36.3098V36.3098L42.1029 37.2425ZM42.3504 37.1468L42.7111 38.0795V38.0795L42.3504 37.1468ZM51.4621 37.1468L51.1014 38.0795V38.0795L51.4621 37.1468ZM51.7096 37.2425L52.0703 36.3098V36.3098L51.7096 37.2425ZM44.681 32.7261L44.2127 33.6096L44.681 32.7261ZM42.2533 29.4923L41.2741 29.6954V29.6954L42.2533 29.4923ZM49.1315 32.7261L49.5998 33.6096L49.1315 32.7261ZM51.5592 29.4923L52.5384 29.6954V29.6954L51.5592 29.4923ZM51.6762 28.9284L50.697 28.7254V28.7254L51.6762 28.9284ZM50.7947 24.8188L51.6045 24.232L51.6045 24.232L50.7947 24.8188ZM50.6041 24.5557L49.7943 25.1425L49.7943 25.1425L50.6041 24.5557ZM43.2084 24.5557L44.0182 25.1425L44.0182 25.1425L43.2084 24.5557ZM43.0178 24.8188L42.208 24.232L42.208 24.232L43.0178 24.8188ZM42.1363 28.9284L43.1155 28.7254V28.7254L42.1363 28.9284ZM16.7873 33.6095C18.3008 32.8074 19.378 31.3724 19.7259 29.6952L17.7676 29.2891C17.5407 30.3831 16.838 31.3191 15.8508 31.8423L16.7873 33.6095ZM11.4002 33.6095C13.0849 34.5024 15.1026 34.5024 16.7873 33.6095L15.8508 31.8423C14.7518 32.4248 13.4357 32.4248 12.3367 31.8423L11.4002 33.6095ZM8.46162 29.6952C8.80946 31.3724 9.88669 32.8074 11.4002 33.6095L12.3367 31.8423C11.3495 31.3191 10.6468 30.3831 10.4199 29.2891L8.46162 29.6952ZM8.34467 29.1313L8.46162 29.6952L10.4199 29.2891L10.303 28.7252L8.34467 29.1313ZM9.39553 24.2318C8.37184 25.6446 7.99039 27.4231 8.34467 29.1313L10.303 28.7252C10.0629 27.5677 10.3214 26.3626 11.015 25.4054L9.39553 24.2318ZM9.58615 23.9688L9.39553 24.2318L11.015 25.4054L11.2057 25.1423L9.58615 23.9688ZM14.0938 21.6685C12.3094 21.6685 10.6332 22.5239 9.58615 23.9688L11.2057 25.1423C11.8765 24.2165 12.9505 23.6685 14.0938 23.6685V21.6685ZM18.6014 23.9688C17.5543 22.5239 15.8781 21.6685 14.0938 21.6685V23.6685C15.237 23.6685 16.311 24.2165 16.9818 25.1423L18.6014 23.9688ZM18.792 24.2318L18.6014 23.9688L16.9818 25.1423L17.1725 25.4054L18.792 24.2318ZM19.8428 29.1313C20.1971 27.4231 19.8157 25.6446 18.792 24.2318L17.1725 25.4054C17.8661 26.3626 18.1246 27.5677 17.8845 28.7252L19.8428 29.1313ZM19.7259 29.6952L19.8428 29.1313L17.8845 28.7252L17.7676 29.2891L19.7259 29.6952ZM6.97778 43.2497C6.71391 43.2497 6.5 43.0358 6.5 42.772H4.5C4.5 44.1404 5.60934 45.2497 6.97778 45.2497V43.2497ZM15.901 43.2497H6.97778V45.2497H15.901V43.2497ZM19.7027 37.1421C17.2747 38.7274 15.5584 41.2038 14.9252 44.0312L16.8768 44.4683C17.3962 42.1493 18.8047 40.117 20.7961 38.8167L19.7027 37.1421ZM18.5365 38.175C18.9432 38.3323 19.3198 38.5395 19.6607 38.7877L20.8382 37.1711C20.3583 36.8216 19.8286 36.5304 19.2578 36.3096L18.5365 38.175ZM18.2889 38.0793L18.5365 38.175L19.2578 36.3096L19.0103 36.2139L18.2889 38.0793ZM9.89855 38.0793C12.5979 37.0355 15.5895 37.0355 18.2889 38.0793L19.0103 36.2139C15.8467 34.9906 12.3408 34.9906 9.17721 36.2139L9.89855 38.0793ZM9.65103 38.175L9.89855 38.0793L9.17721 36.2139L8.92969 36.3096L9.65103 38.175ZM6.5 42.772C6.5 40.7359 7.752 38.9094 9.65103 38.175L8.92969 36.3096C6.26005 37.342 4.5 39.9097 4.5 42.772H6.5ZM45.099 45.2499H54.0222L54.0222 43.2499H45.099L45.099 45.2499ZM40.204 38.8168C42.1953 40.1171 43.6038 42.1494 44.1232 44.4685L46.0749 44.0314C45.4417 41.204 43.7254 38.7275 41.2974 37.1422L40.204 38.8168ZM41.7422 36.3098C41.1715 36.5305 40.6418 36.8217 40.1619 37.1712L41.3394 38.7878C41.6802 38.5396 42.0568 38.3325 42.4635 38.1752L41.7422 36.3098ZM41.9897 36.2141L41.7422 36.3098L42.4635 38.1752L42.7111 38.0795L41.9897 36.2141ZM51.8228 36.2141C48.6592 34.9908 45.1533 34.9908 41.9897 36.2141L42.7111 38.0795C45.4104 37.0356 48.4021 37.0356 51.1014 38.0795L51.8228 36.2141ZM52.0703 36.3098L51.8228 36.2141L51.1014 38.0795L51.349 38.1752L52.0703 36.3098ZM56.5 42.7721C56.5 39.9098 54.7399 37.3422 52.0703 36.3098L51.349 38.1752C53.248 38.9096 54.5 40.7361 54.5 42.7721H56.5ZM54.0222 45.2499C55.3907 45.2499 56.5 44.1406 56.5 42.7721H54.5C54.5 43.036 54.2861 43.2499 54.0222 43.2499L54.0222 45.2499ZM45.1492 31.8425C44.162 31.3193 43.4593 30.3833 43.2324 29.2893L41.2741 29.6954C41.622 31.3726 42.6992 32.8075 44.2127 33.6096L45.1492 31.8425ZM48.6633 31.8425C47.5643 32.4249 46.2482 32.4249 45.1492 31.8425L44.2127 33.6096C45.8974 34.5025 47.9151 34.5025 49.5998 33.6096L48.6633 31.8425ZM50.5801 29.2893C50.3532 30.3833 49.6505 31.3193 48.6633 31.8425L49.5998 33.6096C51.1133 32.8075 52.1905 31.3726 52.5384 29.6954L50.5801 29.2893ZM50.697 28.7254L50.5801 29.2893L52.5384 29.6954L52.6553 29.1315L50.697 28.7254ZM49.985 25.4055C50.6786 26.3628 50.9371 27.5679 50.697 28.7254L52.6553 29.1315C53.0096 27.4232 52.6282 25.6447 51.6045 24.232L49.985 25.4055ZM49.7943 25.1425L49.985 25.4055L51.6045 24.232L51.4138 23.9689L49.7943 25.1425ZM46.9062 23.6686C48.0495 23.6686 49.1235 24.2167 49.7943 25.1425L51.4139 23.9689C50.3668 22.524 48.6906 21.6686 46.9062 21.6686V23.6686ZM44.0182 25.1425C44.689 24.2167 45.763 23.6686 46.9062 23.6686V21.6686C45.1219 21.6686 43.4457 22.524 42.3986 23.9689L44.0182 25.1425ZM43.8275 25.4055L44.0182 25.1425L42.3987 23.9689L42.208 24.232L43.8275 25.4055ZM43.1155 28.7254C42.8754 27.5679 43.1339 26.3628 43.8275 25.4055L42.208 24.232C41.1843 25.6447 40.8029 27.4232 41.1572 29.1315L43.1155 28.7254ZM43.2324 29.2893L43.1155 28.7254L41.1572 29.1315L41.2741 29.6954L43.2324 29.2893Z" fill="currentColor"></path><path d="M42.8104 49.0001L18.1896 49.0001C16.7905 49.0001 15.6562 47.8659 15.6562 46.4668C15.6562 42.2702 18.2424 38.5076 22.1603 37.0039L22.6687 36.8088C27.7103 34.8739 33.2897 34.8739 38.3313 36.8088L38.8396 37.0039C42.7576 38.5076 45.3438 42.2702 45.3438 46.4668C45.3438 47.8659 44.2095 49.0001 42.8104 49.0001Z" stroke="#FF4C00" stroke-width="2" stroke-linecap="square" stroke-linejoin="round"></path><path d="M26.6737 29.2539C29.069 30.5139 31.931 30.5139 34.3263 29.2539V29.2539C36.4966 28.1124 38.0438 26.0613 38.5454 23.6609L38.7322 22.7669C39.2495 20.2914 38.6936 17.7126 37.2023 15.67L36.8989 15.2545C35.4072 13.2114 33.0296 12.0034 30.5 12.0034V12.0034C27.9704 12.0034 25.5928 13.2114 24.1011 15.2545L23.7977 15.67C22.3064 17.7126 21.7505 20.2914 22.2678 22.7669L22.4546 23.6609C22.9562 26.0613 24.5034 28.1124 26.6737 29.2539V29.2539Z" stroke="#FF4C00" stroke-width="2" stroke-linecap="square" stroke-linejoin="round"></path></svg>