<svg viewBox="0 0 60 60" xmlns="http://www.w3.org/2000/svg"><path d="M60 4.13391H0V47.5867H15.0591L12.7323 53.7993H9.30709V55.8662H50.6811V53.7993H47.2559L44.9291 47.5867H60V4.13391ZM45.0591 53.7875H14.9409L17.2677 47.5749H42.7323L45.0591 53.7875ZM57.9331 45.5197H44.1614H15.8386H2.06693V39.3071H57.9331V45.5197ZM57.9331 37.252H2.06693V6.21265H57.9331V37.252Z" stroke="none"></path><path d="M31.0276 41.374H28.9607V43.4409H31.0276V41.374Z" stroke="none"></path><path d="M35.1731 41.374H33.1062V43.4409H35.1731V41.374Z" stroke="none"></path><path d="M26.8938 41.374H24.8269V43.4409H26.8938V41.374Z" stroke="none"></path><path d="M21.6734 15.2244L20.2442 13.7362L11.9529 21.7205L20.2442 29.7047L21.6734 28.2165L14.9411 21.7205L21.6734 15.2244Z" stroke="none"></path><path d="M39.7558 13.7362L38.3267 15.2244L45.0589 21.7205L38.3267 28.2165L39.7558 29.7047L48.0471 21.7205L39.7558 13.7362Z" stroke="none"></path><path d="M35.315 10.8425L22.9016 31.5354L24.6851 32.5984L37.0985 11.9173L35.315 10.8425Z" stroke="none"></path></svg>