<svg viewBox="0 0 62 62" fill="none" xmlns="http://www.w3.org/2000/svg"><path d="M1 11.4348H61M57.087 6.21739H54.4783M51.8696 6.21739H49.2609M46.6522 6.21739H44.0435M37.5217 6.21739H6.21739M49.2609 38.5652V33.7391L44.9565 32.9565C44.5652 31.2609 43.913 29.8261 43 28.3913L45.6087 24.8696L42.2174 21.4783L38.6957 24.087C37.2609 23.1739 35.8261 22.5217 34.1304 22.1304L33.3478 17.9565H28.5217L27.7391 22.2609C26.0435 22.6522 24.6087 23.3043 23.1739 24.2174L19.6522 21.6087L16.2609 25L18.8696 28.5217C17.9565 29.9565 17.3043 31.3913 16.913 33.087L12.7391 33.8696V38.6957L17.0435 39.4783C17.4348 41.1739 18.087 42.6087 19 44.0435L16.3913 47.5652L19.7826 50.9565L23.3043 48.3478C24.7391 49.2609 26.1739 49.913 27.8696 50.3043L28.6522 54.6087H33.4783L34.2609 50.3043C35.9565 49.913 37.3913 49.2609 38.8261 48.3478L42.3478 50.9565L45.7391 47.5652L43.1304 44.0435C44.0435 42.6087 44.6957 41.1739 45.087 39.4783L49.2609 38.5652ZM37.5217 36.2174C37.5217 39.8193 34.6019 42.7391 31 42.7391C27.3981 42.7391 24.4783 39.8193 24.4783 36.2174C24.4783 32.6155 27.3981 29.6957 31 29.6957C34.6019 29.6957 37.5217 32.6155 37.5217 36.2174ZM1 1H61V61H1V1Z" stroke="#0069FF" stroke-width="2" stroke-miterlimit="10"/></svg>