<svg width="16" height="16" viewBox="0 0 16 16" fill="currentColor" xmlns="http://www.w3.org/2000/svg">
<path d="M11.664 9.5885C11.4635 9.487 10.487 9.0105 10.3045 8.9425C10.122 8.8775 9.9895 8.8435 9.8565 9.044C9.7265 9.2395 9.3435 9.687 9.2265 9.8175C9.1095 9.948 8.9945 9.958 8.797 9.8695C8.5965 9.768 7.956 9.5595 7.1955 8.8775C6.6015 8.349 6.206 7.698 6.0885 7.4975C5.9715 7.2995 6.0755 7.1875 6.1745 7.0885C6.2655 6.9975 6.375 6.8595 6.4765 6.7395C6.573 6.6195 6.604 6.539 6.6745 6.409C6.7395 6.2685 6.706 6.159 6.6565 6.06C6.607 5.961 6.2085 4.9795 6.042 4.5885C5.883 4.2005 5.7165 4.25 5.594 4.25C5.4795 4.2395 5.3465 4.2395 5.214 4.2395C5.0815 4.2395 4.865 4.289 4.6825 4.479C4.5 4.6795 3.9845 5.1585 3.9845 6.1275C3.9845 7.099 4.698 8.039 4.797 8.1795C4.8985 8.3095 6.2005 10.3095 8.198 11.169C8.6745 11.3695 9.0445 11.4895 9.3335 11.5885C9.81 11.7395 10.245 11.7185 10.5885 11.669C10.9685 11.6065 11.7655 11.187 11.9325 10.7185C12.102 10.247 12.102 9.8565 12.0525 9.768C12.003 9.677 11.873 9.6275 11.6725 9.539L11.664 9.5885ZM8.031 14.5C6.8485 14.5 5.6795 14.1795 4.6585 13.5805L4.419 13.4375L1.919 14.0885L2.591 11.656L2.4295 11.406C1.76923 10.3562 1.41895 9.14119 1.419 7.901C1.419 4.271 4.3905 1.31 8.0465 1.31C9.8175 1.31 11.479 2 12.729 3.25C13.3456 3.8593 13.8348 4.58529 14.1678 5.38563C14.5009 6.18597 14.6713 7.04462 14.669 7.9115C14.664 11.539 11.695 14.5 8.044 14.5H8.031ZM13.6795 2.2995C12.1585 0.8305 10.1585 0 8.031 0C3.643 0 0.07 3.5575 0.0675 7.9295C0.0675 9.3255 0.432 10.6875 1.13 11.893L0 16L4.224 14.8985C5.39415 15.5294 6.70212 15.8612 8.0315 15.8645H8.034C12.4245 15.8645 15.9975 12.307 16 7.932C16 5.815 15.1745 3.8225 13.6695 2.325L13.6795 2.2995Z" fill="currentColor"/>
</svg>
