<svg viewBox="0 0 62 47" fill="none" xmlns="http://www.w3.org/2000/svg"><path d="M35.6957 4.39131C37 2.30435 39.3478 1 41.9565 1C46.1304 1 49.5217 4.3913 49.5217 8.56522C49.5217 12.7391 46.1304 16.1304 41.9565 16.1304C40.3913 16.1304 38.9565 15.7391 37.7826 14.8261M50.9565 41.4348H61V32.3044C61 27.2174 57.7391 22.7826 52.913 21.3478L51.4783 20.9565L46.2609 26.1739M26.3043 4.39131C25 2.30435 22.6522 1 20.0435 1C15.8696 1 12.4783 4.3913 12.4783 8.56522C12.4783 12.7391 15.8696 16.1304 20.0435 16.1304C21.6087 16.1304 23.0435 15.7391 24.2174 14.8261M11.0435 41.4348H1V32.3044C1 27.2174 4.26087 22.7826 9.08696 21.3478L10.5217 20.9565L15.7391 26.1739M38.9565 10.7826C38.9565 15.1769 35.3943 18.7391 31 18.7391C26.6057 18.7391 23.0435 15.1769 23.0435 10.7826C23.0435 6.38834 26.6057 2.82609 31 2.82609C35.3943 2.82609 38.9565 6.38834 38.9565 10.7826ZM41.0435 23.8261L31 33.8696L20.9565 23.8261L19.5217 24.2174C14.4348 25.7826 10.913 30.3478 10.913 35.6957V45.3478H50.9565V35.6957C50.9565 30.3478 47.4348 25.7826 42.3478 24.2174L41.0435 23.8261Z" stroke="#0069FF" stroke-width="2" stroke-miterlimit="10"></path></svg>