<svg width="158" height="48" viewBox="0 0 158 48" fill="none" xmlns="http://www.w3.org/2000/svg">
<path d="M37.1769 0.584961H43.7855C47.5085 0.584961 49.9813 1.33074 51.2078 2.82035C52.4324 4.30995 53.0466 6.10965 53.0466 8.21747C53.0466 9.62268 52.7879 10.9514 52.2685 12.2015C51.749 13.4537 50.9254 14.3878 49.7937 15.0061C51.4666 15.5124 52.6971 16.3975 53.4871 17.6634C54.2771 18.9293 54.6702 20.4189 54.6702 22.1322C54.6702 23.9319 54.4351 25.5059 53.9631 26.8542C53.491 28.2025 52.5134 29.329 51.0301 30.2279C49.5468 31.1287 47.4019 31.5782 44.5973 31.5782H37.1749V0.584961H37.1769ZM44.4215 13.7402C46.0944 13.7402 47.2834 13.2554 47.9904 12.2859C48.6975 11.3164 49.0511 10.0858 49.0511 8.59625C49.0511 5.92516 47.4493 4.5906 44.2437 4.5906H41.0639V13.7402H44.4215ZM45.1286 27.6137C47.2715 27.6137 48.7153 27.1015 49.4579 26.0751C50.2006 25.0486 50.5719 23.7494 50.5719 22.1754C50.5719 20.6858 50.1472 19.5337 49.2999 18.7173C48.4526 17.9028 47.1668 17.4946 45.4485 17.4946H41.0658V27.6137H45.1286Z" fill="#F9F9F9"/>
<path d="M58.5571 7.71116C58.0613 7.12042 57.8145 6.39034 57.8145 5.51895C57.8145 4.73195 58.0613 4.05682 58.5571 3.49552C59.0528 2.93422 59.6651 2.65161 60.3939 2.65161C61.101 2.65161 61.7014 2.93226 62.1972 3.49552C62.6929 4.05879 62.9398 4.73195 62.9398 5.51895C62.9398 6.39034 62.6988 7.12042 62.2149 7.71116C61.731 8.3019 61.1247 8.59629 60.3939 8.59629C59.6651 8.59629 59.0528 8.3019 58.5571 7.71116ZM58.4524 12.2232H62.4105V31.5762H58.4524V12.2232Z" fill="#F9F9F9"/>
<path d="M66.8268 12.2231H70.5735L70.6091 15.7656C71.0555 14.5841 71.7625 13.6146 72.7303 12.8571C73.6961 12.0975 74.8279 11.7188 76.1235 11.7188C77.7964 11.7188 79.0802 12.1348 79.9749 12.963C80.8696 13.7932 81.4701 14.9511 81.7782 16.4407C82.0843 17.9303 82.2384 19.8713 82.2384 22.2598V31.5782H78.4205V22.3854C78.4205 19.94 78.221 18.1757 77.8201 17.0943C77.4192 16.0129 76.5956 15.4712 75.3453 15.4712C74.6383 15.4712 73.9193 15.7322 73.1885 16.2504C72.4578 16.7705 71.8514 17.5221 71.3675 18.5054C70.8836 19.4906 70.6427 20.6426 70.6427 21.9635V31.5782H66.8248V12.2231H66.8268Z" fill="#F9F9F9"/>
<path d="M89.0918 30.6283C87.7962 29.7157 86.8422 28.493 86.2299 26.9602C85.6177 25.4294 85.3115 23.7494 85.3115 21.9222C85.3115 19.8713 85.671 18.0716 86.3899 16.5251C87.1088 14.9786 88.1043 13.7912 89.3762 12.963C90.6482 12.1348 92.086 11.7188 93.6878 11.7188C96.1843 11.7188 98.0409 12.5411 99.2536 14.1857C100.466 15.8304 101.073 18.1423 101.073 21.1215C101.073 21.881 101.037 22.668 100.966 23.4825H89.3032C89.5619 25.1978 90.0754 26.4342 90.8398 27.1938C91.6061 27.9533 92.6707 28.3321 94.0374 28.3321C95.1691 28.3321 96.0994 28.2202 96.8302 27.9945C97.5609 27.7688 98.2325 27.4607 98.8447 27.0662L100.01 30.3123C99.4215 30.7617 98.6196 31.1562 97.6064 31.4938C96.5932 31.8314 95.3686 32.0001 93.9308 32.0001C92.0031 31.9982 90.3875 31.5429 89.0918 30.6283ZM97.3634 20.3188C97.3871 18.576 97.0692 17.3455 96.4095 16.6291C95.7498 15.9128 94.8077 15.5536 93.5831 15.5536C91.1084 15.5536 89.6843 17.1414 89.3071 20.3188H97.3634Z" fill="#F9F9F9"/>
<path d="M104.077 12.2231H107.894V16.0188C108.272 14.7254 108.884 13.6853 109.733 12.8983C110.581 12.1113 111.546 11.7168 112.631 11.7168C113.385 11.7168 113.903 11.8012 114.185 11.97L113.656 16.5664C113.444 16.3976 112.984 16.3132 112.277 16.3132C111.169 16.3132 110.162 16.7351 109.255 17.579C108.349 18.423 107.894 19.7713 107.894 21.6279V31.5782H104.077V12.2231Z" fill="#F9F9F9"/>
<path d="M119.115 30.7539C117.879 29.9257 116.889 28.7442 116.146 27.2114C115.404 25.6787 115.032 23.8868 115.032 21.8359C115.032 19.8125 115.356 18.0403 116.004 16.5232C116.652 15.0041 117.576 13.8246 118.779 12.9807C119.98 12.1368 121.394 11.7148 123.02 11.7148C123.962 11.7148 124.845 11.9111 125.67 12.3056C126.494 12.7001 127.189 13.1848 127.756 13.7599C128.321 14.3369 128.698 14.906 128.888 15.4673L128.959 12.2212H132.599V31.5743H128.994L128.923 28.1594C128.522 29.1721 127.791 30.0631 126.733 30.8363C125.672 31.6096 124.483 31.9962 123.164 31.9962C121.7 31.9982 120.351 31.5841 119.115 30.7539ZM127.191 26.5383C128.109 25.4274 128.57 23.9732 128.57 22.1735V21.8791C128.57 20.6701 128.358 19.5887 127.934 18.633C127.509 17.6772 126.932 16.9334 126.202 16.3976C125.471 15.8638 124.669 15.5968 123.798 15.5968C122.289 15.5968 121.124 16.1797 120.298 17.3475C119.472 18.5152 119.062 20.0244 119.062 21.8811C119.062 23.7651 119.468 25.2901 120.28 26.4558C121.094 27.6236 122.265 28.2065 123.796 28.2065C125.141 28.2045 126.273 27.6491 127.191 26.5383Z" fill="#F9F9F9"/>
<path d="M137.157 0.584961H140.94V31.5762H137.157V0.584961Z" fill="#F9F9F9"/>
<path d="M147.493 31.4722C146.278 31.1209 145.413 30.7068 144.896 30.2279L146.168 26.6442C147.582 27.8257 149.195 28.4145 151.008 28.4145C152.822 28.4145 153.73 27.7825 153.73 26.5167C153.73 25.9554 153.541 25.5197 153.165 25.2096C152.788 24.9015 152.117 24.5345 151.151 24.1125L149.808 23.5218C148.393 22.8466 147.276 22.04 146.45 21.098C145.624 20.1559 145.214 18.9136 145.214 17.3671C145.214 15.5968 145.796 14.2112 146.964 13.2143C148.131 12.2173 149.691 11.7168 151.646 11.7168C152.612 11.7168 153.56 11.8424 154.491 12.0956C155.421 12.3488 156.134 12.6726 156.63 13.0651L155.251 16.692C154.945 16.3269 154.455 16.0109 153.783 15.744C153.112 15.4771 152.363 15.3437 151.54 15.3437C149.867 15.3437 149.031 15.9481 149.031 17.1571C149.031 17.8322 149.255 18.3445 149.703 18.6958C150.149 19.0471 150.88 19.4337 151.893 19.8556C151.988 19.8831 152.354 20.0382 152.99 20.3188C154.496 21.0214 155.616 21.8222 156.347 22.723C157.078 23.6238 157.443 24.7759 157.443 26.1811C157.443 28.0926 156.837 29.541 155.622 30.5243C154.408 31.5095 152.871 32.0001 151.01 32.0001C149.879 31.9982 148.708 31.8235 147.493 31.4722Z" fill="#F9F9F9"/>
<path d="M14.0546 22.8445L0.855208 13.1101C0.317987 12.7136 0 12.0876 0 11.4223C0 10.7569 0.317987 10.1309 0.855208 9.73444L14.0546 0L16.5768 3.37565L5.6665 11.4223L16.5768 19.4689L14.0546 22.8445Z" fill="url(#paint0_linear)"/>
<path d="M16.243 8.26831L29.4424 18.0027C29.9797 18.3992 30.2976 19.0253 30.2976 19.6906C30.2976 20.3559 29.9797 20.982 29.4424 21.3784L16.243 31.1128L13.7208 27.7372L24.6311 19.6906L13.7208 11.644L16.243 8.26831Z" fill="url(#paint1_linear)"/>
<path d="M111.682 40.374C111.682 39.702 111.827 39.0813 112.116 38.512C112.405 37.9333 112.802 37.4713 113.306 37.126C113.81 36.7713 114.384 36.594 115.028 36.594C115.663 36.594 116.223 36.762 116.708 37.098C117.203 37.434 117.59 37.8353 117.87 38.302V33.78H118.57V43.076C118.57 43.3 118.668 43.4167 118.864 43.426V44C118.715 44.0187 118.603 44.0233 118.528 44.014C118.36 43.986 118.22 43.9067 118.108 43.776C117.996 43.6453 117.94 43.5053 117.94 43.356V42.544C117.641 43.0293 117.24 43.4167 116.736 43.706C116.241 43.9953 115.723 44.14 115.182 44.14C114.669 44.14 114.197 44.0373 113.768 43.832C113.348 43.6173 112.979 43.3327 112.662 42.978C112.354 42.6233 112.111 42.222 111.934 41.774C111.766 41.326 111.682 40.8593 111.682 40.374ZM117.87 41.55V39.156C117.739 38.8013 117.529 38.4793 117.24 38.19C116.951 37.8913 116.624 37.658 116.26 37.49C115.896 37.3127 115.537 37.224 115.182 37.224C114.622 37.224 114.132 37.378 113.712 37.686C113.292 37.9847 112.965 38.3767 112.732 38.862C112.508 39.3473 112.396 39.856 112.396 40.388C112.396 40.9387 112.527 41.452 112.788 41.928C113.049 42.404 113.399 42.7867 113.838 43.076C114.277 43.3653 114.767 43.51 115.308 43.51C115.56 43.51 115.826 43.4587 116.106 43.356C116.395 43.2533 116.666 43.1133 116.918 42.936C117.179 42.7493 117.394 42.5393 117.562 42.306C117.739 42.0633 117.842 41.8113 117.87 41.55ZM124.453 44.14C123.772 44.14 123.156 43.9673 122.605 43.622C122.064 43.2767 121.635 42.8147 121.317 42.236C121.009 41.6573 120.855 41.0227 120.855 40.332C120.855 39.6507 121.009 39.03 121.317 38.47C121.625 37.9007 122.05 37.448 122.591 37.112C123.133 36.7667 123.739 36.594 124.411 36.594C125.102 36.594 125.713 36.7667 126.245 37.112C126.787 37.448 127.211 37.9007 127.519 38.47C127.827 39.0393 127.981 39.66 127.981 40.332C127.981 40.444 127.977 40.5467 127.967 40.64H121.583C121.621 41.2 121.775 41.704 122.045 42.152C122.316 42.5907 122.661 42.9407 123.081 43.202C123.511 43.454 123.977 43.58 124.481 43.58C124.985 43.58 125.461 43.4493 125.909 43.188C126.357 42.9267 126.67 42.5907 126.847 42.18L127.463 42.348C127.323 42.6933 127.099 43.0013 126.791 43.272C126.493 43.5427 126.138 43.7573 125.727 43.916C125.326 44.0653 124.901 44.14 124.453 44.14ZM121.555 40.094H127.309C127.272 39.5247 127.118 39.0207 126.847 38.582C126.586 38.134 126.245 37.7887 125.825 37.546C125.405 37.294 124.939 37.168 124.425 37.168C123.912 37.168 123.445 37.294 123.025 37.546C122.605 37.798 122.265 38.148 122.003 38.596C121.742 39.0347 121.593 39.534 121.555 40.094ZM132.378 44.14C131.799 44.14 131.262 44.042 130.768 43.846C130.273 43.65 129.839 43.3513 129.466 42.95L129.788 42.46C130.18 42.8427 130.581 43.1227 130.992 43.3C131.412 43.468 131.864 43.552 132.35 43.552C132.966 43.552 133.47 43.4213 133.862 43.16C134.254 42.8987 134.45 42.5347 134.45 42.068C134.45 41.7507 134.356 41.508 134.17 41.34C133.992 41.172 133.731 41.032 133.386 40.92C133.05 40.808 132.639 40.6913 132.154 40.57C131.659 40.4393 131.244 40.304 130.908 40.164C130.572 40.024 130.315 39.842 130.138 39.618C129.97 39.394 129.886 39.0907 129.886 38.708C129.886 38.232 130.002 37.84 130.236 37.532C130.478 37.2147 130.8 36.9813 131.202 36.832C131.612 36.6733 132.065 36.594 132.56 36.594C133.129 36.594 133.624 36.6873 134.044 36.874C134.473 37.0607 134.8 37.308 135.024 37.616L134.646 38.064C134.422 37.7747 134.118 37.5553 133.736 37.406C133.353 37.2567 132.942 37.182 132.504 37.182C132.158 37.182 131.836 37.2287 131.538 37.322C131.248 37.4153 131.01 37.5693 130.824 37.784C130.646 37.9893 130.558 38.2693 130.558 38.624C130.558 38.904 130.623 39.1233 130.754 39.282C130.884 39.4407 131.085 39.5713 131.356 39.674C131.626 39.7673 131.967 39.87 132.378 39.982C132.947 40.122 133.437 40.2667 133.848 40.416C134.258 40.5653 134.576 40.7613 134.8 41.004C135.024 41.2373 135.136 41.5687 135.136 41.998C135.136 42.6607 134.884 43.1833 134.38 43.566C133.876 43.9487 133.208 44.14 132.378 44.14ZM137.341 35.068V33.78H138.041V35.068H137.341ZM137.341 44V36.72H138.041V44H137.341ZM143.739 44.112C143.245 44.112 142.787 44.0093 142.367 43.804C141.947 43.5987 141.583 43.3187 141.275 42.964C140.967 42.6093 140.725 42.208 140.547 41.76C140.379 41.312 140.295 40.85 140.295 40.374C140.295 39.7113 140.44 39.0953 140.729 38.526C141.019 37.9473 141.415 37.4807 141.919 37.126C142.433 36.7713 143.021 36.594 143.683 36.594C144.318 36.594 144.869 36.762 145.335 37.098C145.811 37.4247 146.213 37.826 146.539 38.302V36.72H147.183V44.14C147.183 44.8027 147.025 45.3533 146.707 45.792C146.39 46.2307 145.97 46.562 145.447 46.786C144.925 47.01 144.36 47.122 143.753 47.122C142.904 47.122 142.227 46.968 141.723 46.66C141.229 46.352 140.827 45.946 140.519 45.442L140.995 45.12C141.285 45.6147 141.677 45.974 142.171 46.198C142.666 46.4313 143.193 46.548 143.753 46.548C144.248 46.548 144.701 46.4547 145.111 46.268C145.531 46.0907 145.863 45.8247 146.105 45.47C146.357 45.1153 146.483 44.672 146.483 44.14V42.544C146.194 43.02 145.797 43.4027 145.293 43.692C144.799 43.972 144.281 44.112 143.739 44.112ZM143.907 43.51C144.318 43.51 144.71 43.412 145.083 43.216C145.466 43.02 145.783 42.7727 146.035 42.474C146.287 42.1753 146.437 41.8673 146.483 41.55V39.156C146.343 38.7827 146.133 38.4513 145.853 38.162C145.573 37.8727 145.251 37.644 144.887 37.476C144.533 37.308 144.169 37.224 143.795 37.224C143.207 37.224 142.703 37.3827 142.283 37.7C141.873 38.0173 141.555 38.4187 141.331 38.904C141.117 39.3893 141.009 39.884 141.009 40.388C141.009 40.9387 141.135 41.452 141.387 41.928C141.649 42.404 141.999 42.7867 142.437 43.076C142.885 43.3653 143.375 43.51 143.907 43.51ZM155.881 44H155.181V39.94C155.181 39.0067 155.046 38.3253 154.775 37.896C154.505 37.4573 154.085 37.238 153.515 37.238C153.105 37.238 152.703 37.336 152.311 37.532C151.919 37.728 151.574 37.9987 151.275 38.344C150.977 38.68 150.762 39.0627 150.631 39.492V44H149.931V36.72H150.589V38.456C150.879 37.9053 151.308 37.4573 151.877 37.112C152.456 36.7667 153.067 36.594 153.711 36.594C154.505 36.594 155.065 36.874 155.391 37.434C155.718 37.994 155.881 38.7873 155.881 39.814V44Z" fill="#007AFF"/>
<defs>
<linearGradient id="paint0_linear" x1="0.000434517" y1="11.4219" x2="16.576" y2="11.4219" gradientUnits="userSpaceOnUse">
<stop offset="0.239" stop-color="#0069FF"/>
<stop offset="0.9995" stop-color="#00329D"/>
</linearGradient>
<linearGradient id="paint1_linear" x1="13.7214" y1="19.691" x2="30.2969" y2="19.691" gradientUnits="userSpaceOnUse">
<stop offset="0.239" stop-color="#0069FF"/>
<stop offset="0.9995" stop-color="#00329D"/>
</linearGradient>
</defs>
</svg>
