<svg width="319" height="92" viewBox="0 0 319 92" fill="none" xmlns="http://www.w3.org/2000/svg">
<path d="M74.3668 1.14503H87.5863C95.0336 1.14503 99.9801 2.60486 102.434 5.52069C104.883 8.4365 106.112 11.9593 106.112 16.0853C106.112 18.8359 105.594 21.4368 104.555 23.8838C103.516 26.3349 101.869 28.1634 99.6046 29.3736C102.951 30.3647 105.412 32.0972 106.993 34.5752C108.573 37.0531 109.359 39.9689 109.359 43.3226C109.359 46.8454 108.889 49.9265 107.945 52.5657C107.001 55.2049 105.045 57.41 102.078 59.1695C99.1109 60.9328 94.8202 61.8127 89.21 61.8127H74.3628V1.14503H74.3668ZM88.8583 26.8957C92.2047 26.8957 94.5831 25.9467 95.9976 24.049C97.412 22.1513 98.1192 19.7424 98.1192 16.8267C98.1192 11.5982 94.915 8.98586 88.5029 8.98586H82.142V26.8957H88.8583ZM90.2728 54.0524C94.5595 54.0524 97.4477 53.0498 98.9331 51.0406C100.419 49.0313 101.161 46.4882 101.161 43.4072C101.161 40.4914 100.312 38.2362 98.6171 36.6381C96.9222 35.0438 94.3501 34.2448 90.9129 34.2448H82.146V54.0524H90.2728Z" fill="#F9F9F9"/>
<path d="M117.135 15.0937C116.143 13.9374 115.649 12.5083 115.649 10.8026C115.649 9.26207 116.143 7.94053 117.135 6.84182C118.126 5.7431 119.351 5.18991 120.809 5.18991C122.223 5.18991 123.424 5.73927 124.416 6.84182C125.408 7.94437 125.902 9.26207 125.902 10.8026C125.902 12.5083 125.42 13.9374 124.452 15.0937C123.484 16.2501 122.271 16.8263 120.809 16.8263C119.351 16.8263 118.126 16.2501 117.135 15.0937ZM116.925 23.9257H124.843V61.8083H116.925V23.9257Z" fill="#F9F9F9"/>
<path d="M133.677 23.9261H141.172L141.243 30.8603C142.136 28.5476 143.55 26.6499 145.486 25.1671C147.418 23.6802 149.682 22.9389 152.274 22.9389C155.62 22.9389 158.188 23.7532 159.978 25.3744C161.767 26.9995 162.969 29.266 163.585 32.1818C164.197 35.0976 164.505 38.897 164.505 43.5724V61.8127H156.868V43.8182C156.868 39.0315 156.469 35.578 155.667 33.4612C154.865 31.3444 153.218 30.2841 150.717 30.2841C149.303 30.2841 147.864 30.795 146.402 31.8093C144.941 32.8274 143.728 34.2986 142.76 36.2233C141.792 38.1518 141.31 40.4068 141.31 42.9924V61.8127H133.673V23.9261H133.677Z" fill="#F9F9F9"/>
<path d="M178.215 59.9533C175.623 58.1669 173.715 55.7735 172.49 52.7732C171.265 49.7767 170.653 46.4882 170.653 42.9115C170.653 38.897 171.372 35.3742 172.81 32.347C174.248 29.3198 176.239 26.9955 178.784 25.3744C181.328 23.7532 184.204 22.9389 187.408 22.9389C192.402 22.9389 196.116 24.5485 198.542 27.7678C200.967 30.9872 202.181 35.5126 202.181 41.3442C202.181 42.8309 202.109 44.3714 201.967 45.9658H178.637C179.155 49.3234 180.182 51.7435 181.711 53.2304C183.244 54.7171 185.374 55.4586 188.108 55.4586C190.372 55.4586 192.232 55.2395 193.694 54.7977C195.156 54.356 196.499 53.7529 197.724 52.9807L200.055 59.3347C198.878 60.2144 197.274 60.9866 195.247 61.6474C193.22 62.3083 190.771 62.6385 187.894 62.6385C184.038 62.6348 180.806 61.7436 178.215 59.9533ZM194.761 39.773C194.808 36.3615 194.172 33.9529 192.853 32.5506C191.533 31.1485 189.648 30.4454 187.199 30.4454C182.249 30.4454 179.4 33.5534 178.645 39.773H194.761Z" fill="#F9F9F9"/>
<path d="M208.191 23.9261H215.826V31.3559C216.582 28.8242 217.806 26.7882 219.504 25.2477C221.201 23.7072 223.131 22.935 225.301 22.935C226.81 22.935 227.846 23.1002 228.41 23.4306L227.352 32.4278C226.928 32.0974 226.008 31.9322 224.593 31.9322C222.377 31.9322 220.363 32.7581 218.548 34.41C216.736 36.062 215.826 38.7013 215.826 42.3355V61.8126H208.191V23.9261Z" fill="#F9F9F9"/>
<path d="M238.272 60.1991C235.799 58.578 233.819 56.2653 232.333 53.2649C230.848 50.2647 230.104 46.7572 230.104 42.7426C230.104 38.7819 230.752 35.3129 232.049 32.3433C233.345 29.3697 235.193 27.0609 237.6 25.4091C240.002 23.7572 242.831 22.9311 246.083 22.9311C247.967 22.9311 249.734 23.3154 251.384 24.0876C253.032 24.8598 254.423 25.8086 255.557 26.9343C256.687 28.0637 257.441 29.1777 257.821 30.2764L257.963 23.9224H265.244V61.805H258.033L257.891 55.1206C257.089 57.1029 255.627 58.8469 253.51 60.3604C251.388 61.8741 249.01 62.6309 246.371 62.6309C243.443 62.6348 240.744 61.8242 238.272 60.1991ZM254.427 51.9473C256.263 49.7728 257.185 46.9263 257.185 43.4035V42.8272C257.185 40.4606 256.761 38.3439 255.913 36.4731C255.063 34.6022 253.908 33.1463 252.446 32.0975C250.986 31.0526 249.382 30.5299 247.639 30.5299C244.621 30.5299 242.29 31.6709 240.638 33.9568C238.986 36.2425 238.166 39.1967 238.166 42.8311C238.166 46.5189 238.978 49.504 240.602 51.7858C242.23 54.0717 244.573 55.2127 247.635 55.2127C250.326 55.2088 252.59 54.1217 254.427 51.9473Z" fill="#F9F9F9"/>
<path d="M274.362 1.14503H281.927V61.8087H274.362V1.14503Z" fill="#F9F9F9"/>
<path d="M295.038 61.6052C292.607 60.9175 290.877 60.1069 289.843 59.1695L292.387 52.1546C295.216 54.4673 298.442 55.6199 302.069 55.6199C305.698 55.6199 307.514 54.3828 307.514 51.905C307.514 50.8063 307.134 49.9535 306.384 49.3465C305.63 48.7434 304.285 48.025 302.355 47.1989L299.669 46.0427C296.838 44.721 294.604 43.1421 292.951 41.2982C291.299 39.4541 290.479 37.0224 290.479 33.9952C290.479 30.5299 291.643 27.8177 293.978 25.8663C296.314 23.9147 299.434 22.935 303.345 22.935C305.277 22.935 307.174 23.1809 309.034 23.6765C310.897 24.1721 312.323 24.8059 313.313 25.5742L310.556 32.6737C309.944 31.959 308.964 31.3405 307.62 30.818C306.278 30.2956 304.779 30.0345 303.133 30.0345C299.787 30.0345 298.114 31.2176 298.114 33.5841C298.114 34.9056 298.562 35.9084 299.458 36.596C300.351 37.2837 301.813 38.0404 303.839 38.8663C304.029 38.9201 304.759 39.2237 306.032 39.773C309.046 41.1483 311.287 42.7158 312.749 44.4791C314.211 46.2423 314.941 48.4975 314.941 51.2481C314.941 54.9898 313.729 57.8249 311.299 59.7497C308.87 61.6782 305.796 62.6385 302.073 62.6385C299.811 62.6348 297.466 62.2928 295.038 61.6052Z" fill="#F9F9F9"/>
<path d="M28.1141 44.7169L1.71072 25.6623C0.636085 24.8862 0 23.6608 0 22.3585C0 21.0561 0.636085 19.8307 1.71072 19.0546L28.1141 0L33.1594 6.60766L11.335 22.3585L33.1594 38.1093L28.1141 44.7169Z" fill="url(#paint0_linear_3_56)"/>
<path d="M32.4917 16.1853L58.8951 35.2399C59.9699 36.0159 60.606 37.2414 60.606 38.5437C60.606 39.846 59.9699 41.0716 58.8951 41.8475L32.4917 60.9023L27.4464 54.2945L49.271 38.5437L27.4464 22.7929L32.4917 16.1853Z" fill="url(#paint1_linear_3_56)"/>
<path d="M1.06589 76.9521H5.1224C5.97102 76.9521 6.69951 77.0796 7.30786 77.3345C7.91621 77.5893 8.38397 77.9665 8.71115 78.4661C9.03833 78.9657 9.20192 79.5799 9.20192 80.3089C9.20192 80.8849 9.09968 81.3844 8.89519 81.8075C8.6907 82.2306 8.40186 82.5849 8.02868 82.8704C7.6606 83.1558 7.22606 83.3801 6.72507 83.5432L6.0656 83.8797H2.48452L2.46918 82.2204H5.14541C5.57994 82.2204 5.94035 82.144 6.22663 81.991C6.51291 81.8381 6.72763 81.6266 6.87077 81.3564C7.01902 81.0862 7.09315 80.7778 7.09315 80.4312C7.09315 80.0591 7.02158 79.7379 6.87844 79.4678C6.73529 79.1925 6.51803 78.9809 6.22663 78.8331C5.93524 78.6853 5.56716 78.6114 5.1224 78.6114H3.17466V88.0851H1.06589V76.9521ZM7.3692 88.0851L4.785 83.0997L7.01646 83.0921L9.63134 87.9781V88.0851H7.3692Z" fill="#F9F9F9"/>
<path d="M18.0465 76.9521H20.1553V84.3461C20.1553 85.1974 19.9712 85.9136 19.6032 86.4947C19.2351 87.0707 18.7341 87.5065 18.1002 87.8022C17.4663 88.0928 16.7455 88.238 15.9377 88.238C15.1198 88.238 14.3913 88.0928 13.7523 87.8022C13.1132 87.5065 12.6123 87.0707 12.2493 86.4947C11.8863 85.9136 11.7048 85.1974 11.7048 84.3461V76.9521H13.8136V84.3461C13.8136 84.866 13.9005 85.2917 14.0743 85.623C14.2482 85.9493 14.4935 86.1914 14.8105 86.3494C15.1274 86.5074 15.5032 86.5864 15.9377 86.5864C16.3774 86.5864 16.7531 86.5074 17.065 86.3494C17.3819 86.1914 17.6247 85.9493 17.7934 85.623C17.9622 85.2917 18.0465 84.866 18.0465 84.3461V76.9521Z" fill="#F9F9F9"/>
<path d="M28.7851 85.1948C28.7851 84.9807 28.7519 84.7896 28.6855 84.6214C28.6241 84.448 28.5091 84.2926 28.3404 84.1549C28.1768 84.0122 27.9442 83.8746 27.6426 83.742C27.3461 83.6044 26.9627 83.4617 26.4923 83.3138C25.9709 83.1507 25.4852 82.9672 25.0354 82.7633C24.5855 82.5594 24.1893 82.3224 23.8468 82.0522C23.5094 81.782 23.2461 81.4711 23.0569 81.1194C22.8678 80.7625 22.7732 80.3496 22.7732 79.8807C22.7732 79.4219 22.8704 79.0039 23.0646 78.6267C23.264 78.2495 23.5452 77.9258 23.9081 77.6556C24.2711 77.3803 24.698 77.1688 25.1887 77.021C25.6846 76.8731 26.2316 76.7992 26.8297 76.7992C27.6579 76.7992 28.3736 76.9496 28.9769 77.2503C29.5852 77.5511 30.0555 77.9589 30.3878 78.4737C30.7201 78.9886 30.8863 79.5672 30.8863 80.2094H28.7851C28.7851 79.8628 28.711 79.557 28.5628 79.2919C28.4196 79.0268 28.1998 78.8178 27.9033 78.6649C27.6119 78.512 27.2438 78.4355 26.7991 78.4355C26.3696 78.4355 26.0118 78.4992 25.7255 78.6267C25.4443 78.7541 25.2322 78.9274 25.089 79.1466C24.951 79.3658 24.882 79.6105 24.882 79.8807C24.882 80.0846 24.9306 80.2681 25.0277 80.4312C25.1248 80.5892 25.2705 80.7396 25.4648 80.8823C25.659 81.02 25.8993 81.1499 26.1856 81.2723C26.477 81.3895 26.8144 81.5068 27.1978 81.624C27.8113 81.8075 28.3481 82.0114 28.8082 82.2357C29.2734 82.46 29.6593 82.7149 29.9661 83.0003C30.2779 83.2858 30.5105 83.6069 30.6639 83.9638C30.8223 84.3206 30.9016 84.7258 30.9016 85.1795C30.9016 85.6587 30.807 86.0869 30.6179 86.4641C30.4287 86.8413 30.1578 87.1625 29.805 87.4275C29.4523 87.6926 29.028 87.894 28.5321 88.0316C28.0413 88.1692 27.4918 88.238 26.8834 88.238C26.3415 88.238 25.8047 88.1667 25.2731 88.0239C24.7465 87.8761 24.2685 87.6569 23.8391 87.3664C23.4097 87.0707 23.0672 86.6986 22.8116 86.25C22.556 85.7963 22.4282 85.2662 22.4282 84.6596H24.5446C24.5446 85.0113 24.6008 85.3121 24.7133 85.5618C24.8309 85.8065 24.9945 86.0079 25.2041 86.1659C25.4188 86.3188 25.6693 86.431 25.9556 86.5023C26.2418 86.5737 26.5511 86.6094 26.8834 86.6094C27.3128 86.6094 27.6656 86.5508 27.9416 86.4335C28.2228 86.3112 28.4324 86.143 28.5704 85.9289C28.7136 85.7148 28.7851 85.4701 28.7851 85.1948Z" fill="#F9F9F9"/>
<path d="M39.1557 85.1948C39.1557 84.9807 39.1225 84.7896 39.056 84.6214C38.9947 84.448 38.8797 84.2926 38.711 84.1549C38.5474 84.0122 38.3148 83.8746 38.0131 83.742C37.7166 83.6044 37.3332 83.4617 36.8629 83.3138C36.3415 83.1507 35.8558 82.9672 35.4059 82.7633C34.9561 82.5594 34.5599 82.3224 34.2174 82.0522C33.8799 81.782 33.6167 81.4711 33.4275 81.1194C33.2384 80.7625 33.1438 80.3496 33.1438 79.8807C33.1438 79.4219 33.2409 79.0039 33.4352 78.6267C33.6346 78.2495 33.9157 77.9258 34.2787 77.6556C34.6417 77.3803 35.0685 77.1688 35.5593 77.021C36.0552 76.8731 36.6022 76.7992 37.2003 76.7992C38.0285 76.7992 38.7442 76.9496 39.3474 77.2503C39.9558 77.5511 40.4261 77.9589 40.7584 78.4737C41.0907 78.9886 41.2568 79.5672 41.2568 80.2094H39.1557C39.1557 79.8628 39.0816 79.557 38.9333 79.2919C38.7902 79.0268 38.5704 78.8178 38.2739 78.6649C37.9825 78.512 37.6144 78.4355 37.1696 78.4355C36.7402 78.4355 36.3824 78.4992 36.0961 78.6267C35.8149 78.7541 35.6027 78.9274 35.4596 79.1466C35.3216 79.3658 35.2526 79.6105 35.2526 79.8807C35.2526 80.0846 35.3011 80.2681 35.3983 80.4312C35.4954 80.5892 35.6411 80.7396 35.8354 80.8823C36.0296 81.02 36.2699 81.1499 36.5562 81.2723C36.8476 81.3895 37.185 81.5068 37.5684 81.624C38.1818 81.8075 38.7186 82.0114 39.1787 82.2357C39.6439 82.46 40.0299 82.7149 40.3366 83.0003C40.6485 83.2858 40.8811 83.6069 41.0344 83.9638C41.1929 84.3206 41.2722 84.7258 41.2722 85.1795C41.2722 85.6587 41.1776 86.0869 40.9884 86.4641C40.7993 86.8413 40.5283 87.1625 40.1756 87.4275C39.8229 87.6926 39.3985 87.894 38.9027 88.0316C38.4119 88.1692 37.8623 88.238 37.254 88.238C36.7121 88.238 36.1753 88.1667 35.6436 88.0239C35.1171 87.8761 34.6391 87.6569 34.2097 87.3664C33.7803 87.0707 33.4377 86.6986 33.1821 86.25C32.9265 85.7963 32.7987 85.2662 32.7987 84.6596H34.9152C34.9152 85.0113 34.9714 85.3121 35.0839 85.5618C35.2014 85.8065 35.365 86.0079 35.5746 86.1659C35.7893 86.3188 36.0398 86.431 36.3261 86.5023C36.6124 86.5737 36.9217 86.6094 37.254 86.6094C37.6834 86.6094 38.0361 86.5508 38.3122 86.4335C38.5934 86.3112 38.803 86.143 38.941 85.9289C39.0841 85.7148 39.1557 85.4701 39.1557 85.1948Z" fill="#F9F9F9"/>
<path d="M45.9299 76.9521V88.0851H43.8211V76.9521H45.9299Z" fill="#F9F9F9"/>
<path d="M53.5705 78.642L50.3882 88.0851H48.1567L52.3283 76.9521H53.7546L53.5705 78.642ZM56.2314 88.0851L53.0337 78.642L52.842 76.9521H54.276L58.4705 88.0851H56.2314ZM56.0857 83.9485V85.6077H50.0968V83.9485H56.0857Z" fill="#F9F9F9"/>
<path d="M69.3779 76.9521V88.0851H67.2615L62.5148 80.3624V88.0851H60.406V76.9521H62.5148L67.2768 84.6825V76.9521H69.3779Z" fill="#F9F9F9"/>
<path d="M79.7515 85.9518L81.9753 76.9521H83.1792L83.2559 78.8484L80.8788 88.0851H79.6058L79.7515 85.9518ZM78.3482 76.9521L80.1733 85.9212V88.0851H78.7853L76.2548 76.9521H78.3482ZM85.5641 85.883L87.3585 76.9521H89.4596L86.929 88.0851H85.5411L85.5641 85.883ZM83.7544 76.9521L85.9782 85.9824L86.1085 88.0851H84.8356L82.4661 78.8408L82.5581 76.9521H83.7544Z" fill="#F9F9F9"/>
<path d="M95.6816 78.642L92.4993 88.0851H90.2678L94.4393 76.9521H95.8656L95.6816 78.642ZM98.3425 88.0851L95.1448 78.642L94.9531 76.9521H96.3871L100.582 88.0851H98.3425ZM98.1968 83.9485V85.6077H92.2079V83.9485H98.1968Z" fill="#F9F9F9"/>
<path d="M102.517 76.9521H106.574C107.422 76.9521 108.151 77.0796 108.759 77.3345C109.367 77.5893 109.835 77.9665 110.162 78.4661C110.49 78.9657 110.653 79.5799 110.653 80.3089C110.653 80.8849 110.551 81.3844 110.346 81.8075C110.142 82.2306 109.853 82.5849 109.48 82.8704C109.112 83.1558 108.677 83.3801 108.176 83.5432L107.517 83.8797H103.936L103.92 82.2204H106.597C107.031 82.2204 107.392 82.144 107.678 81.991C107.964 81.8381 108.179 81.6266 108.322 81.3564C108.47 81.0862 108.544 80.7778 108.544 80.4312C108.544 80.0591 108.473 79.7379 108.33 79.4678C108.186 79.1925 107.969 78.9809 107.678 78.8331C107.386 78.6853 107.018 78.6114 106.574 78.6114H104.626V88.0851H102.517V76.9521ZM108.82 88.0851L106.236 83.0997L108.468 83.0921L111.083 87.9781V88.0851H108.82Z" fill="#F9F9F9"/>
<path d="M119.13 85.1948C119.13 84.9807 119.096 84.7896 119.03 84.6214C118.969 84.448 118.854 84.2926 118.685 84.1549C118.521 84.0122 118.289 83.8746 117.987 83.742C117.691 83.6044 117.307 83.4617 116.837 83.3138C116.315 83.1507 115.83 82.9672 115.38 82.7633C114.93 82.5594 114.534 82.3224 114.191 82.0522C113.854 81.782 113.591 81.4711 113.401 81.1194C113.212 80.7625 113.118 80.3496 113.118 79.8807C113.118 79.4219 113.215 79.0039 113.409 78.6267C113.608 78.2495 113.89 77.9258 114.253 77.6556C114.616 77.3803 115.042 77.1688 115.533 77.021C116.029 76.8731 116.576 76.7992 117.174 76.7992C118.002 76.7992 118.718 76.9496 119.321 77.2503C119.93 77.5511 120.4 77.9589 120.732 78.4737C121.065 78.9886 121.231 79.5672 121.231 80.2094H119.13C119.13 79.8628 119.055 79.557 118.907 79.2919C118.764 79.0268 118.544 78.8178 118.248 78.6649C117.956 78.512 117.588 78.4355 117.144 78.4355C116.714 78.4355 116.356 78.4992 116.07 78.6267C115.789 78.7541 115.577 78.9274 115.434 79.1466C115.295 79.3658 115.226 79.6105 115.226 79.8807C115.226 80.0846 115.275 80.2681 115.372 80.4312C115.469 80.5892 115.615 80.7396 115.809 80.8823C116.004 81.02 116.244 81.1499 116.53 81.2723C116.821 81.3895 117.159 81.5068 117.542 81.624C118.156 81.8075 118.693 82.0114 119.153 82.2357C119.618 82.46 120.004 82.7149 120.311 83.0003C120.622 83.2858 120.855 83.6069 121.008 83.9638C121.167 84.3206 121.246 84.7258 121.246 85.1795C121.246 85.6587 121.151 86.0869 120.962 86.4641C120.773 86.8413 120.502 87.1625 120.15 87.4275C119.797 87.6926 119.372 87.894 118.877 88.0316C118.386 88.1692 117.836 88.238 117.228 88.238C116.686 88.238 116.149 88.1667 115.618 88.0239C115.091 87.8761 114.613 87.6569 114.184 87.3664C113.754 87.0707 113.412 86.6986 113.156 86.25C112.9 85.7963 112.773 85.2662 112.773 84.6596H114.889C114.889 85.0113 114.945 85.3121 115.058 85.5618C115.175 85.8065 115.339 86.0079 115.549 86.1659C115.763 86.3188 116.014 86.431 116.3 86.5023C116.586 86.5737 116.896 86.6094 117.228 86.6094C117.657 86.6094 118.01 86.5508 118.286 86.4335C118.567 86.3112 118.777 86.143 118.915 85.9289C119.058 85.7148 119.13 85.4701 119.13 85.1948Z" fill="#F9F9F9"/>
<path d="M131.065 81.5475V83.1991H125.191V81.5475H131.065ZM125.766 76.9521V88.0851H123.657V76.9521H125.766ZM132.629 76.9521V88.0851H130.52V76.9521H132.629Z" fill="#F9F9F9"/>
<path d="M137.808 76.9521V88.0851H135.699V76.9521H137.808Z" fill="#F9F9F9"/>
<path d="M145.165 84.0249H142.289V82.3733H145.165C145.635 82.3733 146.016 82.2969 146.307 82.144C146.604 81.9859 146.821 81.7718 146.959 81.5017C147.097 81.2264 147.166 80.9129 147.166 80.5612C147.166 80.2196 147.097 79.9011 146.959 79.6054C146.821 79.3097 146.604 79.0702 146.307 78.8866C146.016 78.7031 145.635 78.6114 145.165 78.6114H142.979V88.0851H140.871V76.9521H145.165C146.034 76.9521 146.775 77.1076 147.389 77.4186C148.007 77.7244 148.478 78.1501 148.8 78.6955C149.127 79.2358 149.29 79.8526 149.29 80.5459C149.29 81.2646 149.127 81.884 148.8 82.4039C148.478 82.9239 148.007 83.324 147.389 83.6044C146.775 83.8848 146.034 84.0249 145.165 84.0249Z" fill="#F9F9F9"/>
<path d="M150.681 86.2653L150.666 87.6646C150.666 88.21 150.531 88.7631 150.26 89.3238C149.989 89.8845 149.639 90.3484 149.209 90.7154L148.136 90.1267C148.274 89.8973 148.401 89.6653 148.519 89.4309C148.642 89.1964 148.739 88.9415 148.81 88.6662C148.887 88.3961 148.925 88.0928 148.925 87.7563V86.2653H150.681Z" fill="#F9F9F9"/>
<path d="M166.814 82.3275V86.6629C166.65 86.8719 166.392 87.0987 166.039 87.3434C165.692 87.5881 165.237 87.7997 164.675 87.9781C164.112 88.1514 163.422 88.238 162.604 88.238C161.894 88.238 161.244 88.1208 160.656 87.8863C160.068 87.6467 159.562 87.2975 159.138 86.8388C158.714 86.38 158.387 85.8193 158.157 85.1566C157.926 84.4939 157.811 83.7369 157.811 82.8856V82.1516C157.811 81.3003 157.919 80.5433 158.134 79.8807C158.353 79.218 158.665 78.6573 159.069 78.1985C159.478 77.7397 159.966 77.3905 160.534 77.1509C161.106 76.9114 161.745 76.7916 162.451 76.7916C163.396 76.7916 164.174 76.947 164.782 77.258C165.395 77.5689 165.866 77.9971 166.193 78.5426C166.52 79.0829 166.725 79.7048 166.806 80.4083H164.751C164.695 80.0208 164.583 79.6819 164.414 79.3913C164.245 79.0956 164.005 78.8663 163.693 78.7031C163.386 78.5349 162.988 78.4508 162.497 78.4508C162.083 78.4508 161.717 78.5324 161.4 78.6955C161.083 78.8586 160.817 79.0956 160.603 79.4066C160.388 79.7175 160.224 80.1024 160.112 80.5612C160.005 81.02 159.951 81.545 159.951 82.1363V82.8856C159.951 83.4821 160.012 84.0122 160.135 84.4761C160.258 84.9348 160.434 85.3223 160.664 85.6383C160.899 85.9493 161.188 86.1863 161.531 86.3494C161.878 86.5074 162.272 86.5864 162.711 86.5864C163.11 86.5864 163.44 86.5533 163.701 86.487C163.967 86.4157 164.179 86.3316 164.337 86.2347C164.496 86.1379 164.618 86.0436 164.705 85.9518V83.8644H162.489V82.3275H166.814Z" fill="#F9F9F9"/>
<path d="M178.634 82.2357V82.8092C178.634 83.6503 178.521 84.4073 178.296 85.0801C178.072 85.7479 177.752 86.3163 177.338 86.7852C176.924 87.2542 176.43 87.6136 175.858 87.8634C175.285 88.1131 174.649 88.238 173.949 88.238C173.258 88.238 172.624 88.1131 172.047 87.8634C171.474 87.6136 170.978 87.2542 170.559 86.7852C170.14 86.3163 169.815 85.7479 169.585 85.0801C169.355 84.4073 169.24 83.6503 169.24 82.8092V82.2357C169.24 81.3895 169.355 80.6325 169.585 79.9648C169.815 79.297 170.137 78.7286 170.551 78.2596C170.966 77.7856 171.459 77.4237 172.031 77.1739C172.609 76.9241 173.243 76.7992 173.933 76.7992C174.634 76.7992 175.27 76.9241 175.843 77.1739C176.415 77.4237 176.908 77.7856 177.323 78.2596C177.742 78.7286 178.064 79.297 178.289 79.9648C178.519 80.6325 178.634 81.3895 178.634 82.2357ZM176.502 82.8092V82.2204C176.502 81.6138 176.446 81.0811 176.333 80.6223C176.221 80.1585 176.055 79.7685 175.835 79.4525C175.615 79.1364 175.344 78.8994 175.022 78.7414C174.7 78.5782 174.337 78.4967 173.933 78.4967C173.524 78.4967 173.161 78.5782 172.844 78.7414C172.532 78.8994 172.267 79.1364 172.047 79.4525C171.827 79.7685 171.658 80.1585 171.541 80.6223C171.428 81.0811 171.372 81.6138 171.372 82.2204V82.8092C171.372 83.4107 171.428 83.9434 171.541 84.4073C171.658 84.8711 171.827 85.2636 172.047 85.5848C172.272 85.9008 172.543 86.1404 172.86 86.3035C173.177 86.4667 173.54 86.5482 173.949 86.5482C174.358 86.5482 174.72 86.4667 175.037 86.3035C175.354 86.1404 175.62 85.9008 175.835 85.5848C176.055 85.2636 176.221 84.8711 176.333 84.4073C176.446 83.9434 176.502 83.4107 176.502 82.8092Z" fill="#F9F9F9"/>
<path d="M188.011 76.9521V88.0851H185.902V76.9521H188.011ZM192.512 81.7616V83.4209H187.458V81.7616H192.512ZM193.102 76.9521V78.6114H187.458V76.9521H193.102Z" fill="#F9F9F9"/>
<path d="M201.533 76.9521H203.642V84.3461C203.642 85.1974 203.458 85.9136 203.09 86.4947C202.721 87.0707 202.22 87.5065 201.587 87.8022C200.953 88.0928 200.232 88.238 199.424 88.238C198.606 88.238 197.878 88.0928 197.239 87.8022C196.6 87.5065 196.099 87.0707 195.736 86.4947C195.373 85.9136 195.191 85.1974 195.191 84.3461V76.9521H197.3V84.3461C197.3 84.866 197.387 85.2917 197.561 85.623C197.734 85.9493 197.98 86.1914 198.297 86.3494C198.614 86.5074 198.99 86.5864 199.424 86.5864C199.864 86.5864 200.239 86.5074 200.551 86.3494C200.868 86.1914 201.111 85.9493 201.28 85.623C201.448 85.2917 201.533 84.866 201.533 84.3461V76.9521Z" fill="#F9F9F9"/>
<path d="M212.962 84.4225H215.07C215.014 85.1668 214.807 85.8269 214.449 86.4029C214.091 86.9739 213.593 87.4224 212.954 87.7487C212.315 88.0749 211.54 88.238 210.63 88.238C209.93 88.238 209.299 88.1157 208.736 87.871C208.179 87.6212 207.701 87.267 207.302 86.8082C206.909 86.3443 206.607 85.7887 206.398 85.1413C206.188 84.4888 206.083 83.7573 206.083 82.9468V82.0981C206.083 81.2876 206.191 80.5561 206.405 79.9036C206.62 79.2511 206.927 78.6955 207.325 78.2367C207.729 77.7728 208.212 77.416 208.775 77.1662C209.342 76.9165 209.976 76.7916 210.676 76.7916C211.586 76.7916 212.356 76.9598 212.985 77.2962C213.613 77.6276 214.102 78.0838 214.449 78.6649C214.797 79.246 215.007 79.9138 215.078 80.6682H212.969C212.928 80.1993 212.826 79.8016 212.663 79.4754C212.504 79.1492 212.264 78.9019 211.942 78.7337C211.625 78.5604 211.203 78.4737 210.676 78.4737C210.268 78.4737 209.907 78.5502 209.595 78.7031C209.289 78.8561 209.033 79.0854 208.828 79.3913C208.624 79.6921 208.471 80.0693 208.368 80.5229C208.266 80.9715 208.215 81.4915 208.215 82.0828V82.9468C208.215 83.5126 208.261 84.0198 208.353 84.4684C208.445 84.917 208.588 85.2968 208.782 85.6077C208.977 85.9187 209.227 86.1557 209.534 86.3188C209.841 86.4819 210.206 86.5635 210.63 86.5635C211.147 86.5635 211.566 86.4819 211.888 86.3188C212.215 86.1557 212.463 85.9161 212.632 85.6001C212.806 85.284 212.916 84.8915 212.962 84.4225Z" fill="#F9F9F9"/>
<path d="M219.598 76.9521V88.0851H217.489V76.9521H219.598ZM226.3 76.9521L221.822 82.381L219.26 85.1107L218.885 83.0692L220.664 80.7676L223.716 76.9521H226.3ZM223.953 88.0851L220.48 82.8704L221.99 81.5093L226.461 88.0851H223.953Z" fill="#F9F9F9"/>
<path d="M234.227 76.9521L236.681 82.144L239.15 76.9521H241.466L237.755 84.0096V88.0851H235.615V84.0096L231.896 76.9521H234.227Z" fill="#F9F9F9"/>
<path d="M252.182 82.2357V82.8092C252.182 83.6503 252.069 84.4073 251.844 85.0801C251.619 85.7479 251.3 86.3163 250.886 86.7852C250.472 87.2542 249.978 87.6136 249.406 87.8634C248.833 88.1131 248.197 88.238 247.496 88.238C246.806 88.238 246.172 88.1131 245.595 87.8634C245.022 87.6136 244.526 87.2542 244.107 86.7852C243.688 86.3163 243.363 85.7479 243.133 85.0801C242.903 84.4073 242.788 83.6503 242.788 82.8092V82.2357C242.788 81.3895 242.903 80.6325 243.133 79.9648C243.363 79.297 243.685 78.7286 244.099 78.2596C244.513 77.7856 245.007 77.4237 245.579 77.1739C246.157 76.9241 246.791 76.7992 247.481 76.7992C248.181 76.7992 248.818 76.9241 249.391 77.1739C249.963 77.4237 250.456 77.7856 250.87 78.2596C251.29 78.7286 251.612 79.297 251.837 79.9648C252.067 80.6325 252.182 81.3895 252.182 82.2357ZM250.05 82.8092V82.2204C250.05 81.6138 249.994 81.0811 249.881 80.6223C249.769 80.1585 249.603 79.7685 249.383 79.4525C249.163 79.1364 248.892 78.8994 248.57 78.7414C248.248 78.5782 247.885 78.4967 247.481 78.4967C247.072 78.4967 246.709 78.5782 246.392 78.7414C246.08 78.8994 245.815 79.1364 245.595 79.4525C245.375 79.7685 245.206 80.1585 245.089 80.6223C244.976 81.0811 244.92 81.6138 244.92 82.2204V82.8092C244.92 83.4107 244.976 83.9434 245.089 84.4073C245.206 84.8711 245.375 85.2636 245.595 85.5848C245.82 85.9008 246.091 86.1404 246.408 86.3035C246.725 86.4667 247.087 86.5482 247.496 86.5482C247.905 86.5482 248.268 86.4667 248.585 86.3035C248.902 86.1404 249.168 85.9008 249.383 85.5848C249.603 85.2636 249.769 84.8711 249.881 84.4073C249.994 83.9434 250.05 83.4107 250.05 82.8092Z" fill="#F9F9F9"/>
<path d="M260.965 76.9521H263.074V84.3461C263.074 85.1974 262.89 85.9136 262.522 86.4947C262.154 87.0707 261.653 87.5065 261.019 87.8022C260.385 88.0928 259.664 88.238 258.856 88.238C258.038 88.238 257.31 88.0928 256.671 87.8022C256.032 87.5065 255.531 87.0707 255.168 86.4947C254.805 85.9136 254.623 85.1974 254.623 84.3461V76.9521H256.732V84.3461C256.732 84.866 256.819 85.2917 256.993 85.623C257.167 85.9493 257.412 86.1914 257.729 86.3494C258.046 86.5074 258.422 86.5864 258.856 86.5864C259.296 86.5864 259.672 86.5074 259.983 86.3494C260.3 86.1914 260.543 85.9493 260.712 85.623C260.881 85.2917 260.965 84.866 260.965 84.3461V76.9521Z" fill="#F9F9F9"/>
<path d="M265.86 76.9521H269.917C270.766 76.9521 271.494 77.0796 272.102 77.3345C272.711 77.5893 273.178 77.9665 273.506 78.4661C273.833 78.9657 273.996 79.5799 273.996 80.3089C273.996 80.8849 273.894 81.3844 273.69 81.8075C273.485 82.2306 273.196 82.5849 272.823 82.8704C272.455 83.1558 272.021 83.3801 271.52 83.5432L270.86 83.8797H267.279L267.264 82.2204H269.94C270.374 82.2204 270.735 82.144 271.021 81.991C271.307 81.8381 271.522 81.6266 271.665 81.3564C271.814 81.0862 271.888 80.7778 271.888 80.4312C271.888 80.0591 271.816 79.7379 271.673 79.4678C271.53 79.1925 271.313 78.9809 271.021 78.8331C270.73 78.6853 270.362 78.6114 269.917 78.6114H267.969V88.0851H265.86V76.9521ZM272.164 88.0851L269.58 83.0997L271.811 83.0921L274.426 87.9781V88.0851H272.164Z" fill="#F9F9F9"/>
<path d="M282.473 85.1948C282.473 84.9807 282.44 84.7896 282.373 84.6214C282.312 84.448 282.197 84.2926 282.028 84.1549C281.865 84.0122 281.632 83.8746 281.33 83.742C281.034 83.6044 280.65 83.4617 280.18 83.3138C279.659 83.1507 279.173 82.9672 278.723 82.7633C278.273 82.5594 277.877 82.3224 277.535 82.0522C277.197 81.782 276.934 81.4711 276.745 81.1194C276.556 80.7625 276.461 80.3496 276.461 79.8807C276.461 79.4219 276.558 79.0039 276.752 78.6267C276.952 78.2495 277.233 77.9258 277.596 77.6556C277.959 77.3803 278.386 77.1688 278.877 77.021C279.372 76.8731 279.919 76.7992 280.518 76.7992C281.346 76.7992 282.061 76.9496 282.665 77.2503C283.273 77.5511 283.743 77.9589 284.076 78.4737C284.408 78.9886 284.574 79.5672 284.574 80.2094H282.473C282.473 79.8628 282.399 79.557 282.251 79.2919C282.107 79.0268 281.888 78.8178 281.591 78.6649C281.3 78.512 280.932 78.4355 280.487 78.4355C280.057 78.4355 279.7 78.4992 279.413 78.6267C279.132 78.7541 278.92 78.9274 278.777 79.1466C278.639 79.3658 278.57 79.6105 278.57 79.8807C278.57 80.0846 278.618 80.2681 278.716 80.4312C278.813 80.5892 278.958 80.7396 279.153 80.8823C279.347 81.02 279.587 81.1499 279.873 81.2723C280.165 81.3895 280.502 81.5068 280.886 81.624C281.499 81.8075 282.036 82.0114 282.496 82.2357C282.961 82.46 283.347 82.7149 283.654 83.0003C283.966 83.2858 284.198 83.6069 284.352 83.9638C284.51 84.3206 284.589 84.7258 284.589 85.1795C284.589 85.6587 284.495 86.0869 284.306 86.4641C284.117 86.8413 283.846 87.1625 283.493 87.4275C283.14 87.6926 282.716 87.894 282.22 88.0316C281.729 88.1692 281.18 88.238 280.571 88.238C280.029 88.238 279.493 88.1667 278.961 88.0239C278.434 87.8761 277.956 87.6569 277.527 87.3664C277.098 87.0707 276.755 86.6986 276.499 86.25C276.244 85.7963 276.116 85.2662 276.116 84.6596H278.232C278.232 85.0113 278.289 85.3121 278.401 85.5618C278.519 85.8065 278.682 86.0079 278.892 86.1659C279.107 86.3188 279.357 86.431 279.643 86.5023C279.93 86.5737 280.239 86.6094 280.571 86.6094C281.001 86.6094 281.353 86.5508 281.629 86.4335C281.911 86.3112 282.12 86.143 282.258 85.9289C282.401 85.7148 282.473 85.4701 282.473 85.1948Z" fill="#F9F9F9"/>
<path d="M294.4 86.4335V88.0851H288.465V86.4335H294.4ZM289.109 76.9521V88.0851H287V76.9521H289.109ZM293.626 81.5475V83.1609H288.465V81.5475H293.626ZM294.377 76.9521V78.6114H288.465V76.9521H294.377Z" fill="#F9F9F9"/>
<path d="M303.736 86.4335V88.0851H298.122V86.4335H303.736ZM298.759 76.9521V88.0851H296.65V76.9521H298.759Z" fill="#F9F9F9"/>
<path d="M308.04 76.9521V88.0851H305.932V76.9521H308.04ZM312.542 81.7616V83.4209H307.488V81.7616H312.542ZM313.132 76.9521V78.6114H307.488V76.9521H313.132Z" fill="#F9F9F9"/>
<path d="M317.506 76.9521L317.284 84.7437H315.574L315.351 76.9521H317.506ZM315.29 87.1446C315.29 86.8439 315.392 86.5915 315.597 86.3876C315.806 86.1786 316.088 86.0741 316.44 86.0741C316.793 86.0741 317.072 86.1786 317.276 86.3876C317.486 86.5915 317.591 86.8439 317.591 87.1446C317.591 87.4403 317.486 87.6901 317.276 87.894C317.072 88.0979 316.793 88.1998 316.44 88.1998C316.088 88.1998 315.806 88.0979 315.597 87.894C315.392 87.6901 315.29 87.4403 315.29 87.1446Z" fill="#F9F9F9"/>
<defs>
<linearGradient id="paint0_linear_3_56" x1="0.000869186" y1="22.3578" x2="33.1578" y2="22.3578" gradientUnits="userSpaceOnUse">
<stop offset="0.239" stop-color="#0069FF"/>
<stop offset="0.9995" stop-color="#00329D"/>
</linearGradient>
<linearGradient id="paint1_linear_3_56" x1="27.4476" y1="38.5447" x2="60.6044" y2="38.5447" gradientUnits="userSpaceOnUse">
<stop offset="0.239" stop-color="#FFD200"/>
<stop offset="0.9995" stop-color="#DAA100"/>
</linearGradient>
</defs>
</svg>
