<svg width="158" height="32" viewBox="0 0 158 32" fill="none" xmlns="http://www.w3.org/2000/svg">
<path d="M37.1769 0.584961H43.7855C47.5085 0.584961 49.9813 1.33074 51.2078 2.82035C52.4324 4.30995 53.0466 6.10965 53.0466 8.21747C53.0466 9.62268 52.7879 10.9514 52.2685 12.2015C51.749 13.4537 50.9254 14.3878 49.7937 15.0061C51.4666 15.5124 52.6971 16.3975 53.4871 17.6634C54.2771 18.9293 54.6702 20.4189 54.6702 22.1322C54.6702 23.9319 54.4351 25.5059 53.9631 26.8542C53.491 28.2025 52.5134 29.329 51.0301 30.2279C49.5468 31.1287 47.4019 31.5782 44.5973 31.5782H37.1749V0.584961H37.1769ZM44.4215 13.7402C46.0944 13.7402 47.2834 13.2554 47.9904 12.2859C48.6975 11.3164 49.0511 10.0858 49.0511 8.59625C49.0511 5.92516 47.4493 4.5906 44.2437 4.5906H41.0639V13.7402H44.4215ZM45.1286 27.6137C47.2715 27.6137 48.7153 27.1015 49.4579 26.0751C50.2006 25.0486 50.5719 23.7494 50.5719 22.1754C50.5719 20.6858 50.1472 19.5337 49.2999 18.7173C48.4526 17.9028 47.1668 17.4946 45.4485 17.4946H41.0658V27.6137H45.1286Z" fill="#F9F9F9"/>
<path d="M58.5571 7.71092C58.0613 7.12018 57.8145 6.3901 57.8145 5.51871C57.8145 4.73171 58.0613 4.05658 58.5571 3.49528C59.0528 2.93398 59.6651 2.65137 60.3939 2.65137C61.101 2.65137 61.7014 2.93202 62.1972 3.49528C62.6929 4.05854 62.9398 4.73171 62.9398 5.51871C62.9398 6.3901 62.6988 7.12018 62.2149 7.71092C61.731 8.30166 61.1247 8.59605 60.3939 8.59605C59.6651 8.59605 59.0528 8.30166 58.5571 7.71092ZM58.4524 12.2229H62.4105V31.576H58.4524V12.2229Z" fill="#F9F9F9"/>
<path d="M66.8268 12.2231H70.5735L70.6091 15.7656C71.0555 14.5841 71.7625 13.6146 72.7303 12.8571C73.6961 12.0975 74.8279 11.7188 76.1235 11.7188C77.7964 11.7188 79.0802 12.1348 79.9749 12.963C80.8696 13.7932 81.4701 14.9511 81.7782 16.4407C82.0843 17.9303 82.2384 19.8713 82.2384 22.2598V31.5782H78.4205V22.3854C78.4205 19.94 78.221 18.1757 77.8201 17.0943C77.4192 16.0129 76.5956 15.4712 75.3453 15.4712C74.6383 15.4712 73.9193 15.7322 73.1885 16.2504C72.4578 16.7705 71.8514 17.5221 71.3675 18.5054C70.8836 19.4906 70.6427 20.6426 70.6427 21.9635V31.5782H66.8248V12.2231H66.8268Z" fill="#F9F9F9"/>
<path d="M89.0918 30.6283C87.7962 29.7157 86.8422 28.493 86.2299 26.9602C85.6177 25.4294 85.3115 23.7494 85.3115 21.9222C85.3115 19.8713 85.671 18.0716 86.3899 16.5251C87.1088 14.9786 88.1043 13.7912 89.3762 12.963C90.6482 12.1348 92.086 11.7188 93.6878 11.7188C96.1843 11.7188 98.0409 12.5411 99.2536 14.1857C100.466 15.8304 101.073 18.1423 101.073 21.1215C101.073 21.881 101.037 22.668 100.966 23.4825H89.3032C89.5619 25.1978 90.0754 26.4342 90.8398 27.1938C91.6061 27.9533 92.6707 28.3321 94.0374 28.3321C95.1691 28.3321 96.0994 28.2202 96.8302 27.9945C97.5609 27.7688 98.2325 27.4607 98.8447 27.0662L100.01 30.3123C99.4215 30.7617 98.6196 31.1562 97.6064 31.4938C96.5932 31.8314 95.3686 32.0001 93.9308 32.0001C92.0031 31.9982 90.3875 31.5429 89.0918 30.6283ZM97.3634 20.3188C97.3871 18.576 97.0692 17.3455 96.4095 16.6291C95.7498 15.9128 94.8077 15.5536 93.5831 15.5536C91.1084 15.5536 89.6843 17.1414 89.3071 20.3188H97.3634Z" fill="#F9F9F9"/>
<path d="M104.077 12.2231H107.894V16.0188C108.272 14.7254 108.884 13.6853 109.733 12.8983C110.581 12.1113 111.546 11.7168 112.631 11.7168C113.385 11.7168 113.903 11.8012 114.185 11.97L113.656 16.5664C113.444 16.3976 112.984 16.3132 112.277 16.3132C111.169 16.3132 110.162 16.7351 109.255 17.579C108.349 18.423 107.894 19.7713 107.894 21.6279V31.5782H104.077V12.2231Z" fill="#F9F9F9"/>
<path d="M119.115 30.7539C117.879 29.9257 116.889 28.7442 116.146 27.2114C115.404 25.6787 115.032 23.8868 115.032 21.8359C115.032 19.8125 115.356 18.0403 116.004 16.5232C116.652 15.0041 117.576 13.8246 118.779 12.9807C119.98 12.1368 121.394 11.7148 123.02 11.7148C123.962 11.7148 124.845 11.9111 125.67 12.3056C126.494 12.7001 127.189 13.1848 127.756 13.7599C128.321 14.3369 128.698 14.906 128.888 15.4673L128.959 12.2212H132.599V31.5743H128.994L128.923 28.1594C128.522 29.1721 127.791 30.0631 126.733 30.8363C125.672 31.6096 124.483 31.9962 123.164 31.9962C121.7 31.9982 120.351 31.5841 119.115 30.7539ZM127.191 26.5383C128.109 25.4274 128.57 23.9732 128.57 22.1735V21.8791C128.57 20.6701 128.358 19.5887 127.934 18.633C127.509 17.6772 126.932 16.9334 126.202 16.3976C125.471 15.8638 124.669 15.5968 123.798 15.5968C122.289 15.5968 121.124 16.1797 120.298 17.3475C119.472 18.5152 119.062 20.0244 119.062 21.8811C119.062 23.7651 119.468 25.2901 120.28 26.4558C121.094 27.6236 122.265 28.2065 123.796 28.2065C125.141 28.2045 126.273 27.6491 127.191 26.5383Z" fill="#F9F9F9"/>
<path d="M137.157 0.584961H140.939V31.5762H137.157V0.584961Z" fill="#F9F9F9"/>
<path d="M147.493 31.4722C146.278 31.1209 145.413 30.7068 144.896 30.2279L146.168 26.6442C147.582 27.8257 149.195 28.4145 151.008 28.4145C152.822 28.4145 153.73 27.7825 153.73 26.5167C153.73 25.9554 153.541 25.5197 153.165 25.2096C152.788 24.9015 152.117 24.5345 151.151 24.1125L149.808 23.5218C148.393 22.8466 147.276 22.04 146.45 21.098C145.624 20.1559 145.214 18.9136 145.214 17.3671C145.214 15.5968 145.796 14.2112 146.964 13.2143C148.131 12.2173 149.691 11.7168 151.646 11.7168C152.612 11.7168 153.56 11.8424 154.491 12.0956C155.421 12.3488 156.134 12.6726 156.63 13.0651L155.251 16.692C154.945 16.3269 154.455 16.0109 153.783 15.744C153.112 15.4771 152.363 15.3437 151.54 15.3437C149.867 15.3437 149.031 15.9481 149.031 17.1571C149.031 17.8322 149.255 18.3445 149.703 18.6958C150.149 19.0471 150.88 19.4337 151.893 19.8556C151.988 19.8831 152.354 20.0382 152.99 20.3188C154.496 21.0214 155.616 21.8222 156.347 22.723C157.078 23.6238 157.443 24.7759 157.443 26.1811C157.443 28.0926 156.837 29.541 155.622 30.5243C154.408 31.5095 152.871 32.0001 151.01 32.0001C149.879 31.9982 148.708 31.8235 147.493 31.4722Z" fill="#F9F9F9"/>
<path d="M14.0546 22.8445L0.855208 13.1101C0.317987 12.7136 0 12.0876 0 11.4223C0 10.7569 0.317987 10.1309 0.855208 9.73444L14.0546 0L16.5768 3.37565L5.6665 11.4223L16.5768 19.4689L14.0546 22.8445Z" fill="url(#paint0_linear)"/>
<path d="M16.243 8.26855L29.4424 18.003C29.9797 18.3994 30.2976 19.0255 30.2976 19.6908C30.2976 20.3561 29.9797 20.9822 29.4424 21.3786L16.243 31.1131L13.7208 27.7374L24.6311 19.6908L13.7208 11.6442L16.243 8.26855Z" fill="url(#paint1_linear)"/>
<defs>
<linearGradient id="paint0_linear" x1="0.000434517" y1="11.4219" x2="16.576" y2="11.4219" gradientUnits="userSpaceOnUse">
<stop offset="0.239" stop-color="#0069FF"/>
<stop offset="0.9995" stop-color="#00329D"/>
</linearGradient>
<linearGradient id="paint1_linear" x1="13.7214" y1="19.6913" x2="30.2969" y2="19.6913" gradientUnits="userSpaceOnUse">
<stop offset="0.239" stop-color="#0069FF"/>
<stop offset="0.9995" stop-color="#00329D"/>
</linearGradient>
</defs>
</svg>
