<?xml version="1.0" standalone="no"?>
<!DOCTYPE svg PUBLIC "-//W3C//DTD SVG 20010904//EN"
 "http://www.w3.org/TR/2001/REC-SVG-20010904/DTD/svg10.dtd">
<svg version="1.0" xmlns="http://www.w3.org/2000/svg"
 width="192.000000pt" height="192.000000pt" viewBox="0 0 192.000000 192.000000"
 preserveAspectRatio="xMidYMid meet">
<metadata>
Created by potrace 1.11, written by Peter Selinger 2001-2013
</metadata>
<g transform="translate(0.000000,192.000000) scale(0.100000,-0.100000)"
fill="#000000" stroke="none">
<path d="M740 1824 c-69 -51 -158 -117 -198 -146 -40 -29 -78 -58 -85 -63 -7
-6 -34 -26 -62 -45 -27 -19 -52 -37 -55 -40 -3 -3 -61 -47 -130 -97 -159 -117
-172 -130 -178 -191 -4 -47 -2 -51 39 -93 24 -24 97 -82 162 -129 65 -47 176
-128 246 -180 71 -52 139 -102 151 -110 12 -8 28 -20 34 -25 6 -6 55 -43 110
-83 l99 -73 16 23 c8 13 19 28 23 33 5 6 31 41 60 79 49 66 50 70 32 83 -10 8
-57 42 -104 76 -47 34 -92 67 -100 74 -13 11 -152 113 -215 159 -11 8 -64 46
-117 86 -95 70 -97 72 -76 87 11 9 29 24 39 34 11 9 21 17 23 17 4 0 248 180
279 205 9 8 20 15 23 15 3 0 11 6 18 13 7 6 63 48 124 92 61 44 114 85 116 92
3 7 0 18 -7 25 -7 7 -36 45 -65 84 -29 40 -58 76 -65 82 -8 7 -48 -17 -137
-84z"/>
<path d="M930 1327 c-38 -52 -70 -98 -70 -103 0 -6 46 -43 103 -84 56 -41 109
-80 117 -87 8 -7 47 -35 85 -62 39 -28 76 -56 84 -62 8 -7 55 -42 105 -78 50
-36 97 -71 104 -78 7 -7 17 -13 22 -13 4 0 10 -6 13 -13 3 -9 -26 -36 -76 -72
-45 -33 -86 -63 -92 -67 -5 -5 -30 -23 -55 -42 -25 -18 -110 -81 -188 -140
-79 -58 -148 -106 -152 -106 -5 0 -10 -4 -12 -8 -1 -4 -18 -19 -37 -32 -19
-13 -29 -26 -23 -28 7 -2 12 -8 12 -13 0 -6 9 -19 20 -31 11 -12 20 -28 20
-35 0 -7 4 -13 9 -13 5 0 24 -22 42 -50 38 -55 48 -59 74 -30 10 11 22 20 27
20 5 0 15 6 22 12 7 7 24 21 37 31 77 56 518 381 539 397 14 10 53 40 88 66
76 56 94 81 95 133 1 51 -20 82 -94 135 -34 25 -73 54 -88 65 -14 10 -107 79
-206 152 -99 73 -240 177 -312 231 -73 54 -135 98 -138 98 -2 0 -36 -42 -75
-93z"/>
</g>
</svg>
