<svg viewBox="0 0 120 45" fill="currentColor" xmlns="http://www.w3.org/2000/svg"><path d="M68.5624 3.11599L68.8258 3.29177C71.9224 5.33669 74.1426 8.14122 75.6033 11.53C75.9539 12.0558 75.7202 12.348 75.019 12.5231L73.8323 12.8268C71.1494 13.518 69.0206 14.0993 66.3729 14.7904L64.8628 15.1837C64.319 15.3183 64.169 15.2618 63.5906 14.6032L63.509 14.5097C62.6843 13.575 62.0665 12.9506 60.9738 12.3933L60.7631 12.2894C57.0822 10.4784 53.5183 11.0041 50.1881 13.166C46.215 15.7366 44.1701 19.5344 44.2284 24.2669C44.287 28.9408 47.5003 32.797 52.1161 33.4397C56.089 33.9656 59.4192 32.5633 62.0484 29.5837C62.5744 28.9408 63.0417 28.2398 63.6258 27.4218H52.35C51.123 27.4218 50.831 26.6625 51.24 25.6692L51.4425 25.1922C52.1934 23.4452 53.358 20.9341 54.1144 19.4983L54.2794 19.1892C54.4814 18.839 54.8915 18.3658 55.6802 18.3658H74.4827C75.3272 15.6904 76.6973 13.1625 78.5247 10.7704C82.7899 5.16161 87.9314 2.24013 94.8841 1.01341C100.844 -0.0384662 106.453 0.545831 111.536 3.99302C116.151 7.14794 119.014 11.4133 119.774 17.0219C120.767 24.9096 118.488 31.3364 113.055 36.8285C109.199 40.743 104.466 43.1969 99.0323 44.3069C97.455 44.5992 95.8774 44.6576 94.3584 44.8329C89.0416 44.7159 84.1922 43.1969 80.1023 39.6914C77.2258 37.2047 75.2444 34.1489 74.2598 30.5911C73.5689 31.9853 72.7473 33.3107 71.8059 34.5497C67.5991 40.1004 62.1072 43.5473 55.1545 44.4825C49.4287 45.2418 44.1119 44.1316 39.4378 40.6261C35.1143 37.3542 32.6604 33.0307 32.0175 27.6558C31.2581 21.2871 33.1277 15.5613 36.9839 10.5368C41.1323 5.10302 46.6242 1.65606 53.3433 0.429112C58.7337 -0.545888 63.8986 0.0552838 68.5624 3.11599ZM96.3562 11.4883L96.1692 11.53C90.7357 12.757 87.2301 16.204 85.9448 21.6961C84.8929 26.2533 87.1132 30.869 91.32 32.7386C94.5332 34.1409 97.7468 33.9656 100.843 32.388C105.459 29.9927 107.971 26.2533 108.264 21.2287C108.205 20.4693 108.205 19.8848 108.088 19.3005C107.048 13.5815 101.839 10.3183 96.3562 11.4883ZM27.285 22.1634C27.5187 22.1634 27.6356 22.3387 27.6356 22.5724L27.5187 23.9747C27.5187 24.2083 27.285 24.3836 27.1097 24.3836L14.3728 24.3253C14.1391 24.3253 14.0808 24.15 14.1975 23.9747L15.0155 22.514C15.1324 22.3387 15.3661 22.1634 15.5998 22.1634H27.285ZM28.5703 16.7883C28.804 16.7883 28.9209 16.9636 28.8626 17.1389L28.395 18.5411C28.3366 18.7748 28.103 18.8915 27.8693 18.8915L0.233663 18.9501C-8.67248e-06 18.9501 -0.058368 18.8332 0.0583507 18.6579L1.2853 17.0805C1.40226 16.9052 1.69429 16.7883 1.92796 16.7883H28.5703ZM31.6085 11.4131C31.8422 11.4131 31.9005 11.5884 31.7838 11.7637L30.7905 13.2827C30.6736 13.458 30.3815 13.6333 30.2062 13.6333L9.05624 13.5747C8.82233 13.5747 8.76397 13.458 8.88069 13.2827L10.1076 11.7054C10.2246 11.5301 10.5166 11.4131 10.7503 11.4131H31.6085Z" fill="#00ACD7"></path></svg>