<svg viewBox="0 0 54 61" fill="currentColor" xmlns="http://www.w3.org/2000/svg"><path fill-rule="evenodd" clip-rule="evenodd" d="M31.9681 7.69732L44.3605 14.8207C44.7183 14.4438 45.1289 14.1204 45.5795 13.8604C48.1496 12.3894 51.4277 13.2627 52.9206 15.8215C54.3981 18.3803 53.5209 21.6437 50.9507 23.1299C50.5034 23.3864 50.0213 23.5775 49.5194 23.6973V37.9493C50.0159 38.0693 50.4926 38.2591 50.9354 38.5129C53.5209 39.9991 54.3981 43.2627 52.9053 45.8215C51.4277 48.3801 48.1343 49.2535 45.564 47.7827C45.0661 47.4983 44.6176 47.1358 44.2357 46.7091L31.9187 53.7887C32.0991 54.3324 32.1907 54.9015 32.19 55.4741C32.19 58.4158 29.7893 60.8215 26.8189 60.8215C23.8485 60.8215 21.4478 58.4311 21.4478 55.4741C21.4478 54.9484 21.5237 54.4407 21.6651 53.9612L9.27603 46.8399C8.92218 47.2093 8.51738 47.5267 8.07379 47.7827C5.48828 49.2535 2.2101 48.3801 0.732544 45.8215C-0.744798 43.2627 0.132472 39.9991 2.70247 38.5129C3.14521 38.2591 3.62197 38.0692 4.11843 37.9491V23.6973C3.61649 23.5775 3.13448 23.3864 2.68718 23.1299C0.116968 21.6592 -0.760302 18.3803 0.717249 15.8215C2.1948 13.2627 5.48807 12.3894 8.05828 13.8604C8.50647 14.119 8.91502 14.4404 9.27142 14.8147L21.6674 7.6894C21.5213 7.19564 21.4473 6.68351 21.4478 6.16877C21.4478 3.21199 23.8485 0.821533 26.8189 0.821533C29.7893 0.821533 32.19 3.21178 32.19 6.16877C32.19 6.70026 32.1125 7.21318 31.9681 7.69732ZM30.6771 9.89212L43.099 17.0322C42.9012 17.7206 42.8445 18.4415 42.9322 19.1521C43.0199 19.8628 43.2503 20.5486 43.6096 21.1688C44.3658 22.4783 45.5976 23.3465 46.9647 23.6848V37.9545C46.8949 37.9714 46.8256 37.99 46.7566 38.0096L30.5327 10.035C30.5817 9.98828 30.6299 9.94051 30.6771 9.89212ZM23.1085 10.0381L6.88475 38.0123C6.8146 37.9921 6.74405 37.9733 6.67313 37.956V23.6848C8.04027 23.3465 9.27205 22.4783 10.0282 21.1688C10.3883 20.5474 10.6188 19.8601 10.7062 19.148C10.7936 18.436 10.7359 17.7137 10.5367 17.0243L22.9551 9.88628C23.0052 9.9378 23.0563 9.9887 23.1085 10.0381ZM28.3197 11.3053L44.5397 39.2732C44.1682 39.6262 43.8497 40.0306 43.5941 40.4741C43.3392 40.9149 43.1486 41.3895 43.028 41.8837H10.6103C10.4895 41.3895 10.2988 40.9148 10.0437 40.4741C9.78726 40.0337 9.4694 39.6317 9.09961 39.2801L25.3227 11.3066C25.8091 11.446 26.3128 11.5165 26.8189 11.516C27.34 11.516 27.8435 11.4426 28.3197 11.3053ZM30.791 51.8717L43.1323 44.7779C43.0953 44.6621 43.0623 44.5451 43.0332 44.4271H10.6034C10.5862 44.4966 10.5675 44.5654 10.5476 44.634L22.9492 51.7626C23.4501 51.2442 24.0511 50.832 24.7161 50.5509C25.3811 50.2698 26.0964 50.1255 26.8189 50.1269C27.5667 50.1256 28.3064 50.2801 28.9905 50.5807C29.6746 50.8812 30.288 51.321 30.791 51.8717Z" fill="#E535AB"></path></svg>