<svg viewBox="0 0 27 59" fill="none" xmlns="http://www.w3.org/2000/svg"><path fill-rule="evenodd" clip-rule="evenodd" d="M14.3773 58.4865L12.8257 57.9551C12.8257 57.9551 13.0152 50.0293 10.176 49.4606C8.284 47.2607 10.4796 -43.8324 17.2923 49.1569C17.2923 49.1569 14.9453 50.3322 14.529 52.3426C14.0746 54.3148 14.3773 58.4865 14.3773 58.4865Z" fill="white"></path><path fill-rule="evenodd" clip-rule="evenodd" d="M14.3773 58.4865L12.8257 57.9551C12.8257 57.9551 13.0152 50.0293 10.176 49.4606C8.284 47.2607 10.4796 -43.8324 17.2923 49.1569C17.2923 49.1569 14.9453 50.3322 14.529 52.3426C14.0746 54.3148 14.3773 58.4865 14.3773 58.4865Z" fill="#A6A385"></path><path fill-rule="evenodd" clip-rule="evenodd" d="M15.2103 50.8256C15.2103 50.8256 28.7988 41.8754 25.6189 23.2544C22.5534 9.71617 15.3239 5.27905 14.5291 3.57234C13.6587 2.35878 12.8257 0.235352 12.8257 0.235352L13.3937 37.8932C13.3937 37.9314 12.2203 49.4222 15.2107 50.826" fill="white"></path><path fill-rule="evenodd" clip-rule="evenodd" d="M15.2103 50.8256C15.2103 50.8256 28.7988 41.8754 25.6189 23.2544C22.5534 9.71617 15.3239 5.27905 14.5291 3.57234C13.6587 2.35878 12.8257 0.235352 12.8257 0.235352L13.3937 37.8932C13.3937 37.9314 12.2203 49.4222 15.2107 50.826" fill="#499D4A"></path><path fill-rule="evenodd" clip-rule="evenodd" d="M12.0311 51.3186C12.0311 51.3186 -0.724728 42.596 0.0324205 27.2372C0.751424 11.878 9.75969 4.33117 11.5008 2.96596C12.6365 1.7524 12.6743 1.29706 12.7501 0.0834961C13.545 1.79021 13.3937 25.6065 13.5069 28.4125C13.8473 39.2208 12.9015 49.2712 12.0311 51.3186Z" fill="white"></path><path fill-rule="evenodd" clip-rule="evenodd" d="M12.0311 51.3186C12.0311 51.3186 -0.724728 42.596 0.0324205 27.2372C0.751424 11.878 9.75969 4.33117 11.5008 2.96596C12.6365 1.7524 12.6743 1.29706 12.7501 0.0834961C13.545 1.79021 13.3937 25.6065 13.5069 28.4125C13.8473 39.2208 12.9015 49.2712 12.0311 51.3186Z" fill="#58AA50"></path></svg>