<svg viewBox="0 0 110 75" fill="currentColor" xmlns="http://www.w3.org/2000/svg"><path d="M75.1919 7.57262C74.6556 7.57262 74.2981 7.64481 73.9372 7.73419V7.78919H73.9922C74.2431 8.25325 74.6556 8.61419 74.9753 9.04387C75.2263 9.52856 75.4394 10.027 75.6731 10.5117L75.7453 10.4395C76.175 10.1336 76.3916 9.65231 76.3916 8.91669C76.2128 8.70012 76.175 8.46981 76.0169 8.27044C75.8381 7.9645 75.4428 7.80637 75.1919 7.57262ZM22.1994 68.0486C22.0709 61.2968 21.6592 54.5533 20.9653 47.8361H20.9309L14.4684 68.0486H11.2269L4.81594 47.8361H4.76094C4.26273 54.5632 3.96468 61.3037 3.86719 68.0486H0C0.209399 59.5723 0.836933 51.1114 1.88031 42.697H7.14313L13.2653 61.3179H13.2997L19.4769 42.697H24.4888C25.5991 51.937 26.2625 60.3864 26.4584 68.0486H22.1994ZM44.8456 49.3417C43.1269 58.7226 40.8341 65.5461 38.0256 69.7879C35.805 73.0639 33.3884 74.7104 30.7553 74.7104C30.0575 74.7104 29.1981 74.4939 28.16 74.0642V71.8092C28.6791 71.8814 29.2703 71.9329 29.9337 71.9329C31.1678 71.9329 32.1544 71.5754 32.9072 70.912C33.8009 70.087 34.2512 69.1589 34.2512 68.1379C34.2512 67.4229 33.9109 65.9895 33.1959 63.8067L28.5587 49.3417H32.7319L36.0628 60.1561C36.8156 62.6276 37.1387 64.3292 36.9944 65.3123C38.8369 60.4414 40.1087 55.1064 40.8272 49.3417H44.8456ZM101.348 68.0486H89.2822V42.697H93.3453V64.9342H101.348V68.0486ZM86.13 68.6604L81.4756 66.3676C81.8881 66.0273 82.28 65.6526 82.6409 65.2229C84.6278 62.9129 85.6144 59.4583 85.6144 54.9104C85.6144 46.5126 82.3213 42.3257 75.7316 42.3257C72.5072 42.3257 69.9841 43.3811 68.1759 45.5123C66.2063 47.8395 65.2025 51.277 65.2025 55.8076C65.2025 60.2661 66.0791 63.5248 67.8356 65.6182C69.4478 67.4814 71.8644 68.4301 75.1059 68.4301C76.3056 68.4301 77.4159 68.2857 78.4197 67.9832L84.4903 71.5273L86.1541 68.6639L86.13 68.6604ZM71.0394 62.9645C70.0013 61.3179 69.4994 58.6676 69.4994 55.0136C69.4994 48.6232 71.4347 45.4367 75.3191 45.4367C77.3438 45.4367 78.8459 46.2067 79.7947 47.7295C80.8156 49.3932 81.3347 52.0092 81.3347 55.6254C81.3347 62.0536 79.3822 65.2951 75.515 65.2951C73.4731 65.2951 71.9881 64.5251 71.0222 63.0023L71.0394 62.9645ZM63.4459 61.0326C63.4459 63.1811 62.6588 64.9548 61.0638 66.3126C59.4894 67.6911 57.3925 68.3889 54.725 68.3889C52.2362 68.3889 49.8541 67.6017 47.5097 66.0239L48.6028 63.8411C50.6069 64.8448 52.415 65.3467 54.065 65.3467C55.5878 65.3467 56.7875 65.0064 57.6469 64.3429C58.5063 63.6623 59.0253 62.7136 59.0253 61.5139C59.0253 60.0082 57.97 58.7192 56.0519 57.6467C54.2781 56.6636 50.7169 54.6389 50.7169 54.6389C48.7816 53.2261 47.8328 51.7204 47.8328 49.2317C47.8328 47.1726 48.5478 45.5261 49.9813 44.2714C51.4319 42.9823 53.2744 42.3567 55.5672 42.3567C57.8483 42.3369 60.0845 42.991 61.9953 44.237L61.0122 46.4198C59.4762 45.7434 57.8194 45.3845 56.1413 45.3645C54.835 45.3645 53.8312 45.6876 53.1334 46.3132C52.4356 46.9389 52.0059 47.7261 52.0059 48.7126C52.0059 50.2182 53.0819 51.5073 55.0481 52.6142C56.8563 53.5973 60.4897 55.677 60.4897 55.677C62.4766 57.0726 63.4631 58.5782 63.4631 61.0292L63.4459 61.0326ZM106.435 34.1961C103.981 34.1411 102.083 34.392 100.492 35.0726C100.045 35.2514 99.3094 35.2514 99.2372 35.8254C99.4881 36.0764 99.5225 36.4717 99.7391 36.8086C100.114 37.417 100.743 38.242 101.334 38.6717C101.98 39.1736 102.623 39.6754 103.287 40.1051C104.486 40.8407 105.83 41.2704 107.009 42.0026C107.673 42.4323 108.353 42.9857 109.013 43.4361C109.354 43.6698 109.567 44.0823 109.997 44.2232V44.1339C109.78 43.8658 109.728 43.4704 109.512 43.1507C109.206 42.8448 108.903 42.5767 108.598 42.2742C107.701 41.084 106.626 40.0393 105.411 39.177C104.428 38.5136 102.279 37.582 101.884 36.4545L101.829 36.3823C102.493 36.3273 103.28 36.0764 103.923 35.8976C104.961 35.6295 105.927 35.6811 107.003 35.4129C107.496 35.2848 107.986 35.1415 108.47 34.9832V34.7151C107.917 34.1617 107.504 33.4089 106.93 32.8898C105.348 31.5056 103.66 30.2482 101.881 29.1292C100.915 28.5036 99.6978 28.1082 98.6769 27.5892C98.3194 27.4104 97.6937 27.3211 97.4944 27.0151C96.9409 26.3345 96.6178 25.4579 96.2225 24.6501C95.3233 22.9025 94.4874 21.123 93.7166 19.3151C93.1631 18.1154 92.84 16.9329 92.1594 15.8226C89.0072 10.6114 85.5697 7.46263 80.3069 4.36544C79.1794 3.71919 77.8181 3.45106 76.3847 3.11075C75.6147 3.07637 74.8619 3.02138 74.0919 2.987C73.59 2.77044 73.1087 2.19981 72.6791 1.91106C70.9259 0.80075 66.4125 -1.58144 65.1406 1.57075C64.3156 3.57481 66.3575 5.52731 67.0759 6.53106C67.595 7.24606 68.2584 8.03669 68.6331 8.82387C68.8497 9.36012 68.9013 9.917 69.1178 10.4704C69.6025 11.8145 70.0666 13.3167 70.7128 14.5714C71.0531 15.2176 71.4106 15.8948 71.8403 16.4689C72.0913 16.8092 72.5209 16.9536 72.6103 17.507C72.1806 18.1326 72.1462 19.047 71.9125 19.7998C70.8022 23.2717 71.2319 27.5514 72.7891 30.1123C73.2909 30.8823 74.4528 32.5667 76.0134 31.9204C77.3919 31.367 77.0894 29.6276 77.4813 28.0876C77.5706 27.7129 77.5156 27.4792 77.6978 27.2282V27.3004C78.1447 28.1598 78.5744 28.9848 78.9697 29.8442C79.9013 31.3498 81.565 32.907 82.9434 33.9451C83.6791 34.4986 84.2497 35.4507 85.1641 35.7876V35.6982H85.0919C84.8959 35.4301 84.645 35.3029 84.3941 35.0898C83.8135 34.5148 83.2748 33.899 82.7819 33.2473C81.51 31.5286 80.3653 29.6311 79.3616 27.6786C78.878 26.7138 78.4365 25.7286 78.0381 24.7257C77.8594 24.3682 77.8594 23.8114 77.5534 23.6326C77.0894 24.2961 76.4088 24.8667 76.0856 25.7089C75.4944 27.0151 75.4394 28.6445 75.2091 30.3289C75.1025 30.3632 75.1541 30.3289 75.1025 30.4011C74.1194 30.1501 73.7791 29.1464 73.4181 28.287C72.4866 26.1042 72.3422 22.6117 73.1328 20.1057C73.3494 19.4595 74.2603 17.4382 73.9028 16.8298C73.7069 16.2386 73.0984 15.8982 72.7753 15.4342C72.3628 14.8601 71.9503 14.1279 71.665 13.4817C70.9294 11.7629 70.5719 9.86544 69.7675 8.14669C69.41 7.3595 68.7638 6.5345 68.2447 5.80231C67.6534 4.97731 67.0106 4.3895 66.5603 3.42013C66.3988 3.07981 66.1856 2.52637 66.4366 2.16544C66.4916 1.9145 66.6153 1.82512 66.8662 1.75294C67.2616 1.41262 68.4063 1.84231 68.8016 2.03825C69.9291 2.48513 70.8778 2.91481 71.8266 3.56106C72.2562 3.867 72.7203 4.43762 73.2772 4.59919H73.9234C74.9066 4.81575 75.9997 4.65419 76.9141 4.9395C78.5434 5.45856 80.0113 6.21137 81.3347 7.03294C85.3819 9.63099 88.6732 13.2495 90.8772 17.5242C91.2519 18.222 91.4134 18.8682 91.7538 19.6004C92.3794 21.1232 93.1872 22.6426 93.83 24.0932C94.4728 25.5439 95.0847 27.0117 96.0128 28.2114C96.4769 28.8576 98.3056 29.1945 99.1444 29.5176C99.7528 29.8029 100.702 30.0539 101.238 30.377C102.293 31.0232 103.331 31.7554 104.318 32.4704C104.82 32.8107 106.342 33.5807 106.432 34.1892L106.435 34.1961Z" fill="#009ADC"></path></svg>