<svg viewBox="0 0 114 60" fill="currentColor" xmlns="http://www.w3.org/2000/svg"><path d="M33.3058 21.4641H28.8135L26.3661 34.0433H30.3561C32.9888 34.0433 34.9552 33.5445 36.2556 32.5434C37.5345 31.5602 38.4073 29.8894 38.8526 27.5702C39.2944 25.3436 39.0913 23.7654 38.2791 22.8392C37.4419 21.9307 35.7889 21.4676 33.3058 21.4676V21.4641ZM57 0C25.5111 0 0 13.4342 0 29.982C0 46.5298 25.5111 59.964 57 59.964C88.4889 59.964 114 46.5298 114 29.982C114 13.4342 88.4889 0 57 0ZM41.5067 35.4006C40.2734 36.5859 38.7892 37.4784 37.164 38.0119C35.568 38.5142 33.5303 38.7921 31.0614 38.7921H25.4362L23.8973 46.7721H17.3458L23.1919 16.7331H35.7711C39.558 16.7331 42.3225 17.7163 44.0646 19.7006C45.7924 21.6849 46.3303 24.4708 45.6214 28.0333C45.3561 29.4441 44.8691 30.804 44.1786 32.0625C43.468 33.309 42.565 34.4356 41.5031 35.4006H41.5067ZM60.6373 38.7921L63.2166 25.4932C63.5123 23.9863 63.4018 22.9532 62.8781 22.3903C62.3794 21.8524 61.2821 21.5745 59.6149 21.5745H54.4386L51.1005 38.7921H44.5882L50.4308 8.73525H56.9252L55.3684 16.7331H61.1574C64.8161 16.7331 67.317 17.3636 68.6921 18.6248C70.0851 19.9072 70.4912 21.9628 69.9568 24.8057L67.2244 38.7956L60.6373 38.7921ZM96.7041 28.0333C96.4469 29.4463 95.9595 30.8075 95.2612 32.0625C94.5573 33.3077 93.6617 34.4341 92.6072 35.4006C91.3628 36.5802 89.8741 37.4717 88.2467 38.0119C86.6507 38.5142 84.6094 38.7921 82.1441 38.7921H76.5403L74.9835 46.7721H68.4321L74.2781 16.7331H86.8573C90.6442 16.7331 93.4087 17.7163 95.1508 19.722C96.8786 21.6885 97.4166 24.4708 96.7076 28.0333H96.7041ZM84.3885 21.4641H79.914L77.4666 34.0433H81.4388C84.0892 34.0433 86.0557 33.5445 87.3382 32.5434C88.635 31.5602 89.5078 29.8894 89.9567 27.5702C90.3984 25.3436 90.1954 23.7654 89.3582 22.8392C88.5459 21.9307 86.8751 21.4676 84.3885 21.4676V21.4641Z" fill="currentColor"></path></svg>