<svg viewBox="0 0 52 54" fill="currentColor" xmlns="http://www.w3.org/2000/svg" class="page-stack-tool__icon"><path d="M37.3592 0C35.2749 0.0159798 33.2028 0.320343 31.2007 0.904556L31.0617 0.950121C29.8021 0.730232 28.5278 0.606685 27.2497 0.580536C24.6152 0.534971 22.3541 1.17626 20.5319 2.24958C18.7348 1.62685 15.0099 0.534971 11.084 0.756047C8.35566 0.904556 5.37106 1.73992 3.15355 4.09582C0.956135 6.44327 -0.211241 10.0817 0.0316133 15.0399C0.100282 16.4018 0.4855 18.6244 1.13032 21.5153C1.76677 24.3994 2.66616 27.7746 3.79167 30.8595C4.91717 33.936 6.14484 36.7037 8.06591 38.5837C9.02392 39.5237 10.3504 40.3253 11.9114 40.2561C13.0034 40.2106 13.9882 39.7279 14.8441 39.0157C15.2611 39.5693 15.7083 39.8055 16.1086 40.0266C16.6244 40.3084 17.1118 40.5008 17.6277 40.6257C18.5522 40.862 20.1316 41.1708 21.9806 40.8535C22.6539 40.7314 23.3102 40.528 23.9352 40.2477L24.0139 42.4534C24.1094 44.7823 24.173 46.9357 24.8597 48.8258C24.9736 49.1346 25.2801 50.7159 26.4826 52.1217C27.6952 53.5274 30.0484 54.3982 32.7449 53.8177C34.6392 53.4127 37.0543 52.6752 38.6605 50.3733C40.2483 48.1052 40.9635 44.8447 41.1042 39.5524C41.1376 39.2621 41.1829 39.0259 41.2247 38.7963L41.5999 38.8318H41.6451C43.6684 38.9195 45.8674 38.6293 47.7081 37.7669C49.3294 37.0109 50.5604 36.2464 51.4581 34.8845C51.6775 34.5486 51.9288 34.1369 51.9924 33.4331C52.0611 32.7395 51.6591 31.6392 50.9959 31.1312C49.6711 30.1119 48.8336 30.4984 47.9342 30.6925C47.0534 30.8837 46.1568 30.9922 45.2561 31.0165C47.8371 26.6405 49.6861 21.9827 50.743 17.8667C51.371 15.4315 51.7211 13.1903 51.7462 11.231C51.7814 9.2717 51.6172 7.54022 50.4549 6.03825C46.8087 1.35346 41.687 0.0506281 37.7276 0.00843802H37.3608L37.3592 0ZM37.2537 1.4429C40.997 1.40746 45.7837 2.46222 49.2205 6.89049C49.9976 7.88449 50.2254 9.33414 50.1986 11.1281C50.1718 12.922 49.8419 15.0568 49.2389 17.4043C48.0799 21.9591 45.8708 27.2481 42.7757 32.0054C42.8822 32.0863 42.9994 32.1516 43.124 32.1995C43.7689 32.4712 45.2427 32.699 48.1905 32.0932C48.9324 31.9329 49.4751 31.8299 50.0412 32.2603C50.1786 32.377 50.2871 32.5244 50.358 32.6908C50.429 32.8572 50.4604 33.038 50.4499 33.2188C50.4194 33.4929 50.317 33.7538 50.1534 33.9749C49.5856 34.8338 48.4635 35.654 47.0231 36.3308C45.7502 36.9265 43.9162 37.2353 42.305 37.2539C41.486 37.2623 40.7357 37.1999 40.0959 36.9974L40.0624 36.9906C39.8162 39.3718 39.2518 44.0836 38.8833 46.2269C38.5885 47.9567 38.0727 49.3388 37.0878 50.3666C36.1014 51.4044 34.7146 52.0187 32.8387 52.4238C30.519 52.925 28.8341 52.3883 27.7455 51.4652C26.6568 50.5421 26.1577 49.3118 25.8613 48.5642C25.6536 48.0461 25.5481 47.3778 25.4442 46.48C25.3302 45.4081 25.2543 44.3324 25.2164 43.255C25.1478 41.3649 25.121 39.4748 25.1478 37.5762C24.1801 38.4702 22.9779 39.0654 21.6842 39.2908C20.1416 39.5541 18.7716 39.2908 17.9526 39.0883C17.5485 38.9844 17.1587 38.8308 16.7919 38.631C16.4084 38.4284 16.05 38.2006 15.8071 37.7416C15.6672 37.4787 15.6239 37.1745 15.6848 36.8826C15.7572 36.5861 15.9266 36.3228 16.1655 36.135C16.6094 35.7722 17.1956 35.573 18.0749 35.3874C19.681 35.0515 20.2471 34.8254 20.5871 34.5503C20.8752 34.3225 21.2085 33.8483 21.7813 33.153C21.7813 33.1277 21.7813 33.0922 21.7729 33.0652C20.7351 33.0334 19.7191 32.7565 18.8068 32.2569C18.4768 32.6079 16.7567 34.4373 14.6732 36.9687C13.8006 38.0217 12.8326 38.6293 11.8042 38.6748C10.7842 38.717 9.85633 38.2006 9.0725 37.4344C7.50315 35.8954 6.24534 33.2492 5.155 30.2604C4.06467 27.2717 3.1837 23.942 2.54725 21.1119C1.91918 18.2717 1.54401 15.9867 1.49041 14.888C1.25593 10.2033 2.34627 7.04912 4.21206 5.05269C6.07785 3.05625 8.63536 2.31033 11.1309 2.16182C15.6061 1.90699 19.8619 3.47984 20.7178 3.81399C22.3742 2.67992 24.5113 1.97787 27.1811 2.02006C28.4462 2.03881 29.7051 2.20416 30.9327 2.51284L30.978 2.48584C31.5181 2.29735 32.0683 2.13959 32.626 2.01331C34.1418 1.65487 35.6918 1.46305 37.2486 1.44121L37.2537 1.4429ZM37.5937 2.94487H37.2637C35.9908 2.96006 34.7062 3.11194 33.4601 3.38365C36.242 4.62404 38.344 6.52934 39.8262 8.44646C40.8563 9.76448 41.7021 11.2141 42.3469 12.7617C42.6015 13.3608 42.7673 13.8603 42.8544 14.2468C42.9063 14.4408 42.9331 14.6062 42.9498 14.7733C42.9498 14.861 42.9582 14.9505 42.9147 15.099C42.9147 15.1074 42.9063 15.126 42.9063 15.1344C42.9783 17.1039 42.4893 18.4371 42.4256 20.3188C42.3837 21.6823 42.7321 23.2822 42.8192 25.0306C42.8979 26.6726 42.6986 28.475 41.6418 30.2503C41.7289 30.3566 41.8076 30.4613 41.8947 30.576C44.695 26.1275 46.7183 21.2149 47.7919 17.0212C48.368 14.7615 48.6712 12.7144 48.698 11.0994C48.7248 9.48096 48.4283 8.30302 48.0431 7.81192C45.0417 3.95237 40.9869 2.96681 37.592 2.94318L37.5937 2.94487ZM26.8896 3.52372C24.2568 3.53216 22.3625 4.33377 20.9255 5.53703C19.4399 6.78586 18.4467 8.4819 17.8019 10.2303C17.0247 12.2959 16.7551 14.2991 16.6496 15.6627L16.6847 15.6441C17.6146 15.1194 18.6131 14.7292 19.6509 14.4847C20.768 14.2198 21.9806 14.1404 23.0693 14.5725C24.1697 14.9927 25.0674 16.0036 25.399 17.5241C26.9717 24.855 24.9116 27.5805 24.1529 29.636C23.8648 30.3836 23.6119 31.1397 23.411 31.9126C23.5064 31.894 23.6036 31.867 23.699 31.8586C24.24 31.8164 24.657 31.9919 24.9033 32.0965C25.672 32.4206 26.1946 33.0889 26.4826 33.8533C26.5534 34.062 26.6055 34.2766 26.6384 34.4946C26.6673 34.5858 26.6825 34.6808 26.6836 34.7765C26.5957 37.5796 26.6041 40.3849 26.7087 43.1875C26.7623 44.4009 26.8411 45.4641 26.9365 46.3079C27.032 47.1432 27.1626 47.7845 27.2514 48.0039C27.5378 48.7245 27.9565 49.6645 28.7169 50.3058C29.4672 50.9488 30.5475 51.3707 32.5289 50.9488C34.2456 50.5708 35.3024 50.0594 36.0076 49.3219C36.716 48.5743 37.1331 47.5466 37.4027 45.9737C37.8131 43.6094 38.6237 36.7527 38.7208 35.4701C38.679 34.493 38.8163 33.747 39.1312 33.1749C39.4444 32.5944 39.9334 32.2349 40.3622 32.0409C40.5699 31.9447 40.7709 31.8839 40.9367 31.8299C40.7612 31.5833 40.5808 31.3402 40.3957 31.1009C39.7844 30.3535 39.2819 29.5221 38.9034 28.6319C38.7293 28.2586 38.537 27.8942 38.3272 27.54C38.0325 27.0051 37.6573 26.3266 37.2637 25.5621C36.4782 24.0501 35.624 22.2055 35.1785 20.4116C34.7347 18.6177 34.6744 16.7647 35.8083 15.4635C36.8115 14.3024 38.5818 13.8215 41.2231 14.0932C41.1443 13.8552 41.1025 13.6527 40.9702 13.3456C40.3694 11.9239 39.5862 10.5877 38.6404 9.37127C36.3978 6.4804 32.76 3.61316 27.1526 3.51697L26.8896 3.52372ZM12.0621 3.63848C11.78 3.63818 11.4979 3.64718 11.2163 3.66548C8.95693 3.7988 6.82819 4.45528 5.30072 6.08213C3.77492 7.71742 2.77336 10.3805 2.98941 14.802C3.03463 15.6458 3.39138 17.9831 4.0094 20.7694C4.63077 23.5573 5.51007 26.8363 6.56691 29.7356C7.62039 32.6265 8.89664 35.1494 10.1176 36.3443C10.7273 36.9332 11.2582 37.1796 11.7389 37.1627C12.2196 37.1357 12.8041 36.8539 13.5192 35.9932C14.8171 34.4154 16.1643 32.8794 17.559 31.3878C16.5699 30.5202 15.8134 29.4157 15.3591 28.1762C14.9049 26.9366 14.7675 25.6019 14.9596 24.2948C15.1857 22.6342 15.2209 21.0765 15.1857 19.8462C15.1606 18.6514 15.0802 17.8616 15.0802 17.3604V17.3064L15.0718 17.2912C15.0718 14.6973 15.5274 12.1322 16.3983 9.69698C17.0264 8.01612 17.9526 6.32177 19.3461 4.93962C17.9777 4.48228 15.5425 3.7988 12.9096 3.66548C12.628 3.64723 12.3443 3.63823 12.0621 3.63848ZM39.7475 15.5209C38.2318 15.5479 37.3843 15.9445 36.9321 16.4525C36.3023 17.1832 36.242 18.4658 36.6356 20.0487C37.0259 21.63 37.8399 23.3969 38.5986 24.8669C38.9737 25.6043 39.3405 26.2642 39.6353 26.7992C39.9418 27.3443 40.1595 27.7223 40.2902 28.0564C40.4124 28.3551 40.5531 28.6184 40.6921 28.8648C41.2767 27.616 41.3822 26.3941 41.3202 25.1116C41.2415 23.5303 40.8764 21.9119 40.9367 20.2783C40.9986 18.3611 41.3738 17.1123 41.4006 15.6357C40.8536 15.5628 40.3026 15.5245 39.7509 15.5209H39.7475ZM21.3609 15.7875C20.8987 15.7875 20.4364 15.8483 19.9825 15.9546C19.083 16.1726 18.217 16.5127 17.4083 16.9655C17.1361 17.1139 16.8767 17.2849 16.6328 17.4768L16.5792 17.519C16.5976 17.8549 16.6579 18.6447 16.6847 19.8226C16.7115 21.1052 16.6847 22.7388 16.4419 24.5074C15.9009 28.3568 18.6745 31.5396 21.9287 31.5481C22.1213 30.7566 22.4328 29.955 22.7477 29.1129C23.6538 26.6507 25.4342 24.8584 23.9335 17.8447C23.6907 16.7022 23.2016 16.2364 22.5283 15.9732C22.1537 15.8403 21.758 15.7779 21.3609 15.7892V15.7875ZM39.0424 16.2432H39.1563C39.2953 16.2516 39.436 16.2618 39.5566 16.2955C39.6655 16.317 39.7694 16.3588 39.8631 16.4187C39.9066 16.445 39.944 16.4805 39.9726 16.5228C40.0012 16.565 40.0204 16.613 40.0289 16.6634V16.682C40.0285 16.7899 40.0014 16.896 39.9502 16.9908C39.8843 17.112 39.8026 17.2238 39.7073 17.3233C39.4821 17.577 39.1768 17.7445 38.8431 17.7975C38.5202 17.8392 38.1935 17.758 37.9269 17.5697C37.8214 17.4925 37.7248 17.4036 37.6389 17.3047C37.5635 17.2248 37.5144 17.1234 37.4982 17.0144C37.4884 16.9104 37.5197 16.8067 37.5853 16.7259C37.6628 16.646 37.7514 16.5778 37.8482 16.5233C38.0643 16.4001 38.3524 16.3124 38.6857 16.2668C38.8062 16.2516 38.9285 16.2415 39.0424 16.2331V16.2432ZM21.577 16.6212C21.6909 16.6212 21.8232 16.6297 21.9455 16.6465C22.2938 16.7005 22.5903 16.7883 22.8248 16.9284C22.9397 16.9848 23.0409 17.066 23.1212 17.1663C23.2082 17.2721 23.2519 17.4072 23.2435 17.5443C23.2196 17.6743 23.1618 17.7955 23.076 17.8954C22.9841 18.0081 22.8757 18.106 22.7544 18.1856C22.4642 18.3957 22.1056 18.4868 21.7512 18.4405C21.3921 18.3823 21.0633 18.2032 20.8183 17.9325C20.7154 17.8211 20.627 17.6969 20.5553 17.5629C20.4772 17.4434 20.4433 17.3 20.4599 17.1579C20.495 16.9216 20.696 16.7883 20.8886 16.7191C21.108 16.6465 21.3425 16.6229 21.577 16.6313V16.6212ZM41.8076 33.1446H41.7992C41.4776 33.2677 41.208 33.3133 40.9802 33.4196C40.7497 33.5073 40.5602 33.6789 40.4493 33.9006C40.3002 34.1571 40.188 34.6145 40.2215 35.3941C40.3222 35.4671 40.4351 35.5214 40.5548 35.5545C40.93 35.6692 41.5748 35.7485 42.29 35.7384C43.7119 35.7198 45.4655 35.3874 46.3984 34.9469C47.1608 34.5909 47.8687 34.1266 48.5003 33.5681C45.3868 34.2094 43.6349 34.0424 42.5512 33.5951C42.285 33.4791 42.0338 33.3275 41.8076 33.1446ZM23.8732 33.3555H23.828C23.7074 33.3639 23.5399 33.4095 23.1999 33.7791C22.4228 34.6567 22.1531 35.2102 21.5167 35.7215C20.8719 36.2396 20.0428 36.513 18.3763 36.8556C18.0209 36.9197 17.6748 37.0286 17.3463 37.1796C17.4066 37.2336 17.4066 37.2522 17.5021 37.2944C17.7483 37.4361 18.0598 37.5509 18.3144 37.6201C19.0295 37.7956 20.1969 38.0065 21.4279 37.7956C22.6489 37.5846 23.9218 36.994 25.0138 35.4583C25.2064 35.195 25.2215 34.7984 25.0657 34.3765C24.91 33.9647 24.5683 33.5951 24.3338 33.499C24.1871 33.4301 24.0315 33.3824 23.8715 33.3572L23.8732 33.3555Z" fill="#4186B8"/></svg>