<svg viewBox="0 0 68 61" fill="#00D8FF" xmlns="http://www.w3.org/2000/svg"><path d="M33.7181 24.8085C30.4032 24.8085 27.7036 27.5081 27.7036 30.823C27.7036 34.1379 30.4032 36.8374 33.7181 36.8374C37.033 36.8374 39.7326 34.1379 39.7326 30.823C39.7326 27.5081 37.033 24.8085 33.7181 24.8085ZM16.8801 42.776L15.5525 42.4473C5.67307 39.9437 0 35.7079 0 30.8124C0 25.917 5.67518 21.6812 15.5525 19.1776L16.8801 18.8488L17.2531 20.1659C18.2553 23.6158 19.5366 26.9783 21.0843 30.2203L21.3688 30.8124L21.0843 31.4151C19.5334 34.6557 18.252 38.0185 17.2531 41.4695L16.8801 42.776ZM14.9392 22.2501C7.43062 24.3575 2.82178 27.5945 2.82178 30.8124C2.82178 34.0304 7.43273 37.2547 14.9392 39.3747C15.8594 36.451 16.9703 33.5908 18.2647 30.8124C16.9685 28.0348 15.8576 25.1745 14.9392 22.2501ZM50.5561 42.776L50.1831 41.4589C49.1826 38.0119 47.9012 34.6527 46.3518 31.4151L46.0673 30.8124L46.3518 30.2097C47.9028 26.9691 49.1842 23.6063 50.1831 20.1554L50.5561 18.8488L51.8837 19.1776C61.7631 21.6812 67.4362 25.917 67.4362 30.8124C67.4362 35.7079 61.761 39.9437 51.8837 42.4473L50.5561 42.776ZM49.1715 30.8124C50.4702 33.589 51.5812 36.4495 52.497 39.3747C60.0161 37.2568 64.6144 34.0304 64.6144 30.8124C64.6144 27.5945 60.0034 24.3702 52.497 22.2501C51.5746 25.1731 50.4638 28.0332 49.1715 30.8124ZM14.916 22.2396L14.543 20.9225C11.7655 11.1316 12.6106 4.1077 16.859 1.65893C21.0296 -0.745595 27.7142 2.09726 34.7275 9.29818L35.6822 10.276L34.7275 11.2538C32.2369 13.8451 29.9612 16.6346 27.9228 19.5948L27.5393 20.1322L26.8796 20.187C23.2939 20.4701 19.7369 21.043 16.2437 21.9003L14.916 22.2396ZM20.2498 3.61458C19.4933 3.61458 18.8231 3.76841 18.2626 4.09717C15.4745 5.71142 14.9814 11.3086 16.9012 18.8594C19.8967 18.1893 22.9329 17.7162 25.9903 17.4432C27.7505 14.9362 29.6753 12.5489 31.7519 10.2971C27.3728 6.02753 23.2233 3.61247 20.2498 3.61247V3.61458ZM47.1969 60.8194C47.1864 60.8194 47.1864 60.8194 47.1969 60.8194C43.1908 60.8194 38.0424 57.8122 32.7087 52.3246L31.754 51.3468L32.7087 50.3689C35.1993 47.7776 37.475 44.9881 39.5134 42.0279L39.8864 41.4905L40.546 41.4252C44.1364 41.1517 47.6976 40.5786 51.1925 39.7119L52.5201 39.3832L52.8932 40.7003C55.6707 50.4912 54.8256 57.5045 50.5771 59.9512C49.55 60.5415 48.3814 60.841 47.1969 60.8173V60.8194ZM35.6822 51.3257C40.0613 55.5952 44.2107 58.0103 47.1842 58.0103H47.1948C47.9408 58.0103 48.611 57.8459 49.1715 57.5277C51.9596 55.9134 52.4653 50.3162 50.5329 42.7655C47.5379 43.4363 44.5014 43.9059 41.4437 44.1711C39.6836 46.6815 37.7589 49.0723 35.6822 51.3278V51.3257ZM52.5201 22.2396L51.1925 21.9003C47.6951 21.0459 44.1349 20.4729 40.546 20.187L39.8864 20.1322L39.5134 19.5948C37.475 16.6346 35.1993 13.8451 32.7087 11.2538L31.754 10.276L32.7087 9.29818C39.722 2.09726 46.4066 -0.745595 50.5771 1.65893C54.8256 4.1056 55.6707 11.1316 52.8932 20.9225L52.5201 22.2396ZM41.4459 17.4432C44.5033 17.7155 47.5396 18.1886 50.535 18.8594C52.4675 11.3086 51.9617 5.70931 49.1736 4.09717C46.3961 2.49556 41.1719 4.95276 35.6843 10.2992C37.7553 12.5559 39.6797 14.9428 41.4459 17.4453V17.4432ZM20.2498 60.8194C19.0634 60.8405 17.8896 60.5455 16.859 59.9533C12.6106 57.5066 11.7655 50.4911 14.543 40.7024L14.916 39.3853L16.2437 39.714C19.4933 40.538 23.0716 41.107 26.8796 41.4273L27.5393 41.4926L27.9123 42.03C29.9506 44.9902 32.2264 47.7797 34.717 50.371L35.6716 51.3489L34.717 52.3267C29.3937 57.8143 24.2454 60.8215 20.2498 60.8215V60.8194ZM16.9033 42.7655C14.9708 50.3162 15.4766 55.9156 18.2647 57.5277C21.0422 59.1082 26.2559 56.6721 31.754 51.3257C29.6773 49.0702 27.7525 46.6794 25.9924 44.169C22.9347 43.9045 19.8981 43.4349 16.9033 42.7634V42.7655ZM33.7181 44.5315C31.4021 44.5315 29.0313 44.4324 26.6499 44.2343L25.9903 44.1795L25.6068 43.6316C24.2617 41.6989 22.9982 39.7106 21.8198 37.672C20.639 35.6332 19.5443 33.5458 18.5386 31.4151L18.2541 30.8124L18.5386 30.2097C20.5533 25.9494 22.9175 21.8633 25.6068 17.9932L25.9903 17.4453L26.6499 17.3905C31.3537 16.9943 36.0825 16.9943 40.7862 17.3905L41.4459 17.4453L41.8294 17.9932C44.5222 21.8611 46.8865 25.9475 48.8976 30.2097L49.182 30.8124L48.8976 31.4151C46.8905 35.6795 44.526 39.7663 41.8294 43.6316L41.4459 44.1795L40.7862 44.2343C38.4353 44.4311 36.0772 44.5302 33.7181 44.5315ZM27.5498 41.48C31.6992 41.7982 35.737 41.7982 39.8969 41.48C42.217 38.0827 44.2789 34.5161 46.0652 30.8103C44.2864 27.0984 42.2205 23.531 39.8864 20.1407C35.7803 19.8224 31.6558 19.8224 27.5498 20.1407C25.214 23.53 23.148 27.0975 21.3709 30.8103C23.1578 34.518 25.2234 38.0848 27.5498 41.48Z" fill="#00D8FF"></path></svg>