<svg viewBox="0 0 70 61" fill="currentColor" xmlns="http://www.w3.org/2000/svg"><path d="M69.7058 37.6491C69.684 38.3207 68.7972 39.0623 66.993 40.0074C63.2714 41.9566 44.0011 49.9198 39.8916 52.0616C35.7844 54.2142 33.5139 54.1924 30.2673 52.6304C27.0208 51.0815 6.51496 42.7508 2.81516 40.9853C0.976155 40.0971 0.0348627 39.3555 0 38.6489V45.7238C0 46.4305 0.976155 47.1699 2.81516 48.0603C6.51496 49.8389 27.0338 58.1565 30.2673 59.7053C33.5139 61.2673 35.7822 61.2892 39.8916 59.1365C43.9989 56.9948 63.2692 49.0294 66.993 47.0824C68.8887 46.1023 69.7275 45.3279 69.7275 44.6322V37.6578C69.7275 37.6469 69.7167 37.6469 69.7058 37.6469V37.6491ZM69.7058 26.1178C69.6709 26.7785 68.7972 27.5201 66.993 28.4761C63.2714 30.4122 44.0011 38.3776 39.8916 40.5193C35.7844 42.672 33.5139 42.6501 30.2673 41.1012C27.0208 39.5392 6.51496 31.2217 2.81516 29.4453C0.976155 28.568 0.0348627 27.8154 0 27.1088V34.1838C0 34.8904 0.976155 35.643 2.81516 36.5202C6.51496 38.2988 27.0208 46.6164 30.2673 48.1762C33.5139 49.7251 35.7822 49.7492 39.8916 47.6074C43.9989 45.4548 63.2692 37.5003 66.993 35.5533C68.8887 34.5623 69.7275 33.7878 69.7275 33.0921V26.1178H69.7058ZM69.7058 14.1424C69.7406 13.4358 68.8211 12.8101 66.9473 12.1253C63.3281 10.793 44.1601 3.13613 40.493 1.77976C36.8281 0.434335 35.329 0.491215 31.0169 2.04229C26.7048 3.60429 6.31015 11.6353 2.68007 13.0595C0.86503 13.777 -0.0217892 14.4377 0.0130735 15.1443V22.2193C0.0130735 22.9259 0.978334 23.6654 2.82824 24.5558C6.51714 26.3344 27.0338 34.6519 30.2804 36.2118C33.5139 37.7607 35.7953 37.7847 39.9047 35.6298C44.0011 33.4881 63.2823 25.5227 67.0061 23.5866C68.8908 22.5956 69.7297 21.8212 69.7297 21.1255V14.1402L69.7058 14.1424ZM24.9682 20.8433L41.1293 18.3602L36.2485 25.538L24.9682 20.8433ZM60.7047 14.3699L50.1173 18.5746L40.5627 14.7812L51.1392 10.5874L60.7047 14.3699ZM32.6511 7.41962L31.0844 4.52531L35.9652 6.43954L40.5606 4.93441L39.312 7.9206L43.9989 9.68606L37.9611 10.3117L36.5993 13.5823L34.4204 9.93546L27.4413 9.30978L32.6511 7.41962ZM20.6104 11.5106C25.3888 11.5106 29.2476 13.0157 29.2476 14.8599C29.2476 16.7173 25.3779 18.2202 20.6104 18.2202C15.8429 18.2202 11.9732 16.7151 11.9732 14.8599C11.9732 13.0135 15.8429 11.5106 20.6104 11.5106Z" fill="#B52E31"></path></svg>