<svg viewBox="0 0 64 61" fill="currentColor" xmlns="http://www.w3.org/2000/svg"><path d="M44.1941 42.7251C46.5478 42.4836 48.3335 40.473 48.2523 38.06C48.1713 35.6473 46.142 33.7169 43.7071 33.7169H43.5449C41.0285 33.7974 39.0806 35.8885 39.1618 38.3817C39.2431 39.5882 39.7299 40.6337 40.4604 41.3576C37.7008 46.7465 33.4803 50.6874 27.1494 53.985C22.8476 56.237 18.3836 57.0413 13.9197 56.4784C10.2671 55.9958 7.42636 54.3874 5.64046 51.7329C3.04334 47.792 2.79992 43.5291 4.99143 39.2665C6.53366 36.2102 8.96833 33.9581 10.5106 32.8321C10.1859 31.7866 9.69884 30.0172 9.45542 28.7305C-2.31359 37.1755 -1.09601 48.5963 2.47528 53.985C5.15363 58.0066 10.5918 60.4999 16.598 60.4999C18.2212 60.4999 19.8444 60.3389 21.4678 59.937C31.8571 57.9261 39.7302 51.8134 44.1941 42.7251ZM58.4793 32.7519C52.3106 25.5936 43.2202 21.6527 32.831 21.6527H31.5324C30.8019 20.205 29.2597 19.2397 27.5553 19.2397H27.3928C24.8769 19.3202 22.9291 21.4112 23.0101 23.9047C23.0913 26.3175 25.1204 28.2478 27.5553 28.2478H27.7175C29.5031 28.1673 31.0453 27.0413 31.6946 25.5131H33.1556C39.3243 25.5131 45.1681 27.2825 50.444 30.7411C54.5022 33.3952 57.4242 36.8538 59.0474 41.0359C60.4271 44.414 60.3459 47.7115 58.8849 50.5267C56.6124 54.7893 52.7977 57.1218 47.7654 57.1218C44.5188 57.1218 41.4346 56.1565 39.8111 55.4327C38.9184 56.237 37.295 57.5237 36.1586 58.3283C39.6489 59.9367 43.2202 60.8215 46.6291 60.8215C54.4209 60.8215 60.1837 56.5587 62.3752 52.2961C64.7289 47.631 64.5665 39.5882 58.4793 32.7519ZM17.2473 44.092C17.3285 46.505 19.3576 48.4351 21.7925 48.4351H21.9549C24.4711 48.3549 26.4189 46.2636 26.3377 43.7703C26.2567 41.3573 24.2274 39.4272 21.7925 39.4272H21.6303C21.4678 39.4272 21.2242 39.4272 21.0622 39.5075C17.7344 34.0384 16.3546 28.0869 16.8417 21.6524C17.1661 16.8267 18.7895 12.6443 21.6303 9.1858C23.984 6.20992 28.5292 4.76222 31.6137 4.68198C40.217 4.52102 43.8693 15.1376 44.1129 19.4004C45.1681 19.6416 46.9537 20.2047 48.1713 20.6069C47.1971 7.57763 39.0806 0.821533 31.289 0.821533C23.984 0.821533 17.2473 6.04944 14.5687 13.7706C10.8352 24.0654 13.2701 33.9581 17.8153 41.7598C17.4097 42.3226 17.1661 43.2072 17.2473 44.092Z" fill="#764ABC"></path></svg>