<svg viewBox="0 0 60 60" fill="none" xmlns="http://www.w3.org/2000/svg"><g clip-path="url(#clip0)"><path d="M13.336 0H46.5704C48.1876 0 49.7579 0.257813 51.2814 0.796875C53.4845 1.59375 55.4767 3 56.9767 4.82812C58.5001 6.65625 59.5079 8.90625 59.8595 11.25C60.0001 12.1172 60.0235 12.9844 60.0235 13.8516V46.2656C60.0235 47.2969 59.9767 48.3516 59.7657 49.3594C59.297 51.6797 58.1954 53.8594 56.6017 55.6172C55.0314 57.375 52.9689 58.6875 50.7423 59.3906C49.3829 59.8125 47.9767 60 46.547 60C45.9142 60 13.2423 60 12.7501 59.9766C10.3595 59.8594 7.99229 59.0859 6.0001 57.75C4.05479 56.4375 2.46104 54.6094 1.42979 52.5C0.539163 50.6953 0.0938506 48.6797 0.0938506 46.6641V13.3359C0.0469756 11.3438 0.468851 9.375 1.33604 7.59375C2.34385 5.48438 3.91416 3.63281 5.85948 2.32031C7.85166 0.960937 10.1954 0.164062 12.586 0.046875C12.8204 0 13.0782 0 13.336 0Z" fill="url(#paint0_linear)"></path><path d="M50.625 49.0781C50.4141 48.75 50.1797 48.4219 49.9219 48.1172C49.3359 47.4141 48.6562 46.8047 47.9062 46.2891C46.9688 45.6563 45.8672 45.2578 44.7422 45.2109C43.9453 45.1641 43.1484 45.3047 42.3984 45.5859C41.6484 45.8438 40.9219 46.2188 40.2188 46.5938C39.3984 47.0156 38.5781 47.4375 37.7109 47.7891C36.6797 48.2109 35.6016 48.5391 34.5 48.7734C33.1172 49.0313 31.7109 49.125 30.3281 49.1016C27.8203 49.0547 25.3125 48.6797 22.9219 47.9766C20.8125 47.3438 18.7969 46.4766 16.8984 45.375C15.2344 44.4141 13.6875 43.3125 12.2344 42.0703C11.0391 41.0391 9.9375 39.9375 8.90625 38.7656C8.20313 37.9453 7.52344 37.0781 6.89063 36.1875C6.63281 35.8359 6.39844 35.4609 6.1875 35.0859L0 28.4063V13.2891C0 5.95313 5.92969 0 13.2656 0H25.1016L33.8672 8.90625C53.6484 22.3594 47.25 37.1953 47.25 37.1953C47.25 37.1953 52.875 43.5234 50.625 49.0781Z" fill="url(#paint1_linear)"></path><path d="M33.9141 8.90625C53.6953 22.3594 47.2969 37.1953 47.2969 37.1953C47.2969 37.1953 52.9219 43.5469 50.6484 49.1016C50.6484 49.1016 48.3281 45.2109 44.4375 45.2109C40.6875 45.2109 38.4844 49.1016 30.9375 49.1016C14.1328 49.1016 6.1875 35.0625 6.1875 35.0625C21.3281 45.0234 31.6641 37.9688 31.6641 37.9688C24.8437 34.0078 10.3359 15.0703 10.3359 15.0703C22.9687 25.8281 28.4297 28.6641 28.4297 28.6641C25.1719 25.9688 16.0312 12.7969 16.0312 12.7969C23.3437 20.2031 37.875 30.5391 37.875 30.5391C42 19.1016 33.9141 8.90625 33.9141 8.90625Z" fill="white"></path></g><defs><linearGradient id="paint0_linear" x1="35.6933" y1="-2.14102" x2="24.3573" y2="62.1483" gradientUnits="userSpaceOnUse"><stop stop-color="#FAAE42"></stop><stop offset="1" stop-color="#EF3E31"></stop></linearGradient><linearGradient id="paint1_linear" x1="30.6122" y1="0.969375" x2="22.3156" y2="48.0218" gradientUnits="userSpaceOnUse"><stop stop-color="#E39F3A"></stop><stop offset="1" stop-color="#D33929"></stop></linearGradient><clipPath id="clip0"><rect width="60" height="60" fill="white"></rect></clipPath></defs></svg>